<?xml version="1.0" encoding="UTF-8" standalone="no"?>
<!-- Created with Inkscape (http://www.inkscape.org/) -->

<svg
   xmlns:dc="http://purl.org/dc/elements/1.1/"
   xmlns:cc="http://creativecommons.org/ns#"
   xmlns:rdf="http://www.w3.org/1999/02/22-rdf-syntax-ns#"
   xmlns:svg="http://www.w3.org/2000/svg"
   xmlns="http://www.w3.org/2000/svg"
   xmlns:xlink="http://www.w3.org/1999/xlink"
   version="1.1"
   width="32"
   height="31.999998"
   viewBox="0 0 252 251.99998"
   id="svg2">
  <metadata
     id="metadata36">
    <rdf:RDF>
      <cc:Work
         rdf:about="">
        <dc:format>image/svg+xml</dc:format>
        <dc:type
           rdf:resource="http://purl.org/dc/dcmitype/StillImage" />
        <dc:title></dc:title>
      </cc:Work>
    </rdf:RDF>
  </metadata>
  <defs
     id="defs4">
    <clipPath
       id="c">
      <path
         d="M 0,0 V 1.5 H 7 V 3 H 6 z M 6,0 H 3 V 3.5 H 0 V 3 z"
         id="path7" />
    </clipPath>
    <path
       d="M 0,-360 69.421398,-144.15502 281.45933,-224.45633 155.98847,-35.603349 350.97405,80.107536 125.09304,99.758368 156.19815,324.34879 0,160 -156.19815,324.34879 -125.09304,99.758368 -350.97405,80.107536 -155.98847,-35.603349 -281.45933,-224.45633 l 212.037932,80.30131 z"
       id="Star7" />
    <path
       d="M 0,-210 54.859957,-75.508253 199.72187,-64.893569 88.765275,28.841586 123.4349,169.89357 0,93.333333 -123.4349,169.89357 -88.765275,28.841586 -199.72187,-64.893569 -54.859957,-75.508253 z"
       id="Star5" />
    <use
       transform="scale(2.1,2.1)"
       id="Cstar"
       x="0"
       y="0"
       width="10080"
       height="5040"
       xlink:href="#Star7" />
    <clipPath
       id="clipPath3037">
      <path
         d="m 44.027778,18.263889 a 12.083333,9.5138893 0 1 1 -24.166666,0 12.083333,9.5138893 0 1 1 24.166666,0 z"
         transform="matrix(312.44137,0,0,265.36071,-5004.3982,-2331.1309)"
         id="path3039"
         style="color:#000000;fill:#000000;fill-opacity:1;fill-rule:nonzero;stroke:none;stroke-width:5;marker:none;visibility:visible;display:inline;overflow:visible;enable-background:accumulate" />
    </clipPath>
  </defs>
  <g
     transform="matrix(0.03337454,0,0,0.04990865,-40.083982,0.4603907)"
     clip-path="url(#clipPath3037)"
     id="g3013">
    <g
       transform="scale(840,840)"
       id="g12">
      <rect
         width="12"
         height="6"
         x="0"
         y="0"
         id="rect14"
         style="fill:#00008b" />
      <path
         d="M 0,0 6,3 M 6,0 0,3"
         id="path16"
         style="stroke:#ffffff;stroke-width:0.60000002" />
      <path
         d="M 0,0 6,3 M 6,0 0,3"
         clip-path="url(#c)"
         id="path18"
         style="stroke:#ff0000;stroke-width:0.40000001" />
      <path
         d="M 3,0 V 3.5 M 0,1.5 H 7"
         id="path20"
         style="stroke:#ffffff" />
      <path
         d="M 3,0 V 3.5 M 0,1.5 H 7"
         id="path22"
         style="stroke:#ff0000;stroke-width:0.60000002" />
      <path
         d="M 0,3 H 6 V 0 H 8 V 4 H 0 z"
         id="path24"
         style="fill:#00008b" />
    </g>
    <g
       id="g26"
       style="fill:#ffffff">
      <use
         id="Comwlth"
         x="2520"
         y="3780"
         width="10080"
         height="5040"
         xlink:href="#Cstar" />
      <use
         id="αCrucis"
         x="7560"
         y="4200"
         width="10080"
         height="5040"
         xlink:href="#Star7" />
      <use
         id="βCrucis"
         x="6300"
         y="2205"
         width="10080"
         height="5040"
         xlink:href="#Star7" />
      <use
         id="γCrucis"
         x="7560"
         y="840"
         width="10080"
         height="5040"
         xlink:href="#Star7" />
      <use
         id="δCrucis"
         x="8680"
         y="1869"
         width="10080"
         height="5040"
         xlink:href="#Star7" />
      <use
         id="εCrucis"
         x="8064"
         y="2730"
         width="10080"
         height="5040"
         xlink:href="#Star5" />
    </g>
  </g>
</svg>
