<?xml version="1.0" encoding="UTF-8"?>
<svg id="Ebene_1" data-name="Ebene 1" xmlns="http://www.w3.org/2000/svg" viewBox="0 0 189.63 35.43">
  <defs>
    <style>
      .cls-1 {
        fill: #002766;
      }
    </style>
  </defs>
  <path class="cls-1" d="m185.92,18.48c-1.19,0-2.32.51-2.96,1.68v-1.46h-2.24v10.35h2.24v-6.11c0-1.54.99-2.47,2.38-2.47,1.21,0,2.08.89,2.08,2.37v6.22h2.24v-6.58c0-2.41-1.57-3.99-3.73-3.99m-11.67,1.86c1.29,0,2.24.77,2.52,2.43h-5.16c.3-1.6,1.23-2.43,2.64-2.43m4.82,3.46c0-3.18-2-5.32-4.8-5.32s-4.98,2.15-4.98,5.39,2.1,5.41,5.04,5.41c2.04,0,3.85-.97,4.72-3.3l-1.9-.73c-.58,1.52-1.57,2.09-2.86,2.09-1.49,0-2.58-.95-2.74-2.96h7.5c.02-.18.02-.38.02-.57m-16.17,3.46c-1.69,0-2.9-1.26-2.9-3.4s1.21-3.36,2.9-3.36,2.9,1.24,2.9,3.36-1.19,3.4-2.9,3.4m.5-8.79c-1.61,0-2.7.81-3.37,1.92v-5.53h-2.24v14.17h2.24v-1.7c.67,1.11,1.73,1.92,3.37,1.92,2.66,0,4.68-2.27,4.68-5.41s-2.02-5.39-4.68-5.39m-12.08,1.86c1.29,0,2.24.77,2.52,2.43h-5.16c.3-1.6,1.23-2.43,2.64-2.43m4.82,3.46c0-3.18-2-5.32-4.8-5.32s-4.98,2.15-4.98,5.39,2.1,5.41,5.04,5.41c2.04,0,3.85-.97,4.72-3.3l-1.9-.73c-.58,1.52-1.57,2.09-2.86,2.09-1.49,0-2.58-.95-2.74-2.96h7.5c.02-.18.02-.38.02-.57m-17.1-8.93h-2.36v14.17h9.13v-2.13h-6.77v-12.05Zm-12.44,14.4c2.56,0,4.23-1.3,4.23-3.12,0-1.56-1.05-2.55-3.21-3.1l-1.03-.24c-1.23-.3-2.08-.59-2.08-1.36,0-.65.73-1.09,1.83-1.09,1.23,0,2.24.53,2.48,1.92l1.88-.47c-.28-2.15-2.08-3.32-4.36-3.32-2.42,0-3.99,1.21-3.99,3,0,1.56.97,2.57,3.29,3.14l1.01.26c1.39.32,2.02.65,2.02,1.34s-.81,1.19-2.1,1.19-2.46-.67-2.78-2.13l-1.81.59c.56,2.37,2.46,3.38,4.62,3.38m-10.57-1.68c-1.37,0-2.4-.53-2.4-1.54s1.03-1.56,2.4-1.56,2.38.55,2.38,1.56-.99,1.54-2.38,1.54m.02-9.11c-2.06,0-3.81.95-4.44,3.06l1.88.75c.36-1.11,1.23-1.8,2.48-1.8,1.39,0,2.4.69,2.4,2.31v1.07c-.6-.65-1.59-1.01-2.86-1.01-2.42,0-4.17,1.21-4.17,3.22s1.71,3.2,4.03,3.2c1.41,0,2.5-.43,3.13-1.24v1.01h2.1v-6.48c0-2.83-2.16-4.09-4.54-4.09m-11.37,8.79c-1.71,0-2.92-1.26-2.92-3.4s1.21-3.36,2.92-3.36,2.9,1.24,2.9,3.36-1.21,3.4-2.9,3.4m2.86-6.86c-.67-1.11-1.75-1.92-3.37-1.92-2.68,0-4.68,2.27-4.68,5.39s2,5.41,4.68,5.41c1.61,0,2.7-.81,3.37-1.92v1.7h2.22v-14.17h-2.22v5.53Zm-13.05-1.92c-1.17,0-2.14.59-2.72,1.82v-1.6h-2.24v10.35h2.24v-5.49c0-1.66.93-2.69,2.24-2.69h1.05v-2.39h-.56Zm-11.41,10.79c2.56,0,4.46-1.6,4.46-4.39v-6.18h-2.24v6.03c0,1.7-.93,2.51-2.22,2.51s-2.24-.81-2.24-2.51v-6.03h-2.24v6.18c0,2.79,1.92,4.39,4.48,4.39m2.18-11.91c.77,0,1.37-.51,1.37-1.36s-.6-1.36-1.37-1.36-1.39.51-1.39,1.36.6,1.36,1.39,1.36m-4.38,0c.77,0,1.37-.51,1.37-1.36s-.61-1.36-1.37-1.36-1.39.51-1.39,1.36.6,1.36,1.39,1.36m-3.43-.73v-1.94h-1.33c-2.1,0-3.25,1.34-3.25,3.38v.63h-1.65v1.84h1.65v8.5h2.24v-8.5h2.34v-1.84h-2.34v-.55c0-.99.38-1.52,1.27-1.52h1.07Zm-14.74,6.92l4.4-4.86h-2.74l-4.01,4.64v-8.46h-2.26v14.17h2.26v-5.16l4.13,5.16h2.74l-4.52-5.49Zm-8.95,5.49h2.24v-10.35h-2.24v10.35Zm1.15-11.86c.83,0,1.47-.53,1.47-1.4s-.65-1.42-1.47-1.42-1.49.55-1.49,1.42.65,1.4,1.49,1.4m-6.88,1.3c-1.19,0-2.32.51-2.96,1.68v-1.46h-2.24v10.35h2.24v-6.11c0-1.54.99-2.47,2.38-2.47,1.21,0,2.08.89,2.08,2.37v6.22h2.24v-6.58c0-2.41-1.57-3.99-3.73-3.99m-10.93,0c-1.19,0-2.32.51-2.96,1.68v-5.28h-2.24v14.17h2.24v-6.11c0-1.54.99-2.47,2.38-2.47,1.21,0,2.08.89,2.08,2.37v6.22h2.24v-6.58c0-2.41-1.57-3.99-3.73-3.99m-11.43,10.79c2.18,0,4.09-1.07,4.86-3.62l-2-.73c-.54,1.7-1.49,2.35-2.86,2.35-1.49,0-2.8-1.15-2.8-3.4s1.31-3.38,2.8-3.38c1.37,0,2.32.65,2.86,2.35l2-.73c-.77-2.55-2.68-3.62-4.86-3.62-2.88,0-5.08,2.19-5.08,5.39s2.2,5.41,5.08,5.41m-11.11-8.93c1.29,0,2.24.77,2.52,2.43h-5.16c.3-1.6,1.23-2.43,2.64-2.43m4.82,3.46c0-3.18-2-5.32-4.8-5.32s-4.98,2.15-4.98,5.39,2.1,5.41,5.04,5.41c2.04,0,3.85-.97,4.72-3.3l-1.9-.73c-.58,1.52-1.57,2.09-2.86,2.09-1.49,0-2.58-.95-2.74-2.96h7.5c.02-.18.02-.38.02-.57M.02,14.88v2.13h4.42v12.05h2.36v-12.05h4.42v-2.13H.02Z"/>
</svg>