<?xml version="1.0" encoding="UTF-8"?>
<svg id="Layer_1" data-name="Layer 1" xmlns="http://www.w3.org/2000/svg" viewBox="0 0 204.94 110.57">
  <path d="m137.84,56.71h5.63v-14.43c0-1.06,0-1.38.21-1.7.32-.74,1.17-1.17,2.23-1.17.96,0,1.59.21,2.34.74v-4.24c-6.27.11-8.28.53-10.41,2.23v18.56Zm-12.11-10.93v-4.24c0-1.59.74-2.44,2.34-2.44,1.49,0,2.34.85,2.34,2.33v4.35h-4.67Zm10.3,3.29v-8.06c0-3.39-1.81-4.99-5.63-4.99h-4.67c-2.02,0-2.87.21-3.93,1.06-1.06.95-1.7,2.33-1.7,3.93v10.71c0,1.48.42,2.55,1.38,3.61,1.06,1.06,2.02,1.38,4.25,1.38h10.19v-4.24c-2.87.85-4.57,1.06-6.69,1.06-2.44,0-3.5-.53-3.5-1.91v-2.55h10.3Zm-27.61,6.37c0-1.59.74-2.44,2.34-2.44s2.44.85,2.44,2.44v2.33c0,1.38-.85,2.23-2.34,2.23-1.59,0-2.44-.85-2.44-2.23v-2.33Zm10.41-.53c0-1.59-.32-2.65-1.17-3.61-1.06-1.17-2.23-1.49-4.46-1.49h-4.67c-2.12,0-2.97.21-4.03,1.06-1.06.95-1.7,2.44-1.7,4.03v3.08c0,1.49.53,2.76,1.38,3.61,1.06,1.17,2.02,1.48,4.35,1.48h4.67c2.02,0,2.97-.21,4.04-1.06,1.06-.96,1.59-2.12,1.59-4.03v-3.08Zm-10.41-13.58c0-1.38.85-2.23,2.44-2.23s2.44.85,2.44,2.23v2.44c0,1.38-.96,2.23-2.44,2.23-1.59,0-2.44-.85-2.44-2.23v-2.44Zm9.98-5.3h-9.98c-1.91,0-2.65.21-3.72,1.06-1.06.95-1.59,2.33-1.59,3.93v3.08c0,1.27.42,2.55,1.27,3.5,1.06,1.17,1.91,1.48,4.04,1.48h4.57c2.02,0,2.87-.32,3.82-1.06,1.06-.96,1.59-2.23,1.59-3.93v-8.06Zm-22.62,17.4h-2.44c-.96,0-1.7-.32-2.12-1.06-.21-.32-.21-.42-.21-1.38v-1.91c0-1.59.74-2.33,2.34-2.33h2.44v6.68Zm0-9.97h-4.88c-1.91,0-2.76.21-3.72,1.17-1.06.85-1.59,2.12-1.59,3.82v3.29c0,1.48.32,2.55,1.17,3.5,1.06,1.17,2.02,1.48,4.25,1.48h10.51v-15.81c0-1.38-.42-2.55-1.38-3.5-1.17-1.17-2.12-1.49-4.25-1.49h-8.49v4.24c2.12-.85,3.5-1.17,5.42-1.17,2.02,0,2.97.64,2.97,2.02v2.44Zm2.34-15.81c-1.81,0-3.19,1.38-3.19,3.08,0,1.8,1.38,3.18,3.19,3.18,1.7,0,3.08-1.38,3.08-3.18,0-1.7-1.38-3.08-3.08-3.08h0Zm-7.54,0c-1.81,0-3.19,1.38-3.19,3.08,0,1.8,1.38,3.18,3.19,3.18,1.7,0,3.08-1.38,3.08-3.18,0-1.7-1.38-3.08-3.08-3.08h0Zm-14.76,29.07h5.63v-14.43c0-1.06,0-1.38.21-1.7.32-.74,1.17-1.17,2.23-1.17.96,0,1.59.21,2.34.74v-4.24c-6.27.11-8.28.53-10.41,2.23v18.56Zm-19.12-28.35v2.97h9.14c1.06,0,1.59.21,2.13.74.42.53.42.74.42,2.65v15.29c0,2.87-.53,3.4-3.08,3.4h-2.55v-19.11h-6.06v22.4h11.26c2.66,0,3.4-.21,4.68-1.49,1.17-1.17,1.38-2.02,1.38-5.31v-16.03c0-2.02-.21-2.76-1.06-3.82-1.06-1.17-2.44-1.7-4.36-1.7h-11.9Z"/>
  <path d="m175.35,73.76c-.95,0-1.85.4-2.37,1.34v-1.17h-1.79v8.28h1.79v-4.89c0-1.23.79-1.98,1.9-1.98.97,0,1.66.71,1.66,1.9v4.97h1.79v-5.26c0-1.93-1.26-3.19-2.98-3.19m-9.34,1.49c1.03,0,1.79.62,2.02,1.94h-4.13c.24-1.28.98-1.94,2.11-1.94m3.86,2.77c0-2.54-1.6-4.26-3.84-4.26s-3.98,1.72-3.98,4.31,1.68,4.32,4.03,4.32c1.63,0,3.08-.78,3.77-2.64l-1.52-.58c-.47,1.21-1.26,1.67-2.29,1.67-1.19,0-2.07-.76-2.19-2.36h6c.02-.15.02-.31.02-.45m-12.94,2.77c-1.36,0-2.32-1-2.32-2.72s.97-2.69,2.32-2.69,2.32.99,2.32,2.69-.95,2.72-2.32,2.72m.4-7.03c-1.29,0-2.16.65-2.69,1.54v-4.42h-1.79v11.34h1.79v-1.36c.53.89,1.39,1.54,2.69,1.54,2.13,0,3.74-1.81,3.74-4.32s-1.61-4.31-3.74-4.31m-9.66,1.49c1.03,0,1.79.62,2.02,1.94h-4.13c.24-1.28.98-1.94,2.11-1.94m3.86,2.77c0-2.54-1.6-4.26-3.84-4.26s-3.98,1.72-3.98,4.31,1.68,4.32,4.03,4.32c1.63,0,3.08-.78,3.77-2.64l-1.52-.58c-.47,1.21-1.26,1.67-2.29,1.67-1.19,0-2.06-.76-2.19-2.36h6c.02-.15.02-.31.02-.45m-13.68-7.14h-1.89v11.34h7.31v-1.7h-5.42v-9.64Zm-9.95,11.52c2.05,0,3.39-1.04,3.39-2.49,0-1.25-.84-2.04-2.56-2.48l-.82-.19c-.98-.24-1.66-.47-1.66-1.09,0-.52.58-.87,1.47-.87.98,0,1.79.42,1.98,1.54l1.5-.37c-.23-1.72-1.66-2.66-3.48-2.66-1.94,0-3.19.97-3.19,2.4,0,1.25.77,2.06,2.63,2.51l.81.21c1.11.26,1.61.52,1.61,1.07s-.65.96-1.68.96-1.97-.53-2.23-1.7l-1.45.47c.45,1.9,1.97,2.71,3.69,2.71m-8.45-1.34c-1.1,0-1.92-.42-1.92-1.23s.82-1.25,1.92-1.25,1.9.44,1.9,1.25-.79,1.23-1.9,1.23m.02-7.29c-1.65,0-3.05.76-3.55,2.45l1.5.6c.29-.89.98-1.44,1.98-1.44,1.11,0,1.92.55,1.92,1.85v.86c-.48-.52-1.27-.81-2.29-.81-1.94,0-3.34.97-3.34,2.58s1.37,2.56,3.23,2.56c1.13,0,2-.34,2.5-.99v.81h1.68v-5.18c0-2.27-1.73-3.27-3.63-3.27m-9.1,7.03c-1.37,0-2.34-1-2.34-2.72s.97-2.69,2.34-2.69,2.32.99,2.32,2.69-.97,2.72-2.32,2.72m2.29-5.49c-.53-.89-1.4-1.54-2.69-1.54-2.15,0-3.74,1.81-3.74,4.31s1.6,4.32,3.74,4.32c1.29,0,2.16-.65,2.69-1.54v1.36h1.77v-11.34h-1.77v4.42Zm-10.44-1.54c-.94,0-1.71.47-2.18,1.46v-1.28h-1.79v8.28h1.79v-4.39c0-1.33.74-2.15,1.79-2.15h.84v-1.91h-.45Zm-9.13,8.63c2.05,0,3.57-1.28,3.57-3.52v-4.94h-1.79v4.83c0,1.36-.74,2.01-1.77,2.01s-1.79-.65-1.79-2.01v-4.83h-1.79v4.94c0,2.24,1.53,3.52,3.58,3.52m1.74-9.52c.61,0,1.1-.4,1.1-1.09s-.48-1.09-1.1-1.09-1.11.4-1.11,1.09.48,1.09,1.11,1.09m-3.5,0c.61,0,1.1-.4,1.1-1.09s-.48-1.09-1.1-1.09-1.11.4-1.11,1.09.48,1.09,1.11,1.09m-2.74-.58v-1.56h-1.06c-1.68,0-2.6,1.07-2.6,2.71v.5h-1.32v1.47h1.32v6.8h1.79v-6.8h1.87v-1.47h-1.87v-.44c0-.79.31-1.21,1.02-1.21h.85Zm-11.79,5.54l3.52-3.89h-2.19l-3.21,3.71v-6.77h-1.81v11.34h1.81v-4.13l3.31,4.13h2.19l-3.61-4.39Zm-7.16,4.39h1.79v-8.28h-1.79v8.28Zm.92-9.49c.66,0,1.18-.42,1.18-1.12s-.52-1.13-1.18-1.13-1.19.44-1.19,1.13.52,1.12,1.19,1.12m-5.5,1.04c-.95,0-1.85.4-2.37,1.34v-1.17h-1.79v8.28h1.79v-4.89c0-1.23.79-1.98,1.9-1.98.97,0,1.66.71,1.66,1.9v4.97h1.79v-5.26c0-1.93-1.26-3.19-2.98-3.19m-8.74,0c-.95,0-1.86.4-2.37,1.34v-4.23h-1.79v11.34h1.79v-4.89c0-1.23.79-1.98,1.9-1.98.97,0,1.66.71,1.66,1.9v4.97h1.79v-5.26c0-1.93-1.26-3.19-2.98-3.19m-9.15,8.63c1.74,0,3.27-.86,3.89-2.9l-1.6-.58c-.44,1.36-1.19,1.88-2.29,1.88-1.19,0-2.24-.92-2.24-2.72s1.05-2.71,2.24-2.71c1.1,0,1.85.52,2.29,1.88l1.6-.58c-.61-2.04-2.15-2.9-3.89-2.9-2.31,0-4.07,1.75-4.07,4.31s1.76,4.32,4.07,4.32m-8.89-7.14c1.03,0,1.79.62,2.02,1.94h-4.13c.24-1.28.98-1.94,2.11-1.94m3.86,2.77c0-2.54-1.6-4.26-3.84-4.26s-3.98,1.72-3.98,4.31,1.68,4.32,4.03,4.32c1.63,0,3.08-.78,3.77-2.64l-1.52-.58c-.47,1.21-1.26,1.67-2.29,1.67-1.19,0-2.07-.76-2.19-2.36h6c.02-.15.02-.31.02-.45m-15.5-7.14v1.7h3.53v9.64h1.89v-9.64h3.53v-1.7h-8.95Z"/>
</svg>