<?xml version="1.0" encoding="UTF-8"?>
<svg id="Ebene_1" data-name="Ebene 1" xmlns="http://www.w3.org/2000/svg" viewBox="0 0 76.05 35.43">
  <path d="m75.6,3.61c-.94,0-1.71.47-2.18,1.46v-1.28h-1.79v8.28h1.79v-4.39c0-1.33.74-2.15,1.79-2.15h.84v-1.91h-.45Zm-9.13,8.63c2.05,0,3.57-1.28,3.57-3.52V3.79h-1.79v4.83c0,1.36-.74,2.01-1.77,2.01s-1.79-.65-1.79-2.01V3.79h-1.79v4.94c0,2.24,1.53,3.52,3.58,3.52m1.74-9.52c.61,0,1.1-.41,1.1-1.09s-.48-1.09-1.1-1.09-1.11.41-1.11,1.09.48,1.09,1.11,1.09m-3.5,0c.61,0,1.1-.41,1.1-1.09s-.48-1.09-1.1-1.09-1.11.41-1.11,1.09.48,1.09,1.11,1.09m-2.74-.58V.58h-1.06c-1.68,0-2.6,1.07-2.6,2.71v.5h-1.32v1.47h1.32v6.8h1.79v-6.8h1.87v-1.47h-1.87v-.44c0-.79.31-1.21,1.02-1.21h.85Zm-11.79,5.54l3.52-3.89h-2.19l-3.21,3.71V.73h-1.81v11.34h1.81v-4.13l3.31,4.13h2.19l-3.61-4.39Zm-7.16,4.39h1.79V3.79h-1.79v8.28Zm.92-9.49c.66,0,1.18-.42,1.18-1.12s-.52-1.13-1.18-1.13-1.19.44-1.19,1.13.52,1.12,1.19,1.12m-5.5,1.04c-.95,0-1.86.41-2.37,1.34v-1.17h-1.79v8.28h1.79v-4.89c0-1.23.79-1.98,1.9-1.98.97,0,1.66.71,1.66,1.9v4.97h1.79v-5.26c0-1.93-1.26-3.19-2.98-3.19m-8.74,0c-.95,0-1.86.41-2.37,1.34V.73h-1.79v11.34h1.79v-4.89c0-1.23.79-1.98,1.9-1.98.97,0,1.66.71,1.66,1.9v4.97h1.79v-5.26c0-1.93-1.26-3.19-2.98-3.19m-9.15,8.63c1.74,0,3.27-.86,3.89-2.9l-1.6-.58c-.44,1.36-1.19,1.88-2.29,1.88-1.19,0-2.24-.92-2.24-2.72s1.05-2.71,2.24-2.71c1.1,0,1.86.52,2.29,1.88l1.6-.58c-.61-2.04-2.15-2.9-3.89-2.9-2.31,0-4.07,1.75-4.07,4.31s1.76,4.33,4.07,4.33m-8.89-7.14c1.03,0,1.79.62,2.02,1.94h-4.13c.24-1.28.98-1.94,2.11-1.94m3.86,2.77c0-2.54-1.6-4.26-3.84-4.26s-3.98,1.72-3.98,4.31,1.68,4.33,4.03,4.33c1.63,0,3.08-.78,3.77-2.64l-1.52-.58c-.47,1.22-1.26,1.67-2.29,1.67-1.19,0-2.07-.76-2.19-2.37h6c.02-.15.02-.31.02-.45M0,.73v1.7h3.53v9.64h1.89V2.43h3.53V.73H0Z"/>
  <g>
    <path d="m69.14,20.6c-.95,0-1.85.4-2.37,1.34v-1.17h-1.79v8.28h1.79v-4.89c0-1.23.79-1.98,1.9-1.98.97,0,1.66.71,1.66,1.9v4.97h1.79v-5.26c0-1.93-1.26-3.19-2.98-3.19"/>
    <path d="m63.65,24.86c0-2.54-1.6-4.26-3.84-4.26s-3.98,1.72-3.98,4.31,1.68,4.33,4.03,4.33c1.63,0,3.08-.78,3.77-2.64l-1.52-.58c-.47,1.21-1.26,1.67-2.29,1.67-1.19,0-2.07-.76-2.19-2.37h6c.02-.15.02-.31.02-.45Zm-5.97-.83c.24-1.28.98-1.94,2.11-1.94,1.03,0,1.79.62,2.02,1.94h-4.13Z"/>
    <path d="m51.12,20.6c-1.29,0-2.16.65-2.69,1.54v-4.42h-1.79v11.34h1.79v-1.36c.53.89,1.39,1.54,2.69,1.54,2.13,0,3.74-1.81,3.74-4.33s-1.61-4.31-3.74-4.31Zm-.4,7.03c-1.36,0-2.32-1-2.32-2.72s.97-2.69,2.32-2.69,2.32.99,2.32,2.69-.95,2.72-2.32,2.72Z"/>
    <path d="m45.31,24.86c0-2.54-1.6-4.26-3.84-4.26s-3.98,1.72-3.98,4.31,1.68,4.33,4.03,4.33c1.63,0,3.08-.78,3.77-2.64l-1.52-.58c-.47,1.21-1.26,1.67-2.29,1.67-1.19,0-2.06-.76-2.19-2.37h6c.02-.15.02-.31.02-.45Zm-5.97-.83c.24-1.28.98-1.94,2.11-1.94,1.03,0,1.79.62,2.02,1.94h-4.13Z"/>
    <polygon points="31.63 17.72 29.75 17.72 29.75 29.06 37.05 29.06 37.05 27.36 31.63 27.36 31.63 17.72"/>
    <path d="m21.68,29.24c2.05,0,3.39-1.04,3.39-2.49,0-1.25-.84-2.04-2.56-2.48l-.82-.19c-.98-.24-1.66-.47-1.66-1.09,0-.52.58-.87,1.47-.87.98,0,1.79.42,1.98,1.54l1.5-.37c-.23-1.72-1.66-2.66-3.48-2.66-1.94,0-3.19.97-3.19,2.4,0,1.25.77,2.06,2.63,2.51l.81.21c1.11.26,1.61.52,1.61,1.07s-.65.96-1.68.96-1.97-.53-2.23-1.7l-1.45.47c.45,1.9,1.97,2.71,3.69,2.71"/>
    <path d="m13.24,20.6c-1.65,0-3.05.76-3.55,2.45l1.5.6c.29-.89.98-1.44,1.98-1.44,1.11,0,1.92.55,1.92,1.85v.86c-.48-.52-1.27-.81-2.29-.81-1.94,0-3.34.97-3.34,2.58s1.37,2.56,3.23,2.56c1.13,0,2-.34,2.5-.99v.81h1.68v-5.18c0-2.27-1.73-3.27-3.63-3.27Zm.09,7.3c-1.09,0-1.91-.42-1.91-1.22s.82-1.24,1.91-1.24,1.89.44,1.89,1.24-.79,1.22-1.89,1.22Z"/>
    <path d="m6.44,17.72v4.42c-.53-.89-1.4-1.54-2.69-1.54-2.15,0-3.74,1.81-3.74,4.31s1.6,4.33,3.74,4.33c1.29,0,2.16-.65,2.69-1.54v1.36h1.77v-11.34h-1.77Zm-2.14,9.92c-1.36,0-2.33-1-2.33-2.71s.96-2.68,2.33-2.68,2.31.98,2.31,2.68-.96,2.71-2.31,2.71Z"/>
  </g>
</svg>