<?xml version="1.0" encoding="UTF-8"?>
<svg id="Layer_1" data-name="Layer 1" xmlns="http://www.w3.org/2000/svg" viewBox="0 0 91.6 35.43">
  <defs>
    <style>
      .cls-1 {
        fill: #fff;
      }
    </style>
  </defs>
  <path class="cls-1" d="m81.18,29.06h5.63v-14.42c0-1.06,0-1.38.21-1.7.32-.74,1.17-1.17,2.23-1.17.96,0,1.59.21,2.34.74v-4.24c-6.27.11-8.29.53-10.41,2.23v18.55Zm-12.11-10.92v-4.24c0-1.59.74-2.44,2.34-2.44,1.49,0,2.34.85,2.34,2.33v4.35h-4.68Zm10.31,3.29v-8.06c0-3.39-1.81-4.98-5.63-4.98h-4.68c-2.02,0-2.87.21-3.93,1.06-1.06.95-1.7,2.33-1.7,3.92v10.71c0,1.48.43,2.54,1.38,3.6,1.06,1.06,2.02,1.38,4.25,1.38h10.2v-4.24c-2.87.85-4.57,1.06-6.69,1.06-2.44,0-3.51-.53-3.51-1.91v-2.54h10.31Zm-27.63,6.36c0-1.59.74-2.44,2.34-2.44s2.44.85,2.44,2.44v2.33c0,1.38-.85,2.23-2.34,2.23-1.59,0-2.44-.85-2.44-2.23v-2.33Zm10.41-.53c0-1.59-.32-2.65-1.17-3.6-1.06-1.17-2.23-1.48-4.46-1.48h-4.68c-2.12,0-2.97.21-4.04,1.06-1.06.95-1.7,2.44-1.7,4.03v3.07c0,1.48.53,2.76,1.38,3.61,1.06,1.17,2.02,1.48,4.36,1.48h4.68c2.02,0,2.98-.21,4.04-1.06,1.06-.95,1.59-2.12,1.59-4.03v-3.07Zm-10.41-13.57c0-1.38.85-2.23,2.44-2.23s2.44.85,2.44,2.23v2.44c0,1.38-.96,2.23-2.44,2.23-1.59,0-2.44-.85-2.44-2.23v-2.44Zm9.99-5.3h-9.99c-1.91,0-2.66.21-3.72,1.06-1.06.95-1.59,2.33-1.59,3.92v3.07c0,1.27.43,2.54,1.28,3.5,1.06,1.17,1.91,1.48,4.04,1.48h4.57c2.02,0,2.87-.32,3.83-1.06,1.06-.95,1.59-2.23,1.59-3.92v-8.06Zm-22.63,17.39h-2.44c-.96,0-1.7-.32-2.13-1.06-.21-.32-.21-.42-.21-1.38v-1.91c0-1.59.74-2.33,2.34-2.33h2.44v6.68Zm0-9.97h-4.89c-1.91,0-2.76.21-3.72,1.17-1.06.85-1.59,2.12-1.59,3.82v3.29c0,1.48.32,2.54,1.17,3.5,1.06,1.17,2.02,1.48,4.25,1.48h10.52v-15.8c0-1.38-.43-2.54-1.38-3.5-1.17-1.17-2.13-1.48-4.25-1.48h-8.5v4.24c2.13-.85,3.51-1.17,5.42-1.17,2.02,0,2.97.64,2.97,2.01v2.44ZM41.44.01c-1.81,0-3.19,1.38-3.19,3.07,0,1.8,1.38,3.18,3.19,3.18,1.7,0,3.08-1.38,3.08-3.18C44.52,1.39,43.14.01,41.44.01ZM33.9.01c-1.81,0-3.19,1.38-3.19,3.07,0,1.8,1.38,3.18,3.19,3.18,1.7,0,3.08-1.38,3.08-3.18C36.98,1.39,35.6.01,33.9.01Zm-14.77,29.05h5.63v-14.42c0-1.06,0-1.38.21-1.7.32-.74,1.17-1.17,2.23-1.17.96,0,1.59.21,2.34.74v-4.24c-6.27.11-8.29.53-10.41,2.23v18.55ZM0,.73v2.97h9.14c1.06,0,1.59.21,2.13.74.43.53.43.74.43,2.65v15.28c0,2.86-.53,3.4-3.08,3.4h-2.55V6.68H0v22.38h11.26c2.66,0,3.4-.21,4.68-1.48,1.17-1.17,1.38-2.02,1.38-5.3V6.25c0-2.02-.21-2.76-1.06-3.82-1.06-1.17-2.44-1.7-4.36-1.7H0Z"/>
</svg>