<?xml version="1.0" encoding="UTF-8" standalone="no"?>
<svg
   xmlns:dc="http://purl.org/dc/elements/1.1/"
   xmlns:cc="http://creativecommons.org/ns#"
   xmlns:rdf="http://www.w3.org/1999/02/22-rdf-syntax-ns#"
   xmlns:svg="http://www.w3.org/2000/svg"
   xmlns="http://www.w3.org/2000/svg"
   viewBox="0 0 188.97333 38.84"
   height="38.84"
   width="188.97333"
   xml:space="preserve"
   id="svg3713"
   version="1.1"><metadata
     id="metadata3719"><rdf:RDF><cc:Work
         rdf:about=""><dc:format>image/svg+xml</dc:format><dc:type
           rdf:resource="http://purl.org/dc/dcmitype/StillImage" /><dc:title></dc:title></cc:Work></rdf:RDF></metadata><defs
     id="defs3717" /><g
     transform="matrix(1.3333333,0,0,-1.3333333,0,38.84)"
     id="g3721"><g
       transform="scale(0.1)"
       id="g3723"><path
         id="path3725"
         style="fill:#2251a6;fill-opacity:1;fill-rule:nonzero;stroke:none"
         d="m 642.945,153.871 c -0.914,19.234 -15.101,32.969 -34.797,32.969 -19.695,0 -34.347,-14.192 -35.726,-32.969 h 70.523 z m -70.523,-16.953 c 1.836,-18.75 17.867,-29.754 36.641,-29.754 22.437,0 35.261,12.82 35.261,12.82 l 27.473,-38.0113 c 0,0 -21.059,-20.6055 -62.734,-20.6055 -47.625,0 -87.465,33.8867 -87.465,84.2578 0,49.922 38.465,83.805 86.09,83.805 48.542,0 84.261,-31.602 84.261,-81.508 V 136.918 H 572.422 Z M 244.082,65.0195 V 111.27 h 13.738 c 19.231,0 31.594,13.75 31.594,35.273 0,22.434 -12.816,35.719 -35.258,35.719 H 234.922 V 0 h -53.113 v 226.223 h 76.468 c 48.078,0 84.266,-32.516 84.266,-80.598 0,-51.2891 -39.391,-80.6055 -80.141,-80.6055 h -18.32 z m 169.898,0 V 111.27 h 13.735 c 19.234,0 31.601,13.75 31.601,35.273 0,22.434 -12.824,35.719 -35.269,35.719 H 404.82 V 0 h -53.117 v 226.223 h 76.473 c 48.078,0 84.262,-32.516 84.262,-80.598 0,-51.2891 -39.387,-80.6055 -80.137,-80.6055 H 413.98 Z M 121.355,153.871 c -0.921,19.234 -15.109,32.969 -34.8042,32.969 -19.6875,0 -34.3438,-14.192 -35.7149,-32.969 H 121.355 Z M 50.8359,136.918 c 1.8243,-18.75 17.8555,-29.754 36.6289,-29.754 22.4372,0 35.2652,12.82 35.2652,12.82 l 27.473,-38.0113 c 0,0 -21.062,-20.6055 -62.7382,-20.6055 C 39.8398,61.3672 0,95.2539 0,145.625 c 0,49.922 38.4688,83.805 86.0938,83.805 48.5392,0 84.2582,-31.602 84.2582,-81.508 V 136.918 H 50.8359 Z M 848.555,65.0195 h -51.289 v 98.9255 c 0,11.442 -6.407,17.399 -16.485,17.399 H 753.77 V 65.0195 H 702.48 V 226.223 h 89.747 c 29.765,0 56.328,-16.485 56.328,-55.407 V 65.0195 Z M 1316.11,238.129 c 0,36.633 26.57,53.125 54.05,53.125 h 47.16 v -42.59 h -32.96 c -8.7,0 -14.2,-5.035 -14.2,-15.109 v -8.246 h 47.16 v -43.047 h -47.16 V 65.0195 h -54.05 V 238.129 Z M 958.457,226.223 v -46.25 h -13.73 c -19.219,0 -31.582,-13.735 -31.582,-35.262 0,-22.441 12.812,-35.731 35.234,-35.731 h 19.258 v 182.274 h 53.103 V 65.0195 h -76.463 c -48.105,0 -84.277,32.5196 -84.277,80.6055 0,51.289 39.395,80.598 80.137,80.598 h 18.32 z m 72.363,-80.598 c 0,48.539 38.46,83.805 86.54,83.805 47.64,0 86.1,-35.266 86.1,-83.805 0,-48.5352 -38.01,-83.8086 -86.1,-83.8086 -48.53,0 -86.54,35.2734 -86.54,83.8086 v 0 z m 50.37,0 c 0,-23.355 15.12,-39.375 36.17,-39.375 21.08,0 35.73,16.02 35.73,39.375 0,23.352 -14.65,39.379 -35.73,39.379 -21.05,0 -36.17,-16.027 -36.17,-39.379 v 0 z m 132.81,27.48 c 0,36.633 26.57,53.118 54.03,53.118 h 38.45 v -43.961 h -25.17 c -8.24,0 -14.2,-5.035 -14.2,-15.117 V 65.0195 H 1214 v 108.0855 0" /></g></g></svg>