<?xml version="1.0" encoding="UTF-8"?>
<!-- Created with Inkscape (http://www.inkscape.org/) -->
<svg width="245.67" height="72.76" version="1.1" viewBox="0 0 245.67 72.76" xml:space="preserve" xmlns="http://www.w3.org/2000/svg" xmlns:cc="http://creativecommons.org/ns#" xmlns:dc="http://purl.org/dc/elements/1.1/" xmlns:rdf="http://www.w3.org/1999/02/22-rdf-syntax-ns#"><metadata><rdf:RDF><cc:Work rdf:about=""><dc:format>image/svg+xml</dc:format><dc:type rdf:resource="http://purl.org/dc/dcmitype/StillImage"/><dc:title/></cc:Work></rdf:RDF></metadata><g transform="matrix(1.3333 0 0 -1.3333 0 72.76)"><g transform="scale(.1)"><path d="m1359.4 383.31-2.29-2.246v-4.493c0-15.75-11.24-20.261-20.25-20.261-11.28 0-22.51 4.511-22.51 27v45.058l2.28 2.246h38.27l2.21 2.246v15.793l-2.21 2.246h-38.27l-2.28 2.235v41.68l-2.25 2.238h-18.03l-2.23-2.238v-41.68l-2.29-2.235h-18l-2.24-2.246v-15.793l2.24-2.246h18l2.29-2.246v-45.058c0-33.766 20.26-47.286 45.02-47.286 18.04 0 42.78 9.004 42.78 40.547v4.493l-2.26 2.246zm-123.58-24.762-2.29 2.254v87.851l-2.2 2.246h-54.07l-2.26-2.246v-15.793l2.26-2.246h31.54l2.24-2.265v-67.547l-2.24-2.254h-42.79l-2.24-2.238v-15.754l2.24-2.285h103.58l2.26 2.285v15.754l-2.26 2.238zm-109.49 47.293c0 6.758-2.27 27.019-29.29 27.019-27 0-29.28-20.261-29.28-27.019l2.28-2.246h54.02zm24.76-11.262v-6.746l-2.25-2.238h-78.8l-2.28-2.285c0-4.481 2.28-27.032 31.52-27.032 11.26 0 20.28 2.27 24.78 13.536l2.27 2.265h18.01l2.23-2.265c-2.23-18.016-17.99-33.79-47.29-33.79-38.28 0-56.3 24.778-56.3 58.555 0 31.563 15.77 58.555 54.06 58.555 38.28 0 54.05-26.992 54.05-58.555zm-177.85 58.555c-22.508 0-31.504-13.477-31.504-13.477h-2.285v53.996l-2.195 2.274h-18.028l-2.265-2.274v-153.12l2.265-2.257h18.028l2.195 2.257v56.297c0 27.031 13.535 36.035 31.555 36.035 17.996 0 24.754-13.496 24.754-26.992v-65.34l2.265-2.257h18.015l2.26 2.257v65.34c0 24.746-11.27 47.266-45.06 47.266zm840.01 0c-13.5 0-20.3-6.758-22.54-13.504h-2.26c-2.23 6.746-9.01 13.504-20.28 13.504-13.51 0-20.25-6.758-22.51-13.504h-2.25l-2.22 9.023-2.26 2.246h-15.8l-2.24-2.246v-108.12l2.24-2.257h18.06l2.22 2.257v67.567c0 20.273 6.78 24.765 15.77 24.765s11.29-6.734 11.29-20.242v-72.09l2.23-2.257h18.01l2.24 2.257v67.567c0 20.273 6.8 24.765 15.77 24.765 9 0 11.26-6.734 11.26-20.242v-72.09l2.28-2.257h17.99l2.26 2.257v69.832c0 24.77-4.47 42.774-29.26 42.774zm-307.32-20.274c15.78 0 24.79-6.718 27.02-20.242l2.28-2.246h18l2.27 2.246c-2.27 29.238-27.05 40.516-49.57 40.516-36.05 0-56.26-22.52-56.26-58.555 0-36.031 20.21-58.555 56.26-58.555 22.52 0 47.3 11.282 49.57 40.547l-2.27 2.258h-18l-2.28-2.258c-2.23-13.504-11.24-20.293-27.02-20.293-22.51 0-33.76 13.536-33.76 38.301 0 24.785 11.25 38.281 33.76 38.281zm-102.77-67.546-2.23-2.258v-22.5l2.23-2.285h27.03l2.26 2.285v22.5l-2.26 2.258zm267.88 29.265c0 24.785-13.49 38.281-33.75 38.281h-2.24c-20.27 0-33.8-13.496-33.8-38.281 0-24.765 13.53-38.301 33.8-38.301h2.24c20.26 0 33.75 13.536 33.75 38.301zm22.54 0c0-36.031-22.54-58.555-56.29-58.555h-2.24c-33.8 0-56.3 22.524-56.3 58.555 0 36.035 22.5 58.555 56.3 58.555h2.24c33.75 0 56.29-22.52 56.29-58.555zm-460.05 74.317 2.29 2.257v22.52l-2.29 2.273h-27.02l-2.22-2.273v-22.52l2.22-2.257zm-726.1 29.589c-24.296 0-44.257-13.015-45-45.398l-0.031 0.027-2.265-2.215h-29.219l-2.254-2.246v-15.793l2.254-2.246h29.289l2.265-2.246v-87.812l2.247-2.285h17.968l2.305 2.285v87.812l2.227 2.246h45.039l2.285 2.246v15.793l-2.285 2.246h-45.051l-2.235 2.188c0.633 20.82 11.493 25.117 22.461 25.117h24.852l2.277 2.254v15.762l-2.277 2.265zm101.48-45.351c-22.512 0-31.527-13.477-31.527-13.477h-2.266l-2.246 8.996-2.227 2.246h-15.769l-2.266-2.246v-108.1l2.266-2.285h17.996l2.246 2.285v56.3c0 27.024 11.281 36.004 31.535 36.004 15.75 0 24.785-6.718 24.785-22.5l2.227-2.265h18.027l2.266 2.265c0 31.516-22.52 42.774-45.047 42.774zm250.35 15.762 2.265 2.257v22.52l-2.265 2.273h-27.032l-2.254-2.273v-22.52l2.254-2.257zm-108.42-63.055c0 6.758-2.274 27.019-29.278 27.019-27.039 0-29.285-20.261-29.285-27.019l2.246-2.246h54.043zm24.746-11.262v-6.746l-2.235-2.238h-78.828l-2.246-2.285c0-4.481 2.246-27.032 31.531-27.032 11.25 0 20.274 2.27 24.758 13.536l2.274 2.265h18.019l2.266-2.265c-2.266-18.016-18.059-33.79-47.317-33.79-38.281 0-56.269 24.778-56.269 58.555 0 31.563 15.723 58.555 54.023 58.555 38.274 0 54.024-26.992 54.024-58.555zm119.67-36.031 2.277-2.238v-15.754l-2.277-2.285h-103.54l-2.266 2.285v15.754l2.266 2.238h42.793l2.254 2.254v67.547l-2.254 2.265h-31.543l-2.278 2.246v15.793l2.278 2.246h54.031l2.266-2.246v-87.851l2.265-2.254h33.731" style="fill:#ef3727"/><path d="m1409 209.7c-15.52 3.098-21.74 4.649-21.74 12.414 0 6.219 6.22 7.782 13.98 7.782 10.88 0 13.97-4.676 13.97-9.336l1.56-1.543h12.44l1.54 1.543c0 15.539-12.42 23.312-29.51 23.312-21.76 0-29.52-10.879-29.52-21.758 0-13.984 9.32-20.195 24.86-23.3 15.54-3.118 20.19-4.661 20.19-12.43 0-6.211-4.65-9.32-15.53-9.32-10.89 0-15.54 4.668-15.54 12.433l-1.55 1.555h-12.43l-1.55-1.555c0-17.082 10.87-26.418 31.07-26.418 21.76 0 31.07 10.879 31.07 23.305 0 13.98-7.76 20.191-23.31 23.316zm-72.16 1.543c0 4.66-1.57 18.653-18.66 18.653-17.08 0-18.64-13.993-18.64-18.653l1.56-1.543h34.17zm17.08-7.773v-4.656l-1.55-1.555h-51.27l-1.56-1.563c0-3.093 1.56-18.632 20.21-18.632 6.21 0 12.43 1.554 15.52 9.32l1.57 1.559h12.42l1.56-1.559c-1.56-12.426-12.44-23.305-31.07-23.305-24.86 0-37.3 17.094-37.3 40.391 0 21.75 10.87 40.402 35.73 40.402 24.87 0 35.74-18.652 35.74-40.402zm-106.15 51.289 1.57 1.543v15.539l-1.57 1.551h-18.63l-1.55-1.551v-15.539l1.55-1.543zm1.57-76.141-1.57 1.555v60.586l-1.55 1.559h-37.27l-1.57-1.559v-10.863l1.57-1.563h21.74l1.56-1.562v-46.598l-1.56-1.555h-29.52l-1.55-1.554v-10.879l1.55-1.551h71.47l1.55 1.551v10.879l-1.55 1.554zm-82.92 24.852c0 18.644-7.77 26.426-20.2 26.426s-20.2-9.336-20.2-26.426c0-17.086 7.77-26.406 20.2-26.406s20.2 7.777 20.2 26.406zm13.98 38.848 1.55-1.559v-66.801c0-31.062-17.09-41.949-35.73-41.949-18.65 0-29.52 9.332-31.07 21.746l1.55 1.563h12.42l1.56-1.563c3.11-6.203 7.76-7.766 15.54-7.766 13.97 0 20.2 9.329 20.2 26.426h-1.56s-6.21-9.336-20.2-9.336c-21.75 0-34.17 17.094-34.17 40.391 0 23.301 12.42 40.402 34.17 40.402 13.99 0 20.2-9.324 20.2-9.324h1.56l1.55 6.211 1.54 1.559zm-99.74-38.848c0 17.09-7.78 26.426-21.76 26.426s-21.75-9.336-21.75-26.426c0-17.086 7.77-26.406 21.75-26.406s21.76 9.32 21.76 26.406zm15.53 0c0-24.852-13.98-40.391-37.29-40.391s-37.29 15.539-37.29 40.391c0 24.863 13.98 40.402 37.29 40.402s37.29-15.539 37.29-40.402zm-106.09-24.852-1.543 1.555v91.668l-1.574 1.551h-37.285l-1.551-1.551v-10.879l1.551-1.555h21.758l1.554-1.562v-77.672l-1.554-1.555h-29.512l-1.563-1.554v-10.879l1.563-1.551h71.469l1.56 1.551v10.879l-1.56 1.554zm-71.789 24.852c0 17.09-7.754 26.426-21.726 26.426-13.997 0-21.758-9.336-21.758-26.426 0-17.086 7.761-26.406 21.758-26.406 13.972 0 21.726 9.32 21.726 26.406zm15.547 0c0-24.852-13.984-40.391-37.273-40.391-23.309 0-37.297 15.539-37.297 40.391 0 24.863 13.988 40.402 37.297 40.402 23.289 0 37.273-15.539 37.273-40.402zm-120.07 40.402c-13.996 0-20.207-9.324-20.207-9.324h-1.551l-1.555 6.211-1.551 1.559h-10.879l-1.554-1.559v-74.574l1.554-1.551h12.43l1.555 1.551v37.285c0 18.644 6.211 26.426 20.195 26.426 13.973 0 15.535-10.879 15.535-18.653v-45.058l1.555-1.551h12.43l1.554 1.551v45.058c0 18.653-7.765 32.629-29.511 32.629zm-87.891 0c-13.977 0-20.188-9.324-20.188-9.324h-1.55v37.293l-1.563 1.551h-12.422l-1.562-1.551v-105.66l1.562-1.551h12.422l1.563 1.551v38.847c0 18.633 7.761 24.864 20.183 24.864 12.442 0 15.547-9.336 15.547-18.653v-45.058l1.555-1.551h12.41l1.563 1.551v45.058c0 17.09-6.211 32.629-29.52 32.629zm-90.977-13.976c12.422 0 17.09-6.231 18.645-12.442l1.551-1.551h12.429l1.555 1.551c-1.555 13.985-12.441 26.418-34.18 26.418-23.312 0-37.296-15.539-37.296-40.402 0-24.852 13.984-40.391 37.296-40.391 21.739 0 32.625 12.426 34.18 26.418l-1.555 1.555h-12.429l-1.551-1.555c-1.555-6.222-6.223-12.433-18.645-12.433-13.996 0-21.75 9.32-21.75 26.406 0 17.09 7.754 26.426 21.75 26.426zm-69.23-18.653c0 4.66-1.551 18.653-18.652 18.653-17.09 0-18.641-13.993-18.641-18.653l1.551-1.543h34.191zm17.082-7.773v-4.656l-1.555-1.555h-51.269l-1.551-1.563c0-3.093 1.551-18.632 20.203-18.632 6.203 0 12.422 1.554 15.539 9.32l1.551 1.559h12.422l1.543-1.559c-1.543-12.426-12.41-23.305-31.055-23.305-24.871 0-37.285 17.094-37.285 40.391 0 21.75 10.871 40.402 35.723 40.402 24.855 0 35.734-18.652 35.734-40.402zm-86.008 38.848 1.535-1.559v-10.863l-1.535-1.563h-17.097l-1.563-1.562v-41.93c0-4.668 3.105-6.223 6.219-6.223h12.441l1.535-1.554v-10.879l-1.535-1.551h-12.441c-10.887 0-21.758 6.211-21.758 20.207v41.93l-1.543 1.562h-10.887l-1.543 1.563v10.863l1.543 1.559h10.887l1.543 1.554v13.973l1.555 1.562h12.441l1.543-1.562v-13.973l1.563-1.554h17.097" style="fill:#ef3727"/><path d="m165.81 341.24c-76.512 0-138.54 34.571-138.54 77.227 0 42.668 62.031 77.238 138.54 77.238 76.515 0 138.54-34.57 138.54-77.238 0-42.656-62.02-77.227-138.54-77.227zm15.558 174.41 0.028 0.02-2.286 2.238-0.019-0.031v25.566l-2.195 2.266h-22.149l-2.277-2.266v-25.566l-2.266-2.227c-84.14-4.707-150.2-46.16-150.2-97.187 0-51.035 66.074-92.481 150.22-97.195l2.246-2.207v-25.754l2.199-2.262h22.156l2.266 2.262v25.761l0.019-0.039 2.278 2.239c84.148 4.714 150.22 46.16 150.22 97.195s-66.082 92.48-150.24 97.187" style="fill:#ef3727"/><path d="m503.25 21.289h-8.113l-1.016 1.0078v29.402c0 6.0821-3.035 12.168-11.152 12.168s-14.192-4.0547-14.192-16.223v-25.348l-1.015-1.0078h-8.114l-1.007 1.0078v68.941l1.007 1.0156h8.114l1.015-1.0156v-24.336h1.016s4.055 6.0977 14.191 6.0977c15.215 0 20.274-10.148 20.274-21.301v-29.402l-1.008-1.0078" style="fill:#ef3727"/><path d="m554.98 42.578-1.015 1.0157s-3.039 1.0156-9.121 1.0156c-9.121 0-14.199-2.0313-14.199-8.1172 0-6.082 4.062-7.0899 10.148-7.0899 8.102 0 14.187 5.0586 14.187 10.129zm9.129-21.289h-7.097l-1.016 1.0078-1.016 4.0586h-1.015s-4.055-6.0821-15.207-6.0821c-11.153 0-18.242 5.0664-18.242 16.219 0 12.168 10.129 16.223 23.312 16.223 6.082 0 10.137-1.0156 10.137-1.0156l1.015 1.0156v2.0196c0 7.1094-4.054 9.1328-11.152 9.1328-7.101 0-11.152-2.0234-11.152-6.0859l-1.008-1.0157h-8.113l-1.016 1.0157c0 8.1054 6.074 15.219 21.289 15.219 15.203 0 21.289-7.1133 21.289-22.316v-28.387l-1.008-1.0078" style="fill:#ef3727"/><path d="m622.94 22.297v32.438c0 6.0859-1.016 9.1328-5.067 9.1328-4.062 0-7.109-2.0234-7.109-11.152v-30.418l-1.008-1.0078h-8.113l-1.008 1.0078v32.438c0 6.0859-1.016 9.1328-5.078 9.1328-4.043 0-7.09-2.0234-7.09-11.152v-30.418l-1.016-1.0078h-8.105l-1.024 1.0078v48.668l1.024 1.0079h7.09l1.015-1.0079 1.016-4.0625h1.015c1.008 3.0469 4.055 6.0977 10.137 6.0977 5.071 0 8.106-3.0508 9.133-6.0977h1.004c1.008 3.0469 4.055 6.0977 10.137 6.0977 11.152 0 13.183-8.1172 13.183-19.27v-31.434l-1.015-1.0078h-8.106l-1.015 1.0078" style="fill:#ef3727"/><path d="m669.6 63.867c-8.106 0-14.188-5.0703-14.188-17.227 0-12.18 6.082-17.238 14.188-17.238 8.105 0 13.183 6.0743 13.183 17.238 0 11.141-5.078 17.227-13.183 17.227zm1.015-43.594c-10.144 0-14.187 6.0821-14.187 6.0821h-1.016l-1.015-4.0586-1.016-1.0078h-7.102l-1.015 1.0078v68.941l1.015 1.0156h8.118l1.015-1.0156v-24.336h1.016s4.043 6.0977 14.187 6.0977c14.2 0 22.305-10.148 22.305-26.359 0-15.215-8.105-26.367-22.305-26.367" style="fill:#ef3727"/><path d="m749.73 21.289h-7.102l-1.016 1.0078-1.015 4.0586h-1.016s-4.051-6.0821-13.172-6.0821c-14.199 0-20.273 10.137-20.273 21.289v29.402l1.004 1.0079h8.117l1.004-1.0079v-29.402c0-6.0859 3.047-12.16 11.164-12.16 7.09 0 13.172 5.0586 13.172 16.211v25.352l1.015 1.0079h8.118l1.003-1.0079v-48.668l-1.003-1.0078" style="fill:#ef3727"/><path d="m815.64 53.73-1.008-1.0157h-8.114l-1.015 1.0157c0 7.0898-4.055 10.137-11.145 10.137-9.129 0-14.195-4.0547-14.195-16.223v-25.348l-1.02-1.0078h-8.105l-1.023 1.0078v48.668l1.023 1.0079h7.09l1.015-1.0079 1.02-4.0625h1.004s4.062 6.0977 14.199 6.0977 20.274-5.0781 20.274-19.27" style="fill:#ef3727"/><path d="m851.16 63.867c-8.113 0-13.183-6.0859-13.183-17.227 0-11.164 5.07-17.238 13.183-17.238 8.117 0 14.192 5.0586 14.192 17.238 0 12.156-6.075 17.227-14.192 17.227zm14.192-37.512h-1.016s-4.055-6.0821-14.191-6.0821c-14.188 0-22.305 11.152-22.305 26.367 0 15.203 8.117 26.359 22.305 26.359 10.136 0 14.191-6.0977 14.191-6.0977h1.016l1.015 4.0625 1.004 1.0079h7.109l1.008-1.0079v-44.609c0-20.27-11.152-26.356-23.32-26.356-12.16 0-20.273 6.0859-21.289 14.199l1.016 1.0039h8.113l1.015-1.0039c2.024-4.0625 6.086-5.0781 11.145-5.0781 9.129 0 13.184 6.082 13.184 17.234" style="fill:#ef3727"/><path d="m955.63 22.297-2.02-1.0078h-3.039l-1.023 1.0078v7.1054l47.656 61.836 2.02 1.0156h3.043l1.02-1.0156v-7.0977l-47.657-61.844" style="fill:#ef3727"/><path d="m1125 21.289h-46.64l-1.01 1.0078v7.1054l1.01 1.0079h19.27l1 1.0156v50.691l-1 1.0078h-14.2l-1.02 1.0156v7.0977l1.02 1.0156h24.33l1.01-1.0156v-59.812l1.02-1.0156h15.21l1.01-1.0079v-7.1054l-1.01-1.0078" style="fill:#ef3727"/><path d="m1170.6 80.086h-12.16l-1.01 1.0157v10.137l1.01 1.0156h12.16l1.02-1.0156v-10.137zm16.22-58.797h-46.63l-1.01 1.0078v7.1054l1.01 1.0079h19.27l1.01 1.0156v30.418l-1.01 1.0078h-14.2l-1.01 1.0156v7.0976l1.01 1.0079h24.33l1.01-1.0079v-39.539l1.02-1.0156h15.2l1.02-1.0079v-7.1054l-1.02-1.0078" style="fill:#ef3727"/><path d="m1202.1 58.797c0 9.125 8.11 14.203 21.29 14.203 11.15 0 21.3-4.0664 21.3-15.219l-1.02-1.0157h-8.11l-1.02 1.0157c0 4.0625-3.04 6.0859-11.15 6.0859-8.1 0-11.14-2.0234-11.14-5.0703 0-5.0664 4.05-6.0821 14.18-7.0977 10.14-1.0156 19.27-4.0547 19.27-15.207 0-10.137-8.11-16.219-22.31-16.219-13.18 0-22.3 6.0821-22.3 17.227l1.01 1.0234h8.11l1.02-1.0234c0-5.0586 4.06-8.0977 12.16-8.0977 8.11 0 12.17 2.0235 12.17 7.0899 0 5.0703-4.06 6.0859-14.19 7.1016-10.14 1.0156-19.27 4.0507-19.27 15.203" style="fill:#ef3727"/><path d="m1288.3 63.867c-8.1 0-14.18-5.0703-14.18-17.227 0-12.18 6.08-17.238 14.18-17.238 8.12 0 13.18 6.0743 13.18 17.238 0 11.141-5.06 17.227-13.18 17.227zm1.03-43.594c-10.15 0-14.2 6.0821-14.2 6.0821h-1.01l-1.02-4.0586-1.01-1.0078h-7.1l-1.02 1.0078v68.941l1.02 1.0156h8.11l1.02-1.0156v-24.336h1.01s4.05 6.0977 14.2 6.0977c14.18 0 22.29-10.148 22.29-26.359 0-15.215-8.11-26.367-22.29-26.367" style="fill:#ef3727"/><path d="m1348.2 29.402c9.12 0 15.21 6.0743 15.21 17.238 0 11.141-6.09 17.227-15.21 17.227h-1.01c-9.13 0-15.21-6.0859-15.21-17.227 0-11.164 6.08-17.238 15.21-17.238zm-1.01-9.1289c-15.21 0-25.34 10.137-25.34 26.367 0 16.211 10.13 26.359 25.34 26.359h1.01c15.21 0 25.35-10.148 25.35-26.359 0-16.23-10.14-26.367-25.35-26.367h-1.01" style="fill:#ef3727"/><path d="m1431.3 21.289h-8.12l-1.01 1.0078v29.402c0 5.0664-2.03 12.168-11.16 12.168-9.12 0-14.18-5.0703-14.18-17.227v-24.344l-1.02-1.0078h-8.12l-1 1.0078v48.668l1 1.0079h7.1l1.02-1.0079 1.02-4.0625h1.01s4.05 6.0977 14.19 6.0977c14.19 0 20.27-9.1328 20.27-21.301v-29.402l-1-1.0078" style="fill:#ef3727"/></g></g></svg>
