<?xml version="1.0" encoding="UTF-8" standalone="no"?>
<!-- Created with Inkscape (http://www.inkscape.org/) -->

<svg
   xmlns:dc="http://purl.org/dc/elements/1.1/"
   xmlns:cc="http://creativecommons.org/ns#"
   xmlns:rdf="http://www.w3.org/1999/02/22-rdf-syntax-ns#"
   xmlns:svg="http://www.w3.org/2000/svg"
   xmlns="http://www.w3.org/2000/svg"
   xmlns:sodipodi="http://sodipodi.sourceforge.net/DTD/sodipodi-0.dtd"
   xmlns:inkscape="http://www.inkscape.org/namespaces/inkscape"
   id="svg2"
   version="1.1"
   inkscape:version="0.91 r13725"
   xml:space="preserve"
   width="230.3125"
   height="51.712502"
   viewBox="0 0 230.3125 51.712502"
   sodipodi:docname="RZ_freiheit.com_Logo+technologies_rot_CMYK.svg"><metadata
     id="metadata8"><rdf:RDF><cc:Work
         rdf:about=""><dc:format>image/svg+xml</dc:format><dc:type
           rdf:resource="http://purl.org/dc/dcmitype/StillImage" /><dc:title></dc:title></cc:Work></rdf:RDF></metadata><defs
     id="defs6" /><sodipodi:namedview
     pagecolor="#ffffff"
     bordercolor="#666666"
     borderopacity="1"
     objecttolerance="10"
     gridtolerance="10"
     guidetolerance="10"
     inkscape:pageopacity="0"
     inkscape:pageshadow="2"
     inkscape:window-width="749"
     inkscape:window-height="1032"
     id="namedview4"
     showgrid="false"
     inkscape:zoom="1.4849389"
     inkscape:cx="117.51325"
     inkscape:cy="25.856251"
     inkscape:window-x="0"
     inkscape:window-y="16"
     inkscape:window-maximized="0"
     inkscape:current-layer="g10" /><g
     id="g10"
     inkscape:groupmode="layer"
     inkscape:label="ink_ext_XXXXXX"
     transform="matrix(1.25,0,0,-1.25,0,51.7125)"><g
       id="g12"
       transform="scale(0.1,0.1)"><path
         d="m 1359.41,251.309 -2.29,-2.246 0,-4.493 c 0,-15.754 -11.24,-20.265 -20.24,-20.265 -11.29,0 -22.52,4.511 -22.52,27.004 l 0,45.058 2.28,2.246 38.27,0 2.21,2.246 0,15.789 -2.21,2.247 -38.27,0 -2.28,2.238 0,41.68 -2.25,2.234 -18.03,0 -2.24,-2.234 0,-41.68 -2.28,-2.238 -18,0 -2.24,-2.247 0,-15.789 2.24,-2.246 18,0 2.28,-2.246 0,-45.058 c 0,-33.77 20.27,-47.286 45.04,-47.286 18.03,0 42.77,9.004 42.77,40.547 l 0,4.493 -2.26,2.246 -17.98,0 z m -123.58,-24.766 -2.29,2.254 0,87.851 -2.2,2.247 -54.06,0 -2.27,-2.247 0,-15.789 2.27,-2.246 31.53,0 2.24,-2.265 0,-67.551 -2.24,-2.254 -42.79,0 -2.24,-2.238 0,-15.75 2.24,-2.285 103.58,0 2.27,2.285 0,15.75 -2.27,2.238 -33.77,0 z m -109.49,47.293 c 0,6.758 -2.27,27.023 -29.29,27.023 -27,0 -29.28,-20.265 -29.28,-27.023 l 2.28,-2.246 54.02,0 2.27,2.246 z m 24.76,-11.258 0,-6.75 -2.25,-2.234 -78.8,0 -2.28,-2.285 c 0,-4.485 2.28,-27.032 31.52,-27.032 11.26,0 20.28,2.266 24.78,13.536 l 2.27,2.265 18.01,0 2.23,-2.265 c -2.23,-18.02 -17.99,-33.79 -47.29,-33.79 -38.28,0 -56.3,24.774 -56.3,58.555 0,31.563 15.77,58.555 54.06,58.555 38.28,0 54.05,-26.992 54.05,-58.555 z m -177.846,58.555 c -22.512,0 -31.508,-13.477 -31.508,-13.477 l -2.285,0 0,53.992 -2.195,2.278 -18.028,0 -2.265,-2.278 0,-153.125 2.265,-2.253 18.028,0 2.195,2.253 0,56.301 c 0,27.031 13.535,36.035 31.555,36.035 17.996,0 24.754,-13.496 24.754,-26.992 l 0,-65.344 2.265,-2.253 18.015,0 2.26,2.253 0,65.344 c 0,24.746 -11.27,47.266 -45.056,47.266 z m 840.006,0 c -13.51,0 -20.3,-6.758 -22.54,-13.508 l -2.26,0 c -2.23,6.75 -9.01,13.508 -20.28,13.508 -13.51,0 -20.25,-6.758 -22.51,-13.508 l -2.25,0 -2.22,9.023 -2.25,2.247 -15.81,0 -2.24,-2.247 0,-108.125 2.24,-2.253 18.06,0 2.22,2.253 0,67.571 c 0,20.273 6.78,24.765 15.77,24.765 8.99,0 11.29,-6.738 11.29,-20.246 l 0,-72.09 2.23,-2.253 18.01,0 2.24,2.253 0,67.571 c 0,20.273 6.79,24.765 15.77,24.765 9,0 11.26,-6.738 11.26,-20.246 l 0,-72.09 2.28,-2.253 17.99,0 2.26,2.253 0,69.836 c 0,24.766 -4.47,42.774 -29.26,42.774 z m -307.32,-20.274 c 15.78,0 24.79,-6.718 27.02,-20.246 l 2.28,-2.246 18,0 2.27,2.246 c -2.27,29.239 -27.05,40.52 -49.57,40.52 -36.05,0 -56.26,-22.52 -56.26,-58.555 0,-36.035 20.21,-58.555 56.26,-58.555 22.52,0 47.3,11.278 49.57,40.547 l -2.27,2.254 -18,0 -2.28,-2.254 c -2.23,-13.507 -11.24,-20.293 -27.02,-20.293 -22.51,0 -33.76,13.536 -33.76,38.301 0,24.785 11.25,38.281 33.76,38.281 z m -102.77,-67.55 -2.23,-2.254 0,-22.5 2.23,-2.285 27.03,0 2.26,2.285 0,22.5 -2.26,2.254 -27.03,0 z m 267.88,29.269 c 0,24.785 -13.49,38.281 -33.75,38.281 l -2.24,0 c -20.27,0 -33.8,-13.496 -33.8,-38.281 0,-24.765 13.53,-38.301 33.8,-38.301 l 2.24,0 c 20.26,0 33.75,13.536 33.75,38.301 z m 22.54,0 c 0,-36.035 -22.54,-58.555 -56.29,-58.555 l -2.24,0 c -33.8,0 -56.3,22.52 -56.3,58.555 0,36.035 22.5,58.555 56.3,58.555 l 2.24,0 c 33.75,0 56.29,-22.52 56.29,-58.555 z m -460.05,74.317 2.29,2.253 0,22.52 -2.29,2.277 -27.02,0 -2.22,-2.277 0,-22.52 2.22,-2.253 27.02,0 z m -726.099,29.589 c -24.296,0 -44.257,-13.019 -45,-45.398 l -0.031,0.027 -2.265,-2.218 -29.219,0 -2.254,-2.247 0,-15.789 2.254,-2.246 29.289,0 2.265,-2.246 0,-87.812 2.247,-2.285 17.968,0 2.305,2.285 0,87.812 2.227,2.246 45.039,0 2.285,2.246 0,15.789 -2.285,2.247 -35.703,0 -9.336,0 -0.012,0 -2.235,2.191 c 0.633,20.816 11.493,25.113 22.461,25.113 l 0,0 24.852,0 2.277,2.258 0,15.762 -2.277,2.265 -24.852,0 z m 101.477,-45.351 c -22.512,0 -31.527,-13.477 -31.527,-13.477 l -2.262,0 -2.25,8.992 -2.227,2.247 -15.769,0 -2.266,-2.247 0,-108.093 2.266,-2.285 17.996,0 2.25,2.285 0,56.297 c 0,27.023 11.277,36.007 31.531,36.007 15.75,0 24.785,-6.718 24.785,-22.5 l 2.227,-2.265 18.027,0 2.266,2.265 c 0,31.512 -22.52,42.774 -45.047,42.774 z m 250.348,15.762 2.265,2.253 0,22.52 -2.265,2.277 -27.032,0 -2.254,-2.277 0,-22.52 2.254,-2.253 27.032,0 z M 750.848,273.836 c 0,6.758 -2.274,27.023 -29.278,27.023 -27.039,0 -29.285,-20.265 -29.285,-27.023 l 2.246,-2.246 54.043,0 2.274,2.246 z m 24.746,-11.258 0,-6.75 -2.235,-2.234 -78.828,0 -2.246,-2.285 c 0,-4.485 2.246,-27.032 31.531,-27.032 11.25,0 20.274,2.266 24.758,13.536 l 2.274,2.265 18.019,0 2.266,-2.265 c -2.266,-18.02 -18.059,-33.79 -47.317,-33.79 -38.281,0 -56.269,24.774 -56.269,58.555 0,31.563 15.723,58.555 54.023,58.555 38.274,0 54.024,-26.992 54.024,-58.555 z m 119.668,-36.035 2.277,-2.238 0,-15.75 -2.277,-2.285 -103.543,0 -2.266,2.285 0,15.75 2.266,2.238 42.793,0 2.254,2.254 0,67.551 -2.254,2.265 -31.543,0 -2.278,2.246 0,15.789 2.278,2.247 54.035,0 2.262,-2.247 0,-87.851 2.265,-2.254 33.731,0"
         style="fill:#ef3727;fill-opacity:1;fill-rule:nonzero;stroke:none"
         id="path14"
         inkscape:connector-curvature="0" /><path
         d="m 1409.02,77.6953 c -15.52,3.0938 -21.73,4.6485 -21.73,12.4102 0,6.2226 6.21,7.7851 13.97,7.7851 10.88,0 13.97,-4.6797 13.97,-9.3359 l 1.56,-1.543 12.44,0 1.54,1.543 c 0,15.5353 -12.42,23.3083 -29.51,23.3083 -21.76,0 -29.52,-10.879 -29.52,-21.7575 0,-13.9844 9.32,-20.1953 24.86,-23.3008 15.54,-3.1133 20.19,-4.6563 20.19,-12.4297 0,-6.2109 -4.65,-9.3164 -15.53,-9.3164 -10.89,0 -15.54,4.668 -15.54,12.4297 l -1.55,1.5547 -12.43,0 -1.56,-1.5547 c 0,-17.0781 10.88,-26.4141 31.08,-26.4141 21.76,0 31.07,10.8789 31.07,23.3008 0,13.9844 -7.76,20.1953 -23.31,23.3203 z m -72.16,1.543 c 0,4.6562 -1.57,18.6523 -18.66,18.6523 -17.08,0 -18.64,-13.9961 -18.64,-18.6523 l 1.56,-1.543 34.17,0 1.57,1.543 z m 17.07,-7.7735 0,-4.6601 -1.54,-1.5508 -51.27,0 -1.56,-1.5625 c 0,-3.0976 1.56,-18.6328 20.21,-18.6328 6.21,0 12.43,1.5508 15.52,9.3164 l 1.57,1.5625 12.42,0 1.56,-1.5625 c -1.56,-12.4219 -12.44,-23.3008 -31.07,-23.3008 -24.86,0 -37.3,17.0899 -37.3,40.3906 0,21.7461 10.87,40.3982 35.73,40.3982 24.87,0 35.73,-18.6521 35.73,-40.3982 z m -106.14,51.2892 1.57,1.543 0,15.539 -1.57,1.551 -18.63,0 -1.55,-1.551 0,-15.539 1.55,-1.543 18.63,0 z m 1.57,-76.1446 -1.57,1.5547 0,60.5859 -1.55,1.563 -37.27,0 -1.57,-1.563 0,-10.8594 1.57,-1.5625 21.74,0 1.56,-1.5625 0,-46.6015 -1.56,-1.5547 -29.52,0 -1.55,-1.5508 0,-10.8789 1.55,-1.5547 71.47,0 1.55,1.5547 0,10.8789 -1.55,1.5508 -23.3,0 z m -82.92,24.8554 c 0,18.6407 -7.77,26.4258 -20.2,26.4258 -12.43,0 -20.2,-9.3359 -20.2,-26.4258 0,-17.0898 7.77,-26.4062 20.2,-26.4062 12.43,0 20.2,7.7734 20.2,26.4062 z m 13.98,38.8482 1.55,-1.563 0,-66.7969 C 1181.97,10.8867 1164.88,0 1146.24,0 c -18.65,0 -29.52,9.33594 -31.07,21.7461 l 1.55,1.5625 12.42,0 1.56,-1.5625 c 3.11,-6.1992 7.76,-7.7617 15.54,-7.7617 13.97,0 20.2,9.3242 20.2,26.4258 l -1.56,0 c 0,0 -6.21,-9.336 -20.2,-9.336 -21.75,0 -34.17,17.0899 -34.17,40.3906 0,23.3008 12.42,40.3982 34.17,40.3982 13.99,0 20.2,-9.324 20.2,-9.324 l 1.56,0 1.55,6.211 1.54,1.563 10.89,0 z m -99.74,-38.8482 c 0,17.0899 -7.78,26.4258 -21.76,26.4258 -13.98,0 -21.75,-9.3359 -21.75,-26.4258 0,-17.0898 7.77,-26.4062 21.75,-26.4062 13.98,0 21.76,9.3164 21.76,26.4062 z m 15.53,0 c 0,-24.8554 -13.98,-40.3906 -37.29,-40.3906 -23.3,0 -37.29,15.5352 -37.29,40.3906 0,24.8633 13.99,40.3982 37.29,40.3982 23.31,0 37.29,-15.5349 37.29,-40.3982 z m -106.093,-24.8554 -1.543,1.5547 0,91.6719 -1.57,1.551 -37.289,0 -1.551,-1.551 0,-10.883 1.551,-1.551 21.758,0 1.554,-1.562 0,-77.6759 -1.554,-1.5547 -29.512,0 -1.563,-1.5508 0,-10.8789 1.563,-1.5547 71.469,0 1.56,1.5547 0,10.8789 -1.56,1.5508 -23.313,0 z m -71.789,24.8554 c 0,17.0899 -7.754,26.4258 -21.726,26.4258 -13.997,0 -21.758,-9.3359 -21.758,-26.4258 0,-17.0898 7.761,-26.4062 21.758,-26.4062 13.972,0 21.726,9.3164 21.726,26.4062 z m 15.551,0 c 0,-24.8554 -13.988,-40.3906 -37.277,-40.3906 -23.309,0 -37.297,15.5352 -37.297,40.3906 0,24.8633 13.988,40.3982 37.297,40.3982 23.289,0 37.277,-15.5349 37.277,-40.3982 z m -120.07,40.3982 c -13.996,0 -20.207,-9.324 -20.207,-9.324 l -1.551,0 -1.555,6.211 -1.551,1.563 -10.879,0 -1.554,-1.563 0,-74.5703 1.554,-1.5547 12.43,0 1.555,1.5547 0,37.2851 c 0,18.6407 6.211,26.4258 20.195,26.4258 13.973,0 15.535,-10.8789 15.535,-18.6523 l 0,-45.0586 1.555,-1.5547 12.43,0 1.554,1.5547 0,45.0586 c 0,18.6523 -7.765,32.6247 -29.511,32.6247 z m -87.891,0 c -13.977,0 -20.188,-9.324 -20.188,-9.324 l -1.55,0 0,37.297 -1.563,1.551 -12.422,0 -1.562,-1.551 0,-105.6563 1.562,-1.5547 12.422,0 1.563,1.5547 0,38.8476 c 0,18.6329 7.761,24.8633 20.183,24.8633 12.442,0 15.547,-9.3359 15.547,-18.6523 l 0,-45.0586 1.555,-1.5547 12.414,0 1.559,1.5547 0,45.0586 c 0,17.0898 -6.211,32.6247 -29.52,32.6247 z M 634.941,97.8906 c 12.422,0 17.09,-6.2304 18.645,-12.4414 l 1.551,-1.5547 12.429,0 1.555,1.5547 c -1.555,13.9844 -12.441,26.4138 -34.18,26.4138 -23.312,0 -37.296,-15.5349 -37.296,-40.3982 0,-24.8554 13.984,-40.3906 37.296,-40.3906 21.739,0 32.625,12.4219 34.18,26.4141 l -1.555,1.5547 -12.429,0 -1.551,-1.5547 c -1.555,-6.2188 -6.223,-12.4297 -18.645,-12.4297 -13.996,0 -21.75,9.3164 -21.75,26.4062 0,17.0899 7.754,26.4258 21.75,26.4258 z m -69.23,-18.6523 c 0,4.6562 -1.551,18.6523 -18.652,18.6523 -17.09,0 -18.641,-13.9961 -18.641,-18.6523 l 1.551,-1.543 34.191,0 1.551,1.543 z m 17.082,-7.7735 0,-4.6601 -1.555,-1.5508 -51.269,0 -1.551,-1.5625 c 0,-3.0976 1.551,-18.6328 20.203,-18.6328 6.203,0 12.422,1.5508 15.539,9.3164 l 1.551,1.5625 12.422,0 1.543,-1.5625 c -1.543,-12.4219 -12.41,-23.3008 -31.055,-23.3008 -24.871,0 -37.285,17.0899 -37.285,40.3906 0,21.7461 10.871,40.3982 35.723,40.3982 24.855,0 35.734,-18.6521 35.734,-40.3982 z m -86.008,38.8482 1.535,-1.563 0,-10.8594 -1.535,-1.5625 -17.097,0 -1.563,-1.5625 0,-41.9336 c 0,-4.6679 3.105,-6.2226 6.219,-6.2226 l 12.441,0 1.535,-1.5508 0,-10.8789 -1.535,-1.5547 -12.441,0 c -10.887,0 -21.758,6.2109 -21.758,20.207 l 0,41.9336 -1.543,1.5625 -10.887,0 -1.543,1.5625 0,10.8594 1.543,1.563 10.887,0 1.543,1.55 0,13.977 1.555,1.562 12.441,0 1.543,-1.562 0,-13.977 1.563,-1.55 17.097,0"
         style="fill:#ef3727;fill-opacity:1;fill-rule:nonzero;stroke:none"
         id="path16"
         inkscape:connector-curvature="0" /><path
         d="m 165.809,209.238 c -76.5121,0 -138.5434,34.571 -138.5434,77.227 0,42.664 62.0313,77.234 138.5434,77.234 76.515,0 138.535,-34.57 138.535,-77.234 0,-42.656 -62.02,-77.227 -138.535,-77.227 z m 15.558,174.414 0.028,0.02 -2.286,2.234 -0.019,-0.027 0,25.566 -2.195,2.266 -22.149,0 -2.277,-2.266 0,-25.566 -2.266,-2.227 C 66.0625,378.945 0,337.488 0,286.465 0,235.43 66.0742,193.984 150.223,189.266 l 2.246,-2.207 0,-25.75 2.199,-2.266 22.156,0 2.266,2.266 0,25.761 0.019,-0.039 2.278,2.235 c 84.148,4.718 150.222,46.164 150.222,97.199 0,51.035 -66.082,92.48 -150.242,97.187"
         style="fill:#ef3727;fill-opacity:1;fill-rule:nonzero;stroke:none"
         id="path18"
         inkscape:connector-curvature="0" /></g></g></svg>