<?xml version="1.0" encoding="utf-8"?>
<!-- Generator: Adobe Illustrator 26.0.1, SVG Export Plug-In . SVG Version: 6.00 Build 0)  -->
<svg version="1.1" id="Logo" xmlns="http://www.w3.org/2000/svg" xmlns:xlink="http://www.w3.org/1999/xlink" x="0px" y="0px"
	 width="157.1648px" height="28.7546px" viewBox="0 0 157.1648 28.7546" style="enable-background:new 0 0 157.1648 28.7546;"
	 xml:space="preserve">
<style type="text/css">
	.st0{fill:#0303B8;}
</style>
<g>
	<g>
		<polygon class="st0" points="79.1528,0.2981 72.0671,0.2981 67.3433,9.7458 72.5992,9.7469 75.6289,3.6954 88.0832,28.6411 
			93.3392,28.6411 		"/>
		<path class="st0" d="M76.7909,12.1099l-61.4098-0.0022l-2.3619,4.7238h9.4477v7.0857H14.093
			c-5.1777,0-9.3902-4.2194-9.3902-9.4443s4.2125-9.4522,9.3902-9.4522h10.7269V0.2947l-10.7269,0C6.3221,0.2947,0,6.6551,0,14.473
			c0,7.8179,6.3221,14.1681,14.093,14.1681h13.0977V16.8315h7.0857v11.8096h18.8953l2.3619-4.7238H39.0003v-7.0857h24.7705
			l-5.8752,11.8096h5.2534l5.9055-11.8096h10.0984L76.7909,12.1099z"/>
		<polygon class="st0" points="39.0005,5.0208 55.5337,5.022 55.5337,0.2981 34.274,0.2947 34.2744,9.7469 39.0005,9.7469 		"/>
	</g>
	<g>
		<polygon class="st0" points="105.1361,6.786 101.5426,6.786 101.5426,4.5033 104.8489,4.5033 104.8489,3.5388 101.5426,3.5388 
			101.5426,1.2668 105.0921,1.2668 105.0921,0.2984 100.4184,0.2984 100.4184,7.7544 105.1361,7.7544 		"/>
		<path class="st0" d="M107.6014,4.434c0-0.296,0.0557-0.5489,0.169-0.7589c0.1123-0.21,0.2667-0.3692,0.462-0.4786
			c0.1954-0.1094,0.42-0.1641,0.672-0.1641c0.3692,0,0.6593,0.1148,0.8703,0.3443s0.3165,0.5465,0.3165,0.9518v3.426h1.0891V4.1976
			c0-0.461-0.0791-0.8483-0.2374-1.1614c-0.1573-0.313-0.38-0.5489-0.6661-0.7081c-0.2862-0.1587-0.6202-0.2383-1.0012-0.2383
			c-0.42,0-0.7677,0.0899-1.0432,0.2691c-0.2755,0.1797-0.4776,0.4176-0.6056,0.7135h-0.0694V2.1625h-1.0451v5.5919h1.0891V4.434z"
			/>
		<path class="st0" d="M116.2633,9.7348c0.38-0.148,0.6818-0.3756,0.9055-0.6823c0.2227-0.3072,0.335-0.6989,0.335-1.1745V2.1625
			h-1.0676V3.069h-0.0801c-0.0654-0.1167-0.1582-0.251-0.2784-0.4039c-0.1201-0.1534-0.2872-0.2872-0.5001-0.4024
			c-0.2139-0.1153-0.4942-0.1729-0.841-0.1729c-0.4493,0-0.8508,0.1133-1.2053,0.3404c-0.3546,0.2266-0.6329,0.5528-0.8351,0.9772
			c-0.2032,0.4249-0.3047,0.9348-0.3047,1.5291c0,0.5948,0.1026,1.0954,0.3077,1.5018c0.2051,0.4068,0.4845,0.7135,0.8381,0.9211
			c0.3526,0.2076,0.7501,0.3116,1.1916,0.3116c0.3428,0,0.6202-0.0537,0.8341-0.1602c0.2139-0.107,0.3819-0.2334,0.504-0.379
			c0.1231-0.1455,0.2168-0.2779,0.2823-0.3966h0.0693v1.0993c0,0.4322-0.1348,0.7477-0.4044,0.9465
			c-0.2696,0.1993-0.6105,0.2984-1.0227,0.2984c-0.3008,0-0.547-0.0425-0.7374-0.127c-0.1905-0.085-0.3409-0.187-0.4513-0.3062
			c-0.1104-0.1187-0.1983-0.229-0.2637-0.3311l-0.9357,0.3858c0.0986,0.2232,0.25,0.4303,0.4513,0.6207s0.462,0.3443,0.7804,0.4605
			c0.3194,0.1167,0.7013,0.1748,1.1457,0.1748C115.4565,9.957,115.8833,9.8828,116.2633,9.7348z M116.2603,5.9142
			c-0.1133,0.2754-0.2784,0.4864-0.4952,0.6334c-0.2178,0.147-0.4825,0.2203-0.7961,0.2203c-0.3223,0-0.5939-0.0777-0.8136-0.233
			c-0.2198-0.1553-0.3848-0.3717-0.4962-0.6481c-0.1123-0.2769-0.168-0.5983-0.168-0.965c0-0.3565,0.0557-0.6793,0.1661-0.9685
			c0.1104-0.2886,0.2745-0.5172,0.4933-0.6862c0.2178-0.1685,0.4913-0.253,0.8185-0.253c0.3184,0,0.5851,0.0806,0.8009,0.2422
			c0.2159,0.1612,0.38,0.3853,0.4923,0.6715c0.1114,0.2867,0.167,0.6178,0.167,0.9938
			C116.4293,5.3082,116.3727,5.6388,116.2603,5.9142z"/>
		<path class="st0" d="M119.5129,1.2996c0.1895,0,0.3516-0.0635,0.4864-0.191c0.1348-0.1275,0.2012-0.2798,0.2012-0.4571
			c0-0.1797-0.0664-0.3331-0.2012-0.4605C119.8646,0.0635,119.7024,0,119.5129,0s-0.3516,0.0635-0.4864,0.191
			c-0.1348,0.1275-0.2012,0.2808-0.2012,0.4605c0,0.1773,0.0664,0.3297,0.2012,0.4571
			C119.1613,1.2361,119.3234,1.2996,119.5129,1.2996z"/>
		<rect x="118.963" y="2.1625" class="st0" width="1.0891" height="5.5919"/>
		<path class="st0" d="M122.6043,4.434c0-0.296,0.0557-0.5489,0.169-0.7589c0.1123-0.21,0.2667-0.3692,0.462-0.4786
			c0.1954-0.1094,0.42-0.1641,0.672-0.1641c0.3692,0,0.6593,0.1148,0.8703,0.3443c0.211,0.2295,0.3165,0.5465,0.3165,0.9518v3.426
			h1.0891V4.1976c0-0.461-0.0791-0.8483-0.2374-1.1614c-0.1573-0.313-0.38-0.5489-0.6662-0.7081
			c-0.2862-0.1587-0.6202-0.2383-1.0012-0.2383c-0.42,0-0.7677,0.0899-1.0432,0.2691c-0.2754,0.1797-0.4776,0.4176-0.6056,0.7135
			h-0.0694V2.1625h-1.0451v5.5919h1.0891V4.434z"/>
		<path class="st0" d="M128.627,7.5122c0.3966,0.2369,0.8713,0.3551,1.4221,0.3551c0.4073,0,0.7707-0.0625,1.0901-0.1875
			s0.5851-0.3008,0.797-0.5279c0.2129-0.2266,0.3604-0.4918,0.4425-0.7956l-1.0305-0.1856
			c-0.0654,0.1748-0.1602,0.3218-0.2832,0.4405c-0.1241,0.1192-0.2715,0.208-0.4405,0.2676
			c-0.17,0.0596-0.3585,0.0894-0.5646,0.0894c-0.3184,0-0.5958-0.0689-0.8342-0.2056c-0.2374-0.1372-0.4229-0.337-0.5548-0.5992
			c-0.123-0.2424-0.1821-0.5384-0.191-0.8771h3.9681V4.9004c0-0.5074-0.0684-0.9387-0.2041-1.2942s-0.3214-0.6451-0.5567-0.8683
			c-0.2354-0.2237-0.5011-0.3873-0.797-0.4918c-0.2969-0.104-0.6027-0.1563-0.9182-0.1563c-0.5187,0-0.9719,0.1226-1.3596,0.3677
			c-0.3868,0.2452-0.6876,0.5861-0.9025,1.0227c-0.2149,0.4371-0.3223,0.9421-0.3223,1.5145c0,0.5802,0.1074,1.0857,0.3223,1.5164
			C127.9247,6.9418,128.2305,7.2758,128.627,7.5122z M128.6563,3.7952c0.1221-0.2388,0.2969-0.4332,0.5245-0.5826
			c0.2266-0.149,0.4933-0.2237,0.799-0.2237c0.2813,0,0.5275,0.0645,0.7374,0.1929c0.209,0.1289,0.3731,0.3043,0.4894,0.526
			c0.1162,0.2222,0.1748,0.4767,0.1748,0.7628h-2.8972C128.4976,4.2311,128.5488,4.0043,128.6563,3.7952z"/>
		<path class="st0" d="M134.6487,7.5122c0.3966,0.2369,0.8713,0.3551,1.4221,0.3551c0.4073,0,0.7707-0.0625,1.0901-0.1875
			s0.5851-0.3008,0.797-0.5279c0.2129-0.2266,0.3604-0.4918,0.4425-0.7956l-1.0305-0.1856
			c-0.0654,0.1748-0.1602,0.3218-0.2833,0.4405c-0.1241,0.1192-0.2715,0.208-0.4405,0.2676
			c-0.17,0.0596-0.3585,0.0894-0.5646,0.0894c-0.3184,0-0.5958-0.0689-0.8342-0.2056c-0.2374-0.1372-0.4229-0.337-0.5548-0.5992
			c-0.123-0.2424-0.1821-0.5384-0.191-0.8771h3.9681V4.9004c0-0.5074-0.0684-0.9387-0.2041-1.2942s-0.3214-0.6451-0.5567-0.8683
			c-0.2354-0.2237-0.5011-0.3873-0.797-0.4918c-0.2969-0.104-0.6027-0.1563-0.9182-0.1563c-0.5187,0-0.9719,0.1226-1.3596,0.3677
			c-0.3868,0.2452-0.6876,0.5861-0.9025,1.0227c-0.2149,0.4371-0.3223,0.9421-0.3223,1.5145c0,0.5802,0.1074,1.0857,0.3223,1.5164
			C133.9464,6.9418,134.2521,7.2758,134.6487,7.5122z M134.678,3.7952c0.1221-0.2388,0.2969-0.4332,0.5245-0.5826
			c0.2266-0.149,0.4933-0.2237,0.799-0.2237c0.2813,0,0.5275,0.0645,0.7375,0.1929c0.209,0.1289,0.3731,0.3043,0.4893,0.526
			c0.1162,0.2222,0.1748,0.4767,0.1748,0.7628h-2.8972C134.5193,4.2311,134.5705,4.0043,134.678,3.7952z"/>
		<path class="st0" d="M140.771,4.3397c0-0.2427,0.0576-0.4596,0.1748-0.65c0.1162-0.1905,0.2745-0.3399,0.4747-0.4478
			c0.2002-0.1079,0.4288-0.1621,0.6866-0.1621c0.1114,0,0.2227,0.0083,0.3341,0.0239c0.1123,0.0156,0.1895,0.0298,0.2334,0.042
			V2.1044c-0.0537-0.0073-0.127-0.0137-0.2198-0.0186c-0.0938-0.0049-0.1748-0.0073-0.2422-0.0073
			c-0.3282,0-0.6212,0.0869-0.8791,0.2603c-0.2588,0.1739-0.4395,0.4112-0.5411,0.7121h-0.0586V2.1625h-1.052v5.5919h1.0891V4.3397z
			"/>
		<rect x="143.6212" y="2.1625" class="st0" width="1.0891" height="5.5919"/>
		<path class="st0" d="M144.1711,1.2996c0.1895,0,0.3516-0.0635,0.4864-0.191s0.2012-0.2798,0.2012-0.4571
			c0-0.1797-0.0664-0.3331-0.2012-0.4605S144.3605,0,144.1711,0c-0.1895,0-0.3516,0.0635-0.4864,0.191
			c-0.1348,0.1275-0.2012,0.2808-0.2012,0.4605c0,0.1773,0.0664,0.3297,0.2012,0.4571
			C143.8194,1.2361,143.9816,1.2996,144.1711,1.2996z"/>
		<path class="st0" d="M150.8413,7.7544V4.1976c0-0.461-0.0791-0.8483-0.2374-1.1614c-0.1573-0.313-0.38-0.5489-0.6661-0.7081
			c-0.2862-0.1587-0.6202-0.2383-1.0012-0.2383c-0.42,0-0.7677,0.0899-1.0432,0.2691c-0.2754,0.1797-0.4776,0.4176-0.6056,0.7135
			h-0.0694V2.1625h-1.0451v5.5919h1.0891V4.434c0-0.296,0.0557-0.5489,0.169-0.7589c0.1123-0.21,0.2666-0.3692,0.462-0.4786
			c0.1954-0.1094,0.42-0.1641,0.672-0.1641c0.3692,0,0.6593,0.1148,0.8703,0.3443c0.211,0.2295,0.3165,0.5465,0.3165,0.9518v3.426
			H150.8413z"/>
		<path class="st0" d="M156.0972,2.1625V3.069h-0.0801c-0.0654-0.1167-0.1582-0.251-0.2784-0.4039
			c-0.1201-0.1534-0.2872-0.2872-0.5001-0.4024c-0.2139-0.1153-0.4942-0.1729-0.841-0.1729c-0.4493,0-0.8508,0.1133-1.2053,0.3404
			c-0.3546,0.2266-0.6329,0.5528-0.8351,0.9772c-0.2032,0.4249-0.3047,0.9348-0.3047,1.5291c0,0.5948,0.1026,1.0954,0.3077,1.5018
			c0.2051,0.4068,0.4845,0.7135,0.838,0.9211c0.3526,0.2076,0.7502,0.3116,1.1917,0.3116c0.3428,0,0.6202-0.0537,0.8341-0.1602
			c0.2139-0.107,0.3819-0.2334,0.504-0.379c0.1231-0.1455,0.2168-0.2779,0.2823-0.3966h0.0694v1.0993
			c0,0.4322-0.1348,0.7477-0.4044,0.9465c-0.2696,0.1993-0.6105,0.2984-1.0227,0.2984c-0.3008,0-0.547-0.0425-0.7374-0.127
			c-0.1905-0.085-0.3409-0.187-0.4513-0.3062c-0.1104-0.1187-0.1983-0.229-0.2637-0.3311l-0.9357,0.3858
			c0.0987,0.2232,0.2501,0.4303,0.4513,0.6207c0.2012,0.1905,0.462,0.3443,0.7804,0.4605c0.3194,0.1167,0.7013,0.1748,1.1457,0.1748
			c0.4757,0,0.9025-0.0742,1.2825-0.2222c0.38-0.148,0.6818-0.3756,0.9055-0.6823c0.2227-0.3072,0.335-0.6989,0.335-1.1745V2.1625
			H156.0972z M155.9214,5.9142c-0.1133,0.2754-0.2784,0.4864-0.4952,0.6334c-0.2178,0.147-0.4825,0.2203-0.7961,0.2203
			c-0.3223,0-0.5939-0.0777-0.8136-0.233c-0.2198-0.1553-0.3848-0.3717-0.4962-0.6481c-0.1123-0.2769-0.168-0.5983-0.168-0.965
			c0-0.3565,0.0557-0.6793,0.166-0.9685c0.1104-0.2886,0.2745-0.5172,0.4933-0.6862c0.2178-0.1685,0.4913-0.253,0.8185-0.253
			c0.3184,0,0.5851,0.0806,0.8009,0.2422c0.2159,0.1612,0.38,0.3853,0.4923,0.6715c0.1114,0.2867,0.167,0.6178,0.167,0.9938
			C156.0904,5.3082,156.0337,5.6388,155.9214,5.9142z"/>
		<path class="st0" d="M100.6987,18.1979h1.0881v-4.7182h1.2053V12.606h-1.2053v-0.5025c0-0.2476,0.0567-0.4366,0.169-0.568
			c0.1133-0.1309,0.3018-0.1963,0.5665-0.1963c0.1143,0,0.211,0.0103,0.2911,0.0308s0.1455,0.0381,0.1963,0.0527l0.2549-0.881
			c-0.0752-0.0293-0.1905-0.061-0.3458-0.0962c-0.1553-0.0352-0.3419-0.0532-0.5607-0.0532c-0.296,0-0.5704,0.0581-0.8224,0.1734
			c-0.253,0.1153-0.4552,0.2886-0.6085,0.5206c-0.1524,0.2315-0.2286,0.5221-0.2286,0.8718v0.6481h-0.8664v0.8737h0.8664V18.1979z"
			/>
		<path class="st0" d="M108.9933,15.4273c0-0.5802-0.1074-1.0871-0.3233-1.5218c-0.2159-0.4342-0.5196-0.7716-0.9103-1.0119
			c-0.3907-0.2403-0.8488-0.3604-1.3723-0.3604c-0.5245,0-0.9816,0.1201-1.3723,0.3604c-0.3917,0.2403-0.6945,0.5778-0.9103,1.0119
			c-0.2159,0.4347-0.3243,0.9416-0.3243,1.5218c0,0.5778,0.1084,1.0827,0.3243,1.5145c0.2159,0.4322,0.5187,0.7682,0.9103,1.0085
			c0.3907,0.2403,0.8478,0.3604,1.3723,0.3604c0.5235,0,0.9816-0.1201,1.3723-0.3604s0.6945-0.5763,0.9103-1.0085
			C108.8858,16.5101,108.9933,16.0051,108.9933,15.4273z M107.7323,16.4104c-0.1084,0.2984-0.2735,0.5377-0.4972,0.7169
			c-0.2227,0.1797-0.505,0.2696-0.8449,0.2696c-0.3419,0-0.6251-0.0899-0.8498-0.2696c-0.2247-0.1792-0.3907-0.4185-0.4981-0.7169
			c-0.1084-0.2984-0.1621-0.6276-0.1621-0.9865c0-0.357,0.0537-0.6852,0.1621-0.9851c0.1074-0.2999,0.2735-0.5406,0.4981-0.7228
			c0.2246-0.1817,0.5079-0.273,0.8498-0.273c0.3399,0,0.6222,0.0913,0.8449,0.273c0.2237,0.1822,0.3887,0.4229,0.4972,0.7228
			c0.1074,0.2999,0.1621,0.6281,0.1621,0.9851C107.8944,15.7829,107.8397,16.112,107.7323,16.4104z"/>
		<path class="st0" d="M111.1754,12.606h-1.052v5.5919h1.0891v-3.4147c0-0.2427,0.0576-0.4596,0.1748-0.65
			c0.1162-0.1905,0.2745-0.3399,0.4747-0.4478c0.2002-0.1079,0.4288-0.1621,0.6867-0.1621c0.1114,0,0.2227,0.0083,0.3341,0.0239
			c0.1123,0.0156,0.1895,0.0298,0.2334,0.042v-1.0412c-0.0537-0.0073-0.127-0.0137-0.2198-0.0186
			c-0.0938-0.0049-0.1748-0.0073-0.2422-0.0073c-0.3282,0-0.6212,0.0869-0.8791,0.2603c-0.2588,0.1739-0.4395,0.4112-0.5411,0.7121
			h-0.0586V12.606z"/>
		<path class="st0" d="M120.2494,12.8971c-0.2198-0.1382-0.4552-0.2334-0.7062-0.2857c-0.251-0.0523-0.4884-0.0781-0.7121-0.0781
			c-0.337,0-0.6593,0.0479-0.965,0.1436c-0.3057,0.0962-0.5753,0.2491-0.8097,0.4586c-0.2344,0.21-0.4122,0.485-0.5333,0.8249
			l1.0227,0.233c0.0801-0.1968,0.2256-0.3756,0.4356-0.5372c0.21-0.1612,0.4981-0.2417,0.8644-0.2417
			c0.3516,0,0.6173,0.0874,0.7951,0.2618c0.1787,0.1748,0.2676,0.4215,0.2676,0.7394v0.0254c0,0.1309-0.0469,0.2256-0.1416,0.2837
			c-0.0947,0.0586-0.2461,0.1001-0.4552,0.126c-0.209,0.0254-0.4806,0.0576-0.8156,0.0962
			c-0.2647,0.0317-0.5245,0.0777-0.7785,0.1382c-0.2549,0.061-0.4855,0.1509-0.6925,0.2696
			c-0.2061,0.1192-0.3702,0.2803-0.4913,0.484c-0.1211,0.2041-0.1817,0.464-0.1817,0.7795c0,0.3663,0.083,0.6759,0.2491,0.9284
			s0.3927,0.4444,0.6788,0.5768c0.2862,0.1323,0.6066,0.1983,0.9611,0.1983c0.3087,0,0.5734-0.0449,0.7941-0.1343
			c0.2207-0.0899,0.4015-0.2027,0.5421-0.3389c0.1407-0.1358,0.2461-0.274,0.3165-0.4146h0.044v0.7643h1.0637v-3.7136
			c0-0.4078-0.0713-0.7394-0.212-0.9953C120.6489,13.2326,120.4692,13.0353,120.2494,12.8971z M119.9124,16.1809
			c0,0.2207-0.0567,0.4278-0.169,0.6207c-0.1133,0.1929-0.2764,0.3492-0.4913,0.4679c-0.2149,0.1192-0.4727,0.1783-0.7736,0.1783
			c-0.3087,0-0.5626-0.0684-0.7609-0.2056c-0.1993-0.1372-0.2989-0.3404-0.2989-0.6095c0-0.1944,0.0518-0.3502,0.1543-0.4679
			c0.1035-0.1177,0.2422-0.208,0.4151-0.2715c0.1739-0.063,0.3663-0.1079,0.5773-0.1348c0.0899-0.0117,0.2012-0.0269,0.335-0.0454
			c0.1338-0.0181,0.2706-0.0386,0.4112-0.0615c0.1407-0.0234,0.2667-0.0513,0.377-0.084c0.1104-0.0327,0.1846-0.0684,0.2237-0.1074
			V16.1809z"/>
		<path class="st0" d="M129.0568,12.8751c-0.3536-0.2281-0.757-0.3419-1.2082-0.3419c-0.3467,0-0.6261,0.0576-0.8371,0.1729
			c-0.212,0.1153-0.377,0.2491-0.4952,0.4024c-0.1192,0.1529-0.21,0.2872-0.2735,0.4039h-0.0654v-2.7706h-1.0881v7.456h1.0627
			v-0.8703h0.0908c0.0654,0.1192,0.1592,0.2549,0.2803,0.4078s0.2901,0.2867,0.504,0.4005
			c0.2149,0.1143,0.4923,0.1714,0.8322,0.1714c0.4513,0,0.8527-0.1162,1.2053-0.3477c0.3516-0.232,0.6281-0.5631,0.8302-0.9938
			c0.2012-0.4307,0.3018-0.9484,0.3018-1.553c0-0.6041-0.1016-1.1213-0.3038-1.5506
			C129.6897,13.4323,129.4113,13.1036,129.0568,12.8751z M128.9278,16.4104c-0.1123,0.2984-0.2784,0.5343-0.4972,0.7081
			c-0.2178,0.1734-0.4903,0.2603-0.8156,0.2603c-0.3126,0-0.5773-0.083-0.7931-0.2496c-0.2159-0.166-0.3809-0.3975-0.4952-0.6935
			s-0.1709-0.6408-0.1709-1.0339c0-0.3883,0.0557-0.7282,0.167-1.0192c0.1114-0.2916,0.2764-0.5182,0.4933-0.6808
			c0.2178-0.1626,0.4835-0.2442,0.799-0.2442c0.3282,0,0.6017,0.085,0.8214,0.2549c0.2198,0.17,0.3848,0.4019,0.4952,0.6954
			c0.1104,0.2935,0.1651,0.6251,0.1651,0.9938C129.0968,15.7755,129.0412,16.112,128.9278,16.4104z"/>
		<path class="st0" d="M135.3822,13.1813c-0.2354-0.2237-0.5011-0.3873-0.797-0.4918c-0.2969-0.104-0.6027-0.1563-0.9182-0.1563
			c-0.5186,0-0.9719,0.1226-1.3596,0.3677c-0.3868,0.2452-0.6876,0.5861-0.9025,1.0227c-0.2149,0.4371-0.3223,0.9421-0.3223,1.5145
			c0,0.5802,0.1074,1.0857,0.3223,1.5164s0.5206,0.7648,0.9172,1.0012c0.3966,0.2369,0.8713,0.355,1.4221,0.355
			c0.4073,0,0.7707-0.0625,1.0901-0.1875s0.5851-0.3008,0.797-0.5279c0.2129-0.2266,0.3604-0.4918,0.4425-0.7956l-1.0305-0.1856
			c-0.0654,0.1748-0.1602,0.3218-0.2833,0.4405c-0.124,0.1192-0.2715,0.208-0.4405,0.2676c-0.17,0.0596-0.3585,0.0894-0.5646,0.0894
			c-0.3184,0-0.5958-0.0689-0.8341-0.2056c-0.2374-0.1372-0.4229-0.337-0.5548-0.5992c-0.123-0.2424-0.1821-0.5384-0.191-0.8771
			h3.9681v-0.3858c0-0.5074-0.0684-0.9387-0.2041-1.2942C135.8032,13.6941,135.6176,13.4045,135.3822,13.1813z M132.1793,14.914
			c0.0134-0.2395,0.0646-0.4663,0.1721-0.6754c0.1221-0.2388,0.2969-0.4332,0.5245-0.5826c0.2266-0.149,0.4933-0.2237,0.799-0.2237
			c0.2813,0,0.5275,0.0645,0.7375,0.1929c0.209,0.1289,0.3731,0.3043,0.4893,0.526c0.1162,0.2222,0.1748,0.4767,0.1748,0.7628
			H132.1793z"/>
		<path class="st0" d="M139.636,17.2841c-0.0654,0.0122-0.1416,0.0181-0.2295,0.0181c-0.1182,0-0.2286-0.0186-0.3292-0.0562
			c-0.1006-0.0376-0.1827-0.1094-0.2462-0.2149c-0.0625-0.1055-0.0938-0.2642-0.0938-0.4752v-3.0763h1.1467V12.606h-1.1467v-1.3396
			h-1.0891v1.3396h-0.8195v0.8737h0.8195v3.3019c0,0.3375,0.0762,0.6178,0.2295,0.841c0.1524,0.2232,0.3526,0.3883,0.6007,0.4952
			c0.2471,0.107,0.5147,0.1577,0.8009,0.1529c0.1748-0.0024,0.3204-0.0161,0.4366-0.042c0.1162-0.0254,0.2061-0.0503,0.2696-0.0742
			l-0.1963-0.8996C139.7522,17.2622,139.7014,17.2719,139.636,17.2841z"/>
		<path class="st0" d="M143.3652,17.2841c-0.0654,0.0122-0.1416,0.0181-0.2295,0.0181c-0.1182,0-0.2286-0.0186-0.3292-0.0562
			c-0.1006-0.0376-0.1826-0.1094-0.2461-0.2149c-0.0625-0.1055-0.0938-0.2642-0.0938-0.4752v-3.0763h1.1467V12.606h-1.1467v-1.3396
			h-1.0891v1.3396h-0.8195v0.8737h0.8195v3.3019c0,0.3375,0.0762,0.6178,0.2295,0.841c0.1524,0.2232,0.3526,0.3883,0.6007,0.4952
			c0.2471,0.107,0.5147,0.1577,0.8009,0.1529c0.1748-0.0024,0.3204-0.0161,0.4366-0.042c0.1162-0.0254,0.2061-0.0503,0.2696-0.0742
			l-0.1963-0.8996C143.4815,17.2622,143.4307,17.2719,143.3652,17.2841z"/>
		<path class="st0" d="M148.7804,13.1813c-0.2354-0.2237-0.5011-0.3873-0.797-0.4918c-0.2969-0.104-0.6027-0.1563-0.9182-0.1563
			c-0.5187,0-0.9719,0.1226-1.3596,0.3677c-0.3868,0.2452-0.6876,0.5861-0.9025,1.0227c-0.2149,0.4371-0.3223,0.9421-0.3223,1.5145
			c0,0.5802,0.1074,1.0857,0.3223,1.5164s0.5206,0.7648,0.9172,1.0012c0.3966,0.2369,0.8713,0.355,1.4221,0.355
			c0.4073,0,0.7707-0.0625,1.0901-0.1875s0.5851-0.3008,0.797-0.5279c0.2129-0.2266,0.3604-0.4918,0.4425-0.7956l-1.0305-0.1856
			c-0.0654,0.1748-0.1602,0.3218-0.2833,0.4405c-0.1241,0.1192-0.2715,0.208-0.4405,0.2676
			c-0.17,0.0596-0.3585,0.0894-0.5646,0.0894c-0.3184,0-0.5958-0.0689-0.8342-0.2056c-0.2374-0.1372-0.4229-0.337-0.5548-0.5992
			c-0.123-0.2424-0.1821-0.5384-0.191-0.8771h3.9681v-0.3858c0-0.5074-0.0684-0.9387-0.2041-1.2942
			C149.2013,13.6941,149.0158,13.4045,148.7804,13.1813z M145.5774,14.914c0.0134-0.2395,0.0646-0.4663,0.1721-0.6754
			c0.1221-0.2388,0.2969-0.4332,0.5245-0.5826c0.2266-0.149,0.4933-0.2237,0.799-0.2237c0.2813,0,0.5275,0.0645,0.7374,0.1929
			c0.209,0.1289,0.3731,0.3043,0.4894,0.526c0.1162,0.2222,0.1748,0.4767,0.1748,0.7628H145.5774z"/>
		<path class="st0" d="M153.2021,12.522c-0.3282,0-0.6212,0.0869-0.8791,0.2603c-0.2588,0.1739-0.4395,0.4112-0.5411,0.7121h-0.0586
			V12.606h-1.052v5.5919h1.0891v-3.4147c0-0.2427,0.0576-0.4596,0.1748-0.65c0.1162-0.1905,0.2745-0.3399,0.4747-0.4478
			c0.2002-0.1079,0.4288-0.1621,0.6867-0.1621c0.1114,0,0.2227,0.0083,0.334,0.0239c0.1123,0.0156,0.1895,0.0298,0.2334,0.042
			v-1.0412c-0.0537-0.0073-0.127-0.0137-0.2198-0.0186C153.3506,12.5244,153.2695,12.522,153.2021,12.522z"/>
		<polygon class="st0" points="105.5444,27.1381 105.4897,27.1381 104.3977,23.0499 103.2724,23.0499 102.1726,27.1567 
			102.1179,27.1567 101.022,23.0499 99.8978,23.0499 101.5426,28.6418 102.6493,28.6418 103.7852,24.6044 103.8692,24.6044 
			105.0052,28.6418 106.1158,28.6418 107.7577,23.0499 106.6325,23.0499 		"/>
		<path class="st0" d="M112.3543,23.3376c-0.3907-0.2403-0.8488-0.3604-1.3723-0.3604c-0.5245,0-0.9816,0.1201-1.3723,0.3604
			c-0.3917,0.2403-0.6945,0.5778-0.9103,1.0119c-0.2159,0.4347-0.3243,0.9416-0.3243,1.5218c0,0.5777,0.1084,1.0827,0.3243,1.5145
			c0.2159,0.4322,0.5187,0.7682,0.9103,1.0085c0.3907,0.2403,0.8478,0.3604,1.3723,0.3604c0.5235,0,0.9816-0.1201,1.3723-0.3604
			c0.3907-0.2403,0.6945-0.5763,0.9103-1.0085c0.2159-0.4317,0.3233-0.9367,0.3233-1.5145c0-0.5802-0.1074-1.0871-0.3233-1.5218
			C113.0488,23.9153,112.745,23.5779,112.3543,23.3376z M112.3269,26.8544c-0.1084,0.2984-0.2735,0.5377-0.4972,0.7169
			c-0.2227,0.1797-0.505,0.2696-0.8449,0.2696c-0.3419,0-0.6251-0.0899-0.8498-0.2696c-0.2246-0.1792-0.3907-0.4185-0.4981-0.7169
			c-0.1084-0.2984-0.1621-0.6276-0.1621-0.9865c0-0.357,0.0537-0.6852,0.1621-0.9851c0.1074-0.2999,0.2735-0.5406,0.4981-0.7228
			c0.2247-0.1817,0.5079-0.273,0.8498-0.273c0.3399,0,0.6222,0.0913,0.8449,0.273c0.2237,0.1822,0.3887,0.4229,0.4972,0.7228
			c0.1074,0.2999,0.1621,0.6281,0.1621,0.9851C112.4891,26.2268,112.4344,26.556,112.3269,26.8544z"/>
		<path class="st0" d="M117.3416,22.9659c-0.3282,0-0.6212,0.0869-0.8791,0.2603c-0.2588,0.1739-0.4395,0.4112-0.5411,0.7121
			h-0.0586v-0.8884h-1.052v5.5919h1.0891v-3.4147c0-0.2427,0.0576-0.4596,0.1748-0.65c0.1162-0.1905,0.2745-0.3399,0.4747-0.4478
			c0.2002-0.1079,0.4288-0.1621,0.6867-0.1621c0.1114,0,0.2227,0.0083,0.3341,0.0239c0.1123,0.0156,0.1895,0.0298,0.2334,0.042
			v-1.0412c-0.0537-0.0073-0.127-0.0137-0.2198-0.0186C117.4901,22.9684,117.409,22.9659,117.3416,22.9659z"/>
		<rect x="118.7598" y="21.1858" class="st0" width="1.0891" height="7.456"/>
		<path class="st0" d="M125.098,23.9563h-0.0654c-0.0654-0.1167-0.1573-0.251-0.2745-0.4039
			c-0.1182-0.1533-0.2833-0.2872-0.4952-0.4024c-0.2129-0.1153-0.4923-0.1729-0.839-0.1729c-0.4493,0-0.8508,0.1138-1.2053,0.3419
			c-0.3546,0.2286-0.6329,0.5572-0.8351,0.987c-0.2032,0.4293-0.3047,0.9465-0.3047,1.5506c0,0.6046,0.1006,1.1223,0.3008,1.553
			c0.2002,0.4307,0.4767,0.7619,0.8302,0.9938c0.3526,0.2315,0.755,0.3477,1.2063,0.3477c0.3399,0,0.6163-0.0571,0.8302-0.1714
			c0.2139-0.1138,0.3819-0.2476,0.504-0.4005c0.1231-0.1529,0.2168-0.2886,0.2823-0.4078h0.0908v0.8703h1.0637v-7.456h-1.0891
			V23.9563z M124.9476,26.8798c-0.1133,0.296-0.2784,0.5274-0.4952,0.6935c-0.2178,0.1665-0.4825,0.2496-0.7961,0.2496
			c-0.3223,0-0.5939-0.0869-0.8136-0.2603c-0.2198-0.1739-0.3848-0.4097-0.4962-0.7081c-0.1123-0.2984-0.168-0.6349-0.168-1.0085
			c0-0.3687,0.0557-0.7003,0.166-0.9938s0.2745-0.5255,0.4933-0.6954c0.2178-0.17,0.4913-0.2549,0.8185-0.2549
			c0.3184,0,0.5851,0.0816,0.8009,0.2442c0.2159,0.1626,0.38,0.3892,0.4923,0.6808c0.1114,0.2911,0.167,0.631,0.167,1.0192
			C125.1166,26.239,125.0599,26.5838,124.9476,26.8798z"/>
		<path class="st0" d="M128.4639,27.2583c-0.1983,0-0.3702,0.0713-0.5128,0.2129c-0.1436,0.1421-0.2149,0.3126-0.2149,0.5118
			c0,0.2012,0.0713,0.3731,0.2149,0.5152c0.1426,0.1416,0.3145,0.2129,0.5128,0.2129c0.1338,0,0.2549-0.0327,0.3643-0.0987
			c0.1094-0.0654,0.1973-0.1534,0.2637-0.2637c0.0674-0.1104,0.1006-0.2325,0.1006-0.3658c0-0.1993-0.0713-0.3697-0.2149-0.5118
			C128.8341,27.3296,128.6631,27.2583,128.4639,27.2583z"/>
	</g>
</g>
</svg>
