<?xml version="1.0" encoding="UTF-8" standalone="no"?>
<!-- Created with Inkscape (http://www.inkscape.org/) -->

<svg
   xmlns:dc="http://purl.org/dc/elements/1.1/"
   xmlns:cc="http://creativecommons.org/ns#"
   xmlns:rdf="http://www.w3.org/1999/02/22-rdf-syntax-ns#"
   xmlns:svg="http://www.w3.org/2000/svg"
   xmlns="http://www.w3.org/2000/svg"
   xmlns:sodipodi="http://sodipodi.sourceforge.net/DTD/sodipodi-0.dtd"
   xmlns:inkscape="http://www.inkscape.org/namespaces/inkscape"
   id="svg7896"
   version="1.1"
   inkscape:version="0.91 r13725"
   xml:space="preserve"
   width="486.6875"
   height="277.73749"
   viewBox="0 0 486.6875 277.73749"
   sodipodi:docname="haar.svg"><metadata
     id="metadata7902"><rdf:RDF><cc:Work
         rdf:about=""><dc:format>image/svg+xml</dc:format><dc:type
           rdf:resource="http://purl.org/dc/dcmitype/StillImage" /><dc:title></dc:title></cc:Work></rdf:RDF></metadata><defs
     id="defs7900" /><sodipodi:namedview
     pagecolor="#ffffff"
     bordercolor="#666666"
     borderopacity="1"
     objecttolerance="10"
     gridtolerance="10"
     guidetolerance="10"
     inkscape:pageopacity="0"
     inkscape:pageshadow="2"
     inkscape:window-width="1869"
     inkscape:window-height="2128"
     id="namedview7898"
     showgrid="false"
     inkscape:zoom="2.4033803"
     inkscape:cx="287.68011"
     inkscape:cy="156.81392"
     inkscape:window-x="0"
     inkscape:window-y="30"
     inkscape:window-maximized="0"
     inkscape:current-layer="g7904" /><g
     id="g7904"
     inkscape:groupmode="layer"
     inkscape:label="ink_ext_XXXXXX"
     transform="matrix(1.25,0,0,-1.25,0,277.7375)"><g
       id="g7906"
       transform="scale(0.1,0.1)"><path
         d="m 2027.43,901.391 c 351.67,0 703.34,0 1055.01,0.019 6.94,0 13.95,-0.23 20.83,0.531 51.47,5.649 87.98,32.528 105.96,80.77 18.43,49.439 8.31,95.609 -29.75,131.769 -102.82,97.7 -207.13,193.84 -310.87,290.58 -143.22,133.55 -286.46,267.08 -429.66,400.65 -109.42,102.05 -218.63,204.33 -328.27,306.15 -46.62,43.31 -119.73,43.08 -166.34,-0.33 -146.28,-136.23 -292.29,-272.75 -438.43,-409.14 -114.76,-107.11 -229.56,-214.16 -344.31,-321.28 -94.43,-88.15 -188.885,-176.28 -283.166,-264.59 -43.481,-40.73 -52.532,-105.71 -21.024,-155.782 25.57,-40.617 63.379,-59.437 111.336,-59.418 352.894,0.129 705.794,0.071 1058.684,0.071 z m 0.98,-77.961 c -353.3,0 -706.59,-0.379 -1059.883,0.269 -85.453,0.16 -148.55,40.012 -186.043,117.141 -37.398,76.93 -19.617,170.95 42.883,229.99 83.504,78.88 167.613,157.12 251.513,235.59 85.08,79.58 170.24,159.08 255.34,238.66 183.31,171.44 366.78,342.71 549.73,514.53 32.82,30.82 69.29,52.99 114.18,59.62 64.57,9.54 121.89,-6.78 169.69,-51.41 181.08,-169.05 361.71,-338.57 542.55,-507.87 174.58,-163.43 349.88,-326.11 523.44,-490.61 57.21,-54.23 74.21,-123.74 52.64,-199.238 -21.88,-76.602 -74.57,-124.051 -152.41,-142.02 -15.74,-3.641 -32.42,-4.461 -48.66,-4.473 -351.66,-0.238 -703.32,-0.187 -1054.97,-0.179"
         style="fill:#231f20;fill-opacity:1;fill-rule:nonzero;stroke:none"
         id="path7908"
         inkscape:connector-curvature="0" /><path
         d="m 2706.52,0.839844 c -45.17,0 -89.19,0 -134.67,0 0,70.140656 0,139.789156 0,210.172156 -56.46,0 -111.47,0 -167.95,0 0,-70 0,-139.68 0,-210.019812 -45.04,0 -88.61,0 -133.05,0 0,171.327812 0,342.429812 0,514.589812 43.9,0 87.79,0 133.32,0 0,-60.5 0,-121.133 0,-182.531 56.24,0 110.84,0 167.12,0 0,60.719 0,121.328 0,182.758 45.95,0 90.23,0 135.23,0 0,-171.661 0,-342.789 0,-514.969156"
         style="fill:#231f20;fill-opacity:1;fill-rule:nonzero;stroke:none"
         id="path7910"
         inkscape:connector-curvature="0" /><path
         d="m 364.691,186.199 c 0,39.16 0,77.492 0,119.09 -28.246,-40.957 -54.617,-79.199 -82.125,-119.09 29.309,0 55.625,0 82.125,0 z M 504.547,3.10938 c -45.609,0 -90.109,0 -136.336,0 0,24.44922 0,48.67192 0,73.72262 -5.645,0.2774 -9.625,0.6485 -13.606,0.6485 -46.207,0.039 -92.414,-0.1485 -138.617,0.1992 -7.808,0.0625 -12.703,-2.3008 -17.234,-8.6992 -13.93,-19.6797 -28.375,-39 -43.043,-58.1289 C 153.047,7.37109 148.402,3.17188 144.629,3.12891 97.2344,2.60938 49.8281,2.78906 0,2.78906 2.96094,7.53125 4.83203,10.832 6.98828,13.9297 123.234,180.969 239.469,348.02 355.977,514.879 c 2.793,4 8.593,8.32 13.05,8.383 43.336,0.609 86.684,0.359 130.028,0.297 1.578,0 3.16,-0.469 5.492,-0.84 0,-172.887 0,-345.61 0,-519.60962"
         style="fill:#231f20;fill-opacity:1;fill-rule:nonzero;stroke:none"
         id="path7912"
         inkscape:connector-curvature="0" /><path
         d="m 3407.61,108.832 c 50.01,-0.223 91.09,40.027 91.44,89.578 0.35,50 -41.05,91.57 -91.09,91.461 -49.23,-0.109 -90.24,-40.551 -90.52,-89.262 -0.29,-50.898 39.66,-91.558 90.17,-91.777 z m 103.93,-82.2226 c -54.69,-28.55081 -110.58,-34.62893 -168.21,-15.8008 -42,13.7305 -75.91,39.1016 -102.04,74.8711 -50.31,68.8513 -51.42,164.0823 -2.11,234.2613 30.65,43.61 72.19,71.668 124.25,83.348 51.37,11.52 100.44,3.711 148.54,-21.539 0,9.582 0,17.121 0,25.609 38.13,0 75.09,0 113.18,0 0,-135.257 0,-270.609 0,-406.480094 -37.47,0 -74.5,0 -112.47,0 -0.37,8.402344 -0.72,16.312494 -1.14,25.730494"
         style="fill:#231f20;fill-opacity:1;fill-rule:nonzero;stroke:none"
         id="path7914"
         inkscape:connector-curvature="0" /><path
         d="m 3043.81,198.34 c 0.35,50.469 -40.21,91.43 -90.64,91.531 -49.01,0.098 -90.98,-41.492 -91.31,-90.48 -0.33,-48.879 41.21,-90.289 90.85,-90.559 50.31,-0.273 90.76,39.457 91.1,89.508 z M 3169.37,1 c -37.74,0 -74.39,0 -111.95,0 0,8.30078 0,15.9297 0,23.7695 -112.62,-46.5976 -208.95,-29.82028 -278.94,74.0821 -47.64,70.7304 -39.72,164.6094 13.61,231.4294 31.52,39.508 72.29,64.481 121.98,74.16 49.47,9.629 96.57,1.758 142.6,-22.511 0,9.172 0,16.691 0,25.289 38.05,0 74.95,0 112.7,0 0,-135.11 0,-270.207 0,-406.219"
         style="fill:#231f20;fill-opacity:1;fill-rule:nonzero;stroke:none"
         id="path7916"
         inkscape:connector-curvature="0" /><path
         d="m 1499.95,2.23047 c -59.21,0 -117.39,0 -178.12,0 57.22,58.98043 86.88,127.16053 84.87,207.75753 -2.01,80.801 -35.18,147.203 -96.41,202.391 63.98,0 125.81,0 189,0 0,-16.93 0,-34.277 0,-54.129 3.72,2.84 5.57,3.922 7,5.398 40.14,41.602 90.59,52.653 144.19,40.821 55.32,-12.199 88.75,-51.239 103.59,-105.43 3.62,-13.219 5.36,-27.348 5.44,-41.07 0.5,-80.949 0.24,-161.9104 0.24,-242.8596 0,-4.4102 0,-8.82034 0,-14.00002 -39.66,0 -78.29,0 -118.44,0 -0.21,4.58203 -0.6,9.26172 -0.6,13.94142 -0.04,65.418 0,130.8282 -0.05,196.2502 -0.03,33.429 -11.99,60.558 -41.99,77.781 -25.83,14.828 -66.01,10.328 -88.57,-9.184 -7.31,-6.316 -10.43,-13.187 -10.38,-23.179 0.42,-79.727 0.23,-159.4495 0.23,-239.1799 0,-4.8477 0,-9.69926 0,-15.30863"
         style="fill:#231f20;fill-opacity:1;fill-rule:nonzero;stroke:none"
         id="path7918"
         inkscape:connector-curvature="0" /><path
         d="m 1126.88,113.051 c 49.97,0.109 90.47,39.89 90.49,88.879 0.02,49.66 -40.82,89.39 -91.5,89.019 -50.27,-0.367 -90.43,-39.789 -90.49,-88.82 -0.07,-49.457 40.75,-89.199 91.5,-89.078 z m 1.39,295.238 c 116.69,0.18 209.15,-97.23 205.44,-209.008 C 1330.18,93.3711 1237.45,4.42969 1125.42,5.28125 1007.92,6.17969 914.797,102.871 920.742,217.48 c 5.332,102.79 93.628,191.739 207.528,190.809"
         style="fill:#231f20;fill-opacity:1;fill-rule:nonzero;stroke:none"
         id="path7920"
         inkscape:connector-curvature="0" /><path
         d="m 2110.98,290.582 c -36.19,0 -71.63,0 -107.76,0 -1.1,2.477 -2.26,5.469 -3.7,8.316 -7.32,14.442 -22.65,21.442 -38.07,17.454 -15.13,-3.911 -25.82,-18.301 -25,-33.653 0.82,-15.179 12.71,-27.051 29,-30.09 24.36,-4.55 49.63,-6.867 72.7,-15.16 39.98,-14.359 71.63,-40.457 84.12,-82.879 12.58,-42.711 -1.81,-78.8708 -33.67,-108.3903 -66.73,-61.8203 -189.59,-60.3906 -254.93,2.8008 -19.73,19.0703 -32.07,41.9179 -34.64,71.5785 4.59,0 8.46,0 12.33,0 34.74,-0.039 69.49,-0.227 104.23,0.011 7.04,0.051 11.77,-1.09 15.95,-7.898 8.94,-14.5822 24.38,-19.3712 39.23,-13.8907 14.56,5.3787 24.16,21.0707 21.93,35.8277 -2.29,15.18 -15.61,27.782 -32.24,28.551 -28.09,1.289 -55.33,5.86 -80.11,19.672 -45.18,25.168 -73.56,61.367 -68.72,115.699 3.75,42.039 28.83,70.879 63.96,91.789 67.32,40.071 161.07,25.75 209.13,-31.941 16.14,-19.379 25.03,-41.668 26.26,-67.797"
         style="fill:#231f20;fill-opacity:1;fill-rule:nonzero;stroke:none"
         id="path7922"
         inkscape:connector-curvature="0" /><path
         d="m 876.043,0.960938 c -40.766,0 -79.457,0 -119.156,0 0,107.590062 0,214.551062 0,323.230062 -15.328,0 -29.766,0 -44.758,0 0,30.141 0,58.571 0,88.77 11.922,0 23.652,-0.602 35.258,0.348 3.648,0.3 9.054,4.089 10.113,7.421 22.914,71.918 69.082,93.879 129.004,95.86 12.199,0.402 24.422,0.058 37.543,0.058 0,-23.289 0,-47.128 0,-71.789 -22.274,0.121 -41.723,-4.371 -48.117,-31.718 16.5,0 32.093,0 48.328,0 0,-29.653 0,-57.711 0,-87.539 -15.656,0 -31.336,0 -48.215,0 0,-109.063 0,-216.372 0,-324.641062"
         style="fill:#231f20;fill-opacity:1;fill-rule:nonzero;stroke:none"
         id="path7924"
         inkscape:connector-curvature="0" /><path
         d="m 563.695,515.891 c 37.602,0 74.61,0 112.508,0 0,-171.68 0,-343 0,-514.949594 -37.555,0 -74.582,0 -112.508,0 0,171.519594 0,342.847594 0,514.949594"
         style="fill:#231f20;fill-opacity:1;fill-rule:nonzero;stroke:none"
         id="path7926"
         inkscape:connector-curvature="0" /><path
         d="m 3676.86,407.73 c 37.32,0 73.96,0 112.23,0 0,-13.261 0,-26.41 0,-42.421 28.07,35.39 64.74,41.39 104.41,43.082 0,-33.332 0,-65.789 0,-99.153 -11.32,-1.468 -23.13,-2.117 -34.49,-4.726 -12.64,-2.91 -25.39,-6.453 -37.15,-11.793 -21.72,-9.86 -33.44,-25.387 -32.96,-51.668 1.38,-75.18 0.49,-150.4104 0.49,-225.6291 0,-4.4531 0,-8.90237 0,-14.22268 -37.69,0 -74.65,0 -112.53,0 0,134.94878 0,269.99178 0,406.53078"
         style="fill:#231f20;fill-opacity:1;fill-rule:nonzero;stroke:none"
         id="path7928"
         inkscape:connector-curvature="0" /><path
         d="m 1756.92,1256.66 c -16.35,-68.4 -32.42,-135.63 -48.75,-203.96 74.41,0 147.55,0 221.56,0 12.45,256.66 24.84,512.3 37.25,768.2 -3.4,0.63 -4.93,1.15 -6.46,1.15 -52.33,0.08 -104.66,0.26 -156.99,-0.18 -4.47,-0.03 -9.96,-3.33 -13.18,-6.79 -15.05,-16.12 -29.51,-32.81 -44.12,-49.35 -194.24,-219.91 -388.48,-439.83 -582.71,-659.75 -14.98,-16.97 -29.91,-33.99 -46.61,-52.98 6.89,0 10.86,0 14.83,0 74.82,0 149.63,0.18 224.44,-0.23 9.3,-0.05 14.54,2.63 19.48,10.64 37.49,60.86 75.64,121.32 113.22,182.13 5.02,8.13 10.44,11.44 20.36,11.39 77.67,-0.48 155.35,-0.27 233.02,-0.27 4.45,0 8.9,0 14.66,0 z m 454.82,565.46 c 86.09,-148.85 170.59,-294.95 256,-442.63 -69.66,0 -136.69,0.14 -203.71,-0.16 -8.63,-0.04 -8.59,6.01 -10.17,11.09 -42.34,135.62 -84.57,271.26 -126.88,406.88 -7.77,24.93 -7.87,24.9 -34.37,24.9 -15.74,0 -31.48,0 -47.86,0 30.44,-257.57 60.61,-512.86 90.8,-768.29 74.7,0 148.35,0 223.06,0 -20.13,67.38 -39.92,133.64 -60.16,201.39 5.48,0 9.1,0 12.71,0 71.57,0 143.14,-0.19 214.7,0.22 9.4,0.06 14.55,-2.92 19.44,-10.9 37.32,-60.99 75.24,-121.61 112.71,-182.51 4.07,-6.6 8.41,-9.36 16.53,-9.33 81.37,0.36 162.76,0.21 244.14,0.25 3.44,0 6.88,0.49 11.73,0.85 -3.56,4.5 -5.97,7.72 -8.55,10.8 -137.01,163.56 -274.06,327.09 -411.05,490.66 -71.91,85.87 -143.68,171.84 -215.69,257.62 -3.18,3.79 -7.96,8.59 -12.16,8.75 -22.79,0.86 -45.63,0.41 -71.22,0.41 z M 2027.73,940.148 c -245.77,0 -491.54,0 -737.31,-0.007 -110,0 -220,-0.539 -329.986,0.238 -36.395,0.25 -61.887,20.301 -75.153,53.453 -13.328,33.288 -7.652,65.278 18.043,90.528 42.274,41.53 86.137,81.43 129.406,121.94 92.81,86.9 185.67,173.74 278.51,260.6 150.76,141.04 301.52,282.06 452.27,423.12 66.86,62.57 133.84,125.01 200.44,187.85 39.37,37.14 87.46,37.76 126.78,0.97 219.74,-205.55 439.52,-411.05 659.26,-616.6 132.57,-123.99 265.1,-248.03 397.63,-372.06 25.44,-23.8 35.6,-52.95 26.61,-86.69 -8.82,-33.041 -30.93,-54.049 -64.64,-61.849 -5.5,-1.27 -11.32,-1.59 -16.99,-1.59 -354.96,-0.071 -709.91,-0.071 -1064.87,-0.071 0,0.059 0,0.11 0,0.168"
         style="fill:#231f20;fill-opacity:1;fill-rule:nonzero;stroke:none"
         id="path7930"
         inkscape:connector-curvature="0" /><path
         d="m 1892.62,1758.33 c -34.12,-127.31 -67.75,-252.78 -101.43,-378.48 -73.14,0 -145.39,0 -219.23,0 2.19,3.78 3.75,6.87 5.66,9.72 79.54,118.74 159.2,237.4 238.5,356.3 6.06,9.08 12.33,13.41 23.6,12.73 17,-1.03 34.11,-0.27 52.9,-0.27"
         style="fill:#231f20;fill-opacity:1;fill-rule:nonzero;stroke:none"
         id="path7932"
         inkscape:connector-curvature="0" /></g></g></svg>