<?xml version="1.0" encoding="UTF-8" standalone="no"?>
<!-- Created with Inkscape (http://www.inkscape.org/) -->

<svg
   xmlns:dc="http://purl.org/dc/elements/1.1/"
   xmlns:cc="http://creativecommons.org/ns#"
   xmlns:rdf="http://www.w3.org/1999/02/22-rdf-syntax-ns#"
   xmlns:svg="http://www.w3.org/2000/svg"
   xmlns="http://www.w3.org/2000/svg"
   xmlns:sodipodi="http://sodipodi.sourceforge.net/DTD/sodipodi-0.dtd"
   xmlns:inkscape="http://www.inkscape.org/namespaces/inkscape"
   id="svg6931"
   version="1.1"
   inkscape:version="0.91 r13725"
   xml:space="preserve"
   width="744.09497"
   height="1052.3625"
   viewBox="0 0 744.09497 1052.3625"
   sodipodi:docname="ibeo_logo_claim.svg"><metadata
     id="metadata6937"><rdf:RDF><cc:Work
         rdf:about=""><dc:format>image/svg+xml</dc:format><dc:type
           rdf:resource="http://purl.org/dc/dcmitype/StillImage" /><dc:title></dc:title></cc:Work></rdf:RDF></metadata><defs
     id="defs6935"><clipPath
       clipPathUnits="userSpaceOnUse"
       id="clipPath6945"><path
         d="m 0,841.89 595.276,0 L 595.276,0 0,0 0,841.89 Z"
         id="path6947"
         inkscape:connector-curvature="0" /></clipPath></defs><sodipodi:namedview
     pagecolor="#ffffff"
     bordercolor="#666666"
     borderopacity="1"
     objecttolerance="10"
     gridtolerance="10"
     guidetolerance="10"
     inkscape:pageopacity="0"
     inkscape:pageshadow="2"
     inkscape:window-width="1869"
     inkscape:window-height="2128"
     id="namedview6933"
     showgrid="false"
     inkscape:zoom="1.8064117"
     inkscape:cx="364.78907"
     inkscape:cy="596.26206"
     inkscape:window-x="0"
     inkscape:window-y="30"
     inkscape:window-maximized="0"
     inkscape:current-layer="g6949" /><g
     id="g6939"
     inkscape:groupmode="layer"
     inkscape:label="ibeo_logo_claim"
     transform="matrix(1.25,0,0,-1.25,0,1052.3625)"><g
       id="g6941"><g
         id="g6943"
         clip-path="url(#clipPath6945)"><g
           id="g6949"
           transform="translate(184.4077,626.5337)"><path
             d="m -156.33203,177.14677 c -1.277,1.342 -2.898,2.014 -4.863,2.014 -1.965,0 -3.561,-0.672 -4.789,-2.014 -1.228,-1.343 -1.842,-3.34 -1.842,-5.993 l 0,-38.363 c 0,-2.62 0.614,-4.634 1.842,-6.042 1.228,-1.407 2.824,-2.112 4.789,-2.112 1.965,0 3.586,0.688 4.863,2.063 1.277,1.375 1.916,3.406 1.916,6.091 l 0,38.756 c 0,2.39 -0.639,4.257 -1.916,5.6 m -0.049,9.996 c 1.309,1.162 1.965,2.775 1.965,4.838 0,2.129 -0.672,3.75 -2.014,4.863 -1.343,1.113 -2.882,1.67 -4.618,1.67 -1.801,0 -3.381,-0.614 -4.74,-1.842 -1.359,-1.228 -2.038,-2.792 -2.038,-4.691 0,-2.096 0.663,-3.717 1.989,-4.863 1.326,-1.146 2.923,-1.719 4.789,-1.719 1.801,0 3.357,0.581 4.667,1.744 m 26.525,9.972 c -1.114,1.326 -2.702,1.989 -4.765,1.989 -1.965,0 -3.496,-0.696 -4.592,-2.088 -1.098,-1.392 -1.646,-3.447 -1.646,-6.164 l 0,-58.552 c 0,-2.522 0.565,-4.429 1.695,-5.723 1.129,-1.293 2.644,-1.94 4.543,-1.94 1.867,0 3.406,0.647 4.618,1.94 1.211,1.294 1.817,3.201 1.817,5.723 l 0,1.326 c 1.474,-1.703 2.66,-2.98 3.561,-3.831 0.901,-0.852 1.99,-1.679 3.267,-2.481 1.277,-0.803 2.824,-1.449 4.642,-1.94 1.817,-0.491 3.758,-0.737 5.821,-0.737 3.372,0 6.459,0.68 9.259,2.039 2.800003,1.358 5.182003,3.282 7.147003,5.771 1.965,2.488 3.463,5.428 4.494,8.817 1.032,3.39 1.548,7.114 1.548,11.175 0,5.502 -0.926,10.258 -2.776,14.27 -1.85,4.011 -4.453,7.073 -7.81,9.185 -3.357003,2.113 -7.262003,3.169 -11.715003,3.169 -3.864,0 -7.106,-0.696 -9.726,-2.088 -2.62,-1.392 -5.191,-3.398 -7.712,-6.017 l 0,20.483 c 0,2.456 -0.557,4.347 -1.67,5.674 m 4.028,-36.104 c 1.146,2.635 2.718,4.649 4.715,6.042 1.998,1.391 4.274,2.087 6.828,2.087 2.489,0 4.667,-0.696 6.533,-2.087 1.867,-1.393 3.308,-3.365 4.323,-5.919 1.015,-2.555 1.523,-5.6 1.523,-9.137 0,-5.469 -1.221,-9.669 -3.66,-12.599 -2.44,-2.931 -5.346,-4.397 -8.719,-4.397 -3.962,0 -7.164,1.433 -9.603,4.299 -2.44,2.865 -3.659,6.966 -3.659,12.304 0,3.635 0.572,6.77 1.719,9.407 m 93.722003,-10.905 c 1.932,0.999 2.898,3.184 2.898,6.558 0,3.635 -0.933,7.204 -2.8,10.708 -1.866,3.504 -4.675,6.361 -8.424,8.572 -3.75,2.21 -8.244,3.315 -13.483,3.315 -4.028,0 -7.696,-0.647 -11.003,-1.94 -3.308,-1.294 -6.091,-3.152 -8.351,-5.575 -2.26,-2.424 -3.979,-5.33 -5.158,-8.719 -1.179,-3.39 -1.768,-7.066 -1.768,-11.028 0,-8.416 2.39,-15.08 7.172,-19.992 4.78,-4.912 11.477,-7.368 20.09,-7.368 3.765,0 7.098,0.491 9.996,1.474 2.897,0.982 5.305,2.218 7.221,3.708 1.915,1.49 3.348,3.046 4.298,4.667 0.949,1.621 1.423,3.037 1.423,4.249 0,1.375 -0.425,2.439 -1.276,3.192 -0.853,0.753 -1.965,1.13 -3.34,1.13 -1.277,0 -2.261,-0.294 -2.947,-0.884 -1.67,-1.572 -3.03,-2.817 -4.077,-3.733 -1.049,-0.917 -2.195,-1.777 -3.439,-2.579 -1.245,-0.803 -2.529,-1.392 -3.856,-1.768 -1.326,-0.377 -2.792,-0.565 -4.396,-0.565 -2.391,0 -4.577,0.589 -6.558,1.768 -1.981,1.179 -3.569,2.931 -4.764,5.256 -1.196,2.325 -1.81,5.01 -1.842,8.056 l 26.23,0 c 3.504,0 6.22,0.499 8.154,1.498 m -30.479,16.357 c 2.144,2.309 4.887,3.463 8.227,3.463 3.504,0 6.329,-1.138 8.474,-3.414 2.144,-2.276 3.381,-5.706 3.708,-10.29 l -24.314,0 c 0.458,4.519 1.76,7.933 3.905,10.241 m 93.034,-3.512 c -1.228,3.34 -3.021,6.222 -5.379,8.645 -2.358,2.423 -5.191,4.29 -8.497,5.6 -3.308,1.309 -6.9920002,1.965 -11.0520002,1.965 -3.996,0 -7.647,-0.647 -10.954,-1.94 -3.308,-1.294 -6.1239998,-3.136 -8.4489998,-5.526 -2.326,-2.391 -4.11,-5.273 -5.354,-8.646 -1.245,-3.373 -1.867,-7.09 -1.867,-11.15 0,-4.028 0.614,-7.704 1.842,-11.028 1.228,-3.324 3.029,-6.206 5.403,-8.645 2.374,-2.44 5.1829998,-4.315 8.4249998,-5.624 3.242,-1.31 6.892,-1.965 10.954,-1.965 4.093,0 7.7770002,0.647 11.0520002,1.94 3.274,1.294 6.091,3.152 8.448,5.575 2.357,2.424 4.159,5.322 5.404,8.695 1.244,3.372 1.866,7.056 1.866,11.052 0,4.028 -0.614,7.712 -1.842,11.052 m -15.227,-23.75 c -2.407,-3.062 -5.6410002,-4.593 -9.7010002,-4.593 -2.687,0 -5.02000004,0.696 -7,2.088 -1.982,1.392 -3.505,3.397 -4.568,6.017 -1.065,2.62 -1.597,5.681 -1.597,9.186 0,3.537 0.54,6.631 1.621,9.284 1.081,2.652 2.62,4.658 4.617,6.017 1.99799996,1.359 4.306,2.039 6.927,2.039 4.06,0 7.2940002,-1.523 9.7010002,-4.569 2.406,-3.045 3.61,-7.303 3.61,-12.771 0,-5.403 -1.204,-9.636 -3.61,-12.698"
             style="fill:#656263;fill-opacity:1;fill-rule:nonzero;stroke:none"
             id="path6951"
             inkscape:connector-curvature="0" /></g><g
           id="g6953"
           transform="translate(26.012173,730.31867)"><path
             d="m 0,0 c 0.288,-0.277 0.579,-0.416 0.874,-0.416 0.35,0 0.664,0.121 0.942,0.363 0.277,0.242 0.415,0.511 0.415,0.806 0,0.168 -0.089,0.545 -0.268,1.131 -0.179,0.586 -0.268,1.149 -0.268,1.69 0.007,0.575 0.012,1.098 0.015,1.568 0.004,0.47 0.006,1.042 0.006,1.716 0,1.066 -0.149,1.922 -0.448,2.568 -0.298,0.645 -0.808,1.117 -1.531,1.416 -0.723,0.298 -1.716,0.447 -2.979,0.447 -1.13,0 -2.074,-0.154 -2.831,-0.463 C -6.831,10.517 -7.389,10.124 -7.747,9.647 -8.105,9.17 -8.284,8.679 -8.284,8.173 c 0,-0.323 0.118,-0.587 0.353,-0.794 0.235,-0.207 0.514,-0.311 0.837,-0.311 0.357,0 0.591,0.065 0.7,0.195 0.108,0.13 0.294,0.398 0.557,0.805 0.264,0.407 0.579,0.712 0.948,0.916 0.368,0.203 0.917,0.305 1.647,0.305 0.849,0 1.409,-0.177 1.679,-0.531 C -1.293,8.403 -1.14,7.847 -1.105,7.089 -1.709,6.914 -2.268,6.765 -2.784,6.642 -3.3,6.518 -3.919,6.384 -4.642,6.237 -5.365,6.089 -5.817,5.994 -6,5.952 -6.87,5.763 -7.554,5.391 -8.052,4.837 -8.551,4.282 -8.8,3.612 -8.8,2.826 c 0,-0.582 0.151,-1.123 0.453,-1.621 0.302,-0.498 0.732,-0.893 1.289,-1.184 0.558,-0.291 1.206,-0.437 1.942,-0.437 0.807,0 1.535,0.135 2.185,0.406 0.649,0.27 1.321,0.675 2.015,1.215 C -0.593,0.679 -0.288,0.277 0,0 m -1.105,4.952 c 0,-0.996 -0.13,-1.712 -0.39,-2.147 C -1.719,2.412 -2.072,2.091 -2.553,1.842 -3.033,1.593 -3.558,1.468 -4.126,1.468 c -0.534,0 -0.965,0.153 -1.295,0.458 -0.33,0.306 -0.495,0.676 -0.495,1.111 0,0.421 0.141,0.749 0.421,0.984 0.281,0.235 0.576,0.393 0.885,0.474 0.308,0.08 0.864,0.206 1.668,0.378 0.803,0.172 1.416,0.335 1.837,0.49 l 0,-0.411 z M 21.856,0.01 c 0.256,-0.284 0.58,-0.426 0.973,-0.426 0.393,0 0.714,0.137 0.963,0.411 0.249,0.273 0.374,0.684 0.374,1.231 l 0,8.326 c 0,0.576 -0.13,1.005 -0.389,1.29 -0.26,0.284 -0.604,0.426 -1.032,0.426 -0.428,0 -0.775,-0.144 -1.042,-0.432 -0.267,-0.287 -0.4,-0.715 -0.4,-1.284 l 0,-3.494 C 21.303,4.682 21.222,3.791 21.061,3.384 20.864,2.921 20.552,2.545 20.124,2.258 19.696,1.97 19.24,1.826 18.756,1.826 c -0.499,0 -0.893,0.128 -1.184,0.384 -0.292,0.256 -0.493,0.611 -0.606,1.064 -0.112,0.452 -0.168,1.012 -0.168,1.678 l 0,4.6 c 0,0.569 -0.133,0.997 -0.4,1.284 -0.267,0.288 -0.618,0.432 -1.053,0.432 -0.428,0 -0.772,-0.142 -1.031,-0.426 -0.26,-0.285 -0.39,-0.714 -0.39,-1.29 l 0,-5.694 c 0,-1.144 0.179,-2.021 0.537,-2.632 0.302,-0.505 0.728,-0.901 1.279,-1.189 0.551,-0.288 1.174,-0.432 1.868,-0.432 0.576,0 1.088,0.072 1.537,0.216 0.449,0.144 0.863,0.363 1.242,0.658 0.379,0.295 0.741,0.659 1.084,1.095 l 0,-0.369 c 0,-0.512 0.128,-0.91 0.385,-1.195 M 35.57,10.726 c -0.229,-0.193 -0.343,-0.441 -0.343,-0.742 0,-0.302 0.109,-0.551 0.327,-0.748 0.217,-0.196 0.533,-0.294 0.947,-0.294 l 0.379,0 0,-5.516 c 0,-0.891 0.072,-1.603 0.216,-2.137 0.144,-0.533 0.447,-0.95 0.91,-1.252 0.463,-0.302 1.144,-0.453 2.042,-0.453 0.948,0 1.674,0.123 2.179,0.369 0.505,0.245 0.758,0.6 0.758,1.063 0,0.273 -0.093,0.502 -0.279,0.689 -0.186,0.186 -0.395,0.279 -0.626,0.279 -0.162,0 -0.386,-0.03 -0.674,-0.089 -0.288,-0.06 -0.516,-0.09 -0.684,-0.09 -0.309,0 -0.532,0.075 -0.668,0.226 -0.137,0.151 -0.221,0.348 -0.253,0.59 -0.032,0.242 -0.047,0.588 -0.047,1.037 l 0,5.284 0.536,0 c 0.569,0 1.006,0.076 1.311,0.231 0.305,0.155 0.458,0.425 0.458,0.811 0,0.301 -0.107,0.549 -0.321,0.742 -0.214,0.193 -0.525,0.289 -0.932,0.289 l -1.052,0 0,1.958 c 0,0.484 -0.027,0.858 -0.079,1.121 -0.053,0.263 -0.178,0.486 -0.374,0.669 -0.295,0.273 -0.625,0.41 -0.989,0.41 -0.26,0 -0.495,-0.061 -0.706,-0.184 C 37.396,14.866 37.234,14.706 37.122,14.51 37.01,14.32 36.941,14.094 36.917,13.831 36.892,13.568 36.88,13.205 36.88,12.742 l 0,-1.727 -0.316,0 c -0.435,0 -0.766,-0.096 -0.994,-0.289 M 63.778,7.794 c -0.264,0.716 -0.648,1.334 -1.153,1.853 -0.505,0.519 -1.112,0.919 -1.821,1.2 -0.709,0.28 -1.498,0.421 -2.368,0.421 -0.856,0 -1.639,-0.139 -2.348,-0.416 C 55.38,10.575 54.776,10.18 54.278,9.668 53.78,9.156 53.397,8.538 53.131,7.815 c -0.267,-0.722 -0.4,-1.519 -0.4,-2.389 0,-0.863 0.131,-1.651 0.394,-2.363 0.264,-0.712 0.649,-1.33 1.158,-1.853 0.509,-0.522 1.111,-0.924 1.805,-1.205 0.695,-0.28 1.478,-0.421 2.348,-0.421 0.877,0 1.666,0.139 2.368,0.416 0.702,0.277 1.305,0.675 1.81,1.195 0.506,0.519 0.892,1.14 1.158,1.863 0.267,0.722 0.4,1.512 0.4,2.368 0,0.863 -0.131,1.653 -0.394,2.368 M 60.515,2.705 C 59.999,2.049 59.306,1.721 58.436,1.721 c -0.576,0 -1.076,0.149 -1.5,0.447 -0.425,0.298 -0.751,0.728 -0.979,1.29 -0.228,0.56 -0.342,1.217 -0.342,1.968 0,0.758 0.116,1.421 0.347,1.989 0.232,0.569 0.561,0.999 0.99,1.29 0.428,0.291 0.922,0.437 1.484,0.437 0.87,0 1.563,-0.327 2.079,-0.979 0.515,-0.653 0.773,-1.565 0.773,-2.737 0,-1.158 -0.258,-2.065 -0.773,-2.721 m 25.171,5.079 c 0.189,0.379 0.454,0.68 0.795,0.905 0.34,0.225 0.7,0.337 1.078,0.337 0.471,0 0.821,-0.126 1.053,-0.379 0.232,-0.254 0.374,-0.565 0.426,-0.937 0.053,-0.372 0.079,-0.867 0.079,-1.484 l 0,-4.831 c 0,-0.597 0.139,-1.048 0.416,-1.353 0.277,-0.305 0.633,-0.458 1.068,-0.458 0.449,0 0.811,0.151 1.085,0.453 0.273,0.302 0.41,0.754 0.41,1.358 l 0,5.61 c 0,1.116 -0.123,1.933 -0.368,2.452 -0.281,0.576 -0.706,1.018 -1.274,1.327 -0.568,0.308 -1.246,0.463 -2.031,0.463 -0.674,0 -1.288,-0.142 -1.842,-0.426 -0.555,-0.285 -1.074,-0.721 -1.558,-1.311 -0.337,0.582 -0.765,1.018 -1.284,1.305 -0.52,0.288 -1.141,0.432 -1.863,0.432 -0.695,0 -1.327,-0.141 -1.895,-0.421 -0.569,-0.281 -1.102,-0.72 -1.6,-1.316 l 0,0.274 c 0,0.463 -0.132,0.826 -0.395,1.089 -0.263,0.263 -0.591,0.395 -0.984,0.395 -0.407,0 -0.735,-0.141 -0.984,-0.421 -0.249,-0.281 -0.374,-0.691 -0.374,-1.232 l 0,-8.22 c 0,-0.597 0.139,-1.048 0.416,-1.353 0.277,-0.305 0.633,-0.458 1.068,-0.458 0.442,0 0.799,0.153 1.069,0.458 0.27,0.305 0.405,0.756 0.405,1.353 l 0,3.884 c 0,1.207 0.149,2.133 0.447,2.779 0.299,0.645 0.918,0.968 1.858,0.968 0.47,0 0.814,-0.128 1.032,-0.384 0.217,-0.257 0.35,-0.584 0.4,-0.984 0.049,-0.4 0.073,-0.962 0.073,-1.685 l 0,-4.578 c 0,-0.604 0.135,-1.056 0.406,-1.358 0.27,-0.302 0.622,-0.453 1.057,-0.453 0.449,0 0.811,0.151 1.085,0.453 0.273,0.302 0.41,0.754 0.41,1.358 l 0,3.821 c 0,1.227 0.105,2.084 0.316,2.568 m 28.939,0.01 c -0.263,0.716 -0.647,1.334 -1.152,1.853 -0.505,0.519 -1.112,0.919 -1.821,1.2 -0.709,0.28 -1.498,0.421 -2.368,0.421 -0.857,0 -1.639,-0.139 -2.348,-0.416 -0.709,-0.277 -1.312,-0.672 -1.81,-1.184 -0.498,-0.512 -0.881,-1.13 -1.147,-1.853 -0.267,-0.722 -0.4,-1.519 -0.4,-2.389 0,-0.863 0.131,-1.651 0.394,-2.363 0.263,-0.712 0.649,-1.33 1.158,-1.853 0.509,-0.522 1.111,-0.924 1.805,-1.205 0.695,-0.28 1.477,-0.421 2.348,-0.421 0.877,0 1.666,0.139 2.368,0.416 0.702,0.277 1.305,0.675 1.81,1.195 0.506,0.519 0.891,1.14 1.158,1.863 0.267,0.722 0.4,1.512 0.4,2.368 0,0.863 -0.131,1.653 -0.395,2.368 m -3.263,-5.089 c -0.515,-0.656 -1.208,-0.984 -2.078,-0.984 -0.576,0 -1.076,0.149 -1.5,0.447 -0.425,0.298 -0.751,0.728 -0.979,1.29 -0.228,0.56 -0.342,1.217 -0.342,1.968 0,0.758 0.115,1.421 0.347,1.989 0.232,0.569 0.561,0.999 0.989,1.29 0.428,0.291 0.923,0.437 1.485,0.437 0.87,0 1.563,-0.327 2.078,-0.979 0.516,-0.653 0.774,-1.565 0.774,-2.737 0,-1.158 -0.258,-2.065 -0.774,-2.721 m 14.462,8.021 c -0.228,-0.193 -0.342,-0.441 -0.342,-0.742 0,-0.302 0.108,-0.551 0.326,-0.748 0.217,-0.196 0.533,-0.294 0.947,-0.294 l 0.379,0 0,-5.516 c 0,-0.891 0.072,-1.603 0.216,-2.137 0.144,-0.533 0.447,-0.95 0.91,-1.252 0.464,-0.302 1.144,-0.453 2.042,-0.453 0.949,0 1.674,0.123 2.179,0.369 0.506,0.245 0.758,0.6 0.758,1.063 0,0.273 -0.093,0.502 -0.279,0.689 -0.186,0.186 -0.394,0.279 -0.626,0.279 -0.162,0 -0.386,-0.03 -0.674,-0.089 -0.288,-0.06 -0.515,-0.09 -0.684,-0.09 -0.309,0 -0.531,0.075 -0.668,0.226 -0.137,0.151 -0.221,0.348 -0.253,0.59 -0.031,0.242 -0.047,0.588 -0.047,1.037 l 0,5.284 0.537,0 c 0.568,0 1.005,0.076 1.31,0.231 0.305,0.155 0.458,0.425 0.458,0.811 0,0.301 -0.107,0.549 -0.321,0.742 -0.214,0.193 -0.525,0.289 -0.932,0.289 l -1.052,0 0,1.958 c 0,0.484 -0.027,0.858 -0.079,1.121 -0.052,0.263 -0.177,0.486 -0.374,0.669 -0.295,0.273 -0.625,0.41 -0.989,0.41 -0.26,0 -0.495,-0.061 -0.706,-0.184 -0.21,-0.123 -0.372,-0.283 -0.483,-0.479 -0.113,-0.19 -0.181,-0.416 -0.206,-0.679 -0.025,-0.263 -0.037,-0.626 -0.037,-1.089 l 0,-1.727 -0.316,0 c -0.435,0 -0.766,-0.096 -0.994,-0.289 m 20.308,0.11 c -0.274,0.288 -0.621,0.432 -1.042,0.432 -0.42,0 -0.763,-0.144 -1.026,-0.432 -0.263,-0.287 -0.394,-0.715 -0.394,-1.284 l 0,-8.22 c 0,-0.562 0.131,-0.993 0.394,-1.295 0.263,-0.302 0.606,-0.453 1.026,-0.453 0.421,0 0.768,0.148 1.042,0.442 0.274,0.295 0.412,0.73 0.412,1.306 l 0,8.304 c 0,0.513 -0.138,0.913 -0.412,1.2 m -0.01,2.142 c 0.28,0.249 0.422,0.595 0.422,1.037 0,0.456 -0.145,0.804 -0.433,1.042 -0.288,0.239 -0.618,0.358 -0.989,0.358 -0.386,0 -0.725,-0.131 -1.016,-0.395 -0.291,-0.263 -0.436,-0.598 -0.436,-1.005 0,-0.449 0.141,-0.796 0.425,-1.042 0.285,-0.246 0.627,-0.368 1.027,-0.368 0.385,0 0.719,0.124 1,0.373 m 14.203,-2.121 c -0.179,0.274 -0.507,0.411 -0.984,0.411 -0.246,0 -0.474,-0.062 -0.684,-0.184 -0.211,-0.123 -0.376,-0.281 -0.495,-0.474 -0.12,-0.193 -0.179,-0.388 -0.179,-0.584 0,-0.126 0.023,-0.277 0.068,-0.453 0.046,-0.175 0.102,-0.347 0.169,-0.516 0.066,-0.168 0.131,-0.336 0.195,-0.505 l 2.736,-6.768 c 0.274,-0.652 0.469,-1.089 0.584,-1.31 0.116,-0.221 0.295,-0.425 0.537,-0.611 0.242,-0.186 0.567,-0.279 0.974,-0.279 0.316,0 0.584,0.059 0.805,0.179 0.221,0.119 0.408,0.286 0.558,0.5 0.151,0.214 0.288,0.472 0.41,0.774 0.123,0.301 0.223,0.551 0.3,0.747 l 2.758,6.842 c 0.077,0.189 0.146,0.358 0.205,0.505 0.06,0.148 0.113,0.304 0.158,0.474 0.046,0.168 0.069,0.316 0.069,0.442 0,0.323 -0.128,0.607 -0.383,0.853 -0.258,0.245 -0.568,0.368 -0.933,0.368 -0.386,0 -0.674,-0.114 -0.863,-0.342 -0.19,-0.228 -0.383,-0.616 -0.578,-1.163 l -2.506,-6.81 -2.326,6.526 c -0.218,0.645 -0.416,1.105 -0.595,1.378 m 29.108,-5.815 c 0.414,0.214 0.621,0.682 0.621,1.405 0,0.779 -0.2,1.544 -0.6,2.295 -0.4,0.75 -1.002,1.363 -1.805,1.836 -0.804,0.474 -1.767,0.711 -2.89,0.711 -0.863,0 -1.649,-0.139 -2.357,-0.416 -0.709,-0.277 -1.306,-0.675 -1.79,-1.194 -0.484,-0.52 -0.852,-1.143 -1.105,-1.869 -0.253,-0.726 -0.379,-1.514 -0.379,-2.363 0,-1.804 0.512,-3.231 1.537,-4.284 1.024,-1.052 2.46,-1.579 4.305,-1.579 0.807,0 1.521,0.106 2.142,0.316 0.621,0.211 1.138,0.475 1.547,0.795 0.411,0.319 0.718,0.652 0.921,1 0.204,0.347 0.305,0.65 0.305,0.91 0,0.295 -0.09,0.523 -0.273,0.684 -0.183,0.162 -0.421,0.242 -0.716,0.242 -0.274,0 -0.484,-0.063 -0.631,-0.189 -0.358,-0.337 -0.65,-0.604 -0.874,-0.8 -0.225,-0.197 -0.47,-0.381 -0.737,-0.553 -0.267,-0.172 -0.542,-0.298 -0.826,-0.379 -0.283,-0.08 -0.599,-0.121 -0.942,-0.121 -0.512,0 -0.981,0.127 -1.405,0.379 -0.425,0.253 -0.765,0.628 -1.021,1.127 -0.257,0.498 -0.388,1.073 -0.395,1.726 l 5.621,0 c 0.75,0 1.333,0.107 1.747,0.321 m -6.531,3.505 c 0.459,0.495 1.047,0.742 1.763,0.742 0.75,0 1.356,-0.244 1.815,-0.732 0.46,-0.487 0.725,-1.222 0.795,-2.205 l -5.21,0 c 0.098,0.969 0.377,1.7 0.837,2.195"
             style="fill:#ba151b;fill-opacity:1;fill-rule:nonzero;stroke:none"
             id="path6955"
             inkscape:connector-curvature="0" /></g><g
           id="g6957"
           transform="translate(266.03027,777.72047)"><path
             d="M 0,0 C 0,17.6 -7.227,33.852 -19.431,46.985 L -44.47,27.708 c 2.715,-3.906 4.878,-8.159 6.38,-12.675 0.181,-0.531 0.344,-1.072 0.506,-1.616 0.099,-0.339 0.193,-0.679 0.286,-1.02 0.524,-1.931 0.932,-3.933 1.208,-6.004 0.087,-0.636 0.163,-1.275 0.224,-1.917 0.038,-0.408 0.075,-0.815 0.103,-1.227 0.075,-1.081 0.125,-2.169 0.126,-3.267 l 10e-4,-0.033 0,-0.006 0,-0.006 c 0,-1.125 -0.053,-2.239 -0.13,-3.346 -0.026,-0.376 -0.06,-0.748 -0.094,-1.12 -0.067,-0.722 -0.153,-1.439 -0.252,-2.152 -0.06,-0.431 -0.11,-0.864 -0.181,-1.289 -0.151,-0.902 -0.329,-1.796 -0.531,-2.683 -0.124,-0.549 -0.269,-1.085 -0.412,-1.623 -0.137,-0.519 -0.282,-1.034 -0.436,-1.546 -0.124,-0.405 -0.243,-0.811 -0.377,-1.208 -1.391,-4.217 -3.345,-8.212 -5.798,-11.905 l 24.361,-20.112 C -7.247,-33.903 0,-17.627 0,0"
             style="fill:#ba151b;fill-opacity:1;fill-rule:nonzero;stroke:none"
             id="path6959"
             inkscape:connector-curvature="0" /></g></g></g></g></svg>