<?xml version="1.0" encoding="UTF-8" standalone="no"?>
<!-- Created with Inkscape (http://www.inkscape.org/) -->

<svg
   width="1056.4248mm"
   height="764.36615mm"
   viewBox="0 0 1056.4248 764.36615"
   version="1.1"
   id="svg1146"
   inkscape:version="1.3.2 (091e20e, 2023-11-25, custom)"
   sodipodi:docname="trusted_printable.svg"
   xml:space="preserve"
   inkscape:export-filename="trusted.png"
   inkscape:export-xdpi="96"
   inkscape:export-ydpi="96"
   xmlns:inkscape="http://www.inkscape.org/namespaces/inkscape"
   xmlns:sodipodi="http://sodipodi.sourceforge.net/DTD/sodipodi-0.dtd"
   xmlns="http://www.w3.org/2000/svg"
   xmlns:svg="http://www.w3.org/2000/svg"><sodipodi:namedview
     id="namedview1148"
     pagecolor="#ffffff"
     bordercolor="#666666"
     borderopacity="1.0"
     inkscape:pageshadow="2"
     inkscape:pageopacity="0.0"
     inkscape:pagecheckerboard="0"
     inkscape:document-units="mm"
     showgrid="false"
     fit-margin-top="0"
     fit-margin-left="0"
     fit-margin-right="0"
     fit-margin-bottom="0"
     inkscape:zoom="0.14264783"
     inkscape:cx="2478.1309"
     inkscape:cy="1055.0458"
     inkscape:window-width="1487"
     inkscape:window-height="1373"
     inkscape:window-x="3502"
     inkscape:window-y="422"
     inkscape:window-maximized="0"
     inkscape:current-layer="layer2"
     inkscape:showpageshadow="2"
     inkscape:deskcolor="#d1d1d1" /><defs
     id="defs1143" /><g
     inkscape:groupmode="layer"
     id="layer2"
     inkscape:label="Layer 1"><path
       style="fill:#0077c8;fill-opacity:1;stroke-width:4.38762"
       d="M 0,0 V 764.36614 L 247.6722,510.63506 H 866.91342 V 0 Z"
       id="path5356" /><g
       id="g1"
       transform="translate(1486.7553,240.67288)"><path
         d="m -1221.6547,369.67981 h -5.5868 l 8.9973,-42.58311 h -13.1874 l 1.0719,-4.90469 h 31.9942 l -0.9745,4.90469 h -13.2524 z"
         id="path6357" /><path
         d="m -1183.2292,333.43057 q 2.2412,0 3.8978,0.45474 l -1.1694,4.87221 q -1.7215,-0.42226 -3.4105,-0.42226 -2.9558,0 -5.5543,1.94889 -2.5661,1.94888 -4.515,5.42439 -1.9164,3.44303 -2.8258,7.66561 l -3.4755,16.30566 h -5.4569 l 7.6006,-35.59961 h 4.5149 l -0.7146,6.59372 h 0.3249 q 2.3386,-3.08573 3.8652,-4.41747 1.5267,-1.36421 3.1832,-2.0788 1.6891,-0.74708 3.7354,-0.74708 z"
         id="path6359" /><path
         d="m -1166.6637,334.0802 -4.8722,22.57457 q -0.5847,2.89084 -0.5847,4.51491 0,4.64484 4.7748,4.64484 2.8583,0 5.6193,-1.94888 2.7609,-1.94888 4.8722,-5.5868 2.1113,-3.63792 3.2156,-8.76998 l 3.2482,-15.42866 h 5.3919 l -7.5032,35.59961 h -4.5149 l 0.7146,-6.59372 h -0.3898 q -3.1832,4.06017 -6.074,5.65176 -2.8909,1.59159 -5.9766,1.59159 -4.1576,0 -6.5288,-2.24122 -2.3711,-2.2737 -2.3711,-6.4638 0,-2.01384 0.7146,-5.5868 l 4.7423,-21.95742 z"
         id="path6361" /><path
         d="m -1119.046,359.5781 q 0,5.06709 -3.6054,7.92546 -3.573,2.82588 -10.1017,2.82588 -5.4894,0 -9.9068,-2.24122 v -5.13206 q 2.2736,1.36422 4.9046,2.11129 2.631,0.74707 4.8723,0.74707 4.0926,0 6.1714,-1.62407 2.0788,-1.62407 2.0788,-4.15761 0,-1.85144 -1.1368,-3.11822 -1.1369,-1.26677 -4.9047,-3.47551 -4.2226,-2.37114 -5.9766,-4.64484 -1.754,-2.27369 -1.754,-5.39191 0,-4.48243 3.2806,-7.21087 3.2807,-2.76092 8.6401,-2.76092 5.5543,0 10.7188,2.40363 l -1.7539,4.44995 -1.819,-0.81204 q -3.2806,-1.3967 -7.1459,-1.3967 -3.0208,0 -4.7423,1.42918 -1.7215,1.3967 -1.7215,3.63792 0,1.81896 1.1368,3.11821 1.1694,1.29926 4.7748,3.34559 3.4755,1.94888 4.9697,3.34558 1.5266,1.3967 2.2737,3.02077 0.747,1.59159 0.747,3.60544 z"
         id="path6363" /><path
         d="m -1101.6035,365.87949 q 1.7865,0 4.6773,-0.84452 v 4.1901 q -1.1043,0.45474 -2.7284,0.77955 -1.6241,0.32482 -2.5985,0.32482 -4.0602,0 -6.2364,-1.9164 -2.1438,-1.94889 -2.1438,-5.78169 0,-2.14378 0.5847,-4.87221 l 4.1251,-19.5538 h -5.5868 l 0.4547,-2.37114 6.0091,-2.53355 4.0602,-7.40576 h 3.1831 l -1.7864,8.18531 h 8.8999 l -0.8445,4.12514 h -8.8675 l -4.1901,19.61876 q -0.5846,2.82588 -0.5846,4.28754 0,1.81896 0.9419,2.7934 0.942,0.97445 2.631,0.97445 z"
         id="path6365" /><path
         d="m -1076.8851,370.32944 q -5.9766,0 -9.3871,-3.54047 -3.4106,-3.54048 -3.4106,-9.80939 0,-6.1065 2.4036,-11.6933 2.4361,-5.61928 6.4313,-8.73749 3.9953,-3.11822 8.8025,-3.11822 4.9697,0 7.4707,2.17626 2.5011,2.14377 2.5011,6.00905 0,5.84666 -5.3919,9.19224 -5.3919,3.3131 -15.4287,3.3131 h -1.0719 l -0.1299,2.59851 q 0,4.25507 1.9814,6.65869 2.0138,2.37114 6.2039,2.37114 2.0463,0 4.1901,-0.58466 2.1763,-0.58467 5.3919,-2.14378 v 4.74229 q -3.0532,1.42918 -5.3919,1.98136 -2.3386,0.58467 -5.1645,0.58467 z m 4.5149,-32.25403 q -3.3456,0 -6.3014,3.05325 -2.9233,3.05325 -4.4824,8.47765 h 0.3897 q 7.4058,0 11.3361,-1.9164 3.9627,-1.94889 3.9627,-5.61929 0,-1.72151 -1.2018,-2.85836 -1.1694,-1.13685 -3.7029,-1.13685 z"
         id="path6367" /><path
         d="m -1039.3042,333.49554 q 6.3014,0 9.1273,6.17146 h 0.3248 q 0.5522,-5.03462 1.4617,-8.8999 l 2.5335,-11.62834 h 5.392 l -10.7189,50.54105 h -4.5149 l 0.7146,-6.78861 h -0.2599 q -3.2806,4.06017 -6.139,5.7492 -2.8583,1.68904 -5.9116,1.68904 -4.5149,0 -7.0484,-3.18318 -2.5336,-3.18318 -2.5336,-8.83494 0,-6.95102 2.3387,-12.73271 2.3386,-5.78168 6.3014,-8.93238 3.9952,-3.15069 8.9323,-3.15069 z m -6.1714,32.31898 q 3.0532,0 6.3014,-3.02077 3.2481,-3.05325 5.132,-7.76305 1.9164,-4.74228 1.9164,-9.64697 0,-3.60544 -1.754,-5.48936 -1.754,-1.88392 -5.0995,-1.88392 -3.2807,0 -6.1065,2.69596 -2.7934,2.66347 -4.515,7.53568 -1.689,4.83973 -1.689,10.19916 0,7.37327 5.8142,7.37327 z"
         id="path6369" /><path
         d="m -974.73114,355.9077 q 0,6.85357 -4.57988,10.6539 -4.5474,3.76784 -12.83015,3.76784 -3.44303,0 -6.07402,-0.48722 -2.59851,-0.45474 -4.90471,-1.55911 v -5.52184 q 5.262,2.72844 11.04369,2.72844 5.26199,0 8.34772,-2.4361 3.08573,-2.46859 3.08573,-6.75614 0,-2.53354 -1.72151,-4.44995 -1.68903,-1.94888 -6.33387,-4.57987 -4.90469,-2.76092 -6.8211,-5.52184 -1.88392,-2.76092 -1.88392,-6.52876 0,-6.07402 4.28755,-9.87434 4.28754,-3.83281 11.27104,-3.83281 3.21566,0 5.97658,0.61715 2.7934,0.61714 5.87913,2.11129 l -2.14377,4.87221 q -2.14377,-1.2343 -4.80725,-1.94889 -2.66347,-0.71459 -4.90469,-0.71459 -4.35251,0 -7.01598,2.2737 -2.63099,2.24122 -2.63099,6.1065 0,1.754 0.55218,3.02077 0.55218,1.2343 1.754,2.33866 1.20181,1.10437 4.61235,3.08574 4.77477,2.85836 6.43132,4.48243 1.68903,1.62407 2.53355,3.60543 0.877,1.94889 0.877,4.5474 z"
         id="path6371" /><path
         d="m -950.11025,333.62546 q 6.17146,0 9.74442,3.6704 3.57295,3.63792 3.57295,10.03675 0,6.1065 -2.33866,11.5309 -2.33866,5.42439 -6.33387,8.38019 -3.99521,2.95581 -9.02983,2.95581 -6.23643,0 -9.7769,-3.6704 -3.54047,-3.67039 -3.54047,-10.03675 0,-6.17146 2.37114,-11.59585 2.37114,-5.45688 6.39883,-8.34772 4.0277,-2.92333 8.93239,-2.92333 z m 7.66561,12.96008 q 0,-3.73536 -2.04633,-6.04154 -2.01385,-2.33866 -5.48936,-2.33866 -3.54047,0 -6.36635,2.40362 -2.7934,2.40362 -4.35251,6.69117 -1.52662,4.25506 -1.52662,9.48457 0,4.25506 2.04633,6.59372 2.07881,2.30618 5.94409,2.30618 3.37807,0 6.07402,-2.37114 2.69596,-2.37115 4.1901,-6.72365 1.52663,-4.38499 1.52663,-10.00427 z"
         id="path6373" /><path
         d="m -937.05272,385.66066 q -2.24121,0 -4.06017,-0.68211 v -4.57988 q 2.07881,0.71459 3.63791,0.71459 2.46859,0 3.80033,-2.01385 1.33174,-2.01384 2.14377,-5.7492 l 7.37328,-35.14487 h -6.26891 l 0.42226,-2.17626 6.69116,-2.14377 0.74707,-3.24814 q 1.49415,-6.49628 4.12514,-9.15975 2.66348,-2.69596 7.8605,-2.69596 1.29926,0 3.18318,0.38978 1.88392,0.3573 2.92332,0.81204 l -1.3967,4.1901 q -2.46858,-0.94196 -4.44995,-0.94196 -2.82588,0 -4.35251,1.59158 -1.49414,1.55911 -2.4361,5.74921 l -0.81204,3.50799 h 7.73058 l -0.81204,4.12514 h -7.69809 l -7.53568,35.66457 q -1.26678,6.13898 -3.89777,8.96486 -2.63099,2.82589 -6.91854,2.82589 z"
         id="path6375" /><path
         d="m -900.02394,365.87949 q 1.78647,0 4.67732,-0.84452 v 4.1901 q -1.10437,0.45474 -2.72844,0.77955 -1.62407,0.32482 -2.59851,0.32482 -4.06018,0 -6.23643,-1.9164 -2.14377,-1.94889 -2.14377,-5.78169 0,-2.14378 0.58466,-4.87221 l 4.12514,-19.5538 h -5.5868 l 0.45474,-2.37114 6.00906,-2.53355 4.06017,-7.40576 h 3.18318 l -1.78648,8.18531 h 8.8999 l -0.84451,4.12514 h -8.86742 l -4.1901,19.61876 q -0.58467,2.82588 -0.58467,4.28754 0,1.81896 0.94196,2.7934 0.94196,0.97445 2.631,0.97445 z"
         id="path6377" /><path
         d="m -864.2944,369.67981 -1.0394,-19.5538 q -0.12993,-3.05325 -0.12993,-5.5868 v -5.0671 h -0.29233 l -1.62407,3.83281 -2.69596,6.13898 -9.45208,20.23591 h -6.56124 l -1.3967,-35.59961 h 5.32694 l 0.58467,19.29395 v 2.85836 q 0,4.77477 -0.25985,8.7375 h 0.19489 q 1.52662,-4.0277 4.44995,-10.45901 l 9.58201,-20.4308 h 5.91161 l 1.20181,19.29395 q 0.19489,5.45687 0.19489,8.51012 v 1.72152 l -0.065,1.36422 h 0.19489 q 0.90948,-2.7934 2.69595,-7.08095 1.78648,-4.32002 10.49149,-23.80886 h 5.78169 l -16.43558,35.59961 z"
         id="path6379" /><path
         d="m -822.84815,333.43057 q 2.98829,0 5.32695,1.62407 2.33866,1.59159 3.63792,4.61236 h 0.35729 l 2.17626,-5.5868 h 4.12513 l -7.56816,35.59961 h -4.32003 l 0.84452,-6.78861 h -0.25985 q -5.81417,7.43824 -12.24549,7.43824 -4.51491,0 -7.08094,-3.21566 -2.56603,-3.21566 -2.56603,-8.80246 0,-6.75613 2.30618,-12.53782 2.30617,-5.78169 6.36635,-9.06231 4.06017,-3.28062 8.8999,-3.28062 z m -6.17146,32.38395 q 3.15069,0 6.26891,-2.98828 3.11821,-3.02077 5.06709,-7.82802 1.94889,-4.83973 1.94889,-9.67946 0,-3.34558 -1.81896,-5.32695 -1.81896,-1.98136 -4.77477,-1.98136 -3.37806,0 -6.30139,2.7934 -2.89084,2.7934 -4.54739,7.56816 -1.65655,4.77477 -1.65655,10.06924 0,3.70288 1.52662,5.55432 1.52663,1.81895 4.28755,1.81895 z"
         id="path6381" /><path
         d="m -781.59676,333.43057 q 2.24122,0 3.89777,0.45474 l -1.16933,4.87221 q -1.72151,-0.42226 -3.41055,-0.42226 -2.9558,0 -5.55432,1.94889 -2.56603,1.94888 -4.51491,5.42439 -1.9164,3.44303 -2.82588,7.66561 l -3.47551,16.30566 h -5.45687 l 7.60064,-35.59961 h 4.51492 l -0.71459,6.59372 h 0.32481 q 2.33866,-3.08573 3.86529,-4.41747 1.52662,-1.36421 3.18317,-2.0788 1.68903,-0.74708 3.73536,-0.74708 z"
         id="path6383" /><path
         d="m -765.03127,370.32944 q -5.97658,0 -9.38712,-3.54047 -3.41055,-3.54048 -3.41055,-9.80939 0,-6.1065 2.40362,-11.6933 2.43611,-5.61928 6.43132,-8.73749 3.99521,-3.11822 8.80246,-3.11822 4.96965,0 7.47072,2.17626 2.50107,2.14377 2.50107,6.00905 0,5.84666 -5.39191,9.19224 -5.39192,3.3131 -15.42867,3.3131 h -1.07188 l -0.12993,2.59851 q 0,4.25507 1.98137,6.65869 2.01384,2.37114 6.20394,2.37114 2.04633,0 4.1901,-0.58466 2.17626,-0.58467 5.39191,-2.14378 v 4.74229 q -3.05325,1.42918 -5.39191,1.98136 -2.33866,0.58467 -5.16454,0.58467 z m 4.51491,-32.25403 q -3.34558,0 -6.30139,3.05325 -2.92332,3.05325 -4.48243,8.47765 h 0.38978 q 7.40576,0 11.33601,-1.9164 3.96273,-1.94889 3.96273,-5.61929 0,-1.72151 -1.20182,-2.85836 -1.16933,-1.13685 -3.70288,-1.13685 z"
         id="path6385" /><path
         d="m -704.25856,369.67981 h -23.87382 l 10.03675,-47.4878 h 23.87382 l -1.0394,4.96965 h -18.38447 l -3.18318,15.23378 h 17.1177 l -0.94196,4.93717 h -17.18266 l -3.70288,17.41003 h 18.35199 z"
         id="path6387" /><path
         d="m -681.74897,355.58288 -11.23857,14.09693 h -6.33387 l 15.42866,-18.35199 -7.76305,-17.24762 h 5.52184 l 5.65176,13.38234 10.71886,-13.38234 h 6.30139 l -14.77903,17.50747 8.18531,18.09214 h -5.45688 z"
         id="path6389" /><path
         d="m -650.01467,370.32944 q -6.30139,0 -9.7769,-3.47551 -3.47551,-3.47551 -3.47551,-9.80938 0,-6.49628 2.40362,-11.98564 2.40363,-5.48935 6.62621,-8.5426 4.25506,-3.08574 9.54953,-3.08574 4.44995,0 8.70501,1.65655 l -1.52662,4.57988 q -3.89777,-1.65655 -7.11343,-1.65655 -3.63792,0 -6.65869,2.50107 -2.98828,2.46858 -4.7098,6.91853 -1.68903,4.41747 -1.68903,9.6145 0,4.15762 2.14377,6.46379 2.17626,2.30618 5.97658,2.30618 2.33866,0 4.41747,-0.64962 2.07881,-0.64963 4.09265,-1.52663 v 4.64484 q -4.02769,2.04633 -8.96486,2.04633 z"
         id="path6391" /><path
         d="m -620.52153,370.32944 q -5.97658,0 -9.38713,-3.54047 -3.41054,-3.54048 -3.41054,-9.80939 0,-6.1065 2.40362,-11.6933 2.4361,-5.61928 6.43132,-8.73749 3.99521,-3.11822 8.80245,-3.11822 4.96966,0 7.47072,2.17626 2.50107,2.14377 2.50107,6.00905 0,5.84666 -5.39191,9.19224 -5.39191,3.3131 -15.42866,3.3131 h -1.07189 l -0.12992,2.59851 q 0,4.25507 1.98136,6.65869 2.01385,2.37114 6.20395,2.37114 2.04633,0 4.1901,-0.58466 2.17625,-0.58467 5.39191,-2.14378 v 4.74229 q -3.05325,1.42918 -5.39191,1.98136 -2.33866,0.58467 -5.16454,0.58467 z m 4.51491,-32.25403 q -3.34558,0 -6.30139,3.05325 -2.92333,3.05325 -4.48243,8.47765 h 0.38977 q 7.40576,0 11.33601,-1.9164 3.96273,-1.94889 3.96273,-5.61929 0,-1.72151 -1.20181,-2.85836 -1.16933,-1.13685 -3.70288,-1.13685 z"
         id="path6393" /><path
         d="m -596.38785,369.67981 h -5.45688 l 10.78383,-50.54105 h 5.45687 z"
         id="path6395" /><path
         d="m -579.49753,369.67981 h -5.45688 l 10.78383,-50.54105 h 5.45687 z"
         id="path6397" /><path
         d="m -553.93468,370.32944 q -5.97658,0 -9.38712,-3.54047 -3.41055,-3.54048 -3.41055,-9.80939 0,-6.1065 2.40362,-11.6933 2.43611,-5.61928 6.43132,-8.73749 3.99521,-3.11822 8.80246,-3.11822 4.96965,0 7.47072,2.17626 2.50106,2.14377 2.50106,6.00905 0,5.84666 -5.39191,9.19224 -5.39191,3.3131 -15.42866,3.3131 h -1.07189 l -0.12992,2.59851 q 0,4.25507 1.98136,6.65869 2.01385,2.37114 6.20395,2.37114 2.04633,0 4.1901,-0.58466 2.17625,-0.58467 5.39191,-2.14378 v 4.74229 q -3.05325,1.42918 -5.39191,1.98136 -2.33866,0.58467 -5.16454,0.58467 z m 4.51491,-32.25403 q -3.34558,0 -6.30139,3.05325 -2.92332,3.05325 -4.48243,8.47765 h 0.38978 q 7.40575,0 11.336,-1.9164 3.96273,-1.94889 3.96273,-5.61929 0,-1.72151 -1.20181,-2.85836 -1.16933,-1.13685 -3.70288,-1.13685 z"
         id="path6399" /><path
         d="m -513.43038,369.67981 4.80725,-22.47713 q 0.64963,-3.37806 0.64963,-4.67732 0,-2.04632 -1.16933,-3.28062 -1.13685,-1.23429 -3.6704,-1.23429 -2.89084,0 -5.65176,1.94888 -2.72844,1.94889 -4.83973,5.55432 -2.07881,3.60544 -3.1507,8.7375 l -3.28062,15.42866 h -5.45687 l 7.60064,-35.59961 h 4.51492 l -0.71459,6.59372 h 0.32481 q 3.11822,-3.96273 6.00906,-5.5868 2.92333,-1.65655 6.04154,-1.65655 4.12514,0 6.49628,2.2737 2.40362,2.24122 2.40362,6.30139 0,2.56603 -0.74707,5.84665 l -4.64484,21.8275 z"
         id="path6401" /><path
         d="m -482.28072,370.32944 q -6.30139,0 -9.7769,-3.47551 -3.47551,-3.47551 -3.47551,-9.80938 0,-6.49628 2.40362,-11.98564 2.40362,-5.48935 6.62621,-8.5426 4.25506,-3.08574 9.54953,-3.08574 4.44995,0 8.70501,1.65655 l -1.52663,4.57988 q -3.89776,-1.65655 -7.11342,-1.65655 -3.63792,0 -6.65869,2.50107 -2.98829,2.46858 -4.7098,6.91853 -1.68903,4.41747 -1.68903,9.6145 0,4.15762 2.14377,6.46379 2.17625,2.30618 5.97658,2.30618 2.33866,0 4.41747,-0.64962 2.07881,-0.64963 4.09265,-1.52663 v 4.64484 q -4.02769,2.04633 -8.96486,2.04633 z"
         id="path6403" /><path
         d="m -452.78759,370.32944 q -5.97657,0 -9.38712,-3.54047 -3.41055,-3.54048 -3.41055,-9.80939 0,-6.1065 2.40363,-11.6933 2.4361,-5.61928 6.43131,-8.73749 3.99521,-3.11822 8.80246,-3.11822 4.96965,0 7.47072,2.17626 2.50107,2.14377 2.50107,6.00905 0,5.84666 -5.39191,9.19224 -5.39191,3.3131 -15.42866,3.3131 h -1.07189 l -0.12993,2.59851 q 0,4.25507 1.98137,6.65869 2.01385,2.37114 6.20395,2.37114 2.04632,0 4.1901,-0.58466 2.17625,-0.58467 5.39191,-2.14378 v 4.74229 q -3.05325,1.42918 -5.39191,1.98136 -2.33867,0.58467 -5.16455,0.58467 z m 4.51492,-32.25403 q -3.34559,0 -6.30139,3.05325 -2.92333,3.05325 -4.48244,8.47765 h 0.38978 q 7.40576,0 11.33601,-1.9164 3.96273,-1.94889 3.96273,-5.61929 0,-1.72151 -1.20181,-2.85836 -1.16933,-1.13685 -3.70288,-1.13685 z"
         id="path6405" /></g><g
       id="g10"><path
         id="path5"
         style="fill:#ffffff;fill-opacity:1;stroke-width:4.38762;stroke:none"
         d="M 650.49001 184.86313 L 650.49001 324.60861 L 696.49444 324.60861 C 711.96513 324.60861 723.96489 321.30081 732.34083 314.5746 C 740.69921 307.87471 744.91991 298.38405 744.91991 286.05489 C 744.91991 276.68296 742.27455 268.71954 737.15862 262.48475 C 732.09969 256.20171 725.03593 252.02893 715.83951 250.0545 C 723.45639 248.83037 729.26943 245.73268 733.18315 240.74396 C 737.15835 235.75965 739.11971 229.13864 739.13731 220.71883 C 739.1154 209.7893 735.24162 199.65824 727.53699 193.75251 C 719.84552 187.84241 708.88895 184.86313 694.66871 184.86313 L 650.49001 184.86313 z M 663.89023 198.10935 L 696.09911 198.10935 C 705.19901 198.10935 712.09637 199.88209 716.53663 203.33953 C 721.03833 206.79695 724.01782 213.76008 724.01782 220.71883 C 724.01782 227.72584 721.03833 234.89132 716.53663 238.34876 C 712.09197 241.72722 705.19901 243.41563 696.09911 243.41563 L 663.89023 243.41563 L 663.89023 198.10935 z M 663.89023 257.24993 L 699.32837 257.24993 C 709.37598 257.24993 716.66005 259.34279 721.48206 263.46712 C 726.34349 267.53444 729.66916 277.42447 729.66916 286.05489 C 729.66916 294.63264 726.34349 300.92429 721.48206 305.11006 C 716.66005 309.24317 709.37598 311.3319 699.32837 311.3319 L 663.89023 311.3319 L 663.89023 257.24993 z " /><path
         id="path4"
         style="fill:#ffffff;fill-opacity:1;stroke-width:4.38762;stroke:none"
         d="M 558.17937 184.86313 L 505.38724 324.60861 L 521.47618 324.60861 L 536.01276 288.57722 L 592.74056 288.57722 L 608.69825 324.60861 L 624.51072 324.60861 L 571.88602 184.86313 L 558.17937 184.86313 z M 564.94484 203.19897 L 589.91903 275.05556 L 540.09778 275.05556 L 564.94484 203.19897 z " /><path
         id="path6"
         style="fill:#ffffff;fill-opacity:1;stroke-width:4.38762;stroke:none"
         d="M 383.85461 185.28895 L 383.85461 324.60861 L 419.27157 324.60861 C 445.87794 324.60861 465.56102 319.0756 478.14911 307.94865 C 490.71519 296.78657 496.90197 279.35955 496.90197 255.56993 C 496.90197 231.90316 490.6494 213.16792 478.14911 202.08482 C 465.62682 190.92274 446.00524 185.28895 419.27157 185.28895 L 383.85461 185.28895 z M 397.67133 196.96834 L 424.48882 196.96834 C 443.5398 196.96834 457.47441 202.19418 466.2935 210.82899 C 475.13449 219.38483 479.68028 237.07589 479.68028 255.56528 C 479.68028 274.19505 475.13449 287.59074 466.2935 296.21241 C 457.47001 304.8516 443.5354 311.20478 424.48882 311.20478 L 397.67133 311.20478 L 397.67133 196.96834 z " /><path
         style="fill:#ffffff;fill-opacity:1;stroke-width:4.38762;stroke:none"
         d="m 262.0064,184.86315 h 13.4129 v 58.29858 l 61.9882,-56.45992 h 18.5069 l -68.4734,62.35209 73.4097,75.55485 h -19.0643 l -66.3671,-68.34123 v 68.34123 h -13.4129 z"
         id="path3" /><path
         style="fill:#ffffff;fill-opacity:1;stroke-width:4.38762;stroke:none"
         d="m 230.411,182.1779 -0.1449,142.42192 c 0,0 -2.7157,0.68001 -7.8931,-0.28087 -5.1904,-0.98722 -9.0954,-5.65532 -18.4718,-5.65532 -9.3982,0 -13.6277,5.9845 -25.7245,6.48907 -12.0921,0.47386 -17.7567,-6.55927 -26.3959,-6.48907 -11.693,0.0921 -15.8216,5.53258 -24.689,6.48907 -8.8805,1.00477 -13.5578,-2.53588 -13.5578,-2.53588 l 11.3023,-10.60499 5.2128,-0.54843 c 5.1774,-0.48702 9.806,-6.06383 21.1743,-6.06383 11.3464,0 17.7875,7.10797 26.6681,6.60778 8.898,-0.46948 17.5767,-6.3884 26.0097,-6.60778 8.3628,-0.23254 12.8077,2.94888 12.8077,2.94888 v -92.8769 l -32.1745,31.90198 26.2377,-0.14045 -38.8085,38.38714 c 0,0 1.5404,0.97889 6.4851,0.71562 4.9581,-0.25009 7.3139,-1.48296 12.0174,-3.95318 4.6859,-2.46584 12.8337,-2.53198 12.8337,-2.53198 v 13.12806 l -2.1055,0.272 c -2.2509,0.23693 -7.4811,1.96962 -7.4811,1.96962 -5.1906,1.50058 -13.4528,8.39813 -25.8171,2.42219 -14.8564,-7.16496 -24.2893,-3.81721 -24.2893,-3.81721 l 34.0127,-33.31537 h -25.8387 z"
         id="path2" /></g></g></svg>
