<?xml version="1.0" encoding="UTF-8" standalone="no"?>
<!-- Created with Inkscape (http://www.inkscape.org/) -->

<svg
   xmlns:dc="http://purl.org/dc/elements/1.1/"
   xmlns:cc="http://creativecommons.org/ns#"
   xmlns:rdf="http://www.w3.org/1999/02/22-rdf-syntax-ns#"
   xmlns:svg="http://www.w3.org/2000/svg"
   xmlns="http://www.w3.org/2000/svg"
   xmlns:sodipodi="http://sodipodi.sourceforge.net/DTD/sodipodi-0.dtd"
   xmlns:inkscape="http://www.inkscape.org/namespaces/inkscape"
   version="1.1"
   width="300"
   height="97.900429"
   id="svg4858"
   inkscape:version="0.91 r13725"
   sodipodi:docname="rohow-banner.svg">
  <sodipodi:namedview
     pagecolor="#54c0d3"
     bordercolor="#666666"
     borderopacity="1"
     objecttolerance="10"
     gridtolerance="10"
     guidetolerance="10"
     inkscape:pageopacity="0"
     inkscape:pageshadow="2"
     inkscape:window-width="1366"
     inkscape:window-height="710"
     id="namedview10"
     showgrid="false"
     inkscape:zoom="1.1278354"
     inkscape:cx="326.96986"
     inkscape:cy="72.401251"
     inkscape:window-x="0"
     inkscape:window-y="27"
     inkscape:window-maximized="1"
     inkscape:current-layer="svg4858"
     fit-margin-top="0"
     fit-margin-left="0"
     fit-margin-right="0"
     fit-margin-bottom="0" />
  <defs
     id="defs4860" />
  <metadata
     id="metadata4863">
    <rdf:RDF>
      <cc:Work
         rdf:about="">
        <dc:format>image/svg+xml</dc:format>
        <dc:type
           rdf:resource="http://purl.org/dc/dcmitype/StillImage" />
        <dc:title></dc:title>
      </cc:Work>
    </rdf:RDF>
  </metadata>
  <g
     transform="matrix(1.2422675,0,0,1.1452254,-81.991084,-7.2356398e-6)"
     style="font-size:6.42447758px"
     id="text22">
    <path
       d="m 66.00115,1.3709282 12.015726,0 c 8.010462,6.52e-5 13.426942,0.3091944 16.249457,0.9273883 2.849332,0.6183226 5.16108,2.2042894 6.935247,4.7579052 1.80098,2.5268542 2.70149,6.5724133 2.70153,12.1366903 -4e-5,5.080518 -0.63174,8.494378 -1.8951,10.241593 -1.26344,1.747289 -3.749911,2.79564 -7.459429,3.145056 3.360067,0.833339 5.618059,1.948891 6.773969,3.346662 1.15583,1.397832 1.86817,2.68811 2.13702,3.870838 0.29565,1.155901 0.4435,4.368156 0.44354,9.636774 l 0,17.217166 -15.765605,0 0,-21.692822 c -2.5e-5,-3.494482 -0.282273,-5.658386 -0.846745,-6.491718 -0.537641,-0.833277 -1.975763,-1.249929 -4.314372,-1.249959 l 0,29.434499 -16.975238,0 0,-65.2800728 m 16.975238,11.1689808 0,14.515643 c 1.908516,4e-5 3.239115,-0.255328 3.991802,-0.766103 0.779518,-0.537576 1.16929,-2.244506 1.169315,-5.120796 l 0,-3.58859 c -2.5e-5,-2.069772 -0.376356,-3.427252 -1.128994,-4.072444 -0.725806,-0.645086 -2.069846,-0.967656 -4.032123,-0.96771"
       style="font-variant:normal;font-weight:normal;font-stretch:normal;font-size:82.57788086px;font-family:Impact;-inkscape-font-specification:Impact;writing-mode:lr-tb;fill:#e52f26;fill-opacity:1;fill-rule:nonzero;stroke:none"
       id="path2992"
       inkscape:connector-curvature="0" />
    <path
       d="m 146.88041,31.934421 0,13.1044 c -4e-5,4.811684 -0.24197,8.346508 -0.72579,10.604484 -0.48389,2.231117 -1.5188,4.327819 -3.10473,6.290112 -1.586,1.935422 -3.62894,3.373544 -6.12883,4.314372 -2.47306,0.913947 -5.32242,1.370921 -8.5481,1.370922 -3.60205,-1e-6 -6.65302,-0.389773 -9.15292,-1.169316 -2.49992,-0.806424 -4.44878,-2.002619 -5.84658,-3.58859 -1.37092,-1.612844 -2.35207,-3.548261 -2.94345,-5.806257 -0.59138,-2.284858 -0.88707,-5.698719 -0.88706,-10.241593 l 0,-13.709218 c -1e-5,-4.972913 0.53761,-8.857188 1.61285,-11.652836 1.07522,-2.795557 3.01064,-5.040103 5.80625,-6.733645 2.7956,-1.693438 6.37074,-2.540183 10.72545,-2.540238 3.65577,5.5e-5 6.78738,0.551111 9.39485,1.653171 2.63428,1.075284 4.66378,2.486526 6.0885,4.233729 1.42465,1.7473 2.39236,3.548313 2.90313,5.403045 0.53758,1.854818 0.80639,4.677301 0.80643,8.467458 m -16.28978,-4.032123 c -2e-5,-2.741802 -0.14787,-4.462173 -0.44353,-5.161117 -0.29572,-0.725738 -0.92742,-1.088629 -1.8951,-1.088674 -0.96773,4.5e-5 -1.61287,0.362936 -1.93542,1.088674 -0.32259,0.698944 -0.48388,2.419315 -0.48386,5.161117 l 0,24.152417 c -2e-5,2.52681 0.16127,4.179978 0.48386,4.959512 0.32255,0.752672 0.95425,1.129003 1.8951,1.128994 0.96768,9e-6 1.59938,-0.349442 1.89509,-1.048352 0.32255,-0.698891 0.48384,-2.204215 0.48386,-4.515978 l 0,-24.676593"
       style="font-variant:normal;font-weight:normal;font-stretch:normal;font-size:82.57788086px;font-family:Impact;-inkscape-font-specification:Impact;writing-mode:lr-tb;fill:#e52f26;fill-opacity:1;fill-rule:nonzero;stroke:none"
       id="path2994"
       inkscape:connector-curvature="0" />
    <path
       d="m 191.73887,1.3709282 0,65.2800728 -16.97524,0 0,-27.418437 -5.08047,0 0,27.418437 -16.97524,0 0,-65.2800728 16.97524,0 0,23.3459928 5.08047,0 0,-23.3459928 16.97524,0"
       style="font-variant:normal;font-weight:normal;font-stretch:normal;font-size:82.57788086px;font-family:Impact;-inkscape-font-specification:Impact;writing-mode:lr-tb;fill:#e52f26;fill-opacity:1;fill-rule:nonzero;stroke:none"
       id="path2996"
       inkscape:connector-curvature="0" />
    <path
       d="m 237.3277,39.595455 c -5e-5,6.558941 -0.16133,11.209318 -0.48386,13.951146 -0.29573,2.714973 -1.26344,5.201447 -2.90313,7.459428 -1.61288,2.257992 -3.80367,3.991803 -6.57236,5.201438 -2.76875,1.209637 -5.99445,1.814454 -9.67709,1.814456 -3.49453,-2e-6 -6.63958,-0.564498 -9.43517,-1.693492 -2.76874,-1.155874 -4.99984,-2.876244 -6.69333,-5.161117 -1.69349,-2.284862 -2.70152,-4.771336 -3.02409,-7.459428 -0.32257,-2.688067 -0.48386,-7.392205 -0.48385,-14.112431 l 0,-11.168981 c -1e-5,-6.558875 0.14784,-11.195812 0.44353,-13.910825 0.32257,-2.741788 1.29027,-5.2417022 2.90313,-7.4997485 1.63972,-2.257927 3.84395,-3.9917382 6.61268,-5.2014388 C 210.78287,0.60489083 214.00856,7.2969087e-5 217.69126,6.3180923e-6 221.18574,7.2969087e-5 224.31735,0.57801003 227.0861,1.7338192 c 2.79557,1.1290583 5.04012,2.8359887 6.73365,5.1207964 1.69345,2.2849272 2.70148,4.7714004 3.02409,7.4594274 0.32253,2.688132 0.48381,7.392271 0.48386,14.112431 l 0,11.168981 M 220.35246,18.14456 c -3e-5,-3.037481 -0.17475,-4.972898 -0.52418,-5.806257 -0.32259,-0.860131 -1.00805,-1.290224 -2.05638,-1.290279 -0.88709,5.5e-5 -1.57255,0.349506 -2.05638,1.048352 -0.457,0.672074 -0.68549,2.688134 -0.68547,6.048184 l 0,30.482851 c -2e-5,3.79021 0.14783,6.128839 0.44354,7.015894 0.32255,0.887077 1.04833,1.33061 2.17734,1.330601 1.15586,9e-6 1.89508,-0.510726 2.21767,-1.532207 0.32255,-1.021459 0.48383,-3.454171 0.48386,-7.298143 l 0,-29.998996"
       style="font-variant:normal;font-weight:normal;font-stretch:normal;font-size:82.57788086px;font-family:Impact;-inkscape-font-specification:Impact;writing-mode:lr-tb;fill:#e52f26;fill-opacity:1;fill-rule:nonzero;stroke:none"
       id="path2998"
       inkscape:connector-curvature="0" />
    <path
       d="m 307.49503,1.3709282 -7.54008,65.2800728 -21.20896,0 c -1.93546,-10.026536 -3.64239,-21.423993 -5.1208,-34.192404 -0.67205,5.456835 -2.24458,16.854292 -4.71758,34.192404 l -21.08801,0 -7.58039,-65.2800728 16.49139,0 1.73381,22.7814958 1.77413,21.97507 c 0.61824,-11.370555 2.17733,-26.289395 4.67727,-44.7565658 l 17.66069,0 c 0.24189,1.9086016 0.86015,9.0857738 1.85478,21.5315368 l 1.85478,24.797557 C 287.22684,31.921016 288.79937,16.478 291.00364,1.3709282 l 16.49139,0"
       style="font-variant:normal;font-weight:normal;font-stretch:normal;font-size:82.57788086px;font-family:Impact;-inkscape-font-specification:Impact;writing-mode:lr-tb;fill:#e52f26;fill-opacity:1;fill-rule:nonzero;stroke:none"
       id="path3000"
       inkscape:connector-curvature="0" />
  </g>
  <g
     transform="matrix(0.75509245,0,0,0.69610697,5.0000003,29.025411)"
     style="font-size:6.42447758px;fill:#ffffff"
     id="text26">
    <path
       d="m 1.7136335e-7,77.519616 3.86219762863665,0 c 2.574791,2.1e-5 4.3158023,0.09938 5.2230392,0.298089 0.915857,0.198746 1.658919,0.708521 2.229188,1.529326 0.578885,0.812203 0.868333,2.112562 0.868346,3.901079 -1.3e-5,1.633023 -0.203059,2.730336 -0.609138,3.29194 -0.406105,0.561629 -1.205328,0.898599 -2.3976733,1.010911 1.0800213,0.267859 1.8058033,0.62643 2.1773463,1.075713 0.371519,0.449303 0.600485,0.864035 0.686901,1.244198 0.09503,0.371539 0.142551,1.40405 0.142564,3.097534 l 0,5.534089 -5.0675141,0 0,-6.972693 C 7.1152487,90.406576 7.0245261,89.711036 6.8430886,89.443179 6.6702756,89.17534 6.208022,89.041416 5.4563264,89.041407 l 0,9.461088 -5.45632622863665,0 0,-20.982879 M 5.4563264,81.109645 l 0,4.665742 c 0.6134515,1.3e-5 1.0411441,-0.08207 1.2830791,-0.246247 0.2505595,-0.172793 0.3758432,-0.721449 0.3758514,-1.645971 l 0,-1.153475 c -8.2e-6,-0.665284 -0.1209717,-1.101616 -0.362891,-1.309 C 6.5190712,81.213345 6.0870584,81.109662 5.4563264,81.109645"
       style="font-variant:normal;font-weight:normal;font-stretch:normal;font-size:26.54288864px;font-family:Impact;-inkscape-font-specification:Impact;writing-mode:lr-tb;fill:#ffffff;fill-opacity:1;fill-rule:nonzero;stroke:none"
       id="path3003"
       inkscape:connector-curvature="0" />
    <path
       d="m 26.774517,89.80607 c -1.3e-5,2.108231 -0.05185,3.602995 -0.155525,4.484296 -0.09506,0.87267 -0.406105,1.671894 -0.933148,2.397674 -0.518428,0.725783 -1.222609,1.283079 -2.112544,1.67189 -0.889957,0.388812 -1.926788,0.583218 -3.110495,0.583218 -1.12324,0 -2.13415,-0.181446 -3.032733,-0.544336 -0.88995,-0.371531 -1.607091,-0.924507 -2.151425,-1.658931 -0.544338,-0.73442 -0.868348,-1.533643 -0.97203,-2.397673 -0.103684,-0.864021 -0.155525,-2.376066 -0.155524,-4.536138 l 0,-3.59003 c -10e-7,-2.108209 0.04752,-3.598653 0.142564,-4.471336 0.103682,-0.881289 0.414731,-1.684833 0.933148,-2.410633 0.527054,-0.725762 1.235555,-1.283059 2.125505,-1.671891 0.889942,-0.388791 1.926773,-0.583196 3.110495,-0.583218 1.123226,2.2e-5 2.129815,0.185787 3.019772,0.557297 0.898576,0.362912 1.620037,0.911568 2.164386,1.64597 0.544323,0.734441 0.868333,1.533665 0.972029,2.397673 0.10367,0.864043 0.155512,2.376087 0.155525,4.536138 l 0,3.59003 m -5.456326,-6.89493 c -8e-6,-0.976333 -0.05617,-1.598432 -0.168485,-1.866297 -0.103691,-0.276471 -0.324018,-0.414715 -0.66098,-0.414733 -0.285136,1.8e-5 -0.505463,0.112342 -0.66098,0.336971 -0.146891,0.216023 -0.220334,0.864043 -0.220327,1.944059 l 0,9.798058 c -7e-6,1.218282 0.04752,1.969984 0.142564,2.255109 0.103677,0.285132 0.336964,0.427696 0.699861,0.427693 0.371524,3e-6 0.609131,-0.164162 0.712822,-0.492495 0.103675,-0.328326 0.155517,-1.110269 0.155525,-2.345831 l 0,-9.642534"
       style="font-variant:normal;font-weight:normal;font-stretch:normal;font-size:26.54288864px;font-family:Impact;-inkscape-font-specification:Impact;writing-mode:lr-tb;fill:#ffffff;fill-opacity:1;fill-rule:nonzero;stroke:none"
       id="path3005"
       inkscape:connector-curvature="0" />
    <path
       d="m 28.799017,77.519616 5.443366,0 c 1.719404,2.1e-5 3.019763,0.133944 3.901079,0.401772 0.889936,0.267868 1.607077,0.812204 2.151426,1.63301 0.544323,0.812202 0.816491,2.125521 0.816505,3.93996 -1.4e-5,1.226931 -0.19442,2.082316 -0.583218,2.566158 -0.380184,0.483866 -1.136206,0.855397 -2.268069,1.114594 1.261466,0.285139 2.116852,0.760353 2.566158,1.425643 0.44928,0.656669 0.673927,1.667579 0.67394,3.032733 l 0,1.944059 c -1.3e-5,1.417006 -0.164178,2.466797 -0.492495,3.149376 -0.319702,0.682582 -0.833797,1.149155 -1.542287,1.399722 -0.708512,0.250568 -2.160075,0.375852 -4.354692,0.375852 l -6.311713,0 0,-20.982879 m 5.456327,3.590029 0,4.665742 c 0.23328,-0.0086 0.414725,-0.01295 0.544336,-0.01296 0.535689,1.2e-5 0.876979,-0.129591 1.023871,-0.388812 0.146877,-0.267835 0.220319,-1.023857 0.220327,-2.268069 -8e-6,-0.656644 -0.06049,-1.114578 -0.181445,-1.373802 -0.120972,-0.267831 -0.280817,-0.436316 -0.479535,-0.505456 -0.190093,-0.0691 -0.565944,-0.107985 -1.127554,-0.116643 m 0,7.931762 0,5.871058 c 0.768976,-0.02592 1.25715,-0.14688 1.464524,-0.362891 0.215999,-0.216002 0.324002,-0.747378 0.32401,-1.594128 l 0,-1.95702 c -8e-6,-0.898579 -0.09505,-1.442915 -0.285128,-1.63301 -0.190094,-0.190076 -0.691229,-0.298079 -1.503406,-0.324009"
       style="font-variant:normal;font-weight:normal;font-stretch:normal;font-size:26.54288864px;font-family:Impact;-inkscape-font-specification:Impact;writing-mode:lr-tb;fill:#ffffff;fill-opacity:1;fill-rule:nonzero;stroke:none"
       id="path3007"
       inkscape:connector-curvature="0" />
    <path
       d="m 55.918607,89.80607 c -1.4e-5,2.108231 -0.05186,3.602995 -0.155525,4.484296 -0.09506,0.87267 -0.406105,1.671894 -0.933148,2.397674 -0.518428,0.725783 -1.222609,1.283079 -2.112545,1.67189 -0.889956,0.388812 -1.926787,0.583218 -3.110494,0.583218 -1.123241,0 -2.134151,-0.181446 -3.032733,-0.544336 -0.88995,-0.371531 -1.607091,-0.924507 -2.151425,-1.658931 -0.544338,-0.73442 -0.868348,-1.533643 -0.97203,-2.397673 -0.103684,-0.864021 -0.155526,-2.376066 -0.155525,-4.536138 l 0,-3.59003 c -10e-7,-2.108209 0.04752,-3.598653 0.142565,-4.471336 0.103682,-0.881289 0.414731,-1.684833 0.933148,-2.410633 0.527054,-0.725762 1.235554,-1.283059 2.125505,-1.671891 0.889942,-0.388791 1.926772,-0.583196 3.110495,-0.583218 1.123225,2.2e-5 2.129815,0.185787 3.019772,0.557297 0.898576,0.362912 1.620037,0.911568 2.164385,1.64597 0.544324,0.734441 0.868334,1.533665 0.97203,2.397673 0.10367,0.864043 0.155511,2.376087 0.155525,4.536138 l 0,3.59003 m -5.456326,-6.89493 c -8e-6,-0.976333 -0.05617,-1.598432 -0.168486,-1.866297 -0.10369,-0.276471 -0.324017,-0.414715 -0.66098,-0.414733 -0.285135,1.8e-5 -0.505462,0.112342 -0.66098,0.336971 -0.146891,0.216023 -0.220333,0.864043 -0.220326,1.944059 l 0,9.798058 c -7e-6,1.218282 0.04752,1.969984 0.142564,2.255109 0.103676,0.285132 0.336963,0.427696 0.699861,0.427693 0.371524,3e-6 0.609131,-0.164162 0.712822,-0.492495 0.103675,-0.328326 0.155517,-1.110269 0.155525,-2.345831 l 0,-9.642534"
       style="font-variant:normal;font-weight:normal;font-stretch:normal;font-size:26.54288864px;font-family:Impact;-inkscape-font-specification:Impact;writing-mode:lr-tb;fill:#ffffff;fill-opacity:1;fill-rule:nonzero;stroke:none"
       id="path3009"
       inkscape:connector-curvature="0" />
    <path
       d="m 68.933538,77.519616 0,4.199167 -3.240098,0 0,16.783712 -5.456327,0 0,-16.783712 -3.227138,0 0,-4.199167 11.923563,0"
       style="font-variant:normal;font-weight:normal;font-stretch:normal;font-size:26.54288864px;font-family:Impact;-inkscape-font-specification:Impact;writing-mode:lr-tb;fill:#ffffff;fill-opacity:1;fill-rule:nonzero;stroke:none"
       id="path3011"
       inkscape:connector-curvature="0" />
    <path
       d="m 75.635728,77.519616 0,20.982879 -5.456326,0 0,-20.982879 5.456326,0"
       style="font-variant:normal;font-weight:normal;font-stretch:normal;font-size:26.54288864px;font-family:Impact;-inkscape-font-specification:Impact;writing-mode:lr-tb;fill:#ffffff;fill-opacity:1;fill-rule:nonzero;stroke:none"
       id="path3013"
       inkscape:connector-curvature="0" />
    <path
       d="m 90.563818,86.669654 -5.456326,0 0,-3.654831 c -8e-6,-1.062736 -0.06049,-1.723715 -0.181446,-1.98294 -0.112331,-0.267831 -0.367219,-0.401755 -0.764663,-0.401773 -0.449301,1.8e-5 -0.734429,0.159863 -0.855386,0.479535 -0.12097,0.319707 -0.181452,1.010927 -0.181445,2.073663 l 0,9.746217 c -7e-6,1.019556 0.06048,1.684855 0.181445,1.995901 0.120957,0.311053 0.393125,0.466577 0.816505,0.466574 0.406085,3e-6 0.669612,-0.155521 0.790584,-0.466574 0.129596,-0.311046 0.194398,-1.041147 0.194406,-2.190307 l 0,-2.63096 5.456326,0 0,0.816505 c -1.4e-5,2.168711 -0.155538,3.706677 -0.466574,4.6139 -0.302422,0.90723 -0.980682,1.702134 -2.034782,2.384713 -1.045482,0.682581 -2.3372,1.023871 -3.875158,1.023871 -1.598455,0 -2.916093,-0.289449 -3.95292,-0.868346 -1.036835,-0.578897 -1.723735,-1.37812 -2.060703,-2.397673 -0.336972,-1.028188 -0.505457,-2.570473 -0.505456,-4.626861 l 0,-6.130267 c -1e-6,-1.512031 0.05184,-2.643904 0.155525,-3.395623 0.103682,-0.760326 0.410411,-1.490427 0.920188,-2.190307 0.518413,-0.699842 1.231234,-1.248498 2.138465,-1.64597 0.915863,-0.406071 1.965654,-0.609117 3.149376,-0.609139 1.60708,2.2e-5 2.933359,0.311071 3.978841,0.933149 1.04546,0.622118 1.73236,1.399741 2.060703,2.332871 0.328317,0.924525 0.492481,2.367448 0.492495,4.328772 l 0,1.9959"
       style="font-variant:normal;font-weight:normal;font-stretch:normal;font-size:26.54288864px;font-family:Impact;-inkscape-font-specification:Impact;writing-mode:lr-tb;fill:#ffffff;fill-opacity:1;fill-rule:nonzero;stroke:none"
       id="path3015"
       inkscape:connector-curvature="0" />
    <path
       d="m 109.74572,77.519616 0,20.982879 -5.45632,0 0,-8.813069 -1.63301,0 0,8.813069 -5.456328,0 0,-20.982879 5.456328,0 0,7.504068 1.63301,0 0,-7.504068 5.45632,0"
       style="font-variant:normal;font-weight:normal;font-stretch:normal;font-size:26.54288864px;font-family:Impact;-inkscape-font-specification:Impact;writing-mode:lr-tb;fill:#ffffff;fill-opacity:1;fill-rule:nonzero;stroke:none"
       id="path3017"
       inkscape:connector-curvature="0" />
    <path
       d="m 121.35358,77.519616 3.12345,20.982879 -5.58593,0 -0.27217,-3.771475 -1.95702,0 -0.32401,3.771475 -5.65073,0 2.77353,-20.982879 7.89288,0 m -2.89017,13.491771 c -0.2765,-2.376063 -0.55298,-5.309429 -0.82947,-8.800109 -0.55298,4.009095 -0.89859,6.942461 -1.03683,8.800109 l 1.8663,0"
       style="font-variant:normal;font-weight:normal;font-stretch:normal;font-size:26.54288864px;font-family:Impact;-inkscape-font-specification:Impact;writing-mode:lr-tb;fill:#ffffff;fill-opacity:1;fill-rule:nonzero;stroke:none"
       id="path3019"
       inkscape:connector-curvature="0" />
    <path
       d="m 142.25067,77.519616 0,20.982879 -4.76942,0 0,-14.165712 -1.90518,14.165712 -3.38266,0 -2.00886,-13.841702 0,13.841702 -4.76943,0 0,-20.982879 7.06341,0 c 0.20736,1.261498 0.42769,2.747622 0.66099,4.458375 l 0.7517,5.339683 1.2442,-9.798058 7.11525,0"
       style="font-variant:normal;font-weight:normal;font-stretch:normal;font-size:26.54288864px;font-family:Impact;-inkscape-font-specification:Impact;writing-mode:lr-tb;fill:#ffffff;fill-opacity:1;fill-rule:nonzero;stroke:none"
       id="path3021"
       inkscape:connector-curvature="0" />
    <path
       d="m 144.44642,77.519616 5.44336,0 c 1.71941,2.1e-5 3.01976,0.133944 3.90108,0.401772 0.88994,0.267868 1.60708,0.812204 2.15143,1.63301 0.54432,0.812202 0.81649,2.125521 0.8165,3.93996 -1e-5,1.226931 -0.19442,2.082316 -0.58322,2.566158 -0.38018,0.483866 -1.1362,0.855397 -2.26807,1.114594 1.26147,0.285139 2.11686,0.760353 2.56616,1.425643 0.44928,0.656669 0.67393,1.667579 0.67394,3.032733 l 0,1.944059 c -1e-5,1.417006 -0.16418,2.466797 -0.49249,3.149376 -0.31971,0.682582 -0.8338,1.149155 -1.54229,1.399722 -0.70851,0.250568 -2.16007,0.375852 -4.35469,0.375852 l -6.31171,0 0,-20.982879 m 5.45632,3.590029 0,4.665742 c 0.23328,-0.0086 0.41473,-0.01295 0.54434,-0.01296 0.53569,1.2e-5 0.87698,-0.129591 1.02387,-0.388812 0.14688,-0.267835 0.22032,-1.023857 0.22033,-2.268069 -1e-5,-0.656644 -0.0605,-1.114578 -0.18145,-1.373802 -0.12097,-0.267831 -0.28082,-0.436316 -0.47953,-0.505456 -0.1901,-0.0691 -0.56595,-0.107985 -1.12756,-0.116643 m 0,7.931762 0,5.871058 c 0.76898,-0.02592 1.25715,-0.14688 1.46453,-0.362891 0.21599,-0.216002 0.324,-0.747378 0.32401,-1.594128 l 0,-1.95702 c -1e-5,-0.898579 -0.0951,-1.442915 -0.28513,-1.63301 -0.1901,-0.190076 -0.69123,-0.298079 -1.50341,-0.324009"
       style="font-variant:normal;font-weight:normal;font-stretch:normal;font-size:26.54288864px;font-family:Impact;-inkscape-font-specification:Impact;writing-mode:lr-tb;fill:#ffffff;fill-opacity:1;fill-rule:nonzero;stroke:none"
       id="path3023"
       inkscape:connector-curvature="0" />
    <path
       d="m 171.50119,77.519616 0,14.023147 c -2e-5,1.589814 -0.0519,2.708727 -0.15553,3.356742 -0.1037,0.639382 -0.41042,1.300362 -0.92019,1.98294 -0.50978,0.673942 -1.18372,1.188037 -2.02182,1.542287 -0.82947,0.345611 -1.81014,0.518416 -2.94201,0.518416 -1.25284,0 -2.3588,-0.207366 -3.31786,-0.622099 -0.95907,-0.414732 -1.67621,-0.954748 -2.15142,-1.620049 -0.47522,-0.665298 -0.75603,-1.365158 -0.84243,-2.099584 -0.0864,-0.743058 -0.12961,-2.298304 -0.1296,-4.665742 l 0,-12.416058 5.45632,0 0,15.733919 c 0,0.915872 0.0475,1.503409 0.14257,1.762614 0.10367,0.25057 0.30672,0.375854 0.60913,0.375851 0.34561,3e-6 0.56593,-0.138241 0.66098,-0.414733 0.10368,-0.285124 0.15552,-0.950424 0.15553,-1.9959 l 0,-15.461751 5.45633,0"
       style="font-variant:normal;font-weight:normal;font-stretch:normal;font-size:26.54288864px;font-family:Impact;-inkscape-font-specification:Impact;writing-mode:lr-tb;fill:#ffffff;fill-opacity:1;fill-rule:nonzero;stroke:none"
       id="path3025"
       inkscape:connector-curvature="0" />
    <path
       d="m 173.61705,77.519616 3.8622,0 c 2.57479,2.1e-5 4.3158,0.09938 5.22304,0.298089 0.91586,0.198746 1.65892,0.708521 2.22919,1.529326 0.57888,0.812203 0.86833,2.112562 0.86835,3.901079 -2e-5,1.633023 -0.20306,2.730336 -0.60914,3.29194 -0.40611,0.561629 -1.20533,0.898599 -2.39768,1.010911 1.08003,0.267859 1.80581,0.62643 2.17735,1.075713 0.37152,0.449303 0.60049,0.864035 0.6869,1.244198 0.095,0.371539 0.14255,1.40405 0.14257,3.097534 l 0,5.534089 -5.06752,0 0,-6.972693 c -1e-5,-1.123226 -0.0907,-1.818766 -0.27217,-2.086623 -0.17281,-0.267839 -0.63506,-0.401763 -1.38676,-0.401772 l 0,9.461088 -5.45633,0 0,-20.982879 m 5.45633,3.590029 0,4.665742 c 0.61345,1.3e-5 1.04114,-0.08207 1.28308,-0.246247 0.25056,-0.172793 0.37584,-0.721449 0.37585,-1.645971 l 0,-1.153475 c -1e-5,-0.665284 -0.12097,-1.101616 -0.36289,-1.309 -0.23329,-0.207349 -0.66531,-0.311032 -1.29604,-0.311049"
       style="font-variant:normal;font-weight:normal;font-stretch:normal;font-size:26.54288864px;font-family:Impact;-inkscape-font-specification:Impact;writing-mode:lr-tb;fill:#ffffff;fill-opacity:1;fill-rule:nonzero;stroke:none"
       id="path3027"
       inkscape:connector-curvature="0" />
    <path
       d="m 200.44342,85.244011 -5.45632,0 0,-1.905178 c -1e-5,-1.20098 -0.0519,-1.952683 -0.15553,-2.255109 -0.10369,-0.302391 -0.34994,-0.453596 -0.73874,-0.453614 -0.33698,1.8e-5 -0.56595,0.129622 -0.6869,0.388812 -0.12097,0.259225 -0.18146,0.924525 -0.18145,1.995901 l 0,10.070227 c -1e-5,0.941793 0.0605,1.563891 0.18145,1.866297 0.12095,0.293772 0.36288,0.440656 0.72578,0.440653 0.39744,3e-6 0.66529,-0.168482 0.80354,-0.505455 0.14688,-0.336967 0.22032,-0.993626 0.22033,-1.96998 l 0,-2.488396 -1.10163,0 0,-3.188257 6.38947,0 0,11.262583 -3.4345,0 -0.50546,-1.503406 c -0.37154,0.648021 -0.84243,1.136195 -1.41268,1.464525 -0.56163,0.319689 -1.22693,0.479534 -1.9959,0.479534 -0.91588,0 -1.77558,-0.220327 -2.57912,-0.66098 -0.79491,-0.449293 -1.39973,-1.002269 -1.81446,-1.65893 -0.41473,-0.656658 -0.67394,-1.343558 -0.77762,-2.060703 -0.10368,-0.725778 -0.15553,-1.81013 -0.15552,-3.253059 l 0,-6.23395 c -1e-5,-2.004526 0.108,-3.460409 0.32401,-4.367653 0.216,-0.907209 0.83378,-1.736674 1.85333,-2.488396 1.02819,-0.760322 2.35447,-1.140493 3.97884,-1.140515 1.59844,2.2e-5 2.92472,0.328351 3.97884,0.98499 1.0541,0.65668 1.741,1.438623 2.06071,2.345832 0.31967,0.898604 0.47952,2.207603 0.47953,3.926999 l 0,0.907228"
       style="font-variant:normal;font-weight:normal;font-stretch:normal;font-size:26.54288864px;font-family:Impact;-inkscape-font-specification:Impact;writing-mode:lr-tb;fill:#ffffff;fill-opacity:1;fill-rule:nonzero;stroke:none"
       id="path3029"
       inkscape:connector-curvature="0" />
    <path
       d="m 219.68827,89.80607 c -10e-6,2.108231 -0.0519,3.602995 -0.15552,4.484296 -0.0951,0.87267 -0.40611,1.671894 -0.93315,2.397674 -0.51843,0.725783 -1.22261,1.283079 -2.11255,1.67189 -0.88995,0.388812 -1.92678,0.583218 -3.11049,0.583218 -1.12324,0 -2.13415,-0.181446 -3.03273,-0.544336 -0.88995,-0.371531 -1.60709,-0.924507 -2.15143,-1.658931 -0.54434,-0.73442 -0.86835,-1.533643 -0.97203,-2.397673 -0.10368,-0.864021 -0.15552,-2.376066 -0.15552,-4.536138 l 0,-3.59003 c 0,-2.108209 0.0475,-3.598653 0.14256,-4.471336 0.10368,-0.881289 0.41473,-1.684833 0.93315,-2.410633 0.52705,-0.725762 1.23555,-1.283059 2.1255,-1.671891 0.88995,-0.388791 1.92678,-0.583196 3.1105,-0.583218 1.12323,2.2e-5 2.12981,0.185787 3.01977,0.557297 0.89858,0.362912 1.62004,0.911568 2.16439,1.64597 0.54432,0.734441 0.86833,1.533665 0.97203,2.397673 0.10367,0.864043 0.15551,2.376087 0.15552,4.536138 l 0,3.59003 m -5.45632,-6.89493 c -1e-5,-0.976333 -0.0562,-1.598432 -0.16849,-1.866297 -0.10369,-0.276471 -0.32402,-0.414715 -0.66098,-0.414733 -0.28514,1.8e-5 -0.50546,0.112342 -0.66098,0.336971 -0.14689,0.216023 -0.22033,0.864043 -0.22033,1.944059 l 0,9.798058 c 0,1.218282 0.0475,1.969984 0.14257,2.255109 0.10367,0.285132 0.33696,0.427696 0.69986,0.427693 0.37152,3e-6 0.60913,-0.164162 0.71282,-0.492495 0.10368,-0.328326 0.15552,-1.110269 0.15553,-2.345831 l 0,-9.642534"
       style="font-variant:normal;font-weight:normal;font-stretch:normal;font-size:26.54288864px;font-family:Impact;-inkscape-font-specification:Impact;writing-mode:lr-tb;fill:#ffffff;fill-opacity:1;fill-rule:nonzero;stroke:none"
       id="path3031"
       inkscape:connector-curvature="0" />
    <path
       d="m 221.71277,77.519616 5.49521,0 c 1.48612,2.1e-5 2.62663,0.116664 3.42154,0.34993 0.80354,0.233308 1.40404,0.570278 1.8015,1.010911 0.40608,0.440673 0.67825,0.976368 0.8165,1.607089 0.14688,0.622116 0.22032,1.589825 0.22033,2.903128 l 0,1.827416 c -1e-5,1.339253 -0.13826,2.315602 -0.41473,2.929049 -0.2765,0.613469 -0.78628,1.084363 -1.52933,1.412683 -0.73443,0.328339 -1.69782,0.492504 -2.89017,0.492495 l -1.46452,0 0,8.450178 -5.45633,0 0,-20.982879 m 5.45633,3.590029 0,5.339683 c 0.15552,0.0087 0.28944,0.01297 0.40177,0.01296 0.50113,1.2e-5 0.84674,-0.120952 1.03683,-0.362891 0.19872,-0.250555 0.29808,-0.76465 0.29809,-1.542287 l 0,-1.723733 c -1e-5,-0.717125 -0.11233,-1.183699 -0.33697,-1.399722 -0.22465,-0.215989 -0.69123,-0.323993 -1.39972,-0.32401"
       style="font-variant:normal;font-weight:normal;font-stretch:normal;font-size:26.54288864px;font-family:Impact;-inkscape-font-specification:Impact;writing-mode:lr-tb;fill:#ffffff;fill-opacity:1;fill-rule:nonzero;stroke:none"
       id="path3033"
       inkscape:connector-curvature="0" />
    <path
       d="m 235.0373,77.519616 9.09819,0 0,4.199167 -3.64187,0 0,3.978842 3.40859,0 0,3.991801 -3.40859,0 0,4.613901 4.00477,0 0,4.199168 -9.46109,0 0,-20.982879"
       style="font-variant:normal;font-weight:normal;font-stretch:normal;font-size:26.54288864px;font-family:Impact;-inkscape-font-specification:Impact;writing-mode:lr-tb;fill:#ffffff;fill-opacity:1;fill-rule:nonzero;stroke:none"
       id="path3035"
       inkscape:connector-curvature="0" />
    <path
       d="m 258.2486,77.519616 0,20.982879 -4.78238,0 -2.83833,-9.538851 0,9.538851 -4.56206,0 0,-20.982879 4.56206,0 3.05865,9.448127 0,-9.448127 4.56206,0"
       style="font-variant:normal;font-weight:normal;font-stretch:normal;font-size:26.54288864px;font-family:Impact;-inkscape-font-specification:Impact;writing-mode:lr-tb;fill:#ffffff;fill-opacity:1;fill-rule:nonzero;stroke:none"
       id="path3037"
       inkscape:connector-curvature="0" />
    <path
       d="m 285.63964,77.519616 -2.4236,20.982879 -6.81716,0 c -0.62212,-3.222815 -1.17077,-6.886283 -1.64598,-10.990415 -0.21601,1.753983 -0.72147,5.417451 -1.51636,10.990415 l -6.77829,0 -2.43655,-20.982879 5.3008,0 0.5573,7.322623 0.57025,7.063415 c 0.19872,-3.654821 0.69986,-8.450163 1.50341,-14.386038 l 5.67665,0 c 0.0777,0.613479 0.27648,2.920427 0.59618,6.92085 l 0.59618,7.970643 c 0.30239,-5.071823 0.80785,-10.035649 1.51637,-14.891493 l 5.3008,0"
       style="font-variant:normal;font-weight:normal;font-stretch:normal;font-size:26.54288864px;font-family:Impact;-inkscape-font-specification:Impact;writing-mode:lr-tb;fill:#ffffff;fill-opacity:1;fill-rule:nonzero;stroke:none"
       id="path3039"
       inkscape:connector-curvature="0" />
    <path
       d="m 299.18417,89.80607 c -2e-5,2.108231 -0.0519,3.602995 -0.15553,4.484296 -0.0951,0.87267 -0.4061,1.671894 -0.93315,2.397674 -0.51842,0.725783 -1.2226,1.283079 -2.11254,1.67189 -0.88996,0.388812 -1.92679,0.583218 -3.1105,0.583218 -1.12324,0 -2.13415,-0.181446 -3.03273,-0.544336 -0.88995,-0.371531 -1.60709,-0.924507 -2.15142,-1.658931 -0.54434,-0.73442 -0.86835,-1.533643 -0.97203,-2.397673 -0.10369,-0.864021 -0.15553,-2.376066 -0.15553,-4.536138 l 0,-3.59003 c 0,-2.108209 0.0475,-3.598653 0.14257,-4.471336 0.10368,-0.881289 0.41473,-1.684833 0.93315,-2.410633 0.52705,-0.725762 1.23555,-1.283059 2.1255,-1.671891 0.88994,-0.388791 1.92677,-0.583196 3.11049,-0.583218 1.12323,2.2e-5 2.12982,0.185787 3.01978,0.557297 0.89857,0.362912 1.62003,0.911568 2.16438,1.64597 0.54433,0.734441 0.86834,1.533665 0.97203,2.397673 0.10367,0.864043 0.15551,2.376087 0.15553,4.536138 l 0,3.59003 m -5.45633,-6.89493 c -1e-5,-0.976333 -0.0562,-1.598432 -0.16848,-1.866297 -0.1037,-0.276471 -0.32402,-0.414715 -0.66098,-0.414733 -0.28514,1.8e-5 -0.50547,0.112342 -0.66098,0.336971 -0.1469,0.216023 -0.22034,0.864043 -0.22033,1.944059 l 0,9.798058 c -10e-6,1.218282 0.0475,1.969984 0.14256,2.255109 0.10368,0.285132 0.33697,0.427696 0.69986,0.427693 0.37153,3e-6 0.60914,-0.164162 0.71283,-0.492495 0.10367,-0.328326 0.15551,-1.110269 0.15552,-2.345831 l 0,-9.642534"
       style="font-variant:normal;font-weight:normal;font-stretch:normal;font-size:26.54288864px;font-family:Impact;-inkscape-font-specification:Impact;writing-mode:lr-tb;fill:#ffffff;fill-opacity:1;fill-rule:nonzero;stroke:none"
       id="path3041"
       inkscape:connector-curvature="0" />
    <path
       d="m 301.20873,77.519616 3.8622,0 c 2.57479,2.1e-5 4.3158,0.09938 5.22304,0.298089 0.91585,0.198746 1.65891,0.708521 2.22918,1.529326 0.57889,0.812203 0.86834,2.112562 0.86835,3.901079 -1e-5,1.633023 -0.20306,2.730336 -0.60914,3.29194 -0.4061,0.561629 -1.20533,0.898599 -2.39767,1.010911 1.08002,0.267859 1.8058,0.62643 2.17735,1.075713 0.37151,0.449303 0.60048,0.864035 0.6869,1.244198 0.095,0.371539 0.14255,1.40405 0.14256,3.097534 l 0,5.534089 -5.06751,0 0,-6.972693 c -10e-6,-1.123226 -0.0907,-1.818766 -0.27217,-2.086623 -0.17282,-0.267839 -0.63507,-0.401763 -1.38676,-0.401772 l 0,9.461088 -5.45633,0 0,-20.982879 m 5.45633,3.590029 0,4.665742 c 0.61345,1.3e-5 1.04114,-0.08207 1.28307,-0.246247 0.25056,-0.172793 0.37585,-0.721449 0.37586,-1.645971 l 0,-1.153475 c -10e-6,-0.665284 -0.12098,-1.101616 -0.36289,-1.309 -0.2333,-0.207349 -0.66531,-0.311032 -1.29604,-0.311049"
       style="font-variant:normal;font-weight:normal;font-stretch:normal;font-size:26.54288864px;font-family:Impact;-inkscape-font-specification:Impact;writing-mode:lr-tb;fill:#ffffff;fill-opacity:1;fill-rule:nonzero;stroke:none"
       id="path3043"
       inkscape:connector-curvature="0" />
    <path
       d="m 328.51462,77.519616 -3.12346,9.474048 3.42154,11.508831 -5.63777,0 -2.20326,-8.994514 0,8.994514 -5.45633,0 0,-20.982879 5.45633,0 0,8.152088 2.42359,-8.152088 5.11936,0"
       style="font-variant:normal;font-weight:normal;font-stretch:normal;font-size:26.54288864px;font-family:Impact;-inkscape-font-specification:Impact;writing-mode:lr-tb;fill:#ffffff;fill-opacity:1;fill-rule:nonzero;stroke:none"
       id="path3045"
       inkscape:connector-curvature="0" />
    <path
       d="m 340.91808,83.870209 -5.06751,0 0,-1.555247 c -1e-5,-0.725766 -0.0648,-1.188019 -0.19441,-1.386763 -0.12961,-0.198708 -0.34561,-0.298071 -0.64802,-0.298089 -0.32833,1.8e-5 -0.5789,0.133942 -0.7517,0.401773 -0.16417,0.267865 -0.24625,0.673957 -0.24625,1.218277 0,0.699877 0.095,1.226932 0.28513,1.581168 0.18144,0.354265 0.69554,0.781958 1.54229,1.283079 2.4279,1.442936 3.95723,2.626651 4.58798,3.551148 0.63072,0.924517 0.94609,2.414961 0.94611,4.471336 -2e-5,1.49477 -0.17714,2.596402 -0.53138,3.304901 -0.34562,0.708503 -1.01956,1.304681 -2.02182,1.788535 -1.00228,0.475214 -2.16872,0.712821 -3.49931,0.712821 -1.46021,0 -2.70872,-0.276488 -3.74555,-0.829465 -1.0282,-0.552976 -1.70213,-1.257157 -2.02182,-2.112544 -0.31969,-0.855383 -0.47954,-2.069339 -0.47954,-3.641871 l 0,-1.373802 5.06752,0 0,2.553198 c -10e-6,0.786268 0.0691,1.291723 0.20736,1.516366 0.14688,0.22465 0.40177,0.336973 0.76467,0.33697 0.36288,3e-6 0.63073,-0.142561 0.80354,-0.427693 0.18144,-0.285125 0.27216,-0.708497 0.27217,-1.270119 -1e-5,-1.235551 -0.16849,-2.043415 -0.50546,-2.423594 -0.34561,-0.380163 -1.19668,-1.015222 -2.55319,-1.905178 -1.35653,-0.898577 -2.25512,-1.550916 -2.69577,-1.957019 -0.44065,-0.406081 -0.80786,-0.967698 -1.10163,-1.684852 -0.28513,-0.717128 -0.42769,-1.632995 -0.42769,-2.747603 0,-1.607072 0.20304,-2.782147 0.60914,-3.525228 0.41473,-0.743042 1.08003,-1.32194 1.9959,-1.736693 0.91586,-0.423351 2.02181,-0.635037 3.31786,-0.635059 1.41699,2.2e-5 2.62231,0.228988 3.61595,0.686901 1.00226,0.457954 1.66324,1.036851 1.98294,1.736693 0.32832,0.691239 0.49248,1.870634 0.49249,3.538188 l 0,0.829465"
       style="font-variant:normal;font-weight:normal;font-stretch:normal;font-size:26.54288864px;font-family:Impact;-inkscape-font-specification:Impact;writing-mode:lr-tb;fill:#ffffff;fill-opacity:1;fill-rule:nonzero;stroke:none"
       id="path3047"
       inkscape:connector-curvature="0" />
    <path
       d="m 355.62579,77.519616 0,20.982879 -5.45633,0 0,-8.813069 -1.63301,0 0,8.813069 -5.45632,0 0,-20.982879 5.45632,0 0,7.504068 1.63301,0 0,-7.504068 5.45633,0"
       style="font-variant:normal;font-weight:normal;font-stretch:normal;font-size:26.54288864px;font-family:Impact;-inkscape-font-specification:Impact;writing-mode:lr-tb;fill:#ffffff;fill-opacity:1;fill-rule:nonzero;stroke:none"
       id="path3049"
       inkscape:connector-curvature="0" />
    <path
       d="m 370.27932,89.80607 c -10e-6,2.108231 -0.0519,3.602995 -0.15552,4.484296 -0.0951,0.87267 -0.40611,1.671894 -0.93315,2.397674 -0.51843,0.725783 -1.22261,1.283079 -2.11255,1.67189 -0.88995,0.388812 -1.92678,0.583218 -3.11049,0.583218 -1.12324,0 -2.13415,-0.181446 -3.03273,-0.544336 -0.88995,-0.371531 -1.6071,-0.924507 -2.15143,-1.658931 -0.54434,-0.73442 -0.86835,-1.533643 -0.97203,-2.397673 -0.10368,-0.864021 -0.15552,-2.376066 -0.15552,-4.536138 l 0,-3.59003 c 0,-2.108209 0.0475,-3.598653 0.14256,-4.471336 0.10368,-0.881289 0.41473,-1.684833 0.93315,-2.410633 0.52705,-0.725762 1.23555,-1.283059 2.1255,-1.671891 0.88995,-0.388791 1.92678,-0.583196 3.1105,-0.583218 1.12322,2.2e-5 2.12981,0.185787 3.01977,0.557297 0.89858,0.362912 1.62004,0.911568 2.16439,1.64597 0.54432,0.734441 0.86833,1.533665 0.97203,2.397673 0.10367,0.864043 0.15551,2.376087 0.15552,4.536138 l 0,3.59003 m -5.45633,-6.89493 c 0,-0.976333 -0.0562,-1.598432 -0.16848,-1.866297 -0.10369,-0.276471 -0.32402,-0.414715 -0.66098,-0.414733 -0.28514,1.8e-5 -0.50546,0.112342 -0.66098,0.336971 -0.14689,0.216023 -0.22033,0.864043 -0.22033,1.944059 l 0,9.798058 c 0,1.218282 0.0475,1.969984 0.14257,2.255109 0.10367,0.285132 0.33696,0.427696 0.69986,0.427693 0.37152,3e-6 0.60913,-0.164162 0.71282,-0.492495 0.10367,-0.328326 0.15552,-1.110269 0.15552,-2.345831 l 0,-9.642534"
       style="font-variant:normal;font-weight:normal;font-stretch:normal;font-size:26.54288864px;font-family:Impact;-inkscape-font-specification:Impact;writing-mode:lr-tb;fill:#ffffff;fill-opacity:1;fill-rule:nonzero;stroke:none"
       id="path3051"
       inkscape:connector-curvature="0" />
    <path
       d="m 372.30385,77.519616 5.49521,0 c 1.48612,2.1e-5 2.62663,0.116664 3.42154,0.34993 0.80354,0.233308 1.40404,0.570278 1.8015,1.010911 0.40608,0.440673 0.67825,0.976368 0.8165,1.607089 0.14688,0.622116 0.22032,1.589825 0.22033,2.903128 l 0,1.827416 c -10e-6,1.339253 -0.13826,2.315602 -0.41473,2.929049 -0.2765,0.613469 -0.78628,1.084363 -1.52933,1.412683 -0.73443,0.328339 -1.69782,0.492504 -2.89017,0.492495 l -1.46452,0 0,8.450178 -5.45633,0 0,-20.982879 m 5.45633,3.590029 0,5.339683 c 0.15552,0.0087 0.28944,0.01297 0.40177,0.01296 0.50113,1.2e-5 0.84674,-0.120952 1.03683,-0.362891 0.19872,-0.250555 0.29808,-0.76465 0.29809,-1.542287 l 0,-1.723733 c -10e-6,-0.717125 -0.11233,-1.183699 -0.33697,-1.399722 -0.22465,-0.215989 -0.69123,-0.323993 -1.39972,-0.32401"
       style="font-variant:normal;font-weight:normal;font-stretch:normal;font-size:26.54288864px;font-family:Impact;-inkscape-font-specification:Impact;writing-mode:lr-tb;fill:#ffffff;fill-opacity:1;fill-rule:nonzero;stroke:none"
       id="path3053"
       inkscape:connector-curvature="0" />
  </g>
</svg>
