<?xml version="1.0" encoding="UTF-8" standalone="no" ?>
<!DOCTYPE svg PUBLIC "-//W3C//DTD SVG 1.1//EN"
    "http://www.w3.org/Graphics/SVG/1.1/DTD/svg11.dtd">
<svg
    viewBox="0 0 1024 1024"
    version="1.1"
    xmlns="http://www.w3.org/2000/svg"
    xmlns:xlink="http://www.w3.org/1999/xlink"
    xml:space="preserve"
    xmlns:serif="http://www.serif.com/"
    style="fill-rule:evenodd;clip-rule:evenodd;stroke-linecap:round;stroke-linejoin:round;stroke-miterlimit:1.5;"
>
    <g transform="matrix(1.25503,0,0,1.25503,-125.28,-61.92)">
        <clipPath id="_clip1">
            <path
                d="M198.547,610.855L274.502,610.855L274.502,588.756L793.614,589.19L783.776,163.767L291.21,163.169L174.059,401.575L198.547,610.855Z"
            />
        </clipPath>
        <g clip-path="url(#_clip1)">
            <g transform="matrix(0.986287,0,0,0.95732,7.69729,16.3795)">
                <path
                    d="M561.3,339.658L561.3,369.069C561.3,377.185 554.904,383.774 547.026,383.774L271.914,383.774C264.036,383.774 257.64,377.185 257.64,369.069L257.64,339.658C257.64,331.541 264.036,324.952 271.914,324.952L547.026,324.952C554.904,324.952 561.3,331.541 561.3,339.658Z"
                    style="fill:rgb(83,144,188);stroke:rgb(13,61,90);stroke-width:13.11px;"
                />
            </g>
            <path
                d="M521.675,503.256C522.623,503.301 569.618,552.854 614.507,532.888L634.911,561.785C633.907,559.039 603.181,602.029 522.553,557.423L521.675,503.256Z"
                style="fill:rgb(83,144,188);stroke:rgb(13,61,90);stroke-width:12.74px;"
            />
            <path
                d="M454.624,429.509L454.624,477.407C454.624,490.114 444.308,500.43 431.601,500.43L385.556,500.43C372.85,500.43 362.534,490.114 362.534,477.407L362.534,429.509C362.534,416.803 372.85,406.487 385.556,406.487L431.601,406.487C444.308,406.487 454.624,416.803 454.624,429.509Z"
                style="fill:rgb(83,144,188);stroke:rgb(13,61,90);stroke-width:12.74px;"
            />
            <g transform="matrix(1.03469,0,0,1.32081,-18.7793,-149.441)">
                <path
                    d="M541.405,505.655L541.405,583.683C541.405,605.215 519.089,622.697 491.602,622.697L352.457,622.697C324.97,622.697 302.654,605.215 302.654,583.683L302.654,505.655C302.654,484.122 324.97,466.641 352.457,466.641L491.602,466.641C519.089,466.641 541.405,484.122 541.405,505.655Z"
                    style="fill:rgb(83,144,188);stroke:rgb(13,61,90);stroke-width:10.74px;"
                />
            </g>
            <circle
                cx="306.16"
                cy="499.896"
                r="32.991"
                style="fill:rgb(83,144,188);stroke:rgb(13,61,90);stroke-width:12.74px;"
            />
            <path
                d="M273.169,503.306C272.714,501.889 219.613,530.477 219.532,620.314L262.354,620.314C262.354,620.314 250.317,574.855 294.372,532.888L278.698,518.175L273.169,503.306Z"
                style="fill:rgb(182,211,230);stroke:rgb(13,61,90);stroke-width:12.74px;"
            />
            <circle
                cx="411.838"
                cy="194.906"
                r="21.311"
                style="fill:rgb(182,211,230);stroke:rgb(13,61,90);stroke-width:12.74px;"
            />
            <path
                d="M411.838,216.217L411.838,263.402"
                style="fill:none;stroke:rgb(13,61,90);stroke-width:12.74px;"
            />
            <g transform="matrix(1.09977,0,0,1.00937,-34.8068,-7.81792)">
                <path
                    d="M512,311.264L512,396.384C512,419.874 494.497,438.945 472.938,438.945L338.378,438.945C316.819,438.945 299.316,419.874 299.316,396.384L299.316,311.264C299.316,287.774 316.819,268.703 338.378,268.703L472.938,268.703C494.497,268.703 512,287.774 512,311.264Z"
                    style="fill:rgb(182,211,230);stroke:rgb(13,61,90);stroke-width:12.07px;"
                />
            </g>
            <g transform="matrix(1,0,0,1,2.52639,6.2711)">
                <circle
                    cx="362.457"
                    cy="339.268"
                    r="26.099"
                    style="fill:white;stroke:rgb(13,61,90);stroke-width:12.74px;"
                />
            </g>
            <g transform="matrix(1,0,0,1,100.865,6.2711)">
                <circle
                    cx="362.457"
                    cy="339.268"
                    r="26.099"
                    style="fill:white;stroke:rgb(13,61,90);stroke-width:12.74px;"
                />
            </g>
        </g>
    </g>
    <g transform="matrix(1.25503,0,0,1.25503,-125.28,-61.92)">
        <g transform="matrix(1,0,0,1,-4.16891,10.5077)">
            <circle
                cx="692.739"
                cy="489.389"
                r="95.206"
                style="fill:rgb(243,243,243);stroke:rgb(13,61,90);stroke-width:12.74px;"
            />
        </g>
        <path
            d="M594.127,512L634.911,520.362L659.42,561.785L639.021,581.191L610.983,555.057L594.127,512Z"
            style="fill:rgb(61,155,165);"
        />
        <path
            d="M711.868,565.244L734.714,528.361L779.151,529.272L769.075,550.714L756.17,566.911L728.387,586.389L711.868,565.244Z"
            style="fill:rgb(61,155,165);"
        />
        <path
            d="M660.38,490.248L714.293,492.909L733.434,453.867L688.57,426.466L652.614,445.714L660.38,490.248Z"
            style="fill:rgb(61,155,165);"
        />
        <path
            d="M610.152,445.921L649.288,447.494L660.38,490.248L634.911,520.362L659.42,561.785L711.868,565.244L734.714,528.361L714.293,492.909L733.434,453.867L688.57,426.466L649.288,447.494L660.38,490.248L714.293,492.909L733.434,453.867L768.447,448.099L733.434,453.867L688.57,426.466L688.57,404.69L688.57,426.466L649.288,447.494L660.38,490.248L634.911,520.362L594.127,512L634.911,520.362L659.42,561.785L639.021,581.191L659.42,561.785L711.868,565.244L728.387,586.389L711.868,565.244L734.714,528.361L779.151,529.272L766.445,529.011L783.776,499.896"
            style="fill:none;stroke:rgb(13,61,90);stroke-width:12.74px;"
        />
        <g transform="matrix(1,0,0,1,-4.16891,10.5077)">
            <circle
                cx="692.739"
                cy="489.389"
                r="95.206"
                style="fill:none;stroke:rgb(13,61,90);stroke-width:12.74px;"
            />
        </g>
    </g>
    <g transform="matrix(1.25503,0,0,1.25503,-125.28,-61.92)">
        <clipPath id="_clip2">
            <path
                d="M512,256.818L511.142,190.89L837.728,184.796L841.501,447.875L786.585,447.875C767.928,412.823 731.016,388.938 688.57,388.938C646.124,388.938 609.212,412.823 590.555,447.875L512,447.875L512,433.379C528.165,428.44 540.28,414.186 542.075,396.885L548.987,396.885C564.593,396.885 577.263,384.215 577.263,368.609L577.263,338.331C577.263,322.725 564.593,310.055 548.987,310.055L542.305,310.055L542.305,297.775C542.305,278.495 529.535,262.175 512,256.818Z"
            />
        </clipPath>
        <g clip-path="url(#_clip2)">
            <g>
                <path
                    d="M635.394,416.183L597.979,386.001"
                    style="fill:none;stroke:rgb(227,6,19);stroke-width:11.95px;stroke-linecap:butt;stroke-linejoin:miter;"
                />
                <path
                    d="M602.405,367.899L705.318,339.143"
                    style="fill:none;stroke:rgb(227,6,19);stroke-width:11.95px;stroke-linecap:butt;stroke-linejoin:miter;"
                />
                <path
                    d="M730.995,353.521L752.479,428.415"
                    style="fill:none;stroke:rgb(227,6,19);stroke-width:11.95px;stroke-linecap:butt;stroke-linejoin:miter;"
                />
                <path
                    d="M714.018,317.091L657.336,234.101"
                    style="fill:none;stroke:rgb(227,6,19);stroke-width:11.95px;stroke-linecap:butt;stroke-linejoin:miter;"
                />
                <path
                    d="M629.104,228.106L518.718,296.258"
                    style="fill:none;stroke:rgb(227,6,19);stroke-width:11.95px;stroke-linecap:butt;stroke-linejoin:miter;"
                />
            </g>
            <g transform="matrix(1,0,0,1,-2.55728,-0.996389)">
                <circle
                    cx="648.64"
                    cy="218.621"
                    r="19.954"
                    style="fill:none;stroke:rgb(227,6,19);stroke-width:11.95px;"
                />
            </g>
            <g transform="matrix(1,0,0,1,76.6314,114.946)">
                <circle
                    cx="648.64"
                    cy="218.621"
                    r="19.954"
                    style="fill:none;stroke:rgb(227,6,19);stroke-width:11.95px;"
                />
            </g>
            <g transform="matrix(1,0,0,1,-66.1883,154.853)">
                <circle
                    cx="648.64"
                    cy="218.621"
                    r="19.954"
                    style="fill:none;stroke:rgb(227,6,19);stroke-width:11.95px;"
                />
            </g>
        </g>
    </g>
    <g id="g4480" transform="matrix(2.72137,0,0,-2.7223,240.198,877.92)">
        <g id="g4472">
            <g id="g4474">
                <g id="g44801" serif:id="g4480">
                    <path
                        id="path4482"
                        d="M0,0L14.288,0L14.288,24.817C16.284,24.817 17.517,24.465 17.987,23.763C18.457,23.06 18.693,21.235 18.693,18.289L18.693,0L31.961,0L31.961,14.51C31.961,18.95 31.842,21.663 31.604,22.649C31.366,23.634 30.76,24.715 29.785,25.894C28.811,27.072 26.907,28.012 24.075,28.714C27.202,29.009 29.298,29.894 30.363,31.369C31.428,32.844 31.961,35.726 31.961,40.015C31.961,44.712 31.207,48.132 29.7,50.276C28.192,52.421 26.243,53.754 23.851,54.276C21.459,54.798 16.887,55.059 10.132,55.059L0,55.059L0,0ZM17.746,44.838C18.378,44.291 18.693,43.141 18.693,41.387L18.693,38.346C18.693,35.909 18.366,34.468 17.712,34.024C17.058,33.579 15.917,33.358 14.288,33.358L14.288,45.658C15.963,45.658 17.115,45.385 17.746,44.838M67.502,36.41C67.06,37.974 66.238,39.492 65.037,40.965C63.836,42.437 62.13,43.632 59.921,44.551C57.712,45.468 55.066,45.927 51.984,45.927C48.313,45.927 45.299,45.213 42.942,43.786C40.585,42.358 38.954,40.466 38.047,38.11C37.141,35.753 36.687,32.479 36.687,28.287L36.687,16.732C36.687,12.903 36.937,10.031 37.435,8.116C37.934,6.201 38.766,4.569 39.934,3.221C41.101,1.873 42.738,0.865 44.846,0.196C46.953,-0.471 49.526,-0.806 52.562,-0.806C55.282,-0.806 57.689,-0.415 59.785,0.367C61.882,1.148 63.598,2.36 64.935,4.004C66.272,5.646 67.145,7.414 67.553,9.305C67.961,11.197 68.165,14.171 68.165,18.227L68.165,29.273C68.165,32.468 67.943,34.846 67.502,36.41M54.414,11.883C54.414,9.936 54.284,8.668 54.026,8.08C53.767,7.492 53.234,7.198 52.426,7.198C51.64,7.198 51.112,7.52 50.842,8.166C50.573,8.81 50.439,10.197 50.439,12.324L50.439,32.661C50.439,34.969 50.573,36.424 50.842,37.024C51.112,37.623 51.651,37.923 52.46,37.923C53.268,37.923 53.796,37.623 54.043,37.024C54.289,36.424 54.414,34.969 54.414,32.661L54.414,11.883ZM91.722,55.059L91.722,35.399L87.371,35.399L87.371,55.059L73.083,55.059L73.083,0L87.371,0L87.371,23.152L91.722,23.152L91.722,0L106.011,0L106.011,55.059L91.722,55.059ZM144.445,32.213C144.445,37.88 144.309,41.847 144.037,44.114C143.765,46.381 142.916,48.479 141.49,50.406C140.063,52.333 138.177,53.778 135.833,54.741C133.488,55.705 130.845,56.187 127.9,56.187C124.797,56.187 122.08,55.676 119.747,54.656C117.414,53.635 115.562,52.173 114.193,50.27C112.822,48.365 112.006,46.263 111.746,43.961C111.486,41.66 111.356,37.744 111.356,32.213L111.356,22.792C111.356,17.124 111.491,13.157 111.763,10.89C112.035,8.623 112.884,6.526 114.311,4.599C115.738,2.672 117.623,1.227 119.967,0.264C122.311,-0.7 124.956,-1.182 127.9,-1.182C131.002,-1.182 133.72,-0.671 136.053,0.348C138.386,1.369 140.237,2.831 141.608,4.735C142.978,6.639 143.793,8.741 144.054,11.043C144.314,13.344 144.445,17.26 144.445,22.792L144.445,32.213ZM130.156,15.568C130.156,12.322 130.02,10.267 129.746,9.404C129.472,8.542 128.846,8.111 127.866,8.111C126.909,8.111 126.299,8.485 126.037,9.235C125.775,9.984 125.644,11.958 125.644,15.16L125.644,40.901C125.644,43.738 125.843,45.446 126.242,46.025C126.64,46.604 127.216,46.894 127.968,46.894C128.857,46.894 129.444,46.536 129.729,45.821C130.014,45.106 130.156,43.466 130.156,40.901L130.156,15.568ZM189.733,55.059C187.906,42.302 186.59,29.259 185.785,15.93L184.133,36.878C183.277,47.368 182.766,53.429 182.6,55.059L167.764,55.059C165.667,39.469 164.351,26.874 163.816,17.273L162.351,35.833L160.834,55.059L146.922,55.059L153.333,0L171.082,0C173.149,14.62 174.487,24.251 175.096,28.892C176.35,18.087 177.79,8.457 179.417,0L197.268,0L203.646,55.059L189.733,55.059Z"
                        style="fill:rgb(227,6,19);fill-rule:nonzero;"
                    />
                </g>
            </g>
        </g>
    </g>
</svg>
