<?xml version="1.0" encoding="UTF-8" standalone="no"?>
<svg
   xmlns:dc="http://purl.org/dc/elements/1.1/"
   xmlns:cc="http://creativecommons.org/ns#"
   xmlns:rdf="http://www.w3.org/1999/02/22-rdf-syntax-ns#"
   xmlns:svg="http://www.w3.org/2000/svg"
   xmlns="http://www.w3.org/2000/svg"
   viewBox="0 0 623.75 815"
   height="815"
   width="623.75"
   xml:space="preserve"
   version="1.1"
   id="svg2"><metadata
     id="metadata8"><rdf:RDF><cc:Work
         rdf:about=""><dc:format>image/svg+xml</dc:format><dc:type
           rdf:resource="http://purl.org/dc/dcmitype/StillImage" /><dc:title></dc:title></cc:Work></rdf:RDF></metadata><defs
     id="defs6" /><g
     transform="matrix(1.25,0,0,-1.25,0,815)"
     id="g10"><g
       transform="scale(0.1,0.1)"
       id="g12"><path
         id="path14"
         style="fill:#333333;fill-opacity:1;fill-rule:nonzero;stroke:none"
         d="m 4233.63,4746.14 c 0,-964.77 -782.11,-1746.92 -1746.91,-1746.92 -964.81,0 -1746.919,782.15 -1746.919,1746.92 0,964.8 782.109,1746.91 1746.919,1746.91 964.8,0 1746.91,-782.11 1746.91,-1746.91" /><path
         id="path16"
         style="fill:none;stroke:#000000;stroke-width:40;stroke-linecap:butt;stroke-linejoin:miter;stroke-miterlimit:4;stroke-dasharray:none;stroke-opacity:1"
         d="m 4233.63,4746.14 c 0,-964.76 -782.11,-1746.91 -1746.91,-1746.91 -964.81,0 -1746.919,782.15 -1746.919,1746.91 0,964.81 782.109,1746.91 1746.919,1746.91 964.8,0 1746.91,-782.1 1746.91,-1746.91 z" /><path
         id="path18"
         style="fill:#333333;fill-opacity:1;fill-rule:nonzero;stroke:none"
         d="m 3894.92,5778.95 c 0,0 -243.4,654.8 -691.21,711.41 l -9.76,-145.51 c -80.28,-375.39 -1250.32,-364.26 -1421.37,-8.09 l -9.77,145.51 C 1315,6425.67 1071.6,5770.86 1071.6,5770.86" /><path
         id="path20"
         style="fill:none;stroke:#000000;stroke-width:40;stroke-linecap:butt;stroke-linejoin:miter;stroke-miterlimit:4;stroke-dasharray:none;stroke-opacity:1"
         d="m 3894.92,5778.95 c 0,0 -243.4,654.8 -691.21,711.41 l -9.76,-145.51 c -80.28,-375.39 -1250.32,-364.26 -1421.37,-8.08 l -9.77,145.5 C 1315,6425.66 1071.6,5770.87 1071.6,5770.87" /><path
         id="path22"
         style="fill:#00ffff;fill-opacity:1;fill-rule:nonzero;stroke:none"
         d="m 2208.63,4687.86 c 0,-393.87 -293.86,-713.21 -656.36,-713.21 -362.47,0 -656.329,319.34 -656.329,713.21 0,393.9 293.859,713.2 656.329,713.2 362.5,0 656.36,-319.3 656.36,-713.2" /><g
         transform="scale(1.05994,-0.940058)"
         id="g24"><path
           id="path26"
           style="fill:none;stroke:#000000;stroke-width:40.07210159;stroke-linecap:butt;stroke-linejoin:miter;stroke-miterlimit:4;stroke-dasharray:none;stroke-opacity:1"
           d="m 2083.73,-4986.77 c 0,418.98 -277.25,758.68 -619.25,758.68 -341.97,0 -619.206,-339.7 -619.206,-758.68 0,-419.03 277.236,-758.69 619.206,-758.69 342,0 619.25,339.66 619.25,758.69 z" /></g><path
         id="path28"
         style="fill:#000000;fill-opacity:1;fill-rule:nonzero;stroke:none"
         d="m 1885.7,4661.88 c 0,-180.9 -151.91,-327.54 -339.33,-327.54 -187.42,0 -339.34,146.64 -339.34,327.54 0,180.9 151.92,327.5 339.34,327.5 187.42,0 339.33,-146.6 339.33,-327.5" /><g
         transform="scale(1.06024,-0.939759)"
         id="g30"><path
           id="path32"
           style="fill:none;stroke:#000000;stroke-width:43.20869827;stroke-linecap:butt;stroke-linejoin:miter;stroke-miterlimit:4;stroke-dasharray:none;stroke-opacity:1"
           d="m 1778.56,-4960.72 c 0,192.49 -143.28,348.53 -320.05,348.53 -176.77,0 -320.06,-156.04 -320.06,-348.53 0,-192.5 143.29,-348.49 320.06,-348.49 176.77,0 320.05,155.99 320.05,348.49 z" /></g><path
         id="path34"
         style="fill:#000000;fill-opacity:1;fill-rule:nonzero;stroke:none"
         d="m 2641.37,4638.79 c 0,-82.5 -63.67,-149.37 -142.27,-149.37 -78.55,0 -142.22,66.87 -142.22,149.37 0,82.5 63.67,149.38 142.22,149.38 78.6,0 142.27,-66.88 142.27,-149.38" /><path
         id="path36"
         style="fill:none;stroke:#666666;stroke-width:43.20949936;stroke-linecap:butt;stroke-linejoin:miter;stroke-miterlimit:4;stroke-dasharray:none;stroke-opacity:1"
         d="m 2641.37,4638.8 c 0,-82.5 -63.67,-149.39 -142.27,-149.39 -78.55,0 -142.22,66.89 -142.22,149.39 0,82.5 63.67,149.36 142.22,149.36 78.6,0 142.27,-66.86 142.27,-149.36 z" /><path
         id="path38"
         style="fill:#00ffff;fill-opacity:1;fill-rule:nonzero;stroke:none"
         d="m 4072.66,4716.1 c 0,-393.91 -293.87,-713.21 -656.37,-713.21 -362.46,0 -656.33,319.3 -656.33,713.21 0,393.9 293.87,713.2 656.33,713.2 362.5,0 656.37,-319.3 656.37,-713.2" /><g
         transform="scale(1.05994,-0.940058)"
         id="g40"><path
           id="path42"
           style="fill:none;stroke:#000000;stroke-width:40.07210159;stroke-linecap:butt;stroke-linejoin:miter;stroke-miterlimit:4;stroke-dasharray:none;stroke-opacity:1"
           d="m 3842.34,-5016.81 c 0,419.02 -277.25,758.67 -619.25,758.67 -341.96,0 -619.21,-339.65 -619.21,-758.67 0,-419.03 277.25,-758.69 619.21,-758.69 342,0 619.25,339.66 619.25,758.69 z" /></g><path
         id="path44"
         style="fill:#000000;fill-opacity:1;fill-rule:nonzero;stroke:none"
         d="m 3749.73,4690.12 c 0,-180.9 -151.92,-327.54 -339.34,-327.54 -187.42,0 -339.34,146.64 -339.34,327.54 0,180.86 151.92,327.5 339.34,327.5 187.42,0 339.34,-146.64 339.34,-327.5" /><g
         transform="scale(1.06024,-0.939759)"
         id="g46"><path
           id="path48"
           style="fill:none;stroke:#000000;stroke-width:43.20869827;stroke-linecap:butt;stroke-linejoin:miter;stroke-miterlimit:4;stroke-dasharray:none;stroke-opacity:1"
           d="m 3536.68,-4990.77 c 0,192.49 -143.29,348.53 -320.06,348.53 -176.78,0 -320.06,-156.04 -320.06,-348.53 0,-192.46 143.28,-348.5 320.06,-348.5 176.77,0 320.06,156.04 320.06,348.5 z" /></g><path
         id="path50"
         style="fill:#00ff00;fill-opacity:1;fill-rule:nonzero;stroke:none"
         d="m 2176.84,5872.11 c 291.17,64.34 478.98,32.23 675.86,8.56 21.36,-56.06 18.43,-113.95 -2.47,-173.24 -84.41,-110.32 -207.61,-200.28 -353.75,-278.13 -125.5,73.36 -234.76,158.44 -319.64,261.06 -10.86,58.71 -25.24,116.79 0,181.75" /><path
         id="path52"
         style="fill:none;stroke:#000000;stroke-width:40;stroke-linecap:butt;stroke-linejoin:miter;stroke-miterlimit:4;stroke-dasharray:none;stroke-opacity:1"
         d="m 2176.84,5872.12 c 291.17,64.33 478.98,32.22 675.86,8.54 21.36,-56.04 18.43,-113.93 -2.47,-173.23 -84.41,-110.31 -207.61,-200.27 -353.75,-278.13 -125.5,73.36 -234.76,158.43 -319.64,261.06 -10.86,58.71 -25.24,116.8 0,181.76 z" /><path
         id="path54"
         style="fill:#999999;fill-opacity:1;fill-rule:nonzero;stroke:none"
         d="m 1241.09,542.738 c 0,0 -58.36,-455.8161 -32.97,-476.0583 25.36,-20.2695 380.4,-83.5899 783.6,-10.1484 0,0 32.97,224.7577 -34.26,474.4887" /><path
         id="path56"
         style="fill:none;stroke:#000000;stroke-width:24;stroke-linecap:butt;stroke-linejoin:miter;stroke-miterlimit:4;stroke-dasharray:none;stroke-opacity:1"
         d="m 1241.09,542.734 c 0,0 -58.36,-455.8199 -32.97,-476.0465 25.36,-20.2812 380.4,-83.6016 783.6,-10.1602 0,0 32.97,224.7697 -34.26,474.4887 l -716.37,11.718 z" /><path
         id="path58"
         style="fill:#1a1a1a;fill-opacity:1;fill-rule:nonzero;stroke:none"
         d="m 1511.8,948.828 c 0,0 -7.89,-78.59 2.61,-165.078 10.47,-86.48 348.48,-104.801 416.61,7.859 l -2.62,159.84" /><path
         id="path60"
         style="fill:none;stroke:#000000;stroke-width:24;stroke-linecap:butt;stroke-linejoin:miter;stroke-miterlimit:4;stroke-dasharray:none;stroke-opacity:1"
         d="m 1511.8,948.836 c 0,0 -7.89,-78.602 2.61,-165.078 10.47,-86.492 348.48,-104.813 416.61,7.847 l -2.62,159.84" /><path
         id="path62"
         style="fill:#333333;fill-opacity:1;fill-rule:nonzero;stroke:none"
         d="M 1378.16,1918.28 1341.48,650.121 c 0,0 31.45,-172.93 115.28,-251.519 l 10.47,550.226 508.32,5.242 5.23,-482.109 c 0,0 99.57,-26.211 120.55,377.301 l 10.47,1063.788 c -224.89,-26.41 -454.26,-43.28 -733.64,5.23" /><path
         id="path64"
         style="fill:none;stroke:#000000;stroke-width:24;stroke-linecap:butt;stroke-linejoin:miter;stroke-miterlimit:4;stroke-dasharray:none;stroke-opacity:1"
         d="M 1378.16,1918.29 1341.48,650.125 c 0,0 31.45,-172.93 115.28,-251.531 l 10.47,550.242 508.32,5.23 5.23,-482.109 c 0,0 99.57,-26.211 120.55,377.309 l 10.47,1063.784 c -224.89,-26.41 -454.26,-43.28 -733.64,5.24 z" /><path
         id="path66"
         style="fill:#000000;fill-opacity:1;fill-rule:nonzero;stroke:none"
         d="m 1346.72,804.73 62.89,-60.269 10.47,57.648 -68.13,44.532" /><path
         id="path68"
         style="fill:#000000;fill-opacity:1;fill-rule:nonzero;stroke:none"
         d="m 1375.55,1506.92 68.12,-10.47 -2.62,-52.42 -73.39,13.12" /><path
         id="path70"
         style="fill:#000000;fill-opacity:1;fill-rule:nonzero;stroke:none"
         d="m 2098.71,1499.07 -68.12,-10.47 2.61,-52.42 73.36,13.08" /><path
         id="path72"
         style="fill:#000000;fill-opacity:1;fill-rule:nonzero;stroke:none"
         d="m 2103.95,812.578 -62.9,-60.269 -10.46,57.652 68.12,44.539" /><path
         id="path74"
         style="fill:none;stroke:#000000;stroke-width:24;stroke-linecap:butt;stroke-linejoin:miter;stroke-miterlimit:4;stroke-dasharray:none;stroke-opacity:1"
         d="m 1209.77,168.246 c 0,0 476.52,-71.289 789.37,15.469" /><path
         id="path76"
         style="fill:#999999;fill-opacity:1;fill-rule:nonzero;stroke:none"
         d="m 1558.95,299.031 2.61,112.649 -60.27,-5.231 13.12,317.031 406.14,0 2.61,-298.671 -49.8,-10.508 0,-107.422" /><path
         id="path78"
         style="fill:none;stroke:#000000;stroke-width:24;stroke-linecap:butt;stroke-linejoin:miter;stroke-miterlimit:4;stroke-dasharray:none;stroke-opacity:1"
         d="m 1558.95,299.027 2.61,112.661 -60.27,-5.243 13.12,317.032 406.14,0 2.61,-298.672 -49.8,-10.5 0,-107.43" /><path
         id="path80"
         style="fill:#fff6d5;fill-opacity:1;fill-rule:nonzero;stroke:none"
         d="m 1661.13,812.578 131.02,0 0,128.402 -131.02,0 0,-128.402 z" /><path
         id="path82"
         style="fill:none;stroke:#000000;stroke-width:24;stroke-linecap:butt;stroke-linejoin:miter;stroke-miterlimit:4;stroke-dasharray:none;stroke-opacity:1"
         d="m 1661.13,812.574 131.02,0 0,128.402 -131.02,0 0,-128.402 z" /><path
         id="path84"
         style="fill:#1a1a1a;fill-opacity:1;fill-rule:nonzero;stroke:none"
         d="m 1547.23,2691.41 c -11.06,-91.64 -25.12,-105.9 -21.41,-224.65 l 35.31,-0.78 c -3.75,-25.9 7.23,-76.99 25.08,-63.24 0,0 40.78,23.44 36.17,62.34 l 251.02,-0.27 c 1.33,-35 9.69,-51.13 25,-66.72 19.18,14.92 28.63,33.32 30.58,63.01 l 28.72,0.93 -6.49,215.83" /><path
         id="path86"
         style="fill:none;stroke:#000000;stroke-width:24;stroke-linecap:butt;stroke-linejoin:miter;stroke-miterlimit:4;stroke-dasharray:none;stroke-opacity:1"
         d="m 1547.23,2691.41 c -11.06,-91.64 -25.12,-105.89 -21.41,-224.64 l 35.31,-0.79 c -3.75,-25.89 7.23,-77 25.08,-63.25 0,0 40.78,23.45 36.17,62.36 l 251.02,-0.29 c 1.33,-35 9.69,-51.12 25,-66.71 19.18,14.93 28.63,33.32 30.58,63 l 28.72,0.95 -6.49,215.82" /><path
         id="path88"
         style="fill:#4d4d4d;fill-opacity:1;fill-rule:nonzero;stroke:none"
         d="m 1616.8,3217.93 277.89,-7.38 0,-218.63 55.58,-7.42 3.71,-303.83 -403.9,7.38 -7.38,314.96 74.1,0" /><path
         id="path90"
         style="fill:none;stroke:#000000;stroke-width:24;stroke-linecap:butt;stroke-linejoin:miter;stroke-miterlimit:4;stroke-dasharray:none;stroke-opacity:1"
         d="m 1616.8,3217.94 277.89,-7.39 0,-218.64 55.58,-7.41 3.71,-303.84 -403.9,7.39 -7.38,314.97 74.1,0 0,214.92 z" /><path
         id="path92"
         style="fill:#333333;fill-opacity:1;fill-rule:nonzero;stroke:none"
         d="m 1446.33,3060.47 c 39.72,92.7 41.79,-605.35 24.1,-679.96 -7.7,-32.46 516.91,-11.13 516.91,-11.13 9.26,241.76 -2.22,528.32 33.36,713.32 64.03,-162.7 46.6,-811.25 31.49,-1163.52 0,0 -347.89,-55.39 -650.31,11.1 -26.8,5.9 32.73,1146.09 44.45,1130.19" /><path
         id="path94"
         style="fill:none;stroke:#000000;stroke-width:24;stroke-linecap:butt;stroke-linejoin:miter;stroke-miterlimit:4;stroke-dasharray:none;stroke-opacity:1"
         d="m 1446.33,3060.48 c 39.72,92.68 41.79,-605.35 24.1,-679.96 -7.7,-32.47 516.91,-11.14 516.91,-11.14 9.26,241.76 -2.22,528.32 33.36,713.32 64.03,-162.7 46.6,-811.25 31.49,-1163.51 0,0 -347.89,-55.39 -650.31,11.09 -26.8,5.9 32.73,1146.1 44.45,1130.2 z" /><path
         id="path96"
         style="fill:#fff6d5;fill-opacity:1;fill-rule:nonzero;stroke:none"
         d="m 1676.09,2647.31 -1.87,-129.69 133.4,2.77 -0.94,125.98" /><path
         id="path98"
         style="fill:none;stroke:#000000;stroke-width:24;stroke-linecap:butt;stroke-linejoin:miter;stroke-miterlimit:4;stroke-dasharray:none;stroke-opacity:1"
         d="m 1676.09,2647.3 -1.87,-129.67 133.4,2.76 -0.94,125.99 -130.59,0.92 z" /><path
         id="path100"
         style="fill:#cccccc;fill-opacity:1;fill-rule:nonzero;stroke:none"
         d="m 1606.64,2828.95 c -1.09,76.68 61.95,139.76 140.82,140.86 78.87,1.13 143.67,-60.16 144.73,-136.84 1.09,-76.68 -61.96,-139.76 -140.82,-140.86 -78.87,-1.13 -143.67,60.16 -144.73,136.84" /><path
         id="path102"
         style="fill:none;stroke:#000000;stroke-width:24;stroke-linecap:butt;stroke-linejoin:miter;stroke-miterlimit:4;stroke-dasharray:none;stroke-opacity:1"
         d="m 1606.64,2828.95 c -1.09,76.68 61.95,139.76 140.82,140.86 78.87,1.14 143.67,-60.16 144.73,-136.83 1.1,-76.68 -61.96,-139.77 -140.82,-140.87 -78.87,-1.13 -143.67,60.16 -144.73,136.84 z" /><path
         id="path104"
         style="fill:#e6e6e6;fill-opacity:1;fill-rule:nonzero;stroke:none"
         d="m 1874.1,2802.39 -246.68,0.86 c 9.26,-107.86 199.81,-154.18 246.68,-0.86" /><path
         id="path106"
         style="fill:#666666;fill-opacity:1;fill-rule:nonzero;stroke:none"
         d="m 1695.55,2765.86 c 0,-11.87 -9.61,-21.48 -21.49,-21.48 -11.87,0 -21.48,9.61 -21.48,21.48 0,11.88 9.61,21.53 21.48,21.53 11.88,0 21.49,-9.65 21.49,-21.53" /><path
         id="path108"
         style="fill:#666666;fill-opacity:1;fill-rule:nonzero;stroke:none"
         d="m 1769.06,2739.38 c 0,-11.88 -9.61,-21.52 -21.48,-21.52 -11.88,0 -21.53,9.64 -21.53,21.52 0,11.87 9.65,21.48 21.53,21.48 11.87,0 21.48,-9.61 21.48,-21.48" /><path
         id="path110"
         style="fill:#666666;fill-opacity:1;fill-rule:nonzero;stroke:none"
         d="m 1839.06,2764.89 c 0,-11.88 -9.61,-21.53 -21.48,-21.53 -11.88,0 -21.53,9.65 -21.53,21.53 0,11.87 9.65,21.48 21.53,21.48 11.87,0 21.48,-9.61 21.48,-21.48" /><path
         id="path112"
         style="fill:#000000;fill-opacity:1;fill-rule:nonzero;stroke:none"
         d="m 1866.05,2842.62 c 0,-13.12 -10.62,-23.75 -23.75,-23.75 -13.12,0 -23.75,10.63 -23.75,23.75 0,13.13 10.63,23.75 23.75,23.75 13.13,0 23.75,-10.62 23.75,-23.75" /><path
         id="path114"
         style="fill:#000000;fill-opacity:1;fill-rule:nonzero;stroke:none"
         d="m 1833.55,2896.61 c 0,-13.09 -10.62,-23.75 -23.75,-23.75 -13.12,0 -23.75,10.66 -23.75,23.75 0,13.12 10.63,23.75 23.75,23.75 13.13,0 23.75,-10.63 23.75,-23.75" /><path
         id="path116"
         style="fill:#000000;fill-opacity:1;fill-rule:nonzero;stroke:none"
         d="m 1775.08,2923.13 c 0,-13.13 -10.67,-23.75 -23.75,-23.75 -13.13,0 -23.75,10.62 -23.75,23.75 0,13.12 10.62,23.75 23.75,23.75 13.08,0 23.75,-10.63 23.75,-23.75" /><path
         id="path118"
         style="fill:#000000;fill-opacity:1;fill-rule:nonzero;stroke:none"
         d="m 1715.55,2899.11 c 0,-13.09 -10.63,-23.75 -23.75,-23.75 -13.09,0 -23.75,10.66 -23.75,23.75 0,13.12 10.66,23.75 23.75,23.75 13.12,0 23.75,-10.63 23.75,-23.75" /><path
         id="path120"
         style="fill:#000000;fill-opacity:1;fill-rule:nonzero;stroke:none"
         d="m 1676.56,2846.61 c 0,-13.09 -10.62,-23.75 -23.75,-23.75 -13.12,0 -23.75,10.66 -23.75,23.75 0,13.12 10.63,23.75 23.75,23.75 13.13,0 23.75,-10.63 23.75,-23.75" /><path
         id="path122"
         style="fill:#cccccc;fill-opacity:1;fill-rule:nonzero;stroke:none"
         d="m 1572.62,547 c -1.1,-76.719 61.99,-139.77 140.82,-140.898 78.86,-1.102 143.67,60.148 144.76,136.828 1.1,76.718 -61.99,139.769 -140.82,140.898 C 1638.52,684.93 1573.71,623.68 1572.62,547" /><path
         id="path124"
         style="fill:none;stroke:#000000;stroke-width:24;stroke-linecap:butt;stroke-linejoin:miter;stroke-miterlimit:4;stroke-dasharray:none;stroke-opacity:1"
         d="m 1572.62,546.992 c -1.1,-76.711 61.99,-139.762 140.82,-140.894 78.87,-1.094 143.67,60.156 144.77,136.832 1.09,76.722 -62,139.773 -140.82,140.906 -78.87,1.094 -143.68,-60.164 -144.77,-136.844 z" /><path
         id="path126"
         style="fill:#e6e6e6;fill-opacity:1;fill-rule:nonzero;stroke:none"
         d="m 1840.08,573.559 -246.64,-0.86 c 9.22,107.813 199.8,154.18 246.64,0.86" /><path
         id="path128"
         style="fill:#666666;fill-opacity:1;fill-rule:nonzero;stroke:none"
         d="m 1661.56,610.039 c 0,11.883 -9.61,21.531 -21.48,21.531 -11.88,0 -21.53,-9.648 -21.53,-21.531 0,-11.867 9.65,-21.48 21.53,-21.48 11.87,0 21.48,9.613 21.48,21.48" /><path
         id="path130"
         style="fill:#666666;fill-opacity:1;fill-rule:nonzero;stroke:none"
         d="m 1735.08,636.57 c 0,11.871 -9.65,21.481 -21.53,21.481 -11.87,0 -21.48,-9.61 -21.48,-21.481 0,-11.879 9.61,-21.531 21.48,-21.531 11.88,0 21.53,9.652 21.53,21.531" /><path
         id="path132"
         style="fill:#666666;fill-opacity:1;fill-rule:nonzero;stroke:none"
         d="m 1805.08,611.059 c 0,11.871 -9.65,21.48 -21.53,21.48 -11.87,0 -21.48,-9.609 -21.48,-21.48 0,-11.879 9.61,-21.489 21.48,-21.489 11.88,0 21.53,9.61 21.53,21.489" /><path
         id="path134"
         style="fill:#000000;fill-opacity:1;fill-rule:nonzero;stroke:none"
         d="m 1832.07,533.32 c 0,13.09 -10.62,23.75 -23.75,23.75 -13.12,0 -23.75,-10.66 -23.75,-23.75 0,-13.121 10.63,-23.75 23.75,-23.75 13.13,0 23.75,10.629 23.75,23.75" /><path
         id="path136"
         style="fill:#000000;fill-opacity:1;fill-rule:nonzero;stroke:none"
         d="m 1799.57,479.301 c 0,13.129 -10.62,23.75 -23.75,23.75 -13.12,0 -23.75,-10.621 -23.75,-23.75 0,-13.121 10.63,-23.75 23.75,-23.75 13.13,0 23.75,10.629 23.75,23.75" /><path
         id="path138"
         style="fill:#000000;fill-opacity:1;fill-rule:nonzero;stroke:none"
         d="m 1741.05,452.82 c 0,13.121 -10.62,23.75 -23.75,23.75 -13.12,0 -23.75,-10.629 -23.75,-23.75 0,-13.129 10.63,-23.75 23.75,-23.75 13.13,0 23.75,10.621 23.75,23.75" /><path
         id="path140"
         style="fill:#000000;fill-opacity:1;fill-rule:nonzero;stroke:none"
         d="m 1681.56,476.801 c 0,13.129 -10.62,23.75 -23.75,23.75 -13.12,0 -23.75,-10.621 -23.75,-23.75 0,-13.121 10.63,-23.75 23.75,-23.75 13.13,0 23.75,10.629 23.75,23.75" /><path
         id="path142"
         style="fill:#000000;fill-opacity:1;fill-rule:nonzero;stroke:none"
         d="m 1642.58,529.301 c 0,13.129 -10.67,23.75 -23.75,23.75 -13.13,0 -23.75,-10.621 -23.75,-23.75 0,-13.121 10.62,-23.75 23.75,-23.75 13.08,0 23.75,10.629 23.75,23.75" /><path
         id="path144"
         style="fill:#999999;fill-opacity:1;fill-rule:nonzero;stroke:none"
         d="m 3702.46,547.66 c 0,0 58.32,-455.8202 32.97,-476.0506 -25.39,-20.2813 -380.39,-83.5586 -783.63,-10.1602 0,0 -32.97,224.7618 34.25,474.4918" /><path
         id="path146"
         style="fill:none;stroke:#000000;stroke-width:24;stroke-linecap:butt;stroke-linejoin:miter;stroke-miterlimit:4;stroke-dasharray:none;stroke-opacity:1"
         d="m 3702.46,547.656 c 0,0 58.32,-455.8201 32.97,-476.0505 -25.39,-20.2696 -380.39,-83.5508 -783.63,-10.1602 0,0 -32.97,224.7697 34.25,474.4997 l 716.41,11.711 z" /><path
         id="path148"
         style="fill:#1a1a1a;fill-opacity:1;fill-rule:nonzero;stroke:none"
         d="m 3431.76,953.75 c 0,0 7.85,-78.59 -2.62,-165.07 -10.51,-86.45 -348.52,-104.809 -416.64,7.851 l 2.62,159.84" /><path
         id="path150"
         style="fill:none;stroke:#000000;stroke-width:24;stroke-linecap:butt;stroke-linejoin:miter;stroke-miterlimit:4;stroke-dasharray:none;stroke-opacity:1"
         d="m 3431.76,953.758 c 0,0 7.85,-78.602 -2.62,-165.082 -10.51,-86.442 -348.52,-104.801 -416.64,7.851 l 2.62,159.848" /><path
         id="path152"
         style="fill:#333333;fill-opacity:1;fill-rule:nonzero;stroke:none"
         d="m 3565.35,1923.21 36.72,-1268.171 c 0,0 -31.45,-172.93 -115.31,-251.519 l -10.47,550.23 -508.32,5.238 -5.24,-482.109 c 0,0 -99.57,-26.207 -120.54,377.301 l -10.47,1063.79 c 224.92,-26.4 454.26,-43.28 733.63,5.24" /><path
         id="path154"
         style="fill:none;stroke:#000000;stroke-width:24;stroke-linecap:butt;stroke-linejoin:miter;stroke-miterlimit:4;stroke-dasharray:none;stroke-opacity:1"
         d="m 3565.35,1923.21 36.72,-1268.163 c 0,0 -31.45,-172.93 -115.31,-251.531 l -10.47,550.242 -508.32,5.226 -5.24,-482.109 c 0,0 -99.57,-26.211 -120.54,377.313 l -10.47,1063.792 c 224.92,-26.41 454.26,-43.28 733.63,5.23 z" /><path
         id="path156"
         style="fill:#000000;fill-opacity:1;fill-rule:nonzero;stroke:none"
         d="m 3596.8,809.648 -62.85,-60.269 -10.51,57.652 68.12,44.539" /><path
         id="path158"
         style="fill:#000000;fill-opacity:1;fill-rule:nonzero;stroke:none"
         d="m 3568.01,1511.84 -68.13,-10.47 2.62,-52.42 73.36,13.12" /><path
         id="path160"
         style="fill:#000000;fill-opacity:1;fill-rule:nonzero;stroke:none"
         d="m 2844.8,1503.99 68.13,-10.47 -2.62,-52.42 -73.36,13.12" /><path
         id="path162"
         style="fill:#000000;fill-opacity:1;fill-rule:nonzero;stroke:none"
         d="m 2839.57,817.5 62.89,-60.27 10.47,57.661 -68.13,44.531" /><path
         id="path164"
         style="fill:none;stroke:#000000;stroke-width:24;stroke-linecap:butt;stroke-linejoin:miter;stroke-miterlimit:4;stroke-dasharray:none;stroke-opacity:1"
         d="m 3733.75,173.164 c 0,0 -476.52,-71.289 -789.37,15.512" /><path
         id="path166"
         style="fill:#999999;fill-opacity:1;fill-rule:nonzero;stroke:none"
         d="m 3384.57,303.949 -2.62,112.66 60.28,-5.238 -13.09,317.027 -406.13,0 -2.62,-298.668 49.77,-10.511 0,-107.418" /><path
         id="path168"
         style="fill:none;stroke:#000000;stroke-width:24;stroke-linecap:butt;stroke-linejoin:miter;stroke-miterlimit:4;stroke-dasharray:none;stroke-opacity:1"
         d="m 3384.57,303.945 -2.62,112.66 60.28,-5.23 -13.09,317.031 -406.13,0 -2.62,-298.672 49.77,-10.507 0,-107.422" /><path
         id="path170"
         style="fill:#fff6d5;fill-opacity:1;fill-rule:nonzero;stroke:none"
         d="m 3151.37,817.5 131.02,0 0,128.398 -131.02,0 0,-128.398 z" /><path
         id="path172"
         style="fill:none;stroke:#000000;stroke-width:24;stroke-linecap:butt;stroke-linejoin:miter;stroke-miterlimit:4;stroke-dasharray:none;stroke-opacity:1"
         d="m 3151.37,817.504 131.02,0 0,128.402 -131.02,0 0,-128.402 z" /><path
         id="path174"
         style="fill:#1a1a1a;fill-opacity:1;fill-rule:nonzero;stroke:none"
         d="m 3396.29,2696.33 c 11.05,-91.64 25.12,-105.9 21.41,-224.65 l -35.32,-0.74 c 3.75,-25.94 -7.22,-77.03 -25.08,-63.28 0,0 -40.78,23.48 -36.17,62.38 l -251.01,-0.31 c -1.33,-35 -9.69,-51.13 -25,-66.68 -19.18,14.92 -28.64,33.28 -30.59,62.97 l -28.71,0.94 6.48,215.86" /><path
         id="path176"
         style="fill:none;stroke:#000000;stroke-width:24;stroke-linecap:butt;stroke-linejoin:miter;stroke-miterlimit:4;stroke-dasharray:none;stroke-opacity:1"
         d="m 3396.29,2696.34 c 11.05,-91.64 25.12,-105.9 21.41,-224.65 l -35.32,-0.74 c 3.75,-25.95 -7.22,-77.04 -25.08,-63.29 0,0 -40.78,23.48 -36.17,62.39 l -251.01,-0.32 c -1.33,-35 -9.69,-51.14 -25,-66.68 -19.18,14.93 -28.64,33.29 -30.59,62.97 l -28.71,0.94 6.48,215.86" /><path
         id="path178"
         style="fill:#4d4d4d;fill-opacity:1;fill-rule:nonzero;stroke:none"
         d="m 3326.72,3222.86 -277.89,-7.39 0,-218.63 -55.59,-7.42 -3.71,-303.83 403.91,7.38 7.42,315 -74.14,0" /><path
         id="path180"
         style="fill:none;stroke:#000000;stroke-width:24;stroke-linecap:butt;stroke-linejoin:miter;stroke-miterlimit:4;stroke-dasharray:none;stroke-opacity:1"
         d="m 3326.72,3222.86 -277.89,-7.38 0,-218.64 -55.59,-7.43 -3.71,-303.82 403.91,7.39 7.42,315 -74.14,0 0,214.88 z" /><path
         id="path182"
         style="fill:#333333;fill-opacity:1;fill-rule:nonzero;stroke:none"
         d="m 3497.19,3065.39 c -39.73,92.7 -41.76,-605.35 -24.1,-679.96 7.69,-32.46 -516.92,-11.13 -516.92,-11.13 -9.26,241.76 2.23,528.32 -33.32,713.32 -64.06,-162.66 -46.6,-811.25 -31.52,-1163.51 0,0 347.89,-55.4 650.31,11.09 26.8,5.9 -32.69,1146.09 -44.45,1130.19" /><path
         id="path184"
         style="fill:none;stroke:#000000;stroke-width:24;stroke-linecap:butt;stroke-linejoin:miter;stroke-miterlimit:4;stroke-dasharray:none;stroke-opacity:1"
         d="m 3497.19,3065.39 c -39.73,92.7 -41.76,-605.34 -24.1,-679.95 7.69,-32.46 -516.92,-11.14 -516.92,-11.14 -9.26,241.75 2.23,528.33 -33.32,713.33 -64.06,-162.67 -46.6,-811.25 -31.52,-1163.52 0,0 347.89,-55.4 650.31,11.09 26.8,5.9 -32.69,1146.1 -44.45,1130.19 z" /><path
         id="path186"
         style="fill:#fff6d5;fill-opacity:1;fill-rule:nonzero;stroke:none"
         d="m 3267.46,2652.23 1.84,-129.69 -133.4,2.78 0.94,125.97" /><path
         id="path188"
         style="fill:none;stroke:#000000;stroke-width:24;stroke-linecap:butt;stroke-linejoin:miter;stroke-miterlimit:4;stroke-dasharray:none;stroke-opacity:1"
         d="m 3267.46,2652.23 1.84,-129.68 -133.4,2.77 0.94,125.98 130.62,0.93 z" /><path
         id="path190"
         style="fill:#cccccc;fill-opacity:1;fill-rule:nonzero;stroke:none"
         d="m 3336.91,2833.87 c 1.06,76.68 -61.99,139.77 -140.86,140.86 -78.82,1.13 -143.63,-60.12 -144.72,-136.84 -1.1,-76.68 61.95,-139.72 140.82,-140.86 78.87,-1.09 143.67,60.16 144.76,136.84" /><path
         id="path192"
         style="fill:none;stroke:#000000;stroke-width:24;stroke-linecap:butt;stroke-linejoin:miter;stroke-miterlimit:4;stroke-dasharray:none;stroke-opacity:1"
         d="m 3336.91,2833.87 c 1.06,76.68 -61.99,139.77 -140.86,140.86 -78.82,1.13 -143.62,-60.11 -144.72,-136.84 -1.1,-76.68 61.95,-139.73 140.82,-140.86 78.86,-1.09 143.67,60.16 144.76,136.84 z" /><path
         id="path194"
         style="fill:#e6e6e6;fill-opacity:1;fill-rule:nonzero;stroke:none"
         d="m 3069.41,2807.31 246.68,0.86 c -9.25,-107.81 -199.8,-154.18 -246.68,-0.86" /><path
         id="path196"
         style="fill:#666666;fill-opacity:1;fill-rule:nonzero;stroke:none"
         d="m 3247.97,2770.78 c 0,-11.87 9.61,-21.48 21.48,-21.48 11.88,0 21.49,9.61 21.49,21.48 0,11.88 -9.61,21.53 -21.49,21.53 -11.87,0 -21.48,-9.65 -21.48,-21.53" /><path
         id="path198"
         style="fill:#666666;fill-opacity:1;fill-rule:nonzero;stroke:none"
         d="m 3174.45,2744.3 c 0,-11.87 9.65,-21.48 21.49,-21.48 11.87,0 21.52,9.61 21.52,21.48 0,11.88 -9.65,21.48 -21.52,21.48 -11.84,0 -21.49,-9.6 -21.49,-21.48" /><path
         id="path200"
         style="fill:#666666;fill-opacity:1;fill-rule:nonzero;stroke:none"
         d="m 3104.45,2769.81 c 0,-11.88 9.65,-21.53 21.49,-21.53 11.87,0 21.52,9.65 21.52,21.53 0,11.87 -9.65,21.48 -21.52,21.48 -11.84,0 -21.49,-9.61 -21.49,-21.48" /><path
         id="path202"
         style="fill:#000000;fill-opacity:1;fill-rule:nonzero;stroke:none"
         d="m 3077.46,2847.54 c 0,-13.12 10.63,-23.75 23.75,-23.75 13.13,0 23.75,10.63 23.75,23.75 0,13.13 -10.62,23.75 -23.75,23.75 -13.12,0 -23.75,-10.62 -23.75,-23.75" /><path
         id="path204"
         style="fill:#000000;fill-opacity:1;fill-rule:nonzero;stroke:none"
         d="m 3109.96,2901.57 c 0,-13.13 10.63,-23.75 23.75,-23.75 13.13,0 23.75,10.62 23.75,23.75 0,13.08 -10.62,23.75 -23.75,23.75 -13.12,0 -23.75,-10.67 -23.75,-23.75" /><path
         id="path206"
         style="fill:#000000;fill-opacity:1;fill-rule:nonzero;stroke:none"
         d="m 3168.44,2928.05 c 0,-13.12 10.66,-23.75 23.75,-23.75 13.12,0 23.75,10.63 23.75,23.75 0,13.13 -10.63,23.75 -23.75,23.75 -13.09,0 -23.75,-10.62 -23.75,-23.75" /><path
         id="path208"
         style="fill:#000000;fill-opacity:1;fill-rule:nonzero;stroke:none"
         d="m 3227.97,2904.07 c 0,-13.13 10.62,-23.75 23.75,-23.75 13.08,0 23.75,10.62 23.75,23.75 0,13.08 -10.67,23.75 -23.75,23.75 -13.13,0 -23.75,-10.67 -23.75,-23.75" /><path
         id="path210"
         style="fill:#000000;fill-opacity:1;fill-rule:nonzero;stroke:none"
         d="m 3266.95,2851.57 c 0,-13.13 10.63,-23.75 23.75,-23.75 13.13,0 23.75,10.62 23.75,23.75 0,13.08 -10.62,23.75 -23.75,23.75 -13.12,0 -23.75,-10.67 -23.75,-23.75" /><path
         id="path212"
         style="fill:#cccccc;fill-opacity:1;fill-rule:nonzero;stroke:none"
         d="m 3370.9,551.922 c 1.09,-76.684 -61.95,-139.774 -140.82,-140.902 -78.87,-1.09 -143.67,60.16 -144.77,136.871 -1.05,76.679 61.99,139.73 140.86,140.859 78.83,1.102 143.63,-60.148 144.73,-136.828" /><path
         id="path214"
         style="fill:none;stroke:#000000;stroke-width:24;stroke-linecap:butt;stroke-linejoin:miter;stroke-miterlimit:4;stroke-dasharray:none;stroke-opacity:1"
         d="m 3370.9,551.914 c 1.09,-76.68 -61.95,-139.762 -140.82,-140.894 -78.87,-1.094 -143.67,60.156 -144.76,136.875 -1.07,76.679 61.99,139.722 140.85,140.855 78.83,1.094 143.63,-60.156 144.73,-136.836 z" /><path
         id="path216"
         style="fill:#e6e6e6;fill-opacity:1;fill-rule:nonzero;stroke:none"
         d="m 3103.44,578.48 246.64,-0.859 c -9.22,107.809 -199.81,154.18 -246.64,0.859" /><path
         id="path218"
         style="fill:#666666;fill-opacity:1;fill-rule:nonzero;stroke:none"
         d="m 3281.95,615 c 0,11.879 9.65,21.488 21.49,21.488 11.87,0 21.52,-9.609 21.52,-21.488 0,-11.871 -9.65,-21.52 -21.52,-21.52 -11.84,0 -21.49,9.649 -21.49,21.52" /><path
         id="path220"
         style="fill:#666666;fill-opacity:1;fill-rule:nonzero;stroke:none"
         d="m 3208.44,641.488 c 0,11.871 9.65,21.481 21.52,21.481 11.88,0 21.49,-9.61 21.49,-21.481 0,-11.879 -9.61,-21.488 -21.49,-21.488 -11.87,0 -21.52,9.609 -21.52,21.488" /><path
         id="path222"
         style="fill:#666666;fill-opacity:1;fill-rule:nonzero;stroke:none"
         d="m 3138.44,615.98 c 0,11.879 9.65,21.52 21.52,21.52 11.88,0 21.49,-9.641 21.49,-21.52 0,-11.871 -9.61,-21.48 -21.49,-21.48 -11.87,0 -21.52,9.609 -21.52,21.48" /><path
         id="path224"
         style="fill:#000000;fill-opacity:1;fill-rule:nonzero;stroke:none"
         d="m 3111.45,538.25 c 0,13.121 10.66,23.75 23.75,23.75 13.12,0 23.75,-10.629 23.75,-23.75 0,-13.129 -10.63,-23.75 -23.75,-23.75 -13.09,0 -23.75,10.621 -23.75,23.75" /><path
         id="path226"
         style="fill:#000000;fill-opacity:1;fill-rule:nonzero;stroke:none"
         d="m 3143.95,484.219 c 0,13.133 10.66,23.75 23.75,23.75 13.12,0 23.75,-10.617 23.75,-23.75 0,-13.078 -10.63,-23.75 -23.75,-23.75 -13.09,0 -23.75,10.672 -23.75,23.75" /><path
         id="path228"
         style="fill:#000000;fill-opacity:1;fill-rule:nonzero;stroke:none"
         d="m 3202.46,457.738 c 0,13.121 10.63,23.75 23.75,23.75 13.13,0 23.75,-10.629 23.75,-23.75 0,-13.129 -10.62,-23.75 -23.75,-23.75 -13.12,0 -23.75,10.621 -23.75,23.75" /><path
         id="path230"
         style="fill:#000000;fill-opacity:1;fill-rule:nonzero;stroke:none"
         d="m 3261.95,481.719 c 0,13.133 10.63,23.75 23.75,23.75 13.13,0 23.75,-10.617 23.75,-23.75 0,-13.078 -10.62,-23.75 -23.75,-23.75 -13.12,0 -23.75,10.672 -23.75,23.75" /><path
         id="path232"
         style="fill:#000000;fill-opacity:1;fill-rule:nonzero;stroke:none"
         d="m 3300.94,534.219 c 0,13.133 10.66,23.75 23.75,23.75 13.12,0 23.75,-10.617 23.75,-23.75 0,-13.078 -10.63,-23.75 -23.75,-23.75 -13.09,0 -23.75,10.672 -23.75,23.75" /><path
         id="path234"
         style="fill:#333333;fill-opacity:1;fill-rule:nonzero;stroke:none"
         d="m 208.871,4491.53 c 8.75,0 570.348,-74.3 570.348,-74.3 l 32.769,535.35 c 0,0 66.563,443.91 -187.929,478.56 -321.207,43.71 -452.34,-635.9 -415.188,-939.61" /><path
         id="path236"
         style="fill:none;stroke:#000000;stroke-width:24;stroke-linecap:butt;stroke-linejoin:miter;stroke-miterlimit:4;stroke-dasharray:none;stroke-opacity:1"
         d="m 208.871,4491.53 c 8.75,0 570.348,-74.3 570.348,-74.3 l 32.769,535.36 c 0,0 66.563,443.89 -187.929,478.55 -321.207,43.71 -452.34,-635.91 -415.188,-939.61 z" /><path
         id="path238"
         style="fill:#666666;fill-opacity:1;fill-rule:nonzero;stroke:none"
         d="m 997.73,5625.63 -216.32,4.33 -334.34,-358.35 c 0,0 -83.05,-358.36 288.442,-253.48 l 255.66,257.85" /><path
         id="path240"
         style="fill:none;stroke:#000000;stroke-width:24;stroke-linecap:butt;stroke-linejoin:miter;stroke-miterlimit:4;stroke-dasharray:none;stroke-opacity:1"
         d="m 997.73,5625.63 -216.32,4.33 -334.34,-358.35 c 0,0 -83.05,-358.36 288.442,-253.48 l 255.66,257.85 6.558,349.65 z" /><path
         id="path242"
         style="fill:#cccccc;fill-opacity:1;fill-rule:nonzero;stroke:none"
         d="m 549.648,5193.32 -86.839,68.05 C 400.43,5208.6 445.27,4887.23 742.07,5031.41 l -96.211,75.08 c 111.52,74.06 -31.91,196.56 -96.211,86.83" /><path
         id="path244"
         style="fill:none;stroke:#000000;stroke-width:24;stroke-linecap:butt;stroke-linejoin:miter;stroke-miterlimit:4;stroke-dasharray:none;stroke-opacity:1"
         d="m 549.648,5193.32 -86.839,68.06 C 400.43,5208.6 445.27,4887.23 742.07,5031.41 l -96.211,75.07 c 111.52,74.07 -31.91,196.57 -96.211,86.84 z" /><path
         id="path246"
         style="fill:#b3b3b3;fill-opacity:1;fill-rule:nonzero;stroke:none"
         d="M 203.09,4374.34 C 26.7188,4222.66 94.3789,3954.3 87.5781,3954.3 L 87.0703,3830.36 C 288.398,3754.03 700.27,3712.03 696.129,3712.03 l 34.652,170.86 c 34.098,71.25 72.27,252.5 -15.66,403.05" /><path
         id="path248"
         style="fill:none;stroke:#000000;stroke-width:24;stroke-linecap:butt;stroke-linejoin:miter;stroke-miterlimit:4;stroke-dasharray:none;stroke-opacity:1"
         d="M 203.09,4374.34 C 26.7188,4222.66 94.3789,3954.3 87.5781,3954.3 L 87.0703,3830.36 C 288.398,3754.03 700.27,3712.04 696.129,3712.04 l 34.652,170.85 c 34.098,71.25 72.27,252.5 -15.66,403.06" /><path
         id="path250"
         style="fill:#333333;fill-opacity:1;fill-rule:nonzero;stroke:none"
         d="m 193.871,4382.66 522.457,-92.03 -46.797,-491.6 c -239.453,35.23 -280.703,9.72 -537.191,96.48" /><path
         id="path252"
         style="fill:none;stroke:#000000;stroke-width:24;stroke-linecap:butt;stroke-linejoin:miter;stroke-miterlimit:4;stroke-dasharray:none;stroke-opacity:1"
         d="m 193.871,4382.66 522.457,-92.03 -46.797,-491.6 c -239.453,35.24 -280.703,9.72 -537.191,96.49 l 61.531,487.14 z" /><path
         id="path254"
         style="fill:#000000;fill-opacity:1;fill-rule:nonzero;stroke:none"
         d="m 308.238,4473.99 c 0,0 9.961,-39.81 -13.238,-92.93 l 355.078,-63.05 c 0,0 6.641,102.89 43.16,106.21" /><path
         id="path256"
         style="fill:none;stroke:#000000;stroke-width:18.77350044;stroke-linecap:butt;stroke-linejoin:miter;stroke-miterlimit:4;stroke-dasharray:none;stroke-opacity:1"
         d="m 308.238,4473.98 c 0,0 9.961,-39.79 -13.238,-92.93 l 355.078,-63.03 c 0,0 6.641,102.89 43.16,106.21 l -385,49.75 z" /><path
         id="path258"
         style="fill:#808080;fill-opacity:1;fill-rule:nonzero;stroke:none"
         d="m 464.262,3736.53 225.66,-19.92 -13.281,-132.74 c 0,0 -199.102,26.52 -238.942,-155.98" /><path
         id="path260"
         style="fill:none;stroke:#000000;stroke-width:24;stroke-linecap:butt;stroke-linejoin:miter;stroke-miterlimit:4;stroke-dasharray:none;stroke-opacity:1"
         d="m 464.262,3736.53 225.66,-19.92 -13.281,-132.73 c 0,0 -199.102,26.51 -238.942,-155.99" /><path
         id="path262"
         style="fill:#999999;fill-opacity:1;fill-rule:nonzero;stroke:none"
         d="m 441.02,2800.63 c 0,0 -79.649,-292.03 -222.348,-408.2 57.226,-4.97 91.098,2.42 209.058,-19.89 7.231,-40.82 0.59,-69.65 -19.878,-126.13 -76.332,1.76 -126.133,-7.93 -202.461,19.92 L 46.0898,2389.11 235.27,2833.83" /><path
         id="path264"
         style="fill:none;stroke:#000000;stroke-width:24;stroke-linecap:butt;stroke-linejoin:miter;stroke-miterlimit:4;stroke-dasharray:none;stroke-opacity:1"
         d="m 441.02,2800.63 c 0,0 -79.649,-292.04 -222.348,-408.2 57.226,-4.97 91.098,2.42 209.058,-19.88 7.231,-40.82 0.59,-69.66 -19.878,-126.14 -76.332,1.75 -126.133,-7.93 -202.461,19.93 L 46.0898,2389.11 235.27,2833.84 441.02,2800.63 Z" /><path
         id="path266"
         style="fill:#4d4d4d;fill-opacity:1;fill-rule:nonzero;stroke:none"
         d="m 460.941,3736.53 c -82.972,43.12 -331.882,79.65 -331.882,79.65 -29.4106,73.55 -108.1176,-1352.5 -116.1293,-1470.2 0,0 69.6914,-13.28 9.9219,-119.49 l 6.6367,-152.66 c 0,0 146.0627,-26.52 169.2617,199.14 23.238,225.67 9.961,464.61 245.59,527.66 6.129,181.37 147.18,440.94 -13.289,550.94" /><path
         id="path268"
         style="fill:none;stroke:#000000;stroke-width:24;stroke-linecap:butt;stroke-linejoin:miter;stroke-miterlimit:4;stroke-dasharray:none;stroke-opacity:1"
         d="m 460.941,3736.53 c -82.972,43.13 -331.882,79.65 -331.882,79.65 -29.4106,73.55 -108.1176,-1352.5 -116.1293,-1470.2 0,0 69.6914,-13.28 9.9219,-119.5 l 6.6367,-152.64 c 0,0 146.0627,-26.54 169.2617,199.14 23.238,225.66 9.961,464.61 245.59,527.65 6.129,181.37 147.18,440.94 -13.289,550.94 l 29.89,384.96 z" /><path
         id="path270"
         style="fill:#000000;fill-opacity:1;fill-rule:nonzero;stroke:none"
         d="m 99.1797,3613.72 76.3711,0 0,49.8008 -76.3711,0 0,-49.8008 z" /><path
         id="path272"
         style="fill:#000000;fill-opacity:1;fill-rule:nonzero;stroke:none"
         d="m 59.3789,3129.18 59.7305,0 0,59.7695 -59.7305,0 0,-59.7695 z" /><path
         id="path274"
         style="fill:#000000;fill-opacity:1;fill-rule:nonzero;stroke:none"
         d="m 384.57,5051.45 c 0,-16.49 -14.84,-29.88 -33.16,-29.88 -18.32,0 -33.211,13.39 -33.211,29.88 0,16.48 14.891,29.88 33.211,29.88 18.32,0 33.16,-13.4 33.16,-29.88" /><path
         id="path276"
         style="fill:#000000;fill-opacity:1;fill-rule:nonzero;stroke:none"
         d="m 754.691,5107.58 c 0,-13.67 -11.062,-24.72 -24.73,-24.72 -13.672,0 -24.762,11.05 -24.762,24.72 0,13.67 11.09,24.77 24.762,24.77 13.668,0 24.73,-11.1 24.73,-24.77" /><path
         id="path278"
         style="fill:#000000;fill-opacity:1;fill-rule:nonzero;stroke:none"
         d="m 767.422,5189.61 c 0,-13.67 -11.051,-24.72 -24.723,-24.72 -13.679,0 -24.769,11.05 -24.769,24.72 0,13.67 11.09,24.77 24.769,24.77 13.672,0 24.723,-11.1 24.723,-24.77" /><path
         id="path280"
         style="fill:#000000;fill-opacity:1;fill-rule:nonzero;stroke:none"
         d="m 721.48,5263.87 c 0,-13.67 -11.089,-24.76 -24.761,-24.76 -13.668,0 -24.731,11.09 -24.731,24.76 0,13.67 11.063,24.73 24.731,24.73 13.672,0 24.761,-11.06 24.761,-24.73" /><path
         id="path282"
         style="fill:#000000;fill-opacity:1;fill-rule:nonzero;stroke:none"
         d="m 636.602,5287.19 c 0,-13.67 -11.051,-24.73 -24.723,-24.73 -13.68,0 -24.77,11.06 -24.77,24.73 0,13.67 11.09,24.77 24.77,24.77 13.672,0 24.723,-11.1 24.723,-24.77" /><path
         id="path284"
         style="fill:#000000;fill-opacity:1;fill-rule:nonzero;stroke:none"
         d="m 564.488,5258.91 c 0,-13.67 -11.09,-24.73 -24.758,-24.73 -13.64,0 -24.73,11.06 -24.73,24.73 0,13.67 11.09,24.77 24.73,24.77 13.668,0 24.758,-11.1 24.758,-24.77" /><path
         id="path286"
         style="fill:#333333;fill-opacity:1;fill-rule:nonzero;stroke:none"
         d="m 518.52,5151.45 c 0,-13.67 -11.059,-24.77 -24.731,-24.77 -13.668,0 -24.769,11.1 -24.769,24.77 0,13.67 11.101,24.73 24.769,24.73 13.672,0 24.731,-11.06 24.731,-24.73" /><path
         id="path288"
         style="fill:#333333;fill-opacity:1;fill-rule:nonzero;stroke:none"
         d="m 564.488,5075.08 c 0,-13.67 -11.09,-24.76 -24.758,-24.76 -13.64,0 -24.73,11.09 -24.73,24.76 0,13.67 11.09,24.73 24.73,24.73 13.668,0 24.758,-11.06 24.758,-24.73" /><path
         id="path290"
         style="fill:#333333;fill-opacity:1;fill-rule:nonzero;stroke:none"
         d="m 652.191,5054.57 c 0,-13.67 -11.101,-24.76 -24.769,-24.76 -13.672,0 -24.723,11.09 -24.723,24.76 0,13.68 11.051,24.73 24.723,24.73 13.668,0 24.769,-11.05 24.769,-24.73" /><path
         id="path292"
         style="fill:#333333;fill-opacity:1;fill-rule:nonzero;stroke:none"
         d="m 4778.52,4492.39 c -8.75,0 -570.32,-74.3 -570.32,-74.3 l -32.77,535.35 c 0,0 -66.6,443.95 187.93,478.56 321.21,43.71 452.3,-635.86 415.16,-939.61" /><path
         id="path294"
         style="fill:none;stroke:#000000;stroke-width:24;stroke-linecap:butt;stroke-linejoin:miter;stroke-miterlimit:4;stroke-dasharray:none;stroke-opacity:1"
         d="m 4778.52,4492.39 c -8.75,0 -570.32,-74.3 -570.32,-74.3 l -32.77,535.36 c 0,0 -66.6,443.94 187.93,478.55 321.21,43.71 452.3,-635.86 415.16,-939.61 z" /><path
         id="path296"
         style="fill:#666666;fill-opacity:1;fill-rule:nonzero;stroke:none"
         d="m 3989.69,5626.49 216.33,4.37 334.33,-358.36 c 0,0 83.01,-358.39 -288.44,-253.47 l -255.66,257.81" /><path
         id="path298"
         style="fill:none;stroke:#000000;stroke-width:24;stroke-linecap:butt;stroke-linejoin:miter;stroke-miterlimit:4;stroke-dasharray:none;stroke-opacity:1"
         d="m 3989.69,5626.48 216.33,4.39 334.33,-358.37 c 0,0 83.01,-358.39 -288.44,-253.47 l -255.66,257.81 -6.56,349.64 z" /><path
         id="path300"
         style="fill:#cccccc;fill-opacity:1;fill-rule:nonzero;stroke:none"
         d="m 4437.73,5194.22 86.84,68.05 c 62.38,-52.77 17.58,-374.18 -279.26,-230 l 96.21,75.12 c -111.52,74.02 31.96,196.52 96.21,86.83" /><path
         id="path302"
         style="fill:none;stroke:#000000;stroke-width:24;stroke-linecap:butt;stroke-linejoin:miter;stroke-miterlimit:4;stroke-dasharray:none;stroke-opacity:1"
         d="m 4437.73,5194.23 86.84,68.04 c 62.38,-52.77 17.58,-374.18 -279.26,-230 l 96.21,75.12 c -111.52,74.02 31.96,196.52 96.21,86.84 z" /><path
         id="path304"
         style="fill:#b3b3b3;fill-opacity:1;fill-rule:nonzero;stroke:none"
         d="m 4784.3,4375.2 c 176.36,-151.64 108.71,-420 115.5,-420 l 0.51,-123.99 c -201.29,-76.32 -613.2,-118.28 -609.02,-118.28 l -34.65,170.82 c -34.14,71.25 -72.26,252.54 15.66,403.05" /><path
         id="path306"
         style="fill:none;stroke:#000000;stroke-width:24;stroke-linecap:butt;stroke-linejoin:miter;stroke-miterlimit:4;stroke-dasharray:none;stroke-opacity:1"
         d="m 4784.3,4375.2 c 176.36,-151.65 108.71,-420 115.5,-420 l 0.51,-123.99 c -201.29,-76.32 -613.2,-118.27 -609.02,-118.27 l -34.65,170.81 c -34.14,71.25 -72.26,252.55 15.66,403.05" /><path
         id="path308"
         style="fill:#333333;fill-opacity:1;fill-rule:nonzero;stroke:none"
         d="m 4793.52,4383.56 -522.43,-92.03 46.8,-491.64 c 239.41,35.27 280.66,9.72 537.15,96.52" /><path
         id="path310"
         style="fill:none;stroke:#000000;stroke-width:24;stroke-linecap:butt;stroke-linejoin:miter;stroke-miterlimit:4;stroke-dasharray:none;stroke-opacity:1"
         d="m 4793.52,4383.55 -522.43,-92.02 46.8,-491.64 c 239.41,35.27 280.66,9.73 537.15,96.52 l -61.52,487.14 z" /><path
         id="path312"
         style="fill:#000000;fill-opacity:1;fill-rule:nonzero;stroke:none"
         d="m 4679.14,4474.85 c 0,0 -9.96,-39.81 13.28,-92.89 l -355.12,-63.09 c 0,0 -6.64,102.89 -43.12,106.21" /><path
         id="path314"
         style="fill:none;stroke:#000000;stroke-width:18.77350044;stroke-linecap:butt;stroke-linejoin:miter;stroke-miterlimit:4;stroke-dasharray:none;stroke-opacity:1"
         d="m 4679.14,4474.85 c 0,0 -9.96,-39.8 13.28,-92.89 l -355.12,-63.08 c 0,0 -6.64,102.89 -43.12,106.21 l 384.96,49.76 z" /><path
         id="path316"
         style="fill:#808080;fill-opacity:1;fill-rule:nonzero;stroke:none"
         d="m 4523.12,3737.39 -225.66,-19.93 13.28,-132.73 c 0,0 199.14,26.56 238.95,-155.98" /><path
         id="path318"
         style="fill:none;stroke:#000000;stroke-width:24;stroke-linecap:butt;stroke-linejoin:miter;stroke-miterlimit:4;stroke-dasharray:none;stroke-opacity:1"
         d="m 4523.12,3737.39 -225.66,-19.93 13.28,-132.73 c 0,0 199.14,26.57 238.95,-155.98" /><path
         id="path320"
         style="fill:#999999;fill-opacity:1;fill-rule:nonzero;stroke:none"
         d="m 4546.37,2801.53 c 0,0 79.65,-292.07 222.34,-408.21 -57.23,-5 -91.05,2.43 -209.06,-19.92 -7.23,-40.82 -0.55,-69.61 19.92,-126.09 76.33,1.72 126.09,-7.93 202.42,19.88 l 159.3,122.81 -189.14,444.69" /><path
         id="path322"
         style="fill:none;stroke:#000000;stroke-width:24;stroke-linecap:butt;stroke-linejoin:miter;stroke-miterlimit:4;stroke-dasharray:none;stroke-opacity:1"
         d="m 4546.37,2801.53 c 0,0 79.65,-292.07 222.34,-408.21 -57.23,-5 -91.05,2.43 -209.06,-19.91 -7.23,-40.82 -0.55,-69.61 19.92,-126.11 76.33,1.73 126.09,-7.92 202.42,19.9 l 159.3,122.8 -189.14,444.7 -205.78,-33.17 z" /><path
         id="path324"
         style="fill:#4d4d4d;fill-opacity:1;fill-rule:nonzero;stroke:none"
         d="m 4526.45,3737.39 c 82.96,43.16 331.87,79.64 331.87,79.64 29.45,73.6 108.16,-1352.5 116.17,-1470.19 0,0 -69.69,-13.28 -9.96,-119.45 l -6.64,-152.66 c 0,0 -146.01,-26.56 -169.26,199.1 -23.24,225.67 -9.96,464.61 -245.58,527.7 -6.1,181.33 -147.15,440.9 13.28,550.9" /><path
         id="path326"
         style="fill:none;stroke:#000000;stroke-width:24;stroke-linecap:butt;stroke-linejoin:miter;stroke-miterlimit:4;stroke-dasharray:none;stroke-opacity:1"
         d="m 4526.45,3737.39 c 82.96,43.16 331.87,79.65 331.87,79.65 29.45,73.59 108.16,-1352.5 116.17,-1470.2 0,0 -69.69,-13.29 -9.96,-119.45 l -6.64,-152.66 c 0,0 -146.01,-26.57 -169.26,199.11 -23.24,225.66 -9.96,464.61 -245.58,527.69 -6.1,181.33 -147.15,440.9 13.28,550.9 l -29.88,384.96 z" /><path
         id="path328"
         style="fill:#000000;fill-opacity:1;fill-rule:nonzero;stroke:none"
         d="m 4811.88,3614.61 76.332,0 0,49.7695 -76.332,0 0,-49.7695 z" /><path
         id="path330"
         style="fill:#000000;fill-opacity:1;fill-rule:nonzero;stroke:none"
         d="m 4868.28,3130.08 59.7305,0 0,59.7305 -59.7305,0 0,-59.7305 z" /><path
         id="path332"
         style="fill:#000000;fill-opacity:1;fill-rule:nonzero;stroke:none"
         d="m 4602.81,5052.31 c 0,-16.49 14.85,-29.85 33.21,-29.85 18.32,0 33.16,13.36 33.16,29.85 0,16.52 -14.84,29.88 -33.16,29.88 -18.36,0 -33.21,-13.36 -33.21,-29.88" /><path
         id="path334"
         style="fill:#000000;fill-opacity:1;fill-rule:nonzero;stroke:none"
         d="m 4232.7,5108.48 c 0,-13.67 11.09,-24.77 24.76,-24.77 13.63,0 24.73,11.1 24.73,24.77 0,13.67 -11.1,24.73 -24.73,24.73 -13.67,0 -24.76,-11.06 -24.76,-24.73" /><path
         id="path336"
         style="fill:#000000;fill-opacity:1;fill-rule:nonzero;stroke:none"
         d="m 4219.96,5190.47 c 0,-13.63 11.09,-24.72 24.77,-24.72 13.67,0 24.72,11.09 24.72,24.72 0,13.67 -11.05,24.77 -24.72,24.77 -13.68,0 -24.77,-11.1 -24.77,-24.77" /><path
         id="path338"
         style="fill:#000000;fill-opacity:1;fill-rule:nonzero;stroke:none"
         d="m 4265.94,5264.73 c 0,-13.67 11.05,-24.73 24.72,-24.73 13.68,0 24.77,11.06 24.77,24.73 0,13.67 -11.09,24.77 -24.77,24.77 -13.67,0 -24.72,-11.1 -24.72,-24.77" /><path
         id="path340"
         style="fill:#000000;fill-opacity:1;fill-rule:nonzero;stroke:none"
         d="m 4350.78,5288.09 c 0,-13.67 11.1,-24.77 24.77,-24.77 13.63,0 24.72,11.1 24.72,24.77 0,13.63 -11.09,24.73 -24.72,24.73 -13.67,0 -24.77,-11.1 -24.77,-24.73" /><path
         id="path342"
         style="fill:#000000;fill-opacity:1;fill-rule:nonzero;stroke:none"
         d="m 4422.89,5259.77 c 0,-13.63 11.09,-24.73 24.77,-24.73 13.67,0 24.72,11.1 24.72,24.73 0,13.67 -11.05,24.76 -24.72,24.76 -13.68,0 -24.77,-11.09 -24.77,-24.76" /><path
         id="path344"
         style="fill:#333333;fill-opacity:1;fill-rule:nonzero;stroke:none"
         d="m 4468.87,5152.31 c 0,-13.67 11.09,-24.77 24.76,-24.77 13.64,0 24.73,11.1 24.73,24.77 0,13.67 -11.09,24.76 -24.73,24.76 -13.67,0 -24.76,-11.09 -24.76,-24.76" /><path
         id="path346"
         style="fill:#333333;fill-opacity:1;fill-rule:nonzero;stroke:none"
         d="m 4422.89,5075.94 c 0,-13.67 11.09,-24.76 24.77,-24.76 13.67,0 24.72,11.09 24.72,24.76 0,13.67 -11.05,24.77 -24.72,24.77 -13.68,0 -24.77,-11.1 -24.77,-24.77" /><path
         id="path348"
         style="fill:#333333;fill-opacity:1;fill-rule:nonzero;stroke:none"
         d="m 4335.23,5055.43 c 0,-13.67 11.06,-24.76 24.73,-24.76 13.67,0 24.77,11.09 24.77,24.76 0,13.68 -11.1,24.77 -24.77,24.77 -13.67,0 -24.73,-11.09 -24.73,-24.77" /></g></g></svg>