<svg id="Ebene_1" data-name="Ebene 1" xmlns="http://www.w3.org/2000/svg" viewBox="0 0 527.26 407.15"><defs><style>.cls-1{fill:#231f20;}</style></defs><title>htwk_robots_logo_BLACK</title><g id="Logo_BLACK_ecke"><path class="cls-1" d="M194.29,515.11a19.58,19.58,0,0,0-7.12-5.53,22,22,0,0,0-9.21-1.9q-10.32,0-16.46,7.37t-6.14,20.39a39.38,39.38,0,0,0,1.6,11.67,25.81,25.81,0,0,0,4.54,8.78,20.11,20.11,0,0,0,7.13,5.59,21.66,21.66,0,0,0,9.34,2,21.38,21.38,0,0,0,9.21-2,20.13,20.13,0,0,0,7.12-5.59,26.68,26.68,0,0,0,4.61-8.78,38,38,0,0,0,1.66-11.67,37.63,37.63,0,0,0-1.66-11.55A26.73,26.73,0,0,0,194.29,515.11Z" transform="translate(-34.99 -217.85)"/><path class="cls-1" d="M256.93,528.62a10.07,10.07,0,0,0,4.42-8.91q0-5.9-4.73-8.54t-13.94-2.64H230.77v23.09h11.42Q252.51,531.63,256.93,528.62Z" transform="translate(-34.99 -217.85)"/><path class="cls-1" d="M259.88,538.88q-5.53-3.07-15.85-3.07H230.77v26.78H244a51.64,51.64,0,0,0,8.72-.68,19.88,19.88,0,0,0,6.76-2.33,11.73,11.73,0,0,0,4.36-4.36,13.25,13.25,0,0,0,1.54-6.63A10.32,10.32,0,0,0,259.88,538.88Z" transform="translate(-34.99 -217.85)"/><path class="cls-1" d="M130.29,521.31q0-7-4.73-9.83t-13.7-2.82h-13v25.92h13Q130.29,534.58,130.29,521.31Z" transform="translate(-34.99 -217.85)"/><path class="cls-1" d="M75.56,486.34V583.7H463V486.34ZM131,567l-18.18-28h-14v28H93.19V504.12h19.9a43.39,43.39,0,0,1,9.33.92,20.07,20.07,0,0,1,7.12,2.95,14,14,0,0,1,4.61,5.28,17.31,17.31,0,0,1,1.66,7.92q0,7.5-4.54,11.92t-12.41,5.53L137.29,567Zm73.27-17.87a31.65,31.65,0,0,1-5.9,10.38,25.62,25.62,0,0,1-9,6.63,29.43,29.43,0,0,1-23,0,26.18,26.18,0,0,1-9-6.63,30.24,30.24,0,0,1-5.9-10.38,46,46,0,0,1,0-27.39,29.58,29.58,0,0,1,5.9-10.32,25.88,25.88,0,0,1,9-6.51,30.16,30.16,0,0,1,23,0,25.33,25.33,0,0,1,9,6.51,30.93,30.93,0,0,1,5.9,10.32,44.69,44.69,0,0,1,0,27.39Zm59.57,13.33Q256.93,567,245.26,567H225.12V504.12h18.79q10.32,0,16.52,3.62t6.2,11.85a13.23,13.23,0,0,1-2.76,8.35,14.88,14.88,0,0,1-8.17,5v.49a22.41,22.41,0,0,1,10.87,4.91q4.24,3.68,4.24,10.2Q270.81,557.92,263.87,562.46Zm74.07-13.33a31.65,31.65,0,0,1-5.9,10.38,25.61,25.61,0,0,1-9,6.63,29.43,29.43,0,0,1-23,0,26.18,26.18,0,0,1-9-6.63,30.24,30.24,0,0,1-5.9-10.38,45.94,45.94,0,0,1,0-27.39,29.58,29.58,0,0,1,5.9-10.32,25.89,25.89,0,0,1,9-6.51,30.16,30.16,0,0,1,23,0,25.32,25.32,0,0,1,9,6.51,30.93,30.93,0,0,1,5.9,10.32,44.69,44.69,0,0,1,0,27.39Zm57.43-40.23H374V567h-5.65v-58.1h-21.5v-4.79h48.52Zm48.46,49.2a16.12,16.12,0,0,1-4.42,5.47,21.08,21.08,0,0,1-6.94,3.62,29.89,29.89,0,0,1-9.09,1.29,31.79,31.79,0,0,1-13.45-2.64,37.24,37.24,0,0,1-10-6.69l3.44-4.05a30.11,30.11,0,0,0,8.91,6.33,26.1,26.1,0,0,0,11.24,2.4q7.61,0,11.91-3.32a10.61,10.61,0,0,0,4.3-8.84,11.55,11.55,0,0,0-.92-4.91,10.3,10.3,0,0,0-2.52-3.38,16,16,0,0,0-3.81-2.46q-2.21-1-4.79-2.15l-8.6-3.56a44.88,44.88,0,0,1-6-2.83,25.07,25.07,0,0,1-4.91-3.56,15.31,15.31,0,0,1-3.32-4.48,12.83,12.83,0,0,1-1.23-5.71,13.87,13.87,0,0,1,1.54-6.51,15.18,15.18,0,0,1,4.24-5,20.46,20.46,0,0,1,6.39-3.25,26.77,26.77,0,0,1,8.11-1.17,27.61,27.61,0,0,1,11.42,2.21,26.64,26.64,0,0,1,8,5.28l-3.19,3.68a26.86,26.86,0,0,0-7.13-4.67,21.73,21.73,0,0,0-9.09-1.84q-6.63,0-10.63,2.95a9.52,9.52,0,0,0-4,8.11q0,4.79,3.19,7.25a39.19,39.19,0,0,0,8.84,4.79l8.72,3.69q3.44,1.35,6.33,2.76a18.87,18.87,0,0,1,4.85,3.32,13.38,13.38,0,0,1,3.07,4.61,17.17,17.17,0,0,1,1.11,6.51A15.29,15.29,0,0,1,443.83,558.1Z" transform="translate(-34.99 -217.85)"/><path class="cls-1" d="M327.93,515.11a19.58,19.58,0,0,0-7.12-5.53,22,22,0,0,0-9.21-1.9q-10.32,0-16.46,7.37T289,535.44a39.35,39.35,0,0,0,1.6,11.67,25.81,25.81,0,0,0,4.54,8.78,20.11,20.11,0,0,0,7.13,5.59,21.66,21.66,0,0,0,9.33,2,21.38,21.38,0,0,0,9.21-2,20.13,20.13,0,0,0,7.12-5.59,26.65,26.65,0,0,0,4.61-8.78,38,38,0,0,0,1.66-11.67,37.62,37.62,0,0,0-1.66-11.55A26.71,26.71,0,0,0,327.93,515.11Z" transform="translate(-34.99 -217.85)"/><path class="cls-1" d="M75.56,469.46V369.07H93.37v40.37H134V369.07h17.81V469.46H134V424.94H93.37v44.51Z" transform="translate(-34.99 -217.85)"/><path class="cls-1" d="M197.59,469.46V384.11h-29v-15h75.83v15h-29v85.35Z" transform="translate(-34.99 -217.85)"/><path class="cls-1" d="M271.12,469.46l-20-100.39h18.27l8.75,50.65q1.23,8.14,2.46,16.12l2.46,16h.61q1.69-8,3.3-16t3.3-16l12.28-50.65h15.5l12.28,50.65q1.69,7.83,3.38,15.89t3.38,16.19h.61q1.23-8.13,2.38-16.12t2.38-16l8.75-50.65h17L349.1,469.46H327l-12.43-52.8q-1.23-5.83-2.38-11.59t-2.07-11.59h-.61q-1.08,5.84-2.23,11.59t-2.38,11.59l-12.13,52.8Z" transform="translate(-34.99 -217.85)"/><path class="cls-1" d="M383.94,469.46V369.07h17.8v45.59h.46L438,369.07h19.8l-30.85,39.14L463,469.46H443.34l-27.17-47.28-14.43,18v29.32Z" transform="translate(-34.99 -217.85)"/><path class="cls-1" d="M495.79,316.27a14.28,14.28,0,1,1,13.8-10.59h0A14.31,14.31,0,0,1,495.79,316.27Zm0-23.8a9.53,9.53,0,1,0,2.48.33A9.62,9.62,0,0,0,495.78,292.47Z" transform="translate(-34.99 -217.85)"/><path class="cls-1" d="M553.48,268c-3.26-1.6-10.25-8.57-17-15.32-8.43-8.41-18-17.94-24.76-21.81-11-6.26-35.95-12.95-48.58-13H463c-7.82,0-20.77,3.45-32.2,6.5-9.23,2.46-18.79,5-22.38,4.76-11-.78-22.26,15.29-26.22,37.28-4,22.4,2.59,38.12,10.93,43.76.82.56,2.47,1.83,4.55,3.44,9,6.94,27.68,21.39,41.91,26.11l7.56,2.53a137.68,137.68,0,0,0,16.22,4.35l7.82,1.59a77,77,0,0,0,15.14,1.27c12.59,0,26.37-1.86,34.22-2.93,2.61-.35,4.67-.63,5.65-.7,10-.71,23.64-11,31.35-32.43C565.12,292.36,563.37,272.84,553.48,268ZM432,229c11.15-3,23.77-6.34,31-6.34h.13c11.8.07,36,6.55,46.25,12.39,6.23,3.55,15.54,12.84,23.75,21l1.29,1.29a17,17,0,0,1-20.54,11.05l-71.35-19.12a17.06,17.06,0,0,1-12.27-19.84Zm121,82.81c-7,19.4-18.7,28.69-27.21,29.3-1.14.08-3.16.35-6,.73-11,1.49-33.86,4.58-47.76,1.72l-7.82-1.59a133,133,0,0,1-15.66-4.2l-7.57-2.53h0c-13.46-4.46-31.71-18.57-40.49-25.36-2.24-1.73-3.85-3-4.8-3.62-7.07-4.78-12.56-18.68-8.91-39,3.75-20.84,13.6-33.38,20.8-33.38h.4c3.44.23,9.66-1.18,17.16-3.12a21.83,21.83,0,0,0,16,23.13L512.63,273a21.79,21.79,0,0,0,25.47-12c5.52,5.43,10.21,9.76,13.28,11.27C557.88,275.46,560.37,291.46,553.06,311.77Z" transform="translate(-34.99 -217.85)"/><path class="cls-1" d="M441.39,301.69a14.3,14.3,0,0,1-13.82-18h0a14.27,14.27,0,1,1,13.82,18Zm-9.21-16.75a9.51,9.51,0,1,0,4.43-5.78,9.53,9.53,0,0,0-4.43,5.78Z" transform="translate(-34.99 -217.85)"/><path class="cls-1" d="M311.11,344.18c-29.18,0-52-11.92-52-27.13s22.86-27.14,52-27.14,52,11.92,52,27.14S340.29,344.18,311.11,344.18Zm0-49.5c-25.62,0-47.27,10.24-47.27,22.37s21.65,22.37,47.27,22.37,47.27-10.24,47.27-22.37S336.73,294.68,311.11,294.68Z" transform="translate(-34.99 -217.85)"/><path class="cls-1" d="M503,471.3c-15.22,0-27.14-22.86-27.14-52s11.92-52,27.14-52,27.13,22.86,27.13,52S518.21,471.3,503,471.3ZM503,372c-12.13,0-22.37,21.65-22.37,47.27s10.24,47.27,22.37,47.27,22.37-21.65,22.37-47.27S515.12,372,503,372Z" transform="translate(-34.99 -217.85)"/><polygon class="cls-1" points="468.7 407.15 0 407.15 0 110.41 209.02 110.41 209.02 115.17 4.77 115.17 4.77 402.39 463.93 402.39 463.93 268.5 468.7 268.5 468.7 407.15"/></g></svg>