<?xml version="1.0" encoding="utf-8"?>
<!-- Generator: Adobe Illustrator 19.1.0, SVG Export Plug-In . SVG Version: 6.00 Build 0)  -->
<svg version="1.1" id="Ebene_1" xmlns="http://www.w3.org/2000/svg" xmlns:xlink="http://www.w3.org/1999/xlink" x="0px" y="0px"
	 viewBox="0 0 390 124.2" style="enable-background:new 0 0 390 124.2;" xml:space="preserve">
<style type="text/css">
	.st0{fill:#33488B;}
	.st1{fill:#68AA6A;}
</style>
<g>
	<g>
		<path class="st0" d="M131,103.1v3.2h-1.7V98h2.4c1.1,0,1.9,0.2,2.5,0.6c0.5,0.4,0.8,1,0.8,1.9c0,0.5-0.1,0.9-0.4,1.3
			c-0.3,0.4-0.6,0.7-1.1,0.9c1.2,1.9,2,3.1,2.4,3.6h-1.9l-2-3.2H131z M131,101.7h0.6c0.6,0,1-0.1,1.2-0.3s0.4-0.5,0.4-0.9
			c0-0.4-0.1-0.7-0.4-0.8c-0.3-0.2-0.7-0.2-1.2-0.2H131V101.7z"/>
		<path class="st0" d="M142.4,103.1c0,1-0.3,1.8-0.8,2.4c-0.5,0.6-1.3,0.9-2.3,0.9c-0.6,0-1.1-0.1-1.6-0.4c-0.5-0.3-0.8-0.6-1.1-1.1
			c-0.2-0.5-0.4-1.1-0.4-1.7c0-1,0.3-1.8,0.8-2.4c0.5-0.6,1.3-0.9,2.3-0.9c0.6,0,1.1,0.1,1.6,0.4c0.5,0.3,0.8,0.6,1.1,1.1
			C142.3,101.8,142.4,102.4,142.4,103.1z M138.1,103.1c0,0.6,0.1,1.1,0.3,1.4s0.5,0.5,1,0.5c0.5,0,0.8-0.2,1-0.5
			c0.2-0.3,0.3-0.8,0.3-1.4c0-0.6-0.1-1.1-0.3-1.4c-0.2-0.3-0.5-0.5-1-0.5c-0.5,0-0.8,0.2-1,0.5C138.2,102,138.1,102.5,138.1,103.1z
			"/>
		<path class="st0" d="M147.4,99.8c0.7,0,1.3,0.3,1.7,0.9c0.4,0.6,0.6,1.4,0.6,2.4c0,1-0.2,1.8-0.7,2.4c-0.4,0.6-1,0.9-1.8,0.9
			c-0.7,0-1.3-0.3-1.7-0.8h-0.1l-0.3,0.7h-1.3v-8.8h1.7v2c0,0.3,0,0.7-0.1,1.2h0.1C146,100.1,146.6,99.8,147.4,99.8z M146.8,101.2
			c-0.4,0-0.7,0.1-0.9,0.4c-0.2,0.3-0.3,0.7-0.3,1.3v0.2c0,0.7,0.1,1.2,0.3,1.5c0.2,0.3,0.5,0.4,1,0.4c0.4,0,0.6-0.2,0.8-0.5
			c0.2-0.3,0.3-0.8,0.3-1.4c0-0.6-0.1-1.1-0.3-1.4C147.5,101.4,147.2,101.2,146.8,101.2z"/>
		<path class="st0" d="M156.9,103.1c0,1-0.3,1.8-0.8,2.4c-0.5,0.6-1.3,0.9-2.3,0.9c-0.6,0-1.1-0.1-1.6-0.4c-0.5-0.3-0.8-0.6-1.1-1.1
			c-0.2-0.5-0.4-1.1-0.4-1.7c0-1,0.3-1.8,0.8-2.4c0.5-0.6,1.3-0.9,2.3-0.9c0.6,0,1.1,0.1,1.6,0.4c0.5,0.3,0.8,0.6,1.1,1.1
			C156.8,101.8,156.9,102.4,156.9,103.1z M152.5,103.1c0,0.6,0.1,1.1,0.3,1.4s0.5,0.5,1,0.5c0.5,0,0.8-0.2,1-0.5
			c0.2-0.3,0.3-0.8,0.3-1.4c0-0.6-0.1-1.1-0.3-1.4c-0.2-0.3-0.5-0.5-1-0.5c-0.5,0-0.8,0.2-1,0.5C152.6,102,152.5,102.5,152.5,103.1z
			"/>
		<path class="st0" d="M162,99.3c-0.7,0-1.2,0.2-1.5,0.7s-0.5,1.2-0.5,2.1c0,1.8,0.7,2.8,2.1,2.8c0.6,0,1.3-0.1,2.1-0.4v1.5
			c-0.7,0.3-1.4,0.4-2.3,0.4c-1.2,0-2.1-0.4-2.8-1.1s-1-1.8-1-3.1c0-0.9,0.2-1.6,0.5-2.3c0.3-0.6,0.8-1.1,1.3-1.5s1.3-0.5,2.1-0.5
			c0.8,0,1.6,0.2,2.4,0.6l-0.6,1.4c-0.3-0.1-0.6-0.3-0.9-0.4C162.6,99.4,162.3,99.3,162,99.3z"/>
		<path class="st0" d="M170.1,106.2l-0.2-0.8h-0.1c-0.2,0.3-0.4,0.5-0.8,0.7c-0.3,0.2-0.7,0.2-1.2,0.2c-0.7,0-1.3-0.2-1.7-0.6
			c-0.4-0.4-0.6-1-0.6-1.7v-4.1h1.7v3.7c0,0.5,0.1,0.8,0.2,1s0.4,0.3,0.8,0.3c0.5,0,0.8-0.2,1-0.5s0.3-0.9,0.3-1.6v-3h1.7v6.3H170.1
			z"/>
		<path class="st0" d="M176.7,106.4c-0.7,0-1.3-0.3-1.7-0.8h-0.1c0.1,0.5,0.1,0.8,0.1,0.9v2.6h-1.7v-9.1h1.4l0.2,0.8h0.1
			c0.4-0.6,1-0.9,1.8-0.9c0.7,0,1.3,0.3,1.7,0.9c0.4,0.6,0.6,1.4,0.6,2.4c0,0.7-0.1,1.3-0.3,1.8c-0.2,0.5-0.5,0.9-0.8,1.1
			C177.7,106.2,177.2,106.4,176.7,106.4z M176.2,101.2c-0.4,0-0.7,0.1-0.9,0.4s-0.3,0.7-0.3,1.3v0.2c0,0.7,0.1,1.2,0.3,1.5
			c0.2,0.3,0.5,0.4,1,0.4c0.8,0,1.2-0.6,1.2-1.9c0-0.6-0.1-1.1-0.3-1.4S176.6,101.2,176.2,101.2z"/>
		<path class="st0" d="M188.6,104c0,0.7-0.3,1.3-0.8,1.8c-0.5,0.4-1.3,0.6-2.2,0.6c-0.9,0-1.7-0.2-2.3-0.5v-1.6
			c0.6,0.2,1,0.4,1.4,0.5c0.4,0.1,0.7,0.2,1.1,0.2c0.4,0,0.7-0.1,0.9-0.2s0.3-0.4,0.3-0.7c0-0.2,0-0.3-0.1-0.4
			c-0.1-0.1-0.2-0.2-0.4-0.4s-0.5-0.3-1.1-0.6c-0.5-0.2-0.9-0.5-1.1-0.7c-0.3-0.2-0.5-0.5-0.6-0.8c-0.2-0.3-0.2-0.6-0.2-1
			c0-0.7,0.2-1.3,0.7-1.7c0.5-0.4,1.2-0.6,2.1-0.6c0.4,0,0.8,0.1,1.2,0.2c0.4,0.1,0.8,0.2,1.2,0.4l-0.6,1.4
			c-0.4-0.2-0.8-0.3-1.1-0.4c-0.3-0.1-0.6-0.1-0.8-0.1c-0.3,0-0.6,0.1-0.8,0.2c-0.2,0.2-0.3,0.4-0.3,0.6c0,0.2,0,0.3,0.1,0.4
			c0.1,0.1,0.2,0.2,0.3,0.3c0.2,0.1,0.5,0.3,1.1,0.6c0.8,0.4,1.3,0.7,1.6,1.1S188.6,103.4,188.6,104z"/>
		<path class="st0" d="M195.8,100.6c0,0.9-0.3,1.6-0.8,2c-0.6,0.5-1.3,0.7-2.4,0.7h-0.8v2.9h-1.7V98h2.6c1,0,1.8,0.2,2.3,0.6
			C195.5,99.1,195.8,99.7,195.8,100.6z M191.8,101.9h0.6c0.5,0,0.9-0.1,1.2-0.3c0.3-0.2,0.4-0.5,0.4-0.9c0-0.4-0.1-0.7-0.3-0.9
			c-0.2-0.2-0.6-0.3-1.1-0.3h-0.8V101.9z"/>
		<path class="st0" d="M197.3,106.2V98h1.7v6.8h3.3v1.4H197.3z"/>
		<path class="st0" d="M210,106.2h-1.7v-6.8h-2.2V98h6.2v1.5H210V106.2z"/>
		<path class="st0" d="M216.3,106.4c-1,0-1.8-0.3-2.4-0.8c-0.6-0.6-0.9-1.4-0.9-2.4c0-1.1,0.3-1.9,0.8-2.5c0.5-0.6,1.3-0.9,2.2-0.9
			c0.9,0,1.6,0.3,2.1,0.8s0.7,1.2,0.7,2.1v0.8h-4.1c0,0.5,0.2,0.9,0.4,1.1c0.3,0.3,0.7,0.4,1.1,0.4c0.4,0,0.7,0,1.1-0.1
			c0.3-0.1,0.7-0.2,1.1-0.4v1.3c-0.3,0.2-0.6,0.3-1,0.3S216.8,106.4,216.3,106.4z M216,101c-0.4,0-0.7,0.1-0.9,0.3s-0.3,0.6-0.4,1
			h2.4c0-0.4-0.1-0.8-0.3-1S216.4,101,216,101z"/>
		<path class="st0" d="M224.2,106.2l-0.3-0.9h0c-0.3,0.4-0.6,0.6-0.9,0.8c-0.3,0.1-0.7,0.2-1.2,0.2c-0.6,0-1.1-0.2-1.4-0.5
			c-0.3-0.3-0.5-0.8-0.5-1.5c0-0.7,0.2-1.2,0.7-1.5c0.5-0.3,1.2-0.5,2.1-0.5l1.1,0V102c0-0.6-0.3-1-1-1c-0.5,0-1.1,0.2-1.8,0.5
			l-0.6-1.2c0.7-0.4,1.5-0.6,2.4-0.6c0.8,0,1.5,0.2,1.9,0.6c0.5,0.4,0.7,0.9,0.7,1.7v4.2H224.2z M223.7,103.3l-0.7,0
			c-0.5,0-0.9,0.1-1.1,0.3c-0.2,0.2-0.4,0.4-0.4,0.8c0,0.5,0.3,0.7,0.8,0.7c0.4,0,0.7-0.1,1-0.3c0.2-0.2,0.4-0.5,0.4-0.9V103.3z"/>
		<path class="st0" d="M232.9,106.2h-1.7v-3.7c0-0.5-0.1-0.8-0.2-1c-0.2-0.2-0.4-0.3-0.7-0.3c-0.4,0-0.8,0.2-1,0.5
			c-0.2,0.3-0.3,0.9-0.3,1.6v3h-1.7v-6.3h1.3l0.2,0.8h0.1c0.2-0.3,0.4-0.5,0.7-0.7s0.7-0.2,1.1-0.2c0.9,0,1.6,0.3,1.9,0.9h0.2
			c0.2-0.3,0.4-0.5,0.7-0.7c0.3-0.2,0.7-0.2,1.1-0.2c0.7,0,1.3,0.2,1.6,0.5s0.5,1,0.5,1.8v4.1h-1.7v-3.7c0-0.5-0.1-0.8-0.2-1
			c-0.2-0.2-0.4-0.3-0.7-0.3c-0.4,0-0.7,0.2-0.9,0.5c-0.2,0.3-0.3,0.8-0.3,1.4V106.2z"/>
		<path class="st0" d="M241.4,102c0-0.5,0.1-0.9,0.4-1.2s0.6-0.4,1.1-0.4c0.5,0,0.8,0.1,1.1,0.4s0.4,0.7,0.4,1.2
			c0,0.5-0.1,0.9-0.4,1.2c-0.3,0.3-0.6,0.4-1.1,0.4c-0.5,0-0.8-0.1-1.1-0.4C241.5,102.9,241.4,102.5,241.4,102z"/>
		<path class="st0" d="M251.9,106.2h-1.3v-7.1h-2.4V98h6.2v1.2h-2.4V106.2z"/>
		<path class="st0" d="M262.1,98v5.3c0,0.6-0.1,1.1-0.4,1.6c-0.3,0.5-0.6,0.8-1.1,1.1c-0.5,0.2-1.1,0.4-1.8,0.4
			c-1,0-1.8-0.3-2.4-0.8c-0.6-0.5-0.9-1.3-0.9-2.2V98h1.4v5.2c0,0.7,0.2,1.2,0.5,1.5c0.3,0.3,0.8,0.5,1.5,0.5c1.3,0,1.9-0.7,1.9-2
			V98H262.1z"/>
		<path class="st0" d="M273.7,106.2h-1.4v-3.7h-3.8v3.7h-1.3V98h1.3v3.4h3.8V98h1.4V106.2z"/>
		<path class="st0" d="M279.6,106.2l-0.3-0.9h0c-0.3,0.4-0.6,0.6-0.9,0.8c-0.3,0.1-0.7,0.2-1.2,0.2c-0.6,0-1.1-0.2-1.4-0.5
			c-0.3-0.3-0.5-0.8-0.5-1.4c0-0.6,0.2-1.1,0.7-1.5c0.5-0.3,1.2-0.5,2.2-0.5l1.1,0v-0.3c0-0.4-0.1-0.7-0.3-0.9
			c-0.2-0.2-0.5-0.3-0.9-0.3c-0.3,0-0.6,0-0.9,0.1c-0.3,0.1-0.6,0.2-0.8,0.3l-0.4-0.9c0.3-0.2,0.7-0.3,1.1-0.4
			c0.4-0.1,0.8-0.1,1.1-0.1c0.8,0,1.4,0.2,1.8,0.5c0.4,0.3,0.6,0.9,0.6,1.6v4.2H279.6z M277.7,105.3c0.5,0,0.9-0.1,1.2-0.4
			c0.3-0.3,0.4-0.6,0.4-1.1v-0.5l-0.8,0c-0.6,0-1.1,0.1-1.4,0.3c-0.3,0.2-0.4,0.5-0.4,0.9c0,0.3,0.1,0.5,0.2,0.6
			C277.1,105.3,277.3,105.3,277.7,105.3z"/>
		<path class="st0" d="M287.7,106.2h-1.3v-3.8c0-0.5-0.1-0.8-0.3-1.1c-0.2-0.2-0.5-0.4-0.8-0.4c-0.5,0-0.9,0.2-1.1,0.5
			c-0.2,0.3-0.4,0.9-0.4,1.7v3.1h-1.3V100h1l0.2,0.8h0.1c0.2-0.3,0.4-0.5,0.8-0.7c0.3-0.2,0.7-0.2,1.1-0.2c1,0,1.6,0.3,1.9,1h0.1
			c0.2-0.3,0.4-0.5,0.8-0.7c0.3-0.2,0.7-0.3,1.2-0.3c0.7,0,1.3,0.2,1.6,0.6c0.3,0.4,0.5,0.9,0.5,1.7v4.1h-1.3v-3.8
			c0-0.5-0.1-0.8-0.3-1.1c-0.2-0.2-0.5-0.4-0.8-0.4c-0.5,0-0.9,0.2-1.1,0.5s-0.4,0.8-0.4,1.5V106.2z"/>
		<path class="st0" d="M296.7,99.9c0.8,0,1.4,0.3,1.8,0.8c0.4,0.6,0.7,1.4,0.7,2.4c0,1-0.2,1.8-0.7,2.4c-0.4,0.6-1.1,0.9-1.8,0.9
			c-0.8,0-1.4-0.3-1.8-0.9h-0.1l-0.2,0.7h-1v-8.8h1.3v2.1c0,0.2,0,0.4,0,0.7s0,0.5,0,0.6h0.1C295.2,100.2,295.9,99.9,296.7,99.9z
			 M296.3,101c-0.5,0-0.9,0.2-1.2,0.5c-0.2,0.3-0.4,0.8-0.4,1.6v0.1c0,0.8,0.1,1.3,0.4,1.6s0.6,0.5,1.2,0.5c0.5,0,0.8-0.2,1.1-0.6
			c0.2-0.4,0.4-0.9,0.4-1.6C297.8,101.7,297.3,101,296.3,101z"/>
		<path class="st0" d="M305.1,106.2l-0.2-0.8h-0.1c-0.2,0.3-0.4,0.5-0.8,0.7c-0.3,0.2-0.7,0.2-1.2,0.2c-0.8,0-1.3-0.2-1.7-0.6
			c-0.4-0.4-0.6-0.9-0.6-1.7V100h1.3v3.8c0,0.5,0.1,0.8,0.3,1.1c0.2,0.2,0.5,0.4,0.9,0.4c0.6,0,1-0.2,1.2-0.5
			c0.3-0.3,0.4-0.9,0.4-1.7V100h1.3v6.2H305.1z"/>
		<path class="st0" d="M311.2,99.9c0.3,0,0.5,0,0.7,0.1l-0.1,1.2c-0.2,0-0.4-0.1-0.6-0.1c-0.5,0-1,0.2-1.3,0.5
			c-0.3,0.3-0.5,0.8-0.5,1.3v3.3H308V100h1l0.2,1.1h0.1c0.2-0.4,0.5-0.7,0.8-0.9S310.8,99.9,311.2,99.9z"/>
		<path class="st0" d="M318.3,100v0.7l-1.1,0.2c0.1,0.1,0.2,0.3,0.2,0.5c0.1,0.2,0.1,0.4,0.1,0.6c0,0.6-0.2,1.1-0.7,1.5
			c-0.4,0.4-1.1,0.6-1.8,0.6c-0.2,0-0.4,0-0.5,0c-0.3,0.2-0.4,0.4-0.4,0.6c0,0.1,0.1,0.3,0.2,0.3c0.1,0.1,0.4,0.1,0.7,0.1h1.1
			c0.7,0,1.2,0.1,1.6,0.4c0.4,0.3,0.5,0.7,0.5,1.3c0,0.7-0.3,1.3-0.9,1.6s-1.4,0.6-2.5,0.6c-0.8,0-1.5-0.2-1.9-0.5s-0.7-0.7-0.7-1.3
			c0-0.4,0.1-0.7,0.4-1c0.2-0.3,0.6-0.4,1-0.5c-0.2-0.1-0.3-0.2-0.4-0.4s-0.2-0.3-0.2-0.5c0-0.2,0.1-0.4,0.2-0.6
			c0.1-0.2,0.3-0.3,0.6-0.5c-0.3-0.1-0.6-0.4-0.8-0.7s-0.3-0.7-0.3-1.1c0-0.7,0.2-1.2,0.6-1.6c0.4-0.4,1-0.6,1.8-0.6
			c0.2,0,0.4,0,0.6,0c0.2,0,0.3,0,0.4,0.1H318.3z M313.4,107.2c0,0.3,0.1,0.5,0.4,0.7c0.3,0.2,0.6,0.2,1.1,0.2
			c0.7,0,1.3-0.1,1.6-0.3c0.4-0.2,0.5-0.5,0.5-0.8c0-0.3-0.1-0.5-0.3-0.6c-0.2-0.1-0.6-0.2-1.1-0.2h-1c-0.4,0-0.7,0.1-0.9,0.3
			C313.5,106.7,313.4,106.9,313.4,107.2z M313.9,102c0,0.4,0.1,0.7,0.3,0.9s0.5,0.3,0.9,0.3c0.8,0,1.2-0.4,1.2-1.2
			c0-0.4-0.1-0.7-0.3-0.9c-0.2-0.2-0.5-0.3-0.9-0.3c-0.4,0-0.7,0.1-0.9,0.3S313.9,101.6,313.9,102z"/>
		<path class="st0" d="M320.8,105c-0.2,0.7-0.5,1.6-1,2.7h-1c0.3-1,0.5-2,0.6-2.8h1.3L320.8,105z"/>
		<path class="st0" d="M329,101.8h3v4.1c-0.5,0.2-1,0.3-1.4,0.3s-1,0.1-1.5,0.1c-1.2,0-2.2-0.4-2.9-1.1c-0.7-0.7-1-1.8-1-3.1
			c0-1.3,0.4-2.4,1.1-3.1c0.8-0.8,1.8-1.1,3.2-1.1c0.9,0,1.7,0.2,2.4,0.5l-0.5,1.1c-0.7-0.3-1.3-0.5-2-0.5c-0.9,0-1.6,0.3-2.1,0.8
			c-0.5,0.6-0.8,1.3-0.8,2.3c0,1,0.2,1.8,0.7,2.3c0.5,0.5,1.1,0.8,2,0.8c0.4,0,0.9-0.1,1.4-0.2v-2.1H329V101.8z"/>
		<path class="st0" d="M336.6,106.4c-1,0-1.7-0.3-2.3-0.8c-0.5-0.6-0.8-1.3-0.8-2.3c0-1,0.3-1.8,0.8-2.4c0.5-0.6,1.2-0.9,2.1-0.9
			c0.8,0,1.5,0.3,2,0.8c0.5,0.5,0.7,1.2,0.7,2.1v0.7h-4.2c0,0.6,0.2,1.1,0.5,1.4c0.3,0.3,0.7,0.5,1.3,0.5c0.4,0,0.7,0,1-0.1
			c0.3-0.1,0.7-0.2,1-0.3v1.1c-0.3,0.2-0.7,0.3-1,0.3C337.4,106.3,337,106.4,336.6,106.4z M336.4,100.9c-0.4,0-0.8,0.1-1,0.4
			c-0.3,0.3-0.4,0.7-0.5,1.2h2.8c0-0.5-0.1-0.9-0.4-1.2C337.1,101,336.8,100.9,336.4,100.9z"/>
		<path class="st0" d="M343.7,99.9c0.3,0,0.5,0,0.7,0.1l-0.1,1.2c-0.2,0-0.4-0.1-0.6-0.1c-0.5,0-1,0.2-1.3,0.5
			c-0.3,0.3-0.5,0.8-0.5,1.3v3.3h-1.3V100h1l0.2,1.1h0.1c0.2-0.4,0.5-0.7,0.8-0.9S343.3,99.9,343.7,99.9z"/>
		<path class="st0" d="M350.8,106.2h-1.3v-3.8c0-0.5-0.1-0.8-0.3-1.1c-0.2-0.2-0.5-0.4-0.8-0.4c-0.5,0-0.9,0.2-1.1,0.5
			c-0.2,0.3-0.4,0.9-0.4,1.7v3.1h-1.3V100h1l0.2,0.8h0.1c0.2-0.3,0.4-0.5,0.8-0.7c0.3-0.2,0.7-0.2,1.1-0.2c1,0,1.6,0.3,1.9,1h0.1
			c0.2-0.3,0.4-0.5,0.8-0.7c0.3-0.2,0.7-0.3,1.2-0.3c0.7,0,1.3,0.2,1.6,0.6c0.3,0.4,0.5,0.9,0.5,1.7v4.1h-1.3v-3.8
			c0-0.5-0.1-0.8-0.3-1.1c-0.2-0.2-0.5-0.4-0.8-0.4c-0.5,0-0.9,0.2-1.1,0.5s-0.4,0.8-0.4,1.5V106.2z"/>
		<path class="st0" d="M360.5,106.2l-0.3-0.9h0c-0.3,0.4-0.6,0.6-0.9,0.8s-0.7,0.2-1.2,0.2c-0.6,0-1.1-0.2-1.4-0.5
			c-0.3-0.3-0.5-0.8-0.5-1.4c0-0.6,0.2-1.1,0.7-1.5c0.5-0.3,1.2-0.5,2.2-0.5l1.1,0v-0.3c0-0.4-0.1-0.7-0.3-0.9s-0.5-0.3-0.9-0.3
			c-0.3,0-0.6,0-0.9,0.1s-0.6,0.2-0.8,0.3l-0.4-0.9c0.3-0.2,0.7-0.3,1.1-0.4c0.4-0.1,0.8-0.1,1.1-0.1c0.8,0,1.4,0.2,1.8,0.5
			c0.4,0.3,0.6,0.9,0.6,1.6v4.2H360.5z M358.5,105.3c0.5,0,0.9-0.1,1.2-0.4c0.3-0.3,0.4-0.6,0.4-1.1v-0.5l-0.8,0
			c-0.6,0-1.1,0.1-1.4,0.3c-0.3,0.2-0.4,0.5-0.4,0.9c0,0.3,0.1,0.5,0.2,0.6C357.9,105.3,358.2,105.3,358.5,105.3z"/>
		<path class="st0" d="M368.8,106.2h-1.3v-3.8c0-0.5-0.1-0.8-0.3-1.1c-0.2-0.2-0.5-0.4-0.9-0.4c-0.6,0-1,0.2-1.2,0.5
			s-0.4,0.9-0.4,1.7v3.1h-1.3V100h1l0.2,0.8h0.1c0.2-0.3,0.5-0.5,0.8-0.7c0.3-0.2,0.7-0.2,1.2-0.2c1.5,0,2.2,0.8,2.2,2.3V106.2z"/>
		<path class="st0" d="M369.7,100h1.4l1.3,3.5c0.2,0.5,0.3,1,0.4,1.4h0c0-0.2,0.1-0.5,0.2-0.8c0.1-0.3,0.6-1.7,1.4-4.2h1.4l-2.7,7.1
			c-0.5,1.3-1.3,1.9-2.4,1.9c-0.3,0-0.6,0-0.9-0.1v-1c0.2,0,0.4,0.1,0.7,0.1c0.6,0,1.1-0.4,1.3-1.1l0.2-0.6L369.7,100z"/>
	</g>
	<g>
		<path class="st1" d="M180.2,91.8h-12.8V64.5H142v27.3h-12.8V32.3H142v20.4h25.5V32.3h12.8V91.8z"/>
		<path class="st1" d="M236.3,83.3c0,2.3-0.8,4.3-2.5,6c-1.7,1.7-3.7,2.5-6,2.5h-34c-2.3,0-4.3-0.8-6-2.5c-1.7-1.7-2.5-3.7-2.5-6
			v-51h12.8V80h25.5V32.3h12.8V83.3z"/>
		<path class="st1" d="M288.2,91.8h-38.2c-2.3,0-4.3-0.8-6-2.5c-1.7-1.7-2.5-3.7-2.5-6v-51h12.8V80h34V91.8z"/>
		<path class="st1" d="M349.4,91.8h-16.2l-13.6-18.7L306,91.8h-12.8V32.3H306v37.3l27.2-37.3h16.2l-21.7,29.7L349.4,91.8z"/>
		<path class="st1" d="M375.9,88c0,1-0.4,1.9-1.1,2.7c-0.7,0.7-1.6,1.1-2.7,1.1h-19v-5.3h17.1v-6.9h-13.3c-1,0-1.9-0.4-2.7-1.1
			c-0.7-0.7-1.1-1.6-1.1-2.7V69c0-1,0.4-1.9,1.1-2.7c0.7-0.7,1.6-1.1,2.7-1.1h19v5.3h-17.1v3.8h13.3c1,0,1.9,0.4,2.7,1.1
			c0.7,0.7,1.1,1.6,1.1,2.7V88z"/>
	</g>
	<g>
		<g>
			<path class="st1" d="M78,17.1c0,0-0.4,0.2-1.1,0.4c-0.7,0.2-1.8,0.7-3.1,1c-1.4,0.4-2.9,0.9-4.6,1.4c-1.7,0.5-3.6,1.1-5.6,1.7
				c-1,0.3-2,0.6-3.1,1c-0.5,0.2-1.1,0.3-1.6,0.5c-0.5,0.2-1.1,0.4-1.6,0.6c-1.1,0.4-2.2,0.6-3.2,1.1c-1,0.5-2.2,0.7-3.2,1.2
				c-2.1,0.8-4.1,1.8-6,2.8c-0.2,0.1-0.5,0.2-0.7,0.4l-0.6,0.4c-0.4,0.3-0.9,0.5-1.3,0.8c-0.8,0.6-1.7,1.1-2.4,1.7
				c-0.4,0.3-0.8,0.5-1.1,0.8c-0.3,0.3-0.7,0.6-1,0.9c-0.3,0.3-0.6,0.6-0.9,0.9L36,35.6c-0.3,0.3-0.5,0.7-0.8,1
				c-0.3,0.3-0.5,0.7-0.7,1L34.2,38l-0.3,0.5c-0.2,0.4-0.5,0.7-0.6,1.1c-0.7,1.4-1.4,2.9-1.7,4.5c-0.3,1.6-0.5,3.2-0.4,4.7
				c0,0.4,0.1,0.8,0.1,1.2c0.1,0.4,0.2,0.7,0.2,1.1c0.1,0.8,0.4,1.5,0.6,2.2c0.5,1.4,1.1,2.7,1.8,3.7c0.3,0.5,0.7,1,0.9,1.4
				c0.3,0.4,0.6,0.7,0.8,1c0.5,0.6,0.7,0.9,0.7,0.9l-0.4,1.1c0,0-0.4-0.1-1-0.4c-0.3-0.1-0.7-0.3-1.2-0.5c-0.5-0.2-1-0.5-1.6-0.8
				c-1.2-0.6-2.5-1.6-3.8-2.8c-1.3-1.3-2.7-2.9-3.7-5c-1-2-1.8-4.4-2.2-7c-0.3-2.6-0.2-5.4,0.5-8.2c0.7-2.8,1.9-5.5,3.6-8
				c1.6-2.5,3.8-4.7,6.2-6.5c1.2-1,2.5-1.7,3.8-2.5c0.7-0.4,1.3-0.7,2-1l1-0.5c0.3-0.2,0.7-0.3,1-0.4c0.7-0.3,1.4-0.5,2-0.8
				c0.7-0.2,1.4-0.4,2.1-0.7c1.4-0.5,2.8-0.8,4.1-1.1c2.7-0.6,5.4-0.9,7.9-1.1c0.6,0,1.3-0.1,1.9-0.1c0.6,0,1.2,0,1.8,0
				c1.2,0,2.3-0.1,3.4,0c2.2,0.1,4.2,0.2,6,0.4c1.8,0.2,3.3,0.4,4.6,0.6c2.5,0.4,3.9,0.7,3.9,0.7L78,17.1z"/>
		</g>
		<g>
			<path class="st1" d="M46.1,107.1c0,0,0.4-0.2,1.1-0.4c0.7-0.2,1.8-0.7,3.1-1c1.4-0.4,2.9-0.9,4.6-1.4c1.7-0.5,3.6-1.1,5.6-1.7
				c1-0.3,2-0.6,3.1-1c0.5-0.2,1.1-0.3,1.6-0.5c0.5-0.2,1.1-0.4,1.6-0.6c1.1-0.4,2.2-0.6,3.2-1.1c1-0.5,2.2-0.7,3.2-1.2
				c2.1-0.8,4.1-1.8,6-2.8c0.2-0.1,0.5-0.2,0.7-0.4l0.6-0.4c0.4-0.3,0.9-0.5,1.3-0.8c0.8-0.6,1.7-1.1,2.4-1.7
				c0.4-0.3,0.8-0.5,1.1-0.8c0.3-0.3,0.7-0.6,1-0.9c0.3-0.3,0.6-0.6,0.9-0.9l0.9-0.9c0.3-0.3,0.5-0.7,0.8-1c0.3-0.3,0.5-0.7,0.7-1
				l0.4-0.5l0.3-0.5c0.2-0.4,0.5-0.7,0.6-1.1c0.7-1.4,1.4-2.9,1.7-4.5c0.3-1.6,0.5-3.2,0.4-4.7c0-0.4-0.1-0.8-0.1-1.2
				c-0.1-0.4-0.2-0.7-0.2-1.1c-0.1-0.8-0.4-1.5-0.6-2.2c-0.5-1.4-1.1-2.7-1.8-3.7c-0.3-0.5-0.7-1-0.9-1.4c-0.3-0.4-0.6-0.7-0.8-1
				c-0.5-0.6-0.7-0.9-0.7-0.9l0.4-1.1c0,0,0.4,0.1,1,0.4c0.3,0.1,0.7,0.3,1.2,0.5c0.5,0.2,1,0.5,1.6,0.8c1.2,0.6,2.5,1.6,3.8,2.8
				c1.3,1.3,2.7,2.9,3.7,5c1,2,1.8,4.4,2.2,7c0.3,2.6,0.2,5.4-0.5,8.2c-0.7,2.8-1.9,5.5-3.6,8c-1.6,2.5-3.8,4.7-6.2,6.5
				c-1.2,1-2.5,1.7-3.8,2.5c-0.7,0.4-1.3,0.7-2,1l-1,0.5c-0.3,0.2-0.7,0.3-1,0.4c-0.7,0.3-1.4,0.5-2,0.8c-0.7,0.2-1.4,0.4-2.1,0.7
				c-1.4,0.5-2.8,0.8-4.1,1.1c-2.7,0.6-5.4,0.9-7.9,1.1c-0.6,0-1.3,0.1-1.9,0.1c-0.6,0-1.2,0-1.8,0c-1.2,0-2.3,0.1-3.4,0
				c-2.2-0.1-4.2-0.2-6-0.4c-1.8-0.2-3.3-0.4-4.6-0.6c-2.5-0.4-3.9-0.7-3.9-0.7L46.1,107.1z"/>
		</g>
		<g>
			<path class="st1" d="M107.1,78c0,0-0.2-0.4-0.4-1.1c-0.2-0.7-0.7-1.8-1-3.1c-0.4-1.4-0.9-2.9-1.4-4.6c-0.5-1.7-1.1-3.6-1.7-5.6
				c-0.3-1-0.6-2-1-3.1c-0.2-0.5-0.3-1.1-0.5-1.6c-0.2-0.5-0.4-1.1-0.6-1.6c-0.4-1.1-0.6-2.2-1.1-3.2c-0.5-1-0.7-2.2-1.2-3.2
				c-0.8-2.1-1.8-4.1-2.8-6c-0.1-0.2-0.2-0.5-0.4-0.7l-0.4-0.6c-0.3-0.4-0.5-0.9-0.8-1.3c-0.6-0.8-1.1-1.7-1.7-2.4
				c-0.3-0.4-0.5-0.8-0.8-1.1c-0.3-0.3-0.6-0.7-0.9-1c-0.3-0.3-0.6-0.6-0.9-0.9L88.6,36c-0.3-0.3-0.7-0.5-1-0.8
				c-0.3-0.3-0.7-0.5-1-0.7l-0.5-0.4l-0.5-0.3c-0.4-0.2-0.7-0.5-1.1-0.6c-1.4-0.7-2.9-1.4-4.5-1.7c-1.6-0.3-3.2-0.5-4.7-0.4
				c-0.4,0-0.8,0.1-1.2,0.1c-0.4,0.1-0.7,0.2-1.1,0.2c-0.8,0.1-1.5,0.4-2.2,0.6c-1.4,0.5-2.7,1.1-3.7,1.8c-0.5,0.3-1,0.7-1.4,0.9
				c-0.4,0.3-0.7,0.6-1,0.8c-0.6,0.5-0.9,0.7-0.9,0.7l-1.1-0.4c0,0,0.1-0.4,0.4-1c0.1-0.3,0.3-0.7,0.5-1.2c0.2-0.5,0.5-1,0.8-1.6
				c0.6-1.2,1.6-2.5,2.8-3.8c1.3-1.3,2.9-2.7,5-3.7c2-1,4.4-1.8,7-2.2c2.6-0.3,5.4-0.2,8.2,0.5c2.8,0.7,5.5,1.9,8,3.6
				c2.5,1.6,4.7,3.8,6.5,6.2c1,1.2,1.7,2.5,2.5,3.8c0.4,0.7,0.7,1.3,1,2l0.5,1c0.2,0.3,0.3,0.7,0.4,1c0.3,0.7,0.5,1.4,0.8,2
				c0.2,0.7,0.4,1.4,0.7,2.1c0.5,1.4,0.8,2.8,1.1,4.1c0.6,2.7,0.9,5.4,1.1,7.9c0,0.6,0.1,1.3,0.1,1.9c0,0.6,0,1.2,0,1.8
				c0,1.2,0.1,2.3,0,3.4c-0.1,2.2-0.2,4.2-0.4,6c-0.2,1.8-0.4,3.3-0.6,4.6c-0.4,2.5-0.7,3.9-0.7,3.9L107.1,78z"/>
		</g>
		<g>
			<path class="st1" d="M17.1,46.1c0,0,0.2,0.4,0.4,1.1c0.2,0.7,0.7,1.8,1,3.1c0.4,1.4,0.9,2.9,1.4,4.6c0.5,1.7,1.1,3.6,1.7,5.6
				c0.3,1,0.6,2,1,3.1c0.2,0.5,0.3,1.1,0.5,1.6c0.2,0.5,0.4,1.1,0.6,1.6c0.4,1.1,0.6,2.2,1.1,3.2c0.5,1,0.7,2.2,1.2,3.2
				c0.8,2.1,1.8,4.1,2.8,6c0.1,0.2,0.2,0.5,0.4,0.7l0.4,0.6c0.3,0.4,0.5,0.9,0.8,1.3c0.6,0.8,1.1,1.7,1.7,2.4
				c0.3,0.4,0.5,0.8,0.8,1.1c0.3,0.3,0.6,0.7,0.9,1c0.3,0.3,0.6,0.6,0.9,0.9l0.9,0.9c0.3,0.3,0.7,0.5,1,0.8c0.3,0.3,0.7,0.5,1,0.7
				L38,90l0.5,0.3c0.4,0.2,0.7,0.5,1.1,0.6c1.4,0.7,2.9,1.4,4.5,1.7c1.6,0.3,3.2,0.5,4.7,0.4c0.4,0,0.8-0.1,1.2-0.1
				c0.4-0.1,0.7-0.2,1.1-0.2c0.8-0.1,1.5-0.4,2.2-0.6c1.4-0.5,2.7-1.1,3.7-1.8c0.5-0.3,1-0.7,1.4-0.9c0.4-0.3,0.7-0.6,1-0.8
				c0.6-0.5,0.9-0.7,0.9-0.7l1.1,0.4c0,0-0.1,0.4-0.4,1c-0.1,0.3-0.3,0.7-0.5,1.2c-0.2,0.5-0.5,1-0.8,1.6c-0.6,1.2-1.6,2.5-2.8,3.8
				c-1.3,1.3-2.9,2.7-5,3.7c-2,1-4.4,1.8-7,2.2c-2.6,0.3-5.4,0.2-8.2-0.5c-2.8-0.7-5.5-1.9-8-3.6c-2.5-1.6-4.7-3.8-6.5-6.2
				c-1-1.2-1.7-2.5-2.5-3.8c-0.4-0.7-0.7-1.3-1-2l-0.5-1c-0.2-0.3-0.3-0.7-0.4-1c-0.3-0.7-0.5-1.4-0.8-2c-0.2-0.7-0.4-1.4-0.7-2.1
				c-0.5-1.4-0.8-2.8-1.1-4.1c-0.6-2.7-0.9-5.4-1.1-7.9c0-0.6-0.1-1.3-0.1-1.9c0-0.6,0-1.2,0-1.8c0-1.2-0.1-2.3,0-3.4
				c0.1-2.2,0.2-4.2,0.4-6c0.2-1.8,0.4-3.3,0.6-4.6c0.4-2.5,0.7-3.9,0.7-3.9L17.1,46.1z"/>
		</g>
	</g>
</g>
</svg>
