<?xml version="1.0" encoding="UTF-8" standalone="no"?>
<svg
   xmlns:dc="http://purl.org/dc/elements/1.1/"
   xmlns:cc="http://creativecommons.org/ns#"
   xmlns:rdf="http://www.w3.org/1999/02/22-rdf-syntax-ns#"
   xmlns:svg="http://www.w3.org/2000/svg"
   xmlns="http://www.w3.org/2000/svg"
   viewBox="0 0 172.5 192.5"
   height="192.5"
   width="172.5"
   xml:space="preserve"
   version="1.1"
   id="svg3722"><metadata
     id="metadata3728"><rdf:RDF><cc:Work
         rdf:about=""><dc:format>image/svg+xml</dc:format><dc:type
           rdf:resource="http://purl.org/dc/dcmitype/StillImage" /><dc:title></dc:title></cc:Work></rdf:RDF></metadata><defs
     id="defs3726" /><g
     transform="matrix(1.25,0,0,-1.25,0,192.5)"
     id="g3730"><g
       transform="scale(0.1,0.1)"
       id="g3732"><path
         id="path3734"
         style="fill:#2d358c;fill-opacity:1;fill-rule:nonzero;stroke:none"
         d="m 992.77,1243.61 c -46.68,-1.06 -68.079,-20.36 -81.872,-45.47 -14.257,-3.6 -28.32,-7.78 -41.636,-12.03 -3.403,42.5 -17.114,90.46 -53.832,130.74 -26.641,9.26 -62.418,13.47 -62.418,13.47 0,0 -25.434,20.12 -38.793,25.04 -108.09,40.98 -290.739,-23.32 -325.43,-71.17 -5.699,-6.17 -16.41,-27.42 -33.359,-39.8 -13.16,-12.23 -55.782,-27.66 -67.379,-46.68 -19.34,-48.6 16.398,-220.319 45.347,-234.53 9.141,-3.399 14.454,-5.629 21.133,-7.071 -12.691,-9.57 -22.5,-18.129 -28.633,-25.121 -16.558,-9.097 -11.757,-20.117 -49.687,-37.379 -75.191,-18.949 -90,-37.07 -120.66,-64.73 -26.102,-26.84 -40.16,-58.051 -46.84,-72.969 -0.082,-0.269 -6.602,-13.949 -13.5118,-28.789 -3.3203,14.379 -6.1406,28.91 -8.3984,43.668 C 82.3008,800.09 80,830.09 80,860.641 c 0,325.859 264.141,590.039 590.039,590.039 195.82,0 369.341,-95.43 476.641,-242.27 -38.44,19.65 -91.33,37.62 -153.91,35.2 M 628.75,53.5313 c 39.262,-33.793 84.141,-41.6797 165.551,-41.0625 92.34,-12.4180187 113.82,25.7421 113.82,25.7421 0,0 36.609,-2.9609 53.828,60.4688 10.199,43.9923 -4.918,77.4613 -4.918,77.4613 0,0 31.84,15.859 50.469,42.781 0.82,22.379 -5.66,43.359 -10.98,56.519 45.78,25.59 88.25,56.368 126.57,91.598 16.29,7.66 61.4,32.852 83.86,84.922 39.1,48.598 31.41,53.008 52.58,62.23 19.3,11.95 26.84,22.418 34.77,45.981 51.05,34.137 123.43,148.277 42.3,231.988 2.31,22.539 3.48,45.352 3.48,68.481 0,370.039 -300,670.039 -670.041,670.039 C 299.961,1530.68 0,1230.68 0,860.641 0,726.422 39.4883,601.461 107.422,496.648 c 8.09,-28.039 22.308,-59.179 47.379,-82.187 0.898,-49.762 66.219,-98.199 66.219,-98.199 0,0 -6.68,0.629 -24.848,2.777 C 210.66,184.969 390.59,136.18 385.898,136.648 380.82,137.16 418.551,78.2891 469.531,103.211 474.801,97 528.949,69.5 566.641,77.3203 574.02,68.6094 599.77,61.2188 628.75,53.5313" /><path
         id="path3736"
         style="fill:#00b560;fill-opacity:1;fill-rule:nonzero;stroke:none"
         d="m 110.512,738.211 c 44.058,-205.07 248.16,-231.25 291.008,-210.973 53.75,20.313 60.628,298.512 -105.86,359.141 -0.461,0.191 -7.262,2.5 -7.73,2.691 5,2.891 9.922,6.68 17.148,11.801 C 484.648,838.25 476.84,543.328 416.559,511.77 366.129,489.039 152.699,505.711 99.0195,714.23" /><path
         id="path3738"
         style="fill:none;stroke:#00b560;stroke-width:2.75999999;stroke-linecap:butt;stroke-linejoin:miter;stroke-miterlimit:4;stroke-dasharray:none;stroke-opacity:1"
         d="m 110.512,738.215 c 44.058,-205.078 248.16,-231.25 291.008,-210.981 53.75,20.321 60.628,298.52 -105.86,359.141 -0.461,0.199 -7.262,2.5 -7.73,2.699 5,2.891 9.922,6.68 17.148,11.801 179.57,-62.621 171.762,-357.539 111.481,-389.109 -50.43,-22.731 -263.86,-6.051 -317.5395,202.461 l 11.4925,23.988 z" /><path
         id="path3740"
         style="fill:#00b560;fill-opacity:1;fill-rule:nonzero;stroke:none"
         d="m 232.73,321.539 c 3.008,-2.5 10.551,-3.988 20.551,-5.359 25.199,29.3 53.989,17.781 67.188,2.859 41.051,7.891 96.41,25.352 143.16,70.109 22.07,91.532 -23.238,109.961 -47.379,111.102 -10.121,1.602 -10.121,-12.66 -23.012,-14.961 -52.886,-19.539 -75.429,9.172 -75.429,9.172 0,0 -101.637,-1.832 -186.481,110.469 -27.578,40.511 -29.566,65.468 -33.7889,77.07 -10.1172,-23.32 -5.9805,-65.621 4.6519,-85.891 13.36,-26.757 11.559,-44.339 11.829,-47.07 4.421,-46.449 13.519,-80.898 44.609,-120.359 0.672,13.75 -4.059,25.781 10.199,55.242 -5.547,-81.883 35.391,-138.442 63.902,-162.383" /><path
         id="path3742"
         style="fill:none;stroke:#00b560;stroke-width:2.75999999;stroke-linecap:butt;stroke-linejoin:miter;stroke-miterlimit:4;stroke-dasharray:none;stroke-opacity:1"
         d="m 232.73,321.535 c 3.008,-2.5 10.551,-3.98 20.551,-5.347 25.199,29.289 53.989,17.769 67.188,2.847 41.051,7.891 96.41,25.352 143.16,70.121 22.07,91.52 -23.238,109.961 -47.379,111.09 -10.121,1.602 -10.121,-12.66 -23.012,-14.961 -52.886,-19.527 -75.429,9.18 -75.429,9.18 0,0 -101.637,-1.84 -186.481,110.473 -27.578,40.507 -29.566,65.468 -33.7889,77.066 -10.1172,-23.316 -5.9805,-65.629 4.6519,-85.899 13.36,-26.757 11.559,-44.339 11.829,-47.07 4.421,-46.449 13.519,-80.898 44.609,-120.347 0.672,13.75 -4.059,25.777 10.199,55.226 -5.547,-81.867 35.391,-138.437 63.902,-162.379" /><path
         id="path3744"
         style="fill:#00b560;fill-opacity:1;fill-rule:nonzero;stroke:none"
         d="m 527.578,742.121 -66.598,8.668 c 28.43,-97.5 5.192,-197.609 -6.449,-215.391 5.078,-0.269 -6.441,2.661 16.879,3.012 7.731,96.051 41.051,167.621 83.789,217.93" /><path
         id="path3746"
         style="fill:none;stroke:#00b560;stroke-width:2.75999999;stroke-linecap:butt;stroke-linejoin:miter;stroke-miterlimit:4;stroke-dasharray:none;stroke-opacity:1"
         d="m 527.578,742.125 -66.598,8.672 c 28.43,-97.5 5.192,-197.621 -6.449,-215.391 5.078,-0.281 -6.441,2.649 16.879,3 7.731,96.059 41.051,167.621 83.789,217.93 l -27.621,-14.211 z" /><path
         id="path3748"
         style="fill:#00b560;fill-opacity:1;fill-rule:nonzero;stroke:none"
         d="m 1007.5,775.051 c -57.27,8.051 -62.809,93.75 -62.809,93.75 0,0 -4.812,-1.563 -30.312,7.418 -7.777,4.922 -11.68,13.711 -17.469,20.511 l -41.48,-45.429 -28.52,-10.512 c 65.36,-21.598 106.762,-52.891 147.07,-105.738 0,0 0.161,22.539 33.52,40" /><path
         id="path3750"
         style="fill:none;stroke:#00b560;stroke-width:2.75999999;stroke-linecap:butt;stroke-linejoin:miter;stroke-miterlimit:4;stroke-dasharray:none;stroke-opacity:1"
         d="m 1007.5,775.055 c -57.27,8.043 -62.809,93.742 -62.809,93.742 0,0 -4.812,-1.563 -30.312,7.43 -7.777,4.918 -11.68,13.711 -17.469,20.5 l -41.48,-45.43 -28.52,-10.5 c 65.36,-21.602 106.762,-52.891 147.07,-105.742 0,0 0.161,22.531 33.52,40" /><path
         id="path3752"
         style="fill:#00b560;fill-opacity:1;fill-rule:nonzero;stroke:none"
         d="m 789.262,848.879 98.59,64.262 C 851.52,965.91 859.141,1051.96 859.141,1051.96 L 819.961,1033.21 802.73,999.309 751.879,984 721.328,964.539 627.93,907.75 c 0,0 -60.821,-7.109 -121.371,5.781 l -46.789,-21.453 -82.7,5.672 66.801,20.781 40.231,10.391 c -13.012,3.937 -20.551,6.598 -33.122,13.898 -23.48,2.539 -82.89,-4.371 -82.89,-4.371 0,0 -23.442,-21.371 -21.371,-28.051 64.301,-32.847 90.312,-75.968 110.941,-137.847 l 114.059,3.828 c 22.543,21.641 47.621,38.32 74.019,50.312 l -11.25,-0.082 23.172,9.5 -50.781,0 45.422,16.321 -77.571,13.789 66.559,4.34 -2.769,31.679 23.82,-25.699 49.808,33.32 -43.867,-52.621 44.731,16.563 -34.774,-29.41 18.602,-0.551 c 30.699,6.988 62.07,8.48 92.422,5.039" /><path
         id="path3754"
         style="fill:none;stroke:#00b560;stroke-width:2.75999999;stroke-linecap:butt;stroke-linejoin:miter;stroke-miterlimit:4;stroke-dasharray:none;stroke-opacity:1"
         d="m 789.262,848.875 98.59,64.262 c -36.332,52.769 -28.711,138.823 -28.711,138.823 l -39.18,-18.75 -17.231,-33.905 -50.851,-15.309 -30.551,-19.449 -93.398,-56.801 c 0,0 -60.821,-7.109 -121.371,5.781 l -46.789,-21.441 -82.7,5.66 66.801,20.781 40.231,10.387 c -13.012,3.953 -20.551,6.602 -33.122,13.91 -23.48,2.543 -82.89,-4.379 -82.89,-4.379 0,0 -23.442,-21.359 -21.371,-28.039 64.301,-32.851 90.312,-75.98 110.941,-137.851 l 114.059,3.82 c 22.543,21.641 47.621,38.32 74.019,50.32 l -11.25,-0.078 23.172,9.488 -50.781,0 45.422,16.333 -77.571,13.789 66.559,4.328 -2.769,31.679 23.82,-25.699 49.808,33.32 -43.867,-52.621 44.731,16.563 -34.774,-29.41 18.602,-0.551 c 30.699,7 62.07,8.48 92.422,5.039" /><path
         id="path3756"
         style="fill:#00b560;fill-opacity:1;fill-rule:nonzero;stroke:none"
         d="M 970.121,1231.38 C 848.121,1107.55 889.34,940.559 930,916.219 c 46.762,-33.36 280.55,104.421 266.88,251.491 2.3,-1.57 15.82,-10.16 16.6,-13.25 3.94,-157.769 -218.171,-280.351 -284.929,-260.929 -44.602,26.68 -97.461,185.969 6.961,323.009 20.738,13.75 34.609,14.84 34.609,14.84" /><path
         id="path3758"
         style="fill:none;stroke:#00b560;stroke-width:2.75999999;stroke-linecap:butt;stroke-linejoin:miter;stroke-miterlimit:4;stroke-dasharray:none;stroke-opacity:1"
         d="M 970.121,1231.38 C 848.121,1107.55 889.34,940.555 930,916.227 c 46.762,-33.36 280.55,104.413 266.88,251.483 2.3,-1.57 15.82,-10.16 16.6,-13.25 3.94,-157.765 -218.171,-280.343 -284.929,-260.933 -44.602,26.68 -97.461,185.973 6.961,323.013 20.738,13.75 34.609,14.84 34.609,14.84" /><path
         id="path3760"
         style="fill:#00b560;fill-opacity:1;fill-rule:nonzero;stroke:none"
         d="m 972.07,882.59 c 16.45,6.41 163.13,24.922 241.45,199.3 6.01,-26.8 46.44,-35.98 40.27,-179.652 2.93,9.102 8.28,25.473 8.24,33.75 22.11,-36.328 24.69,-109.449 24.69,-109.449 0,0 -30.86,17.531 -104.42,15.699 -0.62,25.703 -2.69,39.492 -17.96,57.301 6.28,-41.949 0.89,-58.277 0.89,-58.277 0,0 -53.04,-12.114 -98.32,-37.774 -20.11,6.953 -36.68,-8.199 -39.41,-19.258 -29.219,-1.949 -56.559,54.059 -55.43,98.36" /><path
         id="path3762"
         style="fill:none;stroke:#00b560;stroke-width:2.75999999;stroke-linecap:butt;stroke-linejoin:miter;stroke-miterlimit:4;stroke-dasharray:none;stroke-opacity:1"
         d="m 972.07,882.586 c 16.45,6.41 163.13,24.93 241.45,199.304 6.01,-26.8 46.44,-35.98 40.27,-179.656 2.93,9.102 8.28,25.473 8.24,33.75 22.11,-36.328 24.69,-109.449 24.69,-109.449 0,0 -30.86,17.539 -104.42,15.699 -0.62,25.711 -2.69,39.493 -17.96,57.313 6.28,-41.961 0.89,-58.281 0.89,-58.281 0,0 -53.04,-12.11 -98.32,-37.782 -20.11,6.961 -36.68,-8.199 -39.41,-19.257 -29.219,-1.95 -56.559,54.07 -55.43,98.359" /><path
         id="path3764"
         style="fill:#00b560;fill-opacity:1;fill-rule:nonzero;stroke:none"
         d="m 214.34,301.031 c 0,0 187.769,-40.203 286.988,79.367 37.891,-18.898 55.942,-38.937 55.942,-38.937 0,0 -59.61,-127.539 -164.461,-192.852 C 224.449,215.75 214.34,301.031 214.34,301.031" /><path
         id="path3766"
         style="fill:none;stroke:#00b560;stroke-width:2.75999999;stroke-linecap:butt;stroke-linejoin:miter;stroke-miterlimit:4;stroke-dasharray:none;stroke-opacity:1"
         d="m 214.34,301.027 c 0,0 187.769,-40.191 286.988,79.379 37.891,-18.91 55.942,-38.949 55.942,-38.949 0,0 -59.61,-127.543 -164.461,-192.852 C 224.449,215.754 214.34,301.027 214.34,301.027" /><path
         id="path3768"
         style="fill:#00b560;fill-opacity:1;fill-rule:nonzero;stroke:none"
         d="m 916.211,173.449 c -44.609,101.871 -170.27,54.262 -170.27,54.262 l -13.953,17.891 c 0,0 -26.437,17.07 -55.539,20.308 -12.308,-99.801 -100.59,-172.4608 -100.59,-172.4608 0,0 13.481,-11.1289 44.102,-19.9609 -2.191,7.9726 -4.223,11.3711 -4.223,20.4336 0,12.3401 5.16,31.2071 17.782,39.2191 27.421,17.3 74.761,19.14 117.261,19.14 48.199,0 89.297,-16.761 108.199,-37.851 5.981,-7.391 8.559,-14.9691 10.282,-26.0589 -1.141,-43.2422 -20.16,-59.8398 -75.864,-67.3828 28.633,-1.1289 53.832,-3.7891 78.633,5.2734 86.25,32.2266 47.27,142.5393 44.18,147.1873" /><path
         id="path3770"
         style="fill:none;stroke:#00b560;stroke-width:2.75999999;stroke-linecap:butt;stroke-linejoin:miter;stroke-miterlimit:4;stroke-dasharray:none;stroke-opacity:1"
         d="m 916.211,173.445 c -44.609,101.879 -170.27,54.262 -170.27,54.262 l -13.953,17.891 c 0,0 -26.437,17.066 -55.539,20.308 -12.308,-99.801 -100.59,-172.4607 -100.59,-172.4607 0,0 13.481,-11.1289 44.102,-19.9609 -2.191,7.9726 -4.223,11.3711 -4.223,20.4297 0,12.3519 5.16,31.2109 17.782,39.2229 27.421,17.308 74.761,19.14 117.261,19.14 48.199,0 89.297,-16.761 108.199,-37.851 5.981,-7.379 8.559,-14.9612 10.282,-26.051 -1.141,-43.25 -20.16,-59.8477 -75.864,-67.3906 28.633,-1.1289 53.832,-3.7891 78.633,5.2812 86.25,32.2188 47.27,142.5314 44.18,147.1794" /><path
         id="path3772"
         style="fill:#00b560;fill-opacity:1;fill-rule:nonzero;stroke:none"
         d="m 1013.91,758.531 c 265.74,170.699 339.1,-21.601 339.1,-21.601 0,0 34.14,-75.282 -54.69,-150.668 14.34,89.418 -126.41,197.929 -284.41,172.269" /><path
         id="path3774"
         style="fill:none;stroke:#00b560;stroke-width:2.75999999;stroke-linecap:butt;stroke-linejoin:miter;stroke-miterlimit:4;stroke-dasharray:none;stroke-opacity:1"
         d="m 1013.91,758.527 c 265.74,170.7 339.1,-21.601 339.1,-21.601 0,0 34.14,-75.27 -54.69,-150.66 14.34,89.41 -126.41,197.929 -284.41,172.261" /><path
         id="path3776"
         style="fill:#00b560;fill-opacity:1;fill-rule:nonzero;stroke:none"
         d="m 991.602,719.621 c -3.793,15.039 -0.313,27.231 24.528,29.809 119.69,11.558 226.57,-57.7 259.38,-143.442 8.28,-26.758 10.86,-43.168 -8.09,-66.25 -1.25,33.75 -64.69,216.801 -275.818,179.883" /><path
         id="path3778"
         style="fill:none;stroke:#00b560;stroke-width:2.75999999;stroke-linecap:butt;stroke-linejoin:miter;stroke-miterlimit:4;stroke-dasharray:none;stroke-opacity:1"
         d="m 991.602,719.625 c -3.793,15.031 -0.313,27.223 24.528,29.801 119.69,11.558 226.57,-57.699 259.38,-143.442 8.28,-26.757 10.86,-43.16 -8.09,-66.25 -1.25,33.75 -64.69,216.801 -275.818,179.891" /><path
         id="path3780"
         style="fill:#00b560;fill-opacity:1;fill-rule:nonzero;stroke:none"
         d="m 619.879,293.18 c -2.5,3.199 -4.84,6.441 -6.867,9.718 -14.032,15.903 -7.543,53.321 -41.211,44.922 -0.082,-2.379 -0.821,-4.371 -1.492,-6.05 C 511.129,197.039 404.691,136.18 404.691,136.18 420.738,114 445.16,114.621 452.148,116.07 c 24.653,2.809 108.204,87.301 143.872,184.758 l 9.96,-9.488 C 568.52,176.461 479.02,114.07 479.02,114.07 c 0,0 55.71,-29.3708 75.511,-22.2614 15.629,5.6211 87.309,82.8124 104.571,182.3824 -8.551,5 -22.543,10.778 -39.223,18.989" /><path
         id="path3782"
         style="fill:none;stroke:#00b560;stroke-width:2.75999999;stroke-linecap:butt;stroke-linejoin:miter;stroke-miterlimit:4;stroke-dasharray:none;stroke-opacity:1"
         d="m 619.879,293.176 c -2.5,3.199 -4.84,6.449 -6.867,9.73 -14.032,15.891 -7.543,53.321 -41.211,44.918 -0.082,-2.379 -0.821,-4.379 -1.492,-6.058 -59.18,-144.719 -165.618,-205.578 -165.618,-205.578 16.047,-22.192 40.469,-21.563 47.457,-20.122 24.653,2.809 108.204,87.309 143.872,184.77 l 9.96,-9.5 C 568.52,176.457 479.02,114.074 479.02,114.074 c 0,0 55.71,-29.3787 75.511,-22.2693 15.629,5.6328 87.309,82.8203 104.571,182.3903 -8.551,5 -22.543,10.782 -39.223,18.981" /><path
         id="path3784"
         style="fill:#00b560;fill-opacity:1;fill-rule:nonzero;stroke:none"
         d="m 693.98,276.852 c 0,0 50.981,50.539 71.801,69.058 45.821,4.801 53.36,-42.621 53.36,-42.621 0,0 -16.52,-29.449 -21.129,-32.969 6.758,-30.89 -30.903,-20.308 -46.211,-30.89 -2.973,5.742 -9.653,13.429 -12.852,19.371 -3.051,5.66 -44.969,18.051 -44.969,18.051" /><path
         id="path3786"
         style="fill:none;stroke:#00b560;stroke-width:2.75999999;stroke-linecap:butt;stroke-linejoin:miter;stroke-miterlimit:4;stroke-dasharray:none;stroke-opacity:1"
         d="m 693.98,276.848 c 0,0 50.981,50.547 71.801,69.058 45.821,4.809 53.36,-42.609 53.36,-42.609 0,0 -16.52,-29.461 -21.129,-32.973 6.758,-30.898 -30.903,-20.308 -46.211,-30.898 -2.973,5.738 -9.653,13.441 -12.852,19.371 -3.051,5.668 -44.969,18.051 -44.969,18.051" /><path
         id="path3788"
         style="fill:#00b560;fill-opacity:1;fill-rule:nonzero;stroke:none"
         d="m 780.352,364.891 c 53.32,-6.282 52.109,-53.391 52.109,-53.391 0,0 50.508,45.738 55.777,62.691 5.434,17.457 -3.668,35.309 -40.617,36.411 -32.312,-4.262 -55,-36.25 -67.269,-45.711" /><path
         id="path3790"
         style="fill:none;stroke:#00b560;stroke-width:2.75999999;stroke-linecap:butt;stroke-linejoin:miter;stroke-miterlimit:4;stroke-dasharray:none;stroke-opacity:1"
         d="m 780.352,364.895 c 53.32,-6.29 52.109,-53.399 52.109,-53.399 0,0 50.508,45.738 55.777,62.699 5.434,17.461 -3.668,35.313 -40.617,36.403 -32.312,-4.262 -55,-36.25 -67.269,-45.703" /><path
         id="path3792"
         style="fill:#00b560;fill-opacity:1;fill-rule:nonzero;stroke:none"
         d="m 986.09,280.828 c 0,0 12.66,-19.058 13.789,-51.25 C 1001.95,216.93 949.41,183.57 949.41,183.57 l -16.68,6.989 c 0,0 35.43,21.293 52.86,49.882 1.988,3.2 0.5,40.387 0.5,40.387" /><path
         id="path3794"
         style="fill:none;stroke:#00b560;stroke-width:2.75999999;stroke-linecap:butt;stroke-linejoin:miter;stroke-miterlimit:4;stroke-dasharray:none;stroke-opacity:1"
         d="m 986.09,280.836 c 0,0 12.66,-19.07 13.789,-51.25 2.071,-12.66 -50.469,-46.02 -50.469,-46.02 l -16.68,6.989 c 0,0 35.43,21.293 52.86,49.89 1.988,3.2 0.5,40.391 0.5,40.391" /><path
         id="path3796"
         style="fill:#00b560;fill-opacity:1;fill-rule:nonzero;stroke:none"
         d="m 685.039,719.66 c 3.281,3.051 7.07,5.512 11.289,7.27 1.871,0.859 3.832,1.601 5.863,2.218 27.028,8.051 56.25,-10 65.309,-40.308 0.391,-1.328 0.699,-2.66 1.02,-3.981 1.949,1.36 3.859,2.653 5.781,3.903 1.519,1.019 3,1.988 4.488,2.886 0.551,0.352 1.051,0.672 1.602,0.981 1.058,0.66 2.109,1.293 3.16,1.91 0.551,0.32 1.058,0.59 1.57,0.902 1.359,0.778 2.731,1.52 4.059,2.231 0.16,0.078 0.351,0.187 0.511,0.269 0,0 0,0 0.039,0 0.43,0.239 0.86,0.43 1.321,0.668 1.25,0.621 2.5,1.25 3.75,1.832 1.058,0.469 2.109,0.899 3.09,1.329 0.039,0 0.039,0 0.039,0 0.429,0.16 0.82,0.351 1.211,0.511 0.629,0.231 1.168,0.43 1.757,0.617 0.743,0.282 1.481,0.551 2.153,0.782 0.039,0 0.039,0 0.039,0 1.25,0.39 2.461,0.75 3.629,1.019 -0.508,-0.699 12.582,2.77 22.261,5.821 0,0 0.161,0 0.36,0.039 l 0.039,0 c 0.07,0 0.191,0 0.312,0 l 0.387,0 c 0.313,0 0.621,0 1.012,0 l 1.68,0 c 0.511,0 1.019,0 1.57,0 l 0.351,0 c 1.25,0 2.579,-0.039 4.098,-0.039 0.512,0 1.051,0 1.602,-0.04 l 0.55,0 c 0.618,0 1.289,0 1.95,0 l 0.039,0 c 3.871,-0.039 8.199,-0.082 12.539,-0.121 2.301,-0.039 4.609,-0.109 5.191,-0.109 -71.711,52.891 -273.39,71.051 -273.39,-187.82 18,0.39 27.57,0.711 27.57,0.711 0,0 105.082,67.418 110.512,71.05 -4.84,7.071 -7.93,21.059 -7.93,21.059 -22.461,4.641 -41.012,21.641 -47.813,44.41 -6.839,23.051 -0.078,46.481 15.43,59.961" /><path
         id="path3798"
         style="fill:none;stroke:#00b560;stroke-width:2.75999999;stroke-linecap:butt;stroke-linejoin:miter;stroke-miterlimit:4;stroke-dasharray:none;stroke-opacity:1"
         d="m 685.039,719.656 c 3.281,3.051 7.07,5.508 11.289,7.27 1.871,0.859 3.832,1.601 5.863,2.23 27.028,8.039 56.25,-10 65.309,-40.32 0.391,-1.32 0.699,-2.648 1.02,-3.981 1.949,1.372 3.859,2.661 5.781,3.911 1.519,1.011 3,1.988 4.488,2.89 0.551,0.348 1.051,0.66 1.602,0.969 1.058,0.672 2.109,1.289 3.16,1.922 0.551,0.308 1.058,0.578 1.57,0.898 1.359,0.782 2.731,1.52 4.059,2.219 0.16,0.082 0.351,0.203 0.511,0.281 0,0 0,0 0.039,0 0.43,0.231 0.86,0.43 1.321,0.66 1.25,0.622 2.5,1.25 3.75,1.84 1.058,0.461 2.109,0.891 3.09,1.321 0.039,0 0.039,0 0.039,0 0.429,0.16 0.82,0.359 1.211,0.511 0.629,0.239 1.168,0.43 1.757,0.629 0.743,0.27 1.481,0.539 2.153,0.782 0.039,0 0.039,0 0.039,0 1.25,0.386 2.461,0.738 3.629,1.007 -0.508,-0.699 12.582,2.782 22.261,5.821 0,0 0.161,0 0.36,0.039 l 0.039,0 c 0.07,0 0.191,0 0.312,0 l 0.387,0 c 0.313,0 0.621,0 1.012,0 l 1.68,0 c 0.511,0 1.019,0 1.57,0 l 0.351,0 c 1.25,0 2.579,-0.039 4.098,-0.039 0.512,0 1.051,0 1.602,-0.039 l 0.55,0 c 0.618,0 1.289,0 1.95,0 l 0.039,0 c 3.871,-0.032 8.199,-0.071 12.539,-0.11 2.301,-0.043 4.609,-0.121 5.191,-0.121 -71.711,52.891 -273.39,71.051 -273.39,-187.808 18,0.386 27.57,0.699 27.57,0.699 0,0 105.082,67.418 110.512,71.058 -4.84,7.071 -7.93,21.051 -7.93,21.051 -22.461,4.649 -41.012,21.641 -47.813,44.41 -6.839,23.051 -0.078,46.489 15.43,59.969" /><path
         id="path3800"
         style="fill:#00b560;fill-opacity:1;fill-rule:nonzero;stroke:none"
         d="m 875.98,700.129 c 0,0 -34.89,5.351 -48.171,0.82 15.242,-19.73 -6.207,-75.859 -5.778,-78.398 0,0 19.098,2.23 24.879,2.308 -6.75,50.231 29.07,75.27 29.07,75.27" /><path
         id="path3802"
         style="fill:none;stroke:#00b560;stroke-width:2.75999999;stroke-linecap:butt;stroke-linejoin:miter;stroke-miterlimit:4;stroke-dasharray:none;stroke-opacity:1"
         d="m 875.98,700.125 c 0,0 -34.89,5.352 -48.171,0.82 15.242,-19.718 -6.207,-75.859 -5.778,-78.39 0,0 19.098,2.222 24.879,2.3 -6.75,50.231 29.07,75.27 29.07,75.27" /><path
         id="path3804"
         style="fill:#00b560;fill-opacity:1;fill-rule:nonzero;stroke:none"
         d="m 805.699,694.07 c 27.93,-8.359 1.063,-71.789 1.063,-71.789 0,0 -39.032,-34.961 -55.711,-29.383 -17.18,5.782 -29.531,25.352 -13.16,53.172 18.75,21.36 57.109,46.09 67.808,48" /><path
         id="path3806"
         style="fill:none;stroke:#00b560;stroke-width:2.75999999;stroke-linecap:butt;stroke-linejoin:miter;stroke-miterlimit:4;stroke-dasharray:none;stroke-opacity:1"
         d="m 805.699,694.074 c 27.93,-8.359 1.063,-71.797 1.063,-71.797 0,0 -39.032,-34.961 -55.711,-29.371 -17.18,5.782 -29.531,25.348 -13.16,53.16 18.75,21.372 57.109,46.09 67.808,48.008" /><path
         id="path3808"
         style="fill:#00b560;fill-opacity:1;fill-rule:nonzero;stroke:none"
         d="m 928.672,377.16 c -25.391,-13.711 -44.184,-28.012 -41.832,-63.871 2.18,-33.238 61.871,-7.648 79.449,5.082 0.902,0.668 -26.019,46.25 -25.269,46.84 0.742,0.539 44.41,-34.422 45,-33.949 1.75,1.367 42.46,39.769 42.46,39.769 0,0 -4.5,5.93 -37.351,15.969 -1.949,-0.039 -8.938,5.469 -8.938,5.469 0,0 -15.472,-3.16 -27.351,9.812 -7.57,-6.062 -16.91,-14.422 -26.168,-25.121" /><path
         id="path3810"
         style="fill:none;stroke:#00b560;stroke-width:2.75999999;stroke-linecap:butt;stroke-linejoin:miter;stroke-miterlimit:4;stroke-dasharray:none;stroke-opacity:1"
         d="m 928.672,377.156 c -25.391,-13.711 -44.184,-28 -41.832,-63.859 2.18,-33.242 61.871,-7.66 79.449,5.078 0.902,0.66 -26.019,46.25 -25.269,46.832 0.742,0.551 44.41,-34.41 45,-33.941 1.75,1.359 42.46,39.761 42.46,39.761 0,0 -4.5,5.938 -37.351,15.981 -1.949,-0.043 -8.938,5.469 -8.938,5.469 0,0 -15.472,-3.172 -27.351,9.8 -7.57,-6.05 -16.91,-14.41 -26.168,-25.121" /><path
         id="path3812"
         style="fill:#00b560;fill-opacity:1;fill-rule:nonzero;stroke:none"
         d="m 906.172,284.738 c 0.629,-4.687 1.488,-6.207 2.457,-9.808 2.07,-7.649 32.191,-15.309 32.191,-15.309 l -33.441,-0.191 -51.438,-19.418 c 0,0 38.399,-2.032 61.989,-47.5 23.711,14.648 58.199,46.488 58.199,46.488 0,0 4.691,20.82 -8.75,59.531 -14.719,-10.429 -39.719,-12.152 -61.207,-13.793" /><path
         id="path3814"
         style="fill:none;stroke:#00b560;stroke-width:2.75999999;stroke-linecap:butt;stroke-linejoin:miter;stroke-miterlimit:4;stroke-dasharray:none;stroke-opacity:1"
         d="m 906.172,284.734 c 0.629,-4.679 1.488,-6.207 2.457,-9.796 2.07,-7.661 32.191,-15.313 32.191,-15.313 l -33.441,-0.199 -51.438,-19.41 c 0,0 38.399,-2.039 61.989,-47.5 23.711,14.64 58.199,46.48 58.199,46.48 0,0 4.691,20.82 -8.75,59.531 -14.719,-10.429 -39.719,-12.152 -61.207,-13.793" /><path
         id="path3816"
         style="fill:#00b560;fill-opacity:1;fill-rule:nonzero;stroke:none"
         d="m 1186.52,603.488 c 5.9,-36.207 -17.97,-70.429 -52.89,-96.207 -68.2,-50.351 -156.829,13.981 -145.821,106.481 9.421,47.066 46.061,63.238 101.681,60.937 -55.82,28.711 -114.451,41.442 -180.662,26.762 -39.879,-10.59 -58.519,-56.172 -39.297,-121.723 11.719,12.582 37.969,7.5 37.969,7.5 l 98.2,-144.527 c 0,0 1.29,-33.832 -10.579,-41.449 22.069,-10.66 95.859,-25.903 113.279,-17.973 27.65,14.922 101.13,54.922 99.18,148.25 -0.43,21.211 0.66,47.301 -21.06,71.949" /><path
         id="path3818"
         style="fill:none;stroke:#00b560;stroke-width:2.75999999;stroke-linecap:butt;stroke-linejoin:miter;stroke-miterlimit:4;stroke-dasharray:none;stroke-opacity:1"
         d="m 1186.52,603.484 c 5.9,-36.207 -17.97,-70.429 -52.89,-96.207 -68.2,-50.351 -156.829,13.989 -145.821,106.489 9.421,47.07 46.061,63.238 101.681,60.929 -55.82,28.711 -114.451,41.45 -180.662,26.762 -39.879,-10.582 -58.519,-56.172 -39.297,-121.723 11.719,12.582 37.969,7.5 37.969,7.5 l 98.2,-144.527 c 0,0 1.29,-33.832 -10.579,-41.441 22.069,-10.668 95.859,-25.899 113.279,-17.969 27.65,14.918 101.13,54.918 99.18,148.238 -0.43,21.211 0.66,47.301 -21.06,71.949" /><path
         id="path3820"
         style="fill:#00b560;fill-opacity:1;fill-rule:nonzero;stroke:none"
         d="m 604.301,1161.5 c -12.192,-2.7 -24.461,-5.24 -36.641,-7.62 l 10.578,-19.96" /><path
         id="path3822"
         style="fill:none;stroke:#00b560;stroke-width:2.75999999;stroke-linecap:butt;stroke-linejoin:miter;stroke-miterlimit:4;stroke-dasharray:none;stroke-opacity:1"
         d="m 604.301,1161.5 c -12.192,-2.7 -24.461,-5.23 -36.641,-7.62 l 10.578,-19.97 26.063,27.59 z" /><path
         id="path3824"
         style="fill:#00b560;fill-opacity:1;fill-rule:nonzero;stroke:none"
         d="m 731.801,1033.41 c 0,0 -25.391,30.94 -30.16,38.32 6.168,1.13 43.789,-35.23 43.789,-35.23 l -13.629,-3.09 z m -30.281,18.05 c -4.918,5.08 3.05,1.68 -13.86,22.58 10.86,-4.97 27.11,-27.74 28.121,-31.1 l -14.261,8.52 z m -173.282,-100.319 -8.117,32.621 c 0,0 -5.512,1.058 -11.762,-3.321 -0.699,-2.543 -2.07,-14.261 -2.07,-14.261 l -15.039,1.57 c 0,0 2.852,30.621 28.238,46.48 -9.718,-15.82 -9.058,-26.558 -9.058,-26.558 0,0 55.55,46.828 174.57,73.748 20.352,-17.93 24.18,-61.02 24.379,-63.01 C 592.109,971.031 528.238,951.141 528.238,951.141 M 806.68,1305.52 c -2.5,2.19 -15.782,9.34 -51.91,10.23 5.191,-53 -30.2,-108.24 -37.04,-116.44 -5.46,-3.48 -12.031,-6.8 -19.492,-10.04 -1.008,-1.84 -1.789,-3.87 -1.867,-5.9 -46.801,-27.23 -48.48,-36.87 -48.48,-36.87 0,0 26.168,23.04 67.929,24.1 -9.961,-7.15 -13.832,-16.8 -13.832,-16.8 0,0 23.321,-11.84 6.922,-41.33 -28.988,-36.56 -65.32,-28.16 -65.32,-28.16 0,0 -23.629,3.48 -19.879,34.33 0.309,2.86 -6.91,3.21 -6.91,3.21 0,0 1.519,8.83 3,11.83 8.719,17.78 29.109,33.21 47.621,44.3 -17.891,-5.62 -37.973,-10.82 -58.711,-15.51 l -35.352,-63.86 2.77,26.68 -18.508,26.67 c -25.711,-4.84 -50.32,-8.9 -70.633,-12.18 16.684,-1.21 35.711,-7.11 60.512,-35.59 5.699,-4.37 9.379,-16.64 5.82,-25.94 -3.59,-9.33 -9.492,-31.56 -14.769,-36.99 -0.781,10.82 -0.891,13.36 -0.891,13.36 0,0 -13.64,-16.99 -47.308,-11.21 -28.633,2.5 -41.481,25.86 -43.403,31.21 -1.949,5.39 0.942,20.55 0.942,20.55 0,0 -5.082,-1.21 -9.77,-3.95 17.617,33.56 38.719,35.12 38.719,35.12 l -32.149,-2.42 c 0,0 9.368,9.72 16.36,12.46 -12.77,-1.64 -15.66,3.67 -17.571,4.37 -10.55,4.03 -57.89,53.05 -72.191,98.6 -22.969,-18.87 -50.98,-26.64 -61.879,-44.46 -2.301,-4.57 -3.43,-2.96 -4.609,-15.11 7.969,-9.49 24.379,-53.6 30.199,-95.2 5.781,-41.56 10.551,-90.389 8.32,-97.689 3.09,-5.86 6.41,-9.891 9.84,-11.571 20.32,-12.461 13.25,-17.961 131.449,-16.64 32.192,-22.379 62.852,-18.282 82.379,-20.309 40.864,-8.75 88.793,16.289 102.703,22.578 18.938,9.102 85.27,65.001 95.079,70.661 14.718,10.71 79.609,46.33 81.558,50.59 30.781,156.29 -37.187,221.17 -39.648,223.32" /><path
         id="path3826"
         style="fill:none;stroke:#00b560;stroke-width:2.75999999;stroke-linecap:butt;stroke-linejoin:miter;stroke-miterlimit:4;stroke-dasharray:none;stroke-opacity:1"
         d="m 731.801,1033.41 c 0,0 -25.391,30.94 -30.16,38.32 6.168,1.14 43.789,-35.23 43.789,-35.23 l -13.629,-3.09 z m -30.281,18.05 c -4.918,5.08 3.05,1.68 -13.86,22.58 10.86,-4.97 27.11,-27.74 28.121,-31.09 l -14.261,8.51 z m -173.282,-100.315 -8.117,32.621 c 0,0 -5.512,1.05 -11.762,-3.321 -0.699,-2.539 -2.07,-14.257 -2.07,-14.257 l -15.039,1.558 c 0,0 2.852,30.629 28.238,46.484 -9.718,-15.824 -9.058,-26.566 -9.058,-26.566 0,0 55.55,46.836 174.57,73.746 20.352,-17.93 24.18,-61 24.379,-63.004 C 592.109,971.027 528.238,951.145 528.238,951.145 M 806.68,1305.52 c -2.5,2.19 -15.782,9.34 -51.91,10.23 5.191,-53 -30.2,-108.23 -37.04,-116.45 -5.46,-3.46 -12.031,-6.78 -19.492,-10.03 -1.008,-1.83 -1.789,-3.86 -1.867,-5.89 -46.801,-27.24 -48.48,-36.88 -48.48,-36.88 0,0 26.168,23.05 67.929,24.1 -9.961,-7.15 -13.832,-16.8 -13.832,-16.8 0,0 23.321,-11.84 6.922,-41.32 -28.988,-36.57 -65.32,-28.18 -65.32,-28.18 0,0 -23.629,3.49 -19.879,34.34 0.309,2.86 -6.91,3.21 -6.91,3.21 0,0 1.519,8.83 3,11.84 8.719,17.77 29.109,33.2 47.621,44.29 -17.891,-5.62 -37.973,-10.82 -58.711,-15.5 l -35.352,-63.87 2.77,26.68 -18.508,26.67 c -25.711,-4.83 -50.32,-8.91 -70.633,-12.18 16.684,-1.21 35.711,-7.12 60.512,-35.58 5.699,-4.38 9.379,-16.65 5.82,-25.95 -3.59,-9.34 -9.492,-31.55 -14.769,-36.98 -0.781,10.82 -0.891,13.36 -0.891,13.36 0,0 -13.64,-17 -47.308,-11.22 -28.633,2.5 -41.481,25.86 -43.403,31.22 -1.949,5.39 0.942,20.53 0.942,20.53 0,0 -5.082,-1.2 -9.77,-3.93 17.617,33.55 38.719,35.11 38.719,35.11 l -32.149,-2.43 c 0,0 9.368,9.73 16.36,12.47 -12.77,-1.65 -15.66,3.67 -17.571,4.37 -10.55,4.03 -57.89,53.05 -72.191,98.6 -22.969,-18.87 -50.98,-26.64 -61.879,-44.46 -2.301,-4.57 -3.43,-2.96 -4.609,-15.11 7.969,-9.49 24.379,-53.59 30.199,-95.19 5.781,-41.57 10.551,-90.395 8.32,-97.703 3.09,-5.86 6.41,-9.883 9.84,-11.563 20.32,-12.457 13.25,-17.969 131.449,-16.636 32.192,-22.391 62.852,-18.282 82.379,-20.313 40.864,-8.75 88.793,16.281 102.703,22.57 18.938,9.11 85.27,65.005 95.079,70.675 14.718,10.7 79.609,46.33 81.558,50.58 30.781,156.28 -37.187,221.18 -39.648,223.32" /><path
         id="path3828"
         style="fill:#00b560;fill-opacity:1;fill-rule:nonzero;stroke:none"
         d="m 813.398,514.93 c -10.937,-2.692 -86.636,-17.11 -66.796,-52.539 19.878,-35.461 86.597,-16.25 86.597,-16.25 0,0 -37.5,29.5 -19.801,68.789" /><path
         id="path3830"
         style="fill:none;stroke:#00b560;stroke-width:2.75999999;stroke-linecap:butt;stroke-linejoin:miter;stroke-miterlimit:4;stroke-dasharray:none;stroke-opacity:1"
         d="m 813.398,514.938 c -10.937,-2.704 -86.636,-17.114 -66.796,-52.543 19.878,-35.469 86.597,-16.25 86.597,-16.25 0,0 -37.5,29.492 -19.801,68.793" /><path
         id="path3832"
         style="fill:#00b560;fill-opacity:1;fill-rule:nonzero;stroke:none"
         d="m 824.648,517.238 c -1.097,-29.34 22.852,-61.207 25.551,-66.449 l 38.391,11.961 c 0,0 -27.891,45.309 -32.18,64.102 -8.64,0.109 -31.68,-7.813 -31.762,-9.614" /><path
         id="path3834"
         style="fill:none;stroke:#00b560;stroke-width:2.75999999;stroke-linecap:butt;stroke-linejoin:miter;stroke-miterlimit:4;stroke-dasharray:none;stroke-opacity:1"
         d="m 824.648,517.234 c -1.097,-29.328 22.852,-61.207 25.551,-66.437 l 38.391,11.949 c 0,0 -27.891,45.309 -32.18,64.102 -8.64,0.117 -31.68,-7.813 -31.762,-9.614" /><path
         id="path3836"
         style="fill:#00b560;fill-opacity:1;fill-rule:nonzero;stroke:none"
         d="m 71.1289,784.93 2.0313,-12.258 -26.1719,-4.344 4.0625,-24.488 26.1797,4.371 2.0312,-12.262 -57.1133,-9.449 -2.0273,12.219 19.5703,3.242 -4.0703,24.5 -19.5703,-3.25 -2.0313,12.23" /><path
         id="path3838"
         style="fill:#00b560;fill-opacity:1;fill-rule:nonzero;stroke:none"
         d="m 170.738,1212.86 c 1.922,-1.25 3.09,-3 3.563,-5.23 0.469,-2.27 0.109,-4.34 -1.141,-6.21 l -18.039,-27.74 c -1.25,-1.91 -2.973,-3.08 -5.242,-3.55 -2.219,-0.47 -4.289,-0.12 -6.207,1.13 l -41.602,27.07 6.758,10.39 38.902,-25.31 13.559,20.82 -38.91,25.31 6.762,10.39" /><path
         id="path3840"
         style="fill:#00b560;fill-opacity:1;fill-rule:nonzero;stroke:none"
         d="m 396.48,1396.93 -32.5,-18.09 c -1.992,-1.09 -4.058,-1.33 -6.281,-0.7 -2.23,0.62 -3.871,1.91 -4.969,3.9 l -24.14,43.36 10.82,6.06 22.578,-40.55 28.91,16.05" /><path
         id="path3842"
         style="fill:#00b560;fill-opacity:1;fill-rule:nonzero;stroke:none"
         d="m 930.98,1402.24 -14.5,6.21 -5,21.95 -19.289,-11.56 -11.453,4.92 22.852,53.2 11.41,-4.88 -14.34,-33.36 38.641,22.93 14.488,-6.21 -30.777,-18.28" /><path
         id="path3844"
         style="fill:#00b560;fill-opacity:1;fill-rule:nonzero;stroke:none"
         d="m 1159.77,1219.74 c -1.25,-0.94 -2.7,-1.33 -4.26,-1.13 -1.56,0.23 -2.85,0.93 -3.83,2.18 l -17.5,22.74 6.29,4.88 15.78,-20.47 8.28,6.37 -12.26,15.94 c -0.94,1.25 -1.33,2.65 -1.14,4.25 0.24,1.57 0.94,2.86 2.19,3.79 l 8.16,6.29 c 1.25,0.98 2.66,1.33 4.22,1.13 1.6,-0.19 2.85,-0.93 3.83,-2.18 l 17.54,-22.74 -6.33,-4.88 -15.78,20.47 -4.61,-3.52 12.31,-15.93 c 0.93,-1.25 1.32,-2.66 1.09,-4.26 -0.2,-1.6 -0.94,-2.85 -2.19,-3.83" /><path
         id="path3846"
         style="fill:#3dc0cf;fill-opacity:1;fill-rule:nonzero;stroke:none"
         d="M 280.699,883.961 C 147.031,855.32 122.93,759.93 117.5,745.359 159.379,550.48 355.859,517.98 396.559,537.238 c 47.031,27.383 52.461,291.25 -115.86,346.723" /><path
         id="path3848"
         style="fill:#3dc0cf;fill-opacity:1;fill-rule:nonzero;stroke:none"
         d="m 1188.24,1171.73 c -83.47,65.98 -195.228,66.45 -208.709,58.63 -129.57,-136.13 -78.051,-286.09 -41.25,-306.751 52.891,-16.57 260.779,108.041 249.959,248.121" /><path
         id="path3850"
         style="fill:#3dc0cf;fill-opacity:1;fill-rule:nonzero;stroke:none"
         d="M 856.52,75.9883 C 849.102,35.9492 814.609,20.6016 742.23,26.2188 670.82,31.8086 622.379,56.6914 625.309,102.82 c 0.742,11.328 6.961,20.469 19.222,26.571 26.68,13.199 70.629,15.347 109.418,11.289 44.063,-4.649 80.973,-17.782 95.699,-39.93 5.274,-7.8906 8.161,-16.3594 6.872,-24.7617" /><path
         id="path3852"
         style="fill:#3dc0cf;fill-opacity:1;fill-rule:nonzero;stroke:none"
         d="m 952.539,167.941 c -11.949,13.09 -30.348,15.629 -30.348,15.629 0,0 37.649,-82.781 -8.75,-137.0309 5.579,-0.7891 11.25,1.9922 18.668,8.039 8.403,6.8008 40.352,50.8629 20.43,113.3629" /><path
         id="path3854"
         style="fill:#3dc0cf;fill-opacity:1;fill-rule:nonzero;stroke:none"
         d="m 471.91,518.41 c 12.891,-7.379 103.949,-13.789 103.949,-13.789 0,0 16.563,-111.332 -35.429,-122.301 -15.16,2.692 -56.52,33.942 -56.52,33.942 0,0 14.68,82.847 -38.601,91.679 15.55,4.02 12.543,3.789 26.601,10.469" /><path
         id="path3856"
         style="fill:#3dc0cf;fill-opacity:1;fill-rule:nonzero;stroke:none"
         d="m 580.551,643.371 c -5.981,-15.16 -21.801,-23.121 -35.352,-17.769 -13.558,5.308 -19.769,21.91 -13.789,37.109 5.93,15.148 21.75,23.117 35.352,17.769 13.547,-5.308 19.718,-21.91 13.789,-37.109 m -23.36,-88.281 c -3.793,-15.86 -18.32,-25.981 -32.5,-22.621 -14.179,3.359 -22.66,18.953 -18.871,34.812 3.75,15.821 18.282,25.93 32.461,22.578 14.18,-3.359 22.66,-18.91 18.91,-34.769 M 861.25,778.41 c 11.602,8.828 28.98,5.43 38.828,-7.539 9.844,-13.012 8.402,-30.66 -3.199,-39.449 -11.649,-8.832 -29.027,-5.434 -38.867,7.539 -9.852,12.969 -8.403,30.66 3.238,39.449 m 11.801,-66.84 c 5.539,-0.031 9.371,-0.031 9.41,0.039 36.519,9.77 71.211,8.789 89.879,7.539 C 946.172,767.75 855.43,851.301 742.34,841.73 593.789,832.039 492.809,698.211 482.5,536.648 c 50.98,-8.117 33.09,-9.527 90.039,-11.597 6.012,137.308 54.492,201.449 140.43,221.558 75.551,15.243 133.16,-12.3 160.082,-35.039" /><path
         id="path3858"
         style="fill:#3dc0cf;fill-opacity:1;fill-rule:nonzero;stroke:none"
         d="m 997.93,610.48 c -1.95,-89.769 69.84,-141.171 131.21,-95.859 49.18,36.328 70.98,114.02 10,139.18 -60.98,25.16 -137.85,2.769 -141.21,-43.321" /><path
         id="path3860"
         style="fill:#3dc0cf;fill-opacity:1;fill-rule:nonzero;stroke:none"
         d="m 869.301,548.328 c -4.18,25.352 31.519,25.551 31.519,25.551 L 996.641,438.84 c 0,0 -2.071,-39.488 -21.641,-33.399 -19.57,6.098 -97.621,78.09 -105.699,142.887" /><path
         id="path3862"
         style="fill:#3dc0cf;fill-opacity:1;fill-rule:nonzero;stroke:none"
         d="m 575.43,1277.2 c 62.582,13.12 54.492,67.89 51.949,79.69 -47.258,-1.18 -97.77,-12.82 -139.527,-28.01 1.367,-6.99 15.468,-67.27 87.578,-51.68" /><path
         id="path3864"
         style="fill:#3dc0cf;fill-opacity:1;fill-rule:nonzero;stroke:none"
         d="m 587.27,1181.61 c -6.719,0 -12.149,5.47 -12.149,12.19 0,6.72 5.43,12.19 12.149,12.19 6.71,0 12.14,-5.47 12.14,-12.19 0,-6.72 -5.43,-12.19 -12.14,-12.19 m 159.21,137.35 c -5.539,6.75 -20.07,20.78 -36.48,25.97 -21.289,8.05 -44.77,11.49 -70.551,11.68 3.672,-13.24 15.75,-76.29 -60,-96.44 -92.687,-19.46 -101.519,57.77 -102.109,64.22 -37.141,-14.61 -65.86,-31.76 -76.559,-45.94 -8.203,-8.63 -16.64,-23.13 -18.011,-27.11 6.14,-39.84 61.21,-97.03 71.761,-101.05 10.547,-3.99 208.629,27.38 257.699,58.16 7.891,7.69 47.848,74.8 34.25,110.51" /><path
         id="path3866"
         style="fill:#3dc0cf;fill-opacity:1;fill-rule:nonzero;stroke:none"
         d="m 703.48,683.641 c 1.598,1.25 31.79,8.828 32.649,8.679 0.391,-1.332 6.141,-10.781 5.391,-11.371 -0.7,-0.551 -30.5,-11.168 -31.911,-11.019 -0.859,0.242 -6.839,12.66 -6.129,13.711 m 15.27,31.718 c 0,0 3.09,-13.937 5.898,-22.179 0.391,-1.02 -11.796,-3.75 -11.796,-3.75 0,0 -11.172,21.75 -10.704,22.422 0.43,0.66 16.602,3.507 16.602,3.507 m 1.172,-79.57 c -4.692,-0.699 -10.621,-0.82 -12.621,2.582 7.269,12.457 8.48,30.82 8.48,30.82 0,0 3.949,2.457 8.199,2.028 2.149,-7.891 3.09,-14.219 3.442,-19.219 1.988,3.172 4.418,6.449 7.308,9.73 -3.71,4.379 -6.718,8.008 -6.57,8.321 0.238,0.66 5.82,4.918 5.82,4.918 0,0 3.481,-2.731 7.899,-6.008 5.23,4.68 11.75,9.449 19.172,14.141 -0.313,1.476 -0.621,2.5 -1.09,3.976 -7.852,24.613 -31.481,39.063 -52.77,32.274 -21.293,-6.801 -32.152,-32.313 -24.3,-56.922 5.738,-17.969 19.918,-30.469 35.39,-33.282 0.348,1.922 0.86,4.141 1.641,6.641" /><path
         id="path3868"
         style="fill:#ffffff;fill-opacity:1;fill-rule:nonzero;stroke:none"
         d="M 903.672,455.602 C 880.27,448.641 848.98,439.969 848.91,439.23 c -0.711,-7.152 -1.609,-14.3 -2.43,-21.48 20.508,3.121 60.04,-1.02 50.161,-48.129 6.058,6.168 13.91,12.34 24.14,17.231 5.309,10.347 17.66,18.898 26.949,25.859 -16.48,13.711 -26.32,21.75 -44.058,42.891" /><path
         id="path3870"
         style="fill:#ffffff;fill-opacity:1;fill-rule:nonzero;stroke:none"
         d="m 863.672,566.809 c -11.91,4.613 -23.32,8.441 -35.973,11.562 l 0,8.867 c 12.5,-0.629 21.25,-3.558 32.262,-7.808 1.801,-4.93 1.68,-4.301 3.711,-12.621" /><path
         id="path3872"
         style="fill:#ffffff;fill-opacity:1;fill-rule:nonzero;stroke:none"
         d="m 684.57,547.941 c -17.3,-18.711 -36.019,-38.32 -52.851,-56.562 -2.34,-3.75 -8.867,-1.449 -11.207,-2.34 11.207,25.699 39.718,56.602 67.808,70.152 -1.41,-3.75 -2.34,-7.5 -3.75,-11.25" /><path
         id="path3874"
         style="fill:#ffffff;fill-opacity:1;fill-rule:nonzero;stroke:none"
         d="m 752.379,536.73 c 0.281,-10.429 2.543,-19.96 5.199,-29.371 -41.449,-22.07 -30.859,-47.39 -20.699,-58.437 -8.008,-9.262 -16.18,-18.051 -25.16,-24.922 -18.707,-0.469 -38.36,0.93 -56.129,-1.41 -13.129,17.301 -17.781,42.109 -13.602,64.57 20.59,20.121 38.832,57.969 72.973,56.129 13.129,-0.469 28.559,2.352 37.418,-6.559" /><path
         id="path3876"
         style="fill:#ffffff;fill-opacity:1;fill-rule:nonzero;stroke:none"
         d="m 725.27,396.891 c 11.332,-19.262 20.16,-28.211 28.05,-50.629 -17.422,-14.141 -51.441,-42.653 -69.84,-65.121 -8.128,0.82 -12.968,0.75 -19.031,6.289 -21.988,30.39 -48.629,65 -24.758,102.89 4.18,8.91 9.329,20.121 20.079,23.399 21.05,-0.469 58.941,14.031 65.5,-16.828" /><path
         id="path3878"
         style="fill:#ffffff;fill-opacity:1;fill-rule:nonzero;stroke:none"
         d="m 869.102,336.219 c -8.512,-8.16 -36.872,-36.867 -36.872,-36.867 0,0 -10.468,-14.34 -17.929,-31.801 -3.012,-5.231 -0.082,-7.379 -3.442,-14.571 15.43,5.782 34.262,-13.589 58.442,2.192 5.23,13.359 11.679,20.898 15.308,34.258 -13.359,7.961 -14.879,25 -8.871,39.718 -2.218,2.274 -4.41,4.692 -6.636,7.071" /><path
         id="path3880"
         style="fill:#ffffff;fill-opacity:1;fill-rule:nonzero;stroke:none"
         d="m 506.988,1108.76 c -5.269,2.31 -14.609,-4.22 -16.867,-12.65 -2.23,-8.4 3.359,-15.9 8.789,-17.82 5.43,-1.91 14.328,2.23 16.559,10.63 2.261,8.44 1.172,15.62 -8.481,19.84 m 31.293,-21.21 c -0.781,-16.87 -18.281,-29.49 -39.062,-28.24 -20.778,1.25 -37.028,15.94 -36.25,32.77 0.781,16.88 18.242,29.49 39.019,28.24 20.821,-1.25 37.032,-15.93 36.293,-32.77" /><path
         id="path3882"
         style="fill:#ffffff;fill-opacity:1;fill-rule:nonzero;stroke:none"
         d="m 673.828,1133.57 c -5.816,-0.28 -15.199,-8.56 -15.039,-14.42 0.16,-5.86 5.16,-11.6 10.859,-10.11 10.551,2.69 14.301,10.15 14.141,16.01 -0.16,5.86 -4.098,8.75 -9.961,8.52 m 30.231,3.67 c 3.75,-11.21 -8.321,-27.58 -26.989,-36.6 -17.582,-8.52 -40.351,-5.71 -40.429,9.96 -0.121,13.94 12.808,24.02 26.8,30.54 17.149,7.97 35.661,10.71 40.618,-3.9" /><path
         id="path3884"
         style="fill:#ffffff;fill-opacity:1;fill-rule:nonzero;stroke:none"
         d="m 533.281,959.039 -2.89,12.961 41.211,15.82 3.789,-17.031" /><path
         id="path3886"
         style="fill:#ffffff;fill-opacity:1;fill-rule:nonzero;stroke:none"
         d="m 577.852,990.949 32.5,12.111 7.808,-20.548 -35.5,-9.653" /><path
         id="path3888"
         style="fill:#ffffff;fill-opacity:1;fill-rule:nonzero;stroke:none"
         d="m 616.52,1004.19 23.64,7.58 4.918,-20.86 -20.508,-6.289" /><path
         id="path3890"
         style="fill:#ffffff;fill-opacity:1;fill-rule:nonzero;stroke:none"
         d="m 645,1013.25 20.078,5.82 9.332,-19.879 -22.691,-5.941" /><path
         id="path3892"
         style="fill:#ffffff;fill-opacity:1;fill-rule:nonzero;stroke:none"
         d="m 672.109,1020.87 21.84,6.49 6.602,-20.24 -20.86,-6.76" /><path
         id="path3894"
         style="fill:#ffffff;fill-opacity:1;fill-rule:nonzero;stroke:none"
         d="m 525,987.391 13.359,6.218 5.512,-12.621 -13.281,-4.957" /><path
         id="path3896"
         style="fill:#ffffff;fill-opacity:1;fill-rule:nonzero;stroke:none"
         d="m 542.5,997.199 22.148,8.941 6.911,-15.742 -22.34,-7.648" /><path
         id="path3898"
         style="fill:#ffffff;fill-opacity:1;fill-rule:nonzero;stroke:none"
         d="m 569.379,1010.29 27.652,10.62 4.219,-17.3 -24.77,-9.18" /><path
         id="path3900"
         style="fill:#ffffff;fill-opacity:1;fill-rule:nonzero;stroke:none"
         d="m 602.191,1023.61 37.61,13.78 5.429,-19.37 -36.011,-11.88" /><path
         id="path3902"
         style="fill:#ffffff;fill-opacity:1;fill-rule:nonzero;stroke:none"
         d="m 644.262,1039.62 39.918,12.38 6.761,-19.21 -39.73,-12.66" /><path
         id="path3904"
         style="fill:#ffffff;fill-opacity:1;fill-rule:nonzero;stroke:none"
         d="m 856.129,538.02 c 0,0 -2.77,5.308 -1.68,18.628 -21.871,9.063 -8.98,8.133 -32.34,12.352 -20.629,-4.219 -40.269,-11.68 -57.539,-24.77 -3.711,-11.05 -2.66,-22.808 0.469,-34.14 42.539,19.262 91.09,27.93 91.09,27.93" /><path
         id="path3906"
         style="fill:#ffffff;fill-opacity:1;fill-rule:nonzero;stroke:none"
         d="m 43.1211,826.609 -17.2227,-8.199 18.1211,-5.859 -0.8984,14.058 z m 23.207,25.469 0.9024,-14.137 -12.8907,-6.011 1.4415,-23.25 13.5585,-4.45 0.8907,-14.058 -59.25,19.449 L 10,825.32" /><path
         id="path3908"
         style="fill:#ffffff;fill-opacity:1;fill-rule:nonzero;stroke:none"
         d="M 69.2188,919.969 68.6289,907.59 39.7305,908.961 67.9688,893.531 67.5,883.609 37.9297,870.949 66.8398,869.578 66.25,857.199 8.39844,859.93 l 0.62109,12.39 40.16017,16.95 -38.3984,21.05 0.5898,12.391" /><path
         id="path3910"
         style="fill:#ffffff;fill-opacity:1;fill-rule:nonzero;stroke:none"
         d="m 64.6484,966.141 -14.8789,2.308 -3.789,-24.527 14.8789,-2.313 3.789,24.532 z m -26.25,4.07 -8.2382,1.25 -3.7891,-24.531 8.2383,-1.25 3.789,24.531 z m 31.3321,7.687 c 2.2187,-0.347 4.0195,-1.437 5.3906,-3.277 1.3594,-1.871 1.8672,-3.91 1.5195,-6.172 l -6.289,-40.859 -57.2618,8.832 6.3204,40.898 c 0.3593,2.219 1.4492,4.02 3.289,5.391 1.8711,1.328 3.9024,1.828 6.1289,1.48 l 9.0235,-1.371 c 2.2265,-0.351 4.0273,-1.441 5.3867,-3.281 1.3711,-1.867 1.8398,-3.898 1.5312,-6.168 0.3086,2.27 1.4414,4.059 3.2813,5.391 1.8711,1.367 3.8984,1.879 6.1289,1.558" /><path
         id="path3912"
         style="fill:#ffffff;fill-opacity:1;fill-rule:nonzero;stroke:none"
         d="m 83.6719,1034.46 c 2.1875,-0.58 3.8672,-1.83 5.039,-3.82 1.168,-1.96 1.4883,-4.07 0.9375,-6.25 l -8.1679,-32.07 c -0.5391,-2.191 -1.7891,-3.871 -3.7813,-5.039 -2,-1.172 -4.0703,-1.492 -6.25,-0.941 l -48.1289,12.23 3.0899,12.03 44.9609,-11.409 6.1289,24.019 -45,11.45 3.0898,12.03" /><path
         id="path3914"
         style="fill:#ffffff;fill-opacity:1;fill-rule:nonzero;stroke:none"
         d="m 70.7383,1087.79 -7.8477,2.81 -8.4023,-23.36 7.8515,-2.81 8.3985,23.36 z m 39.9997,-1.22 -4.179,-11.68 -25.0004,8.99 -8.3984,-23.36 25,-8.98 -4.1797,-11.68 -54.4922,19.6 13.9531,38.91 c 0.7774,2.15 2.2188,3.67 4.2891,4.69 2.0703,0.98 4.1797,1.05 6.3281,0.31 l 8.5625,-3.08 c 2.1094,-0.79 3.668,-2.19 4.6484,-4.26 0.9688,-2.11 1.0899,-4.18 0.3086,-6.33 0.7813,2.15 2.1914,3.67 4.3008,4.69 2.0703,0.97 4.1719,1.05 6.2813,0.31" /><path
         id="path3916"
         style="fill:#ffffff;fill-opacity:1;fill-rule:nonzero;stroke:none"
         d="m 134.922,1138.68 -17.652,-37.42 c -0.942,-2.03 -2.54,-3.44 -4.692,-4.22 -2.148,-0.78 -4.258,-0.66 -6.328,0.28 l -37.3789,17.65 c -2.0313,0.98 -3.4414,2.54 -4.2227,4.69 -0.7773,2.19 -0.6992,4.3 0.2735,6.33 l 17.6562,37.42 10.3907,-4.92 -15.8985,-33.67 31.5587,-14.89 10.59,22.43 -13.598,6.44 -7.0702,-14.96 -10.3906,4.88 12.3518,26.21" /><path
         id="path3918"
         style="fill:#ffffff;fill-opacity:1;fill-rule:nonzero;stroke:none"
         d="m 210.59,1250.36 -23.09,-29.18 c -1.41,-1.79 -3.281,-2.81 -5.551,-3.04 -2.258,-0.28 -4.289,0.27 -6.09,1.68 l -38.949,30.78 7.699,9.72 36.411,-28.78 20.539,25.97" /><path
         id="path3920"
         style="fill:#ffffff;fill-opacity:1;fill-rule:nonzero;stroke:none"
         d="m 201.762,1309.78 -11.84,-13.28 34.609,-30.9 -8.281,-9.26 -34.609,30.9 -12.93,-14.49 -8.59,7.65 33.039,37.03" /><path
         id="path3922"
         style="fill:#ffffff;fill-opacity:1;fill-rule:nonzero;stroke:none"
         d="m 243.32,1337.67 -5.699,6.13 -18.172,-16.87 5.672,-6.14 18.199,16.88 z m 34.961,-19.49 -9.101,-8.44 -18.051,19.49 -18.199,-16.87 18.05,-19.5 -9.14,-8.4 -39.34,42.47 30.352,28.12 c 1.679,1.52 3.628,2.27 5.937,2.15 2.301,-0.08 4.223,-0.94 5.781,-2.62 l 6.168,-6.68 c 1.532,-1.64 2.274,-3.63 2.153,-5.94 -0.082,-2.3 -0.942,-4.21 -2.621,-5.74 1.679,1.53 3.64,2.27 5.941,2.15 2.309,-0.08 4.219,-0.94 5.777,-2.62" /><path
         id="path3924"
         style="fill:#ffffff;fill-opacity:1;fill-rule:nonzero;stroke:none"
         d="m 297.621,1364.46 -16.332,9.89 5.082,-18.36 11.25,8.47 z m 34.059,-5.31 -11.328,-8.51 -12.114,7.42 -18.629,-14.02 3.75,-13.75 -11.25,-8.48 -16.328,60.15 12.539,9.5" /><path
         id="path3926"
         style="fill:#ffffff;fill-opacity:1;fill-rule:nonzero;stroke:none"
         d="M 445.121,1418.96 411.09,1403.8 c -2.07,-0.9 -4.18,-0.94 -6.32,-0.12 -2.11,0.82 -3.68,2.27 -4.571,4.34 l -16.84,37.77 c -0.937,2.07 -0.98,4.18 -0.16,6.33 0.821,2.15 2.27,3.67 4.34,4.61 l 34.02,15.12 4.652,-10.51 -30.191,-13.44 3.39,-7.65 30.199,13.47 4.692,-10.51 -30.242,-13.47 6.14,-13.75 30.231,13.47" /><path
         id="path3928"
         style="fill:#ffffff;fill-opacity:1;fill-rule:nonzero;stroke:none"
         d="m 499.449,1437.82 -39.179,-13.24 c -2.149,-0.74 -4.219,-0.58 -6.29,0.43 -2.07,1.02 -3.468,2.62 -4.179,4.77 l -13.281,39.18 c -0.7,2.15 -0.54,4.22 0.468,6.29 1.024,2.07 2.621,3.47 4.731,4.18 l 39.179,13.24 3.711,-10.9 -35.269,-11.91 11.172,-33.05 23.508,7.93 -4.801,14.26 -15.699,-5.28 -3.68,10.86 27.43,9.3" /><path
         id="path3930"
         style="fill:#ffffff;fill-opacity:1;fill-rule:nonzero;stroke:none"
         d="m 551.289,1450.4 -36.25,-8.59 c -2.187,-0.51 -4.258,-0.2 -6.211,1.01 -1.949,1.22 -3.207,2.93 -3.75,5.12 l -9.527,40.24 c -0.551,2.18 -0.199,4.29 1.008,6.25 1.211,1.95 2.89,3.2 5.121,3.71 l 36.211,8.59 2.66,-11.17 -32.192,-7.66 1.911,-8.12 32.191,7.65 2.699,-11.17 -32.23,-7.65 3.519,-14.65 32.18,7.65" /><path
         id="path3932"
         style="fill:#ffffff;fill-opacity:1;fill-rule:nonzero;stroke:none"
         d="m 608.09,1458.96 -12.27,-1.76 -29.449,30.9 4.879,-34.38 -12.301,-1.76 -8.129,57.35 12.301,1.72 29.418,-30.86 -4.84,34.37 12.262,1.72" /><path
         id="path3934"
         style="fill:#ffffff;fill-opacity:1;fill-rule:nonzero;stroke:none"
         d="m 652.539,1472.86 -1.641,34.89 -24.769,-1.14 1.601,-34.88 24.809,1.13 z m 12.539,-2.65 c 0.082,-2.27 -0.629,-4.22 -2.187,-5.94 -1.563,-1.68 -3.442,-2.58 -5.7,-2.7 l -41.332,-1.91 -2.66,57.85 41.332,1.92 c 2.231,0.07 4.219,-0.63 5.938,-2.19 1.679,-1.53 2.582,-3.44 2.691,-5.7" /><path
         id="path3936"
         style="fill:#ffffff;fill-opacity:1;fill-rule:nonzero;stroke:none"
         d="m 710.121,1484.89 -6.141,18.09 -7.929,-17.3 14.07,-0.79 z m 22.609,-25.97 -14.14,0.74 -4.488,13.52 -23.282,1.25 -5.98,-12.93 -14.059,0.74 26.25,56.56 15.668,-0.82" /><path
         id="path3938"
         style="fill:#ffffff;fill-opacity:1;fill-rule:nonzero;stroke:none"
         d="m 780.551,1489.89 1.289,8.29 -24.5,3.82 -1.289,-8.28 24.5,-3.83 z m 6.398,-39.49 -12.258,1.92 4.098,26.25 -24.527,3.82 -4.102,-26.25 -12.23,1.92 8.91,57.23 40.859,-6.41 c 2.262,-0.35 4.063,-1.45 5.391,-3.28 1.359,-1.88 1.871,-3.95 1.519,-6.17 l -1.41,-8.99 c -0.347,-2.23 -1.437,-4.02 -3.32,-5.39 -1.828,-1.37 -3.899,-1.84 -6.129,-1.48 2.23,-0.36 4.02,-1.49 5.391,-3.32 1.371,-1.88 1.879,-3.91 1.519,-6.14" /><path
         id="path3940"
         style="fill:#ffffff;fill-opacity:1;fill-rule:nonzero;stroke:none"
         d="m 865.27,1490.29 -30,-24.61 -6.75,-25.59 -12,3.16 6.761,25.59 -14.019,36.17 15.226,-3.98 8.172,-20.9 17.379,14.14" /><path
         id="path3942"
         style="fill:#ffffff;fill-opacity:1;fill-rule:nonzero;stroke:none"
         d="m 949.02,1392.43 -11.051,5.71 26.441,51.48 11.059,-5.66" /><path
         id="path3944"
         style="fill:#ffffff;fill-opacity:1;fill-rule:nonzero;stroke:none"
         d="m 995.59,1365.64 -31.961,19.02 c -1.949,1.13 -3.199,2.85 -3.789,5.08 -0.539,2.22 -0.27,4.3 0.898,6.25 l 21.141,35.55 c 1.133,1.95 2.851,3.2 5.07,3.78 2.231,0.55 4.301,0.28 6.25,-0.89 l 32.001,-19.03 -5.86,-9.88 -28.442,16.91 -17.847,-30 28.429,-16.91" /><path
         id="path3946"
         style="fill:#ffffff;fill-opacity:1;fill-rule:nonzero;stroke:none"
         d="m 1046.25,1329.23 -12.7,9.34 0.08,22.54 -21.4,-6.92 -10.04,7.35 34.22,46.71 10.04,-7.34 -21.49,-29.3 42.81,13.64 12.7,-9.3 -34.1,-10.86" /><path
         id="path3948"
         style="fill:#ffffff;fill-opacity:1;fill-rule:nonzero;stroke:none"
         d="m 1086.13,1293.92 -27.81,24.76 c -1.68,1.49 -2.58,3.4 -2.73,5.71 -0.12,2.3 0.58,4.29 2.07,5.97 l 27.54,30.86 c 1.48,1.68 3.39,2.62 5.7,2.74 2.26,0.11 4.26,-0.55 5.98,-2.07 l 27.77,-24.73 -7.66,-8.59 -24.69,21.99 -5.58,-6.21 24.73,-22.03 -7.66,-8.6 -24.69,22.03 -10.04,-11.25 24.69,-22.03" /><path
         id="path3950"
         style="fill:#ffffff;fill-opacity:1;fill-rule:nonzero;stroke:none"
         d="m 1145.08,1287.2 6.09,5.7 -16.95,18.17 -6.1,-5.71 16.96,-18.16 z m -19.34,-35.04 -8.47,9.1 19.41,18.09 -16.95,18.16 -19.42,-18.12 -8.47,9.06 42.34,39.53 28.2,-30.23 c 1.57,-1.68 2.31,-3.64 2.23,-5.94 -0.08,-2.31 -0.94,-4.22 -2.62,-5.74 l -6.64,-6.25 c -1.64,-1.53 -3.63,-2.27 -5.94,-2.19 -2.3,0.08 -4.21,0.94 -5.74,2.62 1.53,-1.68 2.27,-3.64 2.19,-5.94 -0.08,-2.31 -0.94,-4.22 -2.62,-5.78" /></g></g></svg>