<?xml version="1.0" encoding="UTF-8" standalone="no"?>
<!-- Created with Inkscape (http://www.inkscape.org/) -->

<svg
   xmlns:dc="http://purl.org/dc/elements/1.1/"
   xmlns:cc="http://creativecommons.org/ns#"
   xmlns:rdf="http://www.w3.org/1999/02/22-rdf-syntax-ns#"
   xmlns:svg="http://www.w3.org/2000/svg"
   xmlns="http://www.w3.org/2000/svg"
   xmlns:sodipodi="http://sodipodi.sourceforge.net/DTD/sodipodi-0.dtd"
   xmlns:inkscape="http://www.inkscape.org/namespaces/inkscape"
   id="svg2"
   version="1.1"
   inkscape:version="0.91 r13725"
   xml:space="preserve"
   width="622.5"
   height="278.75"
   viewBox="0 0 622.5 278.75"
   sodipodi:docname="Nao-Team HTWK.svg"><metadata
     id="metadata8"><rdf:RDF><cc:Work
         rdf:about=""><dc:format>image/svg+xml</dc:format><dc:type
           rdf:resource="http://purl.org/dc/dcmitype/StillImage" /><dc:title /></cc:Work></rdf:RDF></metadata><defs
     id="defs6" /><sodipodi:namedview
     pagecolor="#ffffff"
     bordercolor="#666666"
     borderopacity="1"
     objecttolerance="10"
     gridtolerance="10"
     guidetolerance="10"
     inkscape:pageopacity="0"
     inkscape:pageshadow="2"
     inkscape:window-width="1366"
     inkscape:window-height="710"
     id="namedview4"
     showgrid="false"
     inkscape:zoom="0.54618474"
     inkscape:cx="-27.463235"
     inkscape:cy="139.375"
     inkscape:window-x="0"
     inkscape:window-y="27"
     inkscape:window-maximized="1"
     inkscape:current-layer="g10" /><g
     id="g10"
     inkscape:groupmode="layer"
     inkscape:label="ink_ext_XXXXXX"
     transform="matrix(1.25,0,0,-1.25,0,278.75)"><g
       id="g12"
       transform="scale(0.1,0.1)"
       style="fill:#360090;fill-opacity:1"><path
         d="m 3385.55,203.34 0,193.359 31.01,0 c 17.03,0 32.39,-4.179 34.06,-9.258 1.96,-6.019 13.21,-5.39 31.88,1.758 20.04,7.692 39.3,8.403 63.09,2.379 48.71,-12.379 70.58,-53.59 70.58,-132.93 0,-101.757 -49.02,-155.976 -130.97,-144.839 l -36.14,4.921 0,-108.7105 -63.51,0 0,193.3205 z m 144.57,-21.762 c 13.98,18.012 18.79,37.582 18.79,76.211 0,81.063 -31.88,112.5 -79.65,78.563 -18.13,-12.891 -20.2,-22.231 -20.2,-91.332 0,-52.969 3.56,-78.399 11.37,-81.598 27.07,-11.102 52.03,-4.57 69.69,18.156 z M 4023.16,16.5 c -15.86,3.0898 -20.43,10.2813 -20.43,32.0313 0,24.8085 2.39,27.3476 20.43,21.9179 57.86,-17.4609 86.29,-16.6406 105.59,2.9297 10.59,10.6992 19.22,29.2501 19.22,41.2111 0,20.781 -1.6,21.332 -35.31,12.191 -82.46,-22.312 -133.09,26.789 -131.96,128.039 0.75,65.391 25.63,115.469 65.24,131.168 13.67,5.434 56.87,9.774 95.97,9.653 l 71.06,-0.192 -3.01,-158.211 C 4206.64,61.4609 4200,39 4146.02,19.8984 4118.52,10.1719 4063.36,8.64844 4023.16,16.5 Z m 101.68,160.711 c 22.07,10.187 23.13,14.168 23.13,86.48 0,60.618 -2.89,76.911 -14.38,81.368 -28,10.929 -48.08,5.312 -66.64,-18.637 -34.72,-44.801 -18.83,-159.883 22.11,-159.883 6.96,0 23.09,4.813 35.78,10.672 z m -1365.58,122.809 0,188.75 72.62,0 0,-331.45 72.61,0 c 71.41,0 72.62,-0.39 72.62,-23.011 l 0,-23.039 -217.85,0 0,188.75 z M 3070.9,117.172 c -73.52,16.476 -106.72,143.629 -59.14,226.437 39.61,68.95 164.26,70.672 196.05,2.743 7.89,-16.883 14.34,-45.59 14.34,-63.832 l 0,-33.129 -172.77,0 5.89,-25.313 c 8.36,-35.976 39.03,-66.758 66.37,-66.719 12.85,0 36.76,8.282 53.09,18.403 39.88,24.687 47.42,23.238 47.42,-8.91 0,-18.243 -6.25,-30.704 -18.91,-37.571 -21.17,-11.492 -102.11,-18.91 -132.34,-12.109 z m 87.73,191.398 c 0,37.071 -53.4,54.258 -83.24,26.84 -30.62,-28.09 -20.7,-40 33.32,-40 37.23,0 49.92,3.36 49.92,13.16 z m 99.85,-54.57 0,142.699 63.51,0 0,-285.429 -63.51,0 0,142.73 z m 381.4,-121.988 c 0.12,11.367 26.68,64.218 58.99,117.379 l 58.75,96.679 -54.42,2.739 c -51.01,2.57 -54.45,4.179 -54.45,25.312 0,22.457 0.47,22.578 90.78,22.578 l 90.74,0 0,-23.75 c 0,-13.051 -24.49,-64.179 -54.45,-113.64 -29.96,-49.411 -54.45,-92.61 -54.45,-95.93 0,-3.32 26.56,-6.059 58.98,-6.059 56.92,0 59.03,-0.82 59.03,-23.011 l 0,-23.039 -99.85,0 c -97.58,0 -99.84,0.468 -99.65,20.742 z M 3866.6,254 l 0,142.699 63.52,0 0,-285.429 -63.52,0 0,142.73 z M 994.379,128.879 c -2.82,4.609 44.961,56.332 106.131,114.93 109.61,105.043 111.83,106.601 154.33,106.722 23.71,0.071 43.09,-3.992 43.09,-9.07 0,-5.039 -28.91,-56.832 -64.3,-115.082 l -64.29,-105.891 -84.93,0 c -46.71,0 -87.219,3.793 -90.031,8.391 z m 421.601,16.922 c 0.04,3.789 29.72,54.57 65.97,112.808 l 65.94,105.86 48.44,12.07 c 26.68,6.602 50.78,9.691 53.59,6.84 5.7,-5.777 -29.65,-196.801 -38.01,-205.238 -5.15,-5.27 -162.34,-38.43 -184.64,-38.942 -6.22,-0.16 -11.33,2.813 -11.29,6.602 z m -711.8,39.258 c -24.532,9.722 -48.52,21.601 -53.239,26.441 -5.472,5.551 44.957,44.961 137.219,107.352 l 145.86,98.589 34.46,-13.953 c 18.981,-7.687 34.49,-17.648 34.49,-22.179 0,-4.528 -48.279,-54.731 -107.271,-111.528 C 824.57,201.27 781.801,166.66 768.629,166.969 c -10.899,0.242 -39.879,8.359 -64.449,18.09 z m 1183.59,81.293 c -0.07,8.386 6.76,55.617 15.2,104.957 l 15.31,89.722 48.71,18.481 c 26.76,10.16 54.18,18.476 60.86,18.476 10.59,0 77.89,-141.058 77.89,-163.207 0,-8.242 -72.03,-37.422 -165.62,-67.152 -48.13,-15.27 -52.23,-15.348 -52.35,-1.277 z m -1428.469,82.527 -35.391,43.051 80.738,38.48 c 44.454,21.129 120.582,56.012 169.262,77.461 85.969,37.969 88.942,38.59 106.641,22.379 10,-9.18 18.199,-19.57 18.199,-23.039 0,-7.539 -287.34,-202.859 -297.23,-202 -3.75,0.32 -22.77,19.961 -42.219,43.668 z M 3258.48,461.148 c 0,26.09 1.99,27.622 36.29,27.622 34.29,0 36.32,-1.532 36.32,-27.622 0,-26.089 -2.03,-27.617 -36.32,-27.617 -34.3,0 -36.29,1.528 -36.29,27.617 z m 608.12,0 c 0,26.09 1.99,27.622 36.29,27.622 34.3,0 36.33,-1.532 36.33,-27.622 0,-26.089 -2.03,-27.617 -36.33,-27.617 -34.3,0 -36.29,1.528 -36.29,27.617 z m -1506.17,11.524 c -4.45,11.367 -20.31,50.359 -35.23,86.637 l -27.15,65.902 108.36,58.598 86.09,-57.618 c 69.73,-46.601 83.87,-59.769 74.34,-69.062 -12.97,-12.617 -181.96,-105.199 -192.04,-105.199 -3.47,0 -9.92,9.34 -14.37,20.742 z m -1991.168,59.93 c -2.114,3.75 -6.563,32.378 -9.922,63.589 l -6.102,56.797 48.051,13.821 c 183.672,53.011 290.121,79.851 297.77,75.043 4.89,-3.043 8.91,-18.942 8.91,-35.274 0,-29.367 -1.489,-30.387 -136.52,-92.148 C 387.621,530.328 373.711,524.711 369.262,532.602 Z M 474.84,916.578 c -71.36,31.481 -78.789,160.472 -12.34,214.262 16.559,13.4 60.941,26.05 120.66,34.37 48.32,6.76 54.77,20.71 23.91,52 -16.211,16.44 -26.332,18.67 -65.781,14.25 -25.629,-2.85 -57.848,-7.93 -71.559,-11.33 -23.679,-5.82 -24.96,-4.41 -24.96,26.18 0,38.86 8.429,43.24 95.269,49.68 76.723,5.67 126.563,-9.25 153.441,-45.97 17.219,-23.52 19.329,-40.94 22.219,-181.88 l 3.172,-155.859 -46.293,0 c -25.469,0 -46.289,3.949 -46.289,8.75 0,4.809 -14.18,2.739 -31.488,-4.609 -39.102,-16.563 -82.223,-16.524 -119.961,0.156 z m 121.961,69.262 c 28.078,17.38 29.488,20.94 29.488,74.37 l 0,56.1 -29.488,-6.45 c -41.211,-8.98 -76.211,-28.44 -82.891,-46.05 -16.058,-42.5 5.699,-96.29 38.899,-96.208 7.972,0 27.742,8.238 43.992,18.238 z M 862.66,915.129 c -19.73,6.883 -41.68,25.832 -59.031,50.902 -26.359,38.129 -27.578,44.139 -27.578,133.519 0,82.81 2.5,97.66 21.801,129.18 49.808,81.29 177.738,94.76 248.558,26.21 54.1,-52.34 66.32,-186.21 24.96,-272.889 -32.62,-68.36 -122.39,-97.153 -208.71,-66.922 z m 106.168,66.492 c 23.793,16.91 38.552,66.049 38.592,128.629 0.08,89.96 -52.19,145.98 -104.022,111.53 -33.597,-22.35 -43.089,-55 -39.57,-136.14 2.582,-59.61 6.481,-74.37 25,-94.37 25,-26.961 51.172,-30.122 80,-9.649 z m 801.092,-67.769 c -69.57,19.878 -108.98,86.318 -108.87,183.668 0.16,142.42 77.23,216.68 204.73,197.26 70.39,-10.7 112.89,-78.59 112.89,-180.39 l 0,-27.15 -237.19,0 5.75,-20.74 c 26.75,-96.328 78.12,-121.09 166.64,-80.352 21.75,10.043 43.2,18.202 47.65,18.202 4.46,0 8.09,-16.401 8.09,-36.44 0,-35.98 -0.66,-36.68 -47.03,-50.672 -52.58,-15.816 -105.12,-16.988 -152.66,-3.386 z m 118.01,256.678 c 0,32.42 -34.92,73.24 -62.62,73.24 -26.01,0 -63.43,-36.56 -73.08,-71.37 l -8.28,-29.92 143.98,0 0,28.05 z m 175.31,-253.952 c -71.36,31.481 -78.79,160.472 -12.38,214.262 16.6,13.4 60.98,26.05 120.7,34.37 48.32,6.76 54.77,20.71 23.91,52 -16.25,16.44 -26.33,18.67 -65.78,14.25 -25.67,-2.85 -57.85,-7.93 -71.6,-11.33 -23.64,-5.82 -24.97,-4.41 -24.97,26.18 0,38.86 8.44,43.24 95.32,49.68 76.68,5.67 126.56,-9.25 153.44,-45.97 17.18,-23.52 19.33,-40.94 22.18,-181.88 l 3.21,-155.859 -46.29,0 c -25.47,0 -46.29,3.949 -46.29,8.75 0,4.809 -14.18,2.739 -31.49,-4.609 -39.1,-16.563 -82.22,-16.524 -119.96,0.156 z m 121.92,69.262 c 28.08,17.38 29.53,20.94 29.53,74.37 l 0,56.1 -29.53,-6.45 c -41.18,-8.98 -76.18,-28.44 -82.86,-46.05 -16.05,-42.5 5.67,-96.29 38.91,-96.208 7.93,0 27.74,8.238 43.95,18.238 z M 0,1160.88 l 0,248.59 113.711,0 78.75,-158.79 78.789,-158.83 0.512,158.83 0.539,158.79 90.75,0 0,-497.189 -99.731,0 -90.351,181.879 -90.3088,181.83 -0.4688,-181.83 -0.5117,-181.879 -81.6797,0 0,248.599 z m 1470.39,-32.23 0,216.41 -145.23,0 0,64.41 390.31,0 0,-64.41 -154.3,0 0,-432.779 -90.78,0 0,216.369 z m 898.59,-27.62 0,188.75 45.36,0 c 24.96,0 45.39,-4.25 45.39,-9.41 0,-5.27 12.69,-2.81 28.75,5.62 34.76,18.21 100.19,13.29 124.96,-9.45 15.78,-14.49 18.98,-14.3 51.68,3.52 65.11,35.39 131.95,20.19 159.92,-36.45 13.16,-26.6 15.9,-57.65 15.9,-181.68 l 0,-149.649 -90.74,0 0,150.079 c 0,153.95 -3.91,172.19 -36.92,172.19 -8.32,0 -25.86,-8.59 -39.02,-19.06 l -23.91,-19.11 0,-284.099 -90.78,0 0,143.319 c 0,181.45 -10.86,205.12 -73.48,159.93 l -26.36,-19.07 0,-284.179 -90.75,0 0,188.749 z m 780.55,59.85 0,248.59 90.78,0 0,-193.32 181.53,0 0,193.32 90.78,0 0,-497.189 -90.78,0 0,239.419 -181.53,0 0,-239.419 -90.78,0 0,248.599 z m 553.67,-32.23 0,216.41 -145.19,0 0,64.41 390.27,0 0,-64.41 -154.3,0 0,-432.779 -90.78,0 0,216.369 z m 318.44,16.17 c -32.03,127.85 -60.08,239.69 -62.3,248.56 -3.52,13.75 2.57,16.09 41.71,16.09 35.86,0 46.88,-3.51 50.51,-16.09 2.54,-8.87 19.3,-80.35 37.19,-158.83 17.93,-78.48 35.86,-150.86 39.88,-160.82 5.28,-13.17 15.39,17.11 36.84,110.47 16.25,70.74 34.49,149.33 40.58,174.65 l 11.06,46.05 46.64,2.73 46.64,2.78 9.18,-35 c 5.04,-19.22 23.98,-99.18 42.11,-177.7 28.67,-124.41 40.43,-166.33 40.43,-144.41 0,7.15 71.13,317.07 78.05,340.08 3.75,12.42 14.84,16.09 48.51,16.09 l 43.67,0 -60.66,-246.29 -60.7,-246.289 -50.86,-2.731 -50.82,-2.738 -38.32,163.868 c -21.1,90.12 -41.21,169.38 -44.73,176.09 -5.86,11.29 -25.74,-63.82 -69.61,-263.118 l -16.76,-75.981 -50,0.078 -50,0.039 -58.24,232.422 z m 598.32,16.06 0,248.59 90.12,0 2.58,-98.94 2.57,-98.99 76.22,98.99 76.21,98.94 48.59,0 c 26.72,0 48.52,-3.09 48.44,-6.87 -0.08,-3.83 -38.99,-54.03 -86.41,-111.64 -57.3,-69.58 -83.48,-108.21 -78.01,-115.08 31.37,-39.57 173.68,-248.79 173.68,-255.392 0,-4.5 -22.04,-8.207 -48.99,-8.207 l -48.94,0 -74.61,107.069 c -54.65,78.52 -76.68,103.71 -82.5,94.38 -4.34,-6.95 -7.97,-55.16 -8.05,-107.07 l -0.16,-94.379 -90.74,0 0,248.599 z m -3494.49,-32.23 0,32.23 217.85,0 0,-64.42 -217.85,0 0,32.19 z m 2015,482.27 c 0,14.57 5.27,30.93 11.72,36.36 17.15,14.42 331.64,158.13 346.09,158.13 15,0 29.42,-98.91 16.33,-112.15 -7.27,-7.38 -346.99,-107.77 -367.34,-108.55 -3.72,-0.16 -6.8,11.64 -6.8,26.21 z m -1770.16,59.25 c -111.05,72.66 -120.62,81.06 -107.19,94.18 13.44,13.13 182.23,105.51 192.74,105.51 7.66,0 64.76,-122.34 73.4,-157.38 5.31,-21.37 0.86,-26.29 -47.11,-52.19 l -52.97,-28.63 -58.87,38.51 z m 1684.03,131.76 c -9.42,14.61 -12.11,26.49 -6.72,29.92 4.88,3.17 79.22,53.28 165.23,111.33 l 156.37,105.55 39.92,-42.89 c 21.95,-23.56 39.92,-46.37 39.92,-50.67 0,-8.9 -50.47,-35.04 -229.49,-118.82 -68.79,-32.23 -130.62,-58.56 -137.38,-58.56 -6.72,0 -19.26,10.86 -27.85,24.14 z m -1278.56,66.6 c -13.24,29.89 -29.96,71.33 -37.23,92.19 -11.99,34.49 -11.75,38.59 2.31,46.06 25.43,13.51 190.82,74.84 201.84,74.84 6.25,0 8.28,-9.77 5.27,-25.31 -2.74,-13.95 -11.72,-64.14 -20,-111.53 l -15.08,-86.21 -37.46,-16.4 c -75.23,-32.93 -73.2,-33.48 -99.65,26.36 z m 1079.49,59.5 c -14.92,11.05 -5.5,22.57 107.5,131.21 68.13,65.47 130.2,120.47 137.93,122.18 15.39,3.4 119.22,-33.43 126.14,-44.76 6.44,-10.59 -313.01,-220.78 -335.59,-220.78 -10.78,0 -26.95,5.47 -35.98,12.15 z m -676.91,11.28 c 0,9.22 38.24,219.89 40.43,222.74 3.71,4.8 181.01,39.26 202.07,39.26 29.06,0 27.62,-3.68 -53.63,-135.71 -37.27,-60.58 -73.17,-108.55 -84.53,-112.93 -30.75,-11.83 -104.34,-21.29 -104.34,-13.36 z m 372.15,41.29 c 0,5.24 32.89,63.25 73.12,128.91 l 73.13,119.41 80.43,0 c 44.22,0 87.26,-2.65 95.62,-5.93 11.88,-4.61 -11.33,-32.89 -105.78,-128.87 l -120.98,-123.01 -47.77,0 c -26.76,0 -47.77,4.18 -47.77,9.49"
         style="fill:#360090;fill-opacity:1;fill-rule:nonzero;stroke:none"
         id="path14"
         inkscape:connector-curvature="0" /></g></g></svg>